<?xml version="1.0" encoding="utf-8" standalone="no"?>
<!DOCTYPE svg PUBLIC "-//W3C//DTD SVG 1.1//EN"
  "http://www.w3.org/Graphics/SVG/1.1/DTD/svg11.dtd">
<svg xmlns:xlink="http://www.w3.org/1999/xlink" width="529.063281pt" height="272.797641pt" viewBox="0 0 529.063281 272.797641" xmlns="http://www.w3.org/2000/svg" version="1.1">
 <metadata>
  <rdf:RDF xmlns:dc="http://purl.org/dc/elements/1.1/" xmlns:cc="http://creativecommons.org/ns#" xmlns:rdf="http://www.w3.org/1999/02/22-rdf-syntax-ns#">
   <cc:Work>
    <dc:type rdf:resource="http://purl.org/dc/dcmitype/StillImage"/>
    <dc:date>2026-01-12T15:42:43.977799</dc:date>
    <dc:format>image/svg+xml</dc:format>
    <dc:creator>
     <cc:Agent>
      <dc:title>Matplotlib v3.9.2, https://matplotlib.org/</dc:title>
     </cc:Agent>
    </dc:creator>
   </cc:Work>
  </rdf:RDF>
 </metadata>
 <defs>
  <style type="text/css">*{stroke-linejoin: round; stroke-linecap: butt}</style>
 </defs>
 <g id="figure_1">
  <g id="patch_1">
   <path d="M 0 272.797641 
L 529.063281 272.797641 
L 529.063281 0 
L 0 0 
L 0 272.797641 
z
" style="fill: none"/>
  </g>
  <g id="axes_1">
   <g id="patch_2">
    <path d="M 49.590813 228.96 
L 272.790813 228.96 
L 272.790813 7.2 
L 49.590813 7.2 
L 49.590813 228.96 
z
" style="fill: none"/>
   </g>
   <g id="line2d_1">
    <path d="M 60.750813 204.00843 
L 150.030813 204.00843 
L 150.030813 182.742349 
L 60.750813 182.742349 
L 60.750813 204.00843 
" clip-path="url(#p62693f05a8)" style="fill: none; stroke: #1a1a1a; stroke-width: 1.5; stroke-linecap: round"/>
   </g>
   <g id="line2d_2">
    <path d="M 105.390813 204.00843 
L 105.390813 218.219528 
" clip-path="url(#p62693f05a8)" style="fill: none; stroke: #1a1a1a; stroke-width: 1.5"/>
   </g>
   <g id="line2d_3">
    <path d="M 105.390813 182.742349 
L 105.390813 177.373737 
" clip-path="url(#p62693f05a8)" style="fill: none; stroke: #1a1a1a; stroke-width: 1.5"/>
   </g>
   <g id="line2d_4">
    <path d="M 83.070813 218.219528 
L 127.710813 218.219528 
" clip-path="url(#p62693f05a8)" style="fill: none; stroke: #1a1a1a; stroke-width: 1.5; stroke-linecap: round"/>
   </g>
   <g id="line2d_5">
    <path d="M 83.070813 177.373737 
L 127.710813 177.373737 
" clip-path="url(#p62693f05a8)" style="fill: none; stroke: #1a1a1a; stroke-width: 1.5; stroke-linecap: round"/>
   </g>
   <g id="line2d_6"/>
   <g id="line2d_7">
    <path d="M 172.350813 165.587371 
L 261.630813 165.587371 
L 261.630813 95.980842 
L 172.350813 95.980842 
L 172.350813 165.587371 
" clip-path="url(#p62693f05a8)" style="fill: none; stroke: #1a1a1a; stroke-width: 1.5; stroke-linecap: round"/>
   </g>
   <g id="line2d_8">
    <path d="M 216.990813 165.587371 
L 216.990813 188.655153 
" clip-path="url(#p62693f05a8)" style="fill: none; stroke: #1a1a1a; stroke-width: 1.5"/>
   </g>
   <g id="line2d_9">
    <path d="M 216.990813 95.980842 
L 216.990813 30.785801 
" clip-path="url(#p62693f05a8)" style="fill: none; stroke: #1a1a1a; stroke-width: 1.5"/>
   </g>
   <g id="line2d_10">
    <path d="M 194.670813 188.655153 
L 239.310813 188.655153 
" clip-path="url(#p62693f05a8)" style="fill: none; stroke: #1a1a1a; stroke-width: 1.5; stroke-linecap: round"/>
   </g>
   <g id="line2d_11">
    <path d="M 194.670813 30.785801 
L 239.310813 30.785801 
" clip-path="url(#p62693f05a8)" style="fill: none; stroke: #1a1a1a; stroke-width: 1.5; stroke-linecap: round"/>
   </g>
   <g id="line2d_12"/>
   <g id="line2d_13">
    <path d="M 60.750813 187.742911 
L 150.030813 187.742911 
" clip-path="url(#p62693f05a8)" style="fill: none; stroke: #1a1a1a; stroke-width: 1.5"/>
   </g>
   <g id="line2d_14">
    <path d="M 172.350813 113.061734 
L 261.630813 113.061734 
" clip-path="url(#p62693f05a8)" style="fill: none; stroke: #1a1a1a; stroke-width: 1.5"/>
   </g>
   <g id="matplotlib.axis_1">
    <g id="xtick_1">
     <g id="line2d_15">
      <defs>
       <path id="m1297ab1f7a" d="M 0 0 
L 0 6 
" style="stroke: #262626; stroke-width: 1.25"/>
      </defs>
      <g>
       <use xlink:href="#m1297ab1f7a" x="105.390813" y="228.96" style="fill: #262626; stroke: #262626; stroke-width: 1.25"/>
      </g>
     </g>
     <g id="text_1">
      <text style="fill: #262626; font: 12.1px 'Arial', 'DejaVu Sans', 'Liberation Sans', 'Bitstream Vera Sans', sans-serif; text-anchor: middle" x="105.390813" y="247.120953" transform="rotate(-0 105.390813 247.120953)">R1</text>
     </g>
    </g>
    <g id="xtick_2">
     <g id="line2d_16">
      <g>
       <use xlink:href="#m1297ab1f7a" x="216.990813" y="228.96" style="fill: #262626; stroke: #262626; stroke-width: 1.25"/>
      </g>
     </g>
     <g id="text_2">
      <text style="fill: #262626; font: 12.1px 'Arial', 'DejaVu Sans', 'Liberation Sans', 'Bitstream Vera Sans', sans-serif; text-anchor: middle" x="216.990813" y="247.120953" transform="rotate(-0 216.990813 247.120953)">R2</text>
     </g>
    </g>
    <g id="text_3">
     <text style="fill: #262626; font: 13.2px 'Arial', 'DejaVu Sans', 'Liberation Sans', 'Bitstream Vera Sans', sans-serif; text-anchor: middle" x="161.190813" y="262.974141" transform="rotate(-0 161.190813 262.974141)">Read</text>
    </g>
   </g>
   <g id="matplotlib.axis_2">
    <g id="ytick_1">
     <g id="line2d_17">
      <defs>
       <path id="m82046d1e29" d="M 0 0 
L -6 0 
" style="stroke: #262626; stroke-width: 1.25"/>
      </defs>
      <g>
       <use xlink:href="#m82046d1e29" x="49.590813" y="191.160512" style="fill: #262626; stroke: #262626; stroke-width: 1.25"/>
      </g>
     </g>
     <g id="text_4">
      <text style="fill: #262626; font: 12.1px 'Arial', 'DejaVu Sans', 'Liberation Sans', 'Bitstream Vera Sans', sans-serif; text-anchor: end" x="40.090813" y="195.490989" transform="rotate(-0 40.090813 195.490989)">0.2</text>
     </g>
    </g>
    <g id="ytick_2">
     <g id="line2d_18">
      <g>
       <use xlink:href="#m82046d1e29" x="49.590813" y="141.916089" style="fill: #262626; stroke: #262626; stroke-width: 1.25"/>
      </g>
     </g>
     <g id="text_5">
      <text style="fill: #262626; font: 12.1px 'Arial', 'DejaVu Sans', 'Liberation Sans', 'Bitstream Vera Sans', sans-serif; text-anchor: end" x="40.090813" y="146.246566" transform="rotate(-0 40.090813 146.246566)">0.3</text>
     </g>
    </g>
    <g id="ytick_3">
     <g id="line2d_19">
      <g>
       <use xlink:href="#m82046d1e29" x="49.590813" y="92.671666" style="fill: #262626; stroke: #262626; stroke-width: 1.25"/>
      </g>
     </g>
     <g id="text_6">
      <text style="fill: #262626; font: 12.1px 'Arial', 'DejaVu Sans', 'Liberation Sans', 'Bitstream Vera Sans', sans-serif; text-anchor: end" x="40.090813" y="97.002143" transform="rotate(-0 40.090813 97.002143)">0.4</text>
     </g>
    </g>
    <g id="ytick_4">
     <g id="line2d_20">
      <g>
       <use xlink:href="#m82046d1e29" x="49.590813" y="43.427243" style="fill: #262626; stroke: #262626; stroke-width: 1.25"/>
      </g>
     </g>
     <g id="text_7">
      <text style="fill: #262626; font: 12.1px 'Arial', 'DejaVu Sans', 'Liberation Sans', 'Bitstream Vera Sans', sans-serif; text-anchor: end" x="40.090813" y="47.75772" transform="rotate(-0 40.090813 47.75772)">0.5</text>
     </g>
    </g>
    <g id="text_8">
     <text style="fill: #262626; font: 13.2px 'Arial', 'DejaVu Sans', 'Liberation Sans', 'Bitstream Vera Sans', sans-serif; text-anchor: middle" x="16.648313" y="118.08" transform="rotate(-90 16.648313 118.08)">Mismatches per base</text>
    </g>
   </g>
   <g id="line2d_21">
    <path d="M 105.390813 191.34317 
L 216.990813 30.785801 
" clip-path="url(#p62693f05a8)" style="fill: none; stroke: #0173b2; stroke-width: 2.7; stroke-linecap: round"/>
    <defs>
     <path id="mf143820d31" d="M 0 3.383948 
C 0.897434 3.383948 1.758231 3.027394 2.392813 2.392813 
C 3.027394 1.758231 3.383948 0.897434 3.383948 0 
C 3.383948 -0.897434 3.027394 -1.758231 2.392813 -2.392813 
C 1.758231 -3.027394 0.897434 -3.383948 0 -3.383948 
C -0.897434 -3.383948 -1.758231 -3.027394 -2.392813 -2.392813 
C -3.027394 -1.758231 -3.383948 -0.897434 -3.383948 0 
C -3.383948 0.897434 -3.027394 1.758231 -2.392813 2.392813 
C -1.758231 3.027394 -0.897434 3.383948 0 3.383948 
z
" style="stroke: #0173b2; stroke-width: 2.025"/>
    </defs>
    <g clip-path="url(#p62693f05a8)">
     <use xlink:href="#mf143820d31" x="105.390813" y="191.34317" style="fill: #0173b2; stroke: #0173b2; stroke-width: 2.025"/>
     <use xlink:href="#mf143820d31" x="216.990813" y="30.785801" style="fill: #0173b2; stroke: #0173b2; stroke-width: 2.025"/>
    </g>
   </g>
   <g id="line2d_22">
    <path d="M 105.390813 193.080849 
L 105.390813 189.665828 
" clip-path="url(#p62693f05a8)" style="fill: none; stroke: #0173b2; stroke-width: 2.7; stroke-linecap: round"/>
   </g>
   <g id="line2d_23">
    <path d="M 216.990813 45.058053 
L 216.990813 17.28 
" clip-path="url(#p62693f05a8)" style="fill: none; stroke: #0173b2; stroke-width: 2.7; stroke-linecap: round"/>
   </g>
   <g id="line2d_24">
    <path d="M 105.390813 208.230184 
L 216.990813 179.07792 
" clip-path="url(#p62693f05a8)" style="fill: none; stroke: #de8f05; stroke-width: 2.7; stroke-linecap: round"/>
    <defs>
     <path id="ma63e87121f" d="M 0 3.383948 
C 0.897434 3.383948 1.758231 3.027394 2.392813 2.392813 
C 3.027394 1.758231 3.383948 0.897434 3.383948 0 
C 3.383948 -0.897434 3.027394 -1.758231 2.392813 -2.392813 
C 1.758231 -3.027394 0.897434 -3.383948 0 -3.383948 
C -0.897434 -3.383948 -1.758231 -3.027394 -2.392813 -2.392813 
C -3.027394 -1.758231 -3.383948 -0.897434 -3.383948 0 
C -3.383948 0.897434 -3.027394 1.758231 -2.392813 2.392813 
C -1.758231 3.027394 -0.897434 3.383948 0 3.383948 
z
" style="stroke: #de8f05; stroke-width: 2.025"/>
    </defs>
    <g clip-path="url(#p62693f05a8)">
     <use xlink:href="#ma63e87121f" x="105.390813" y="208.230184" style="fill: #de8f05; stroke: #de8f05; stroke-width: 2.025"/>
     <use xlink:href="#ma63e87121f" x="216.990813" y="179.07792" style="fill: #de8f05; stroke: #de8f05; stroke-width: 2.025"/>
    </g>
   </g>
   <g id="line2d_25">
    <path d="M 105.390813 208.967248 
L 105.390813 207.579453 
" clip-path="url(#p62693f05a8)" style="fill: none; stroke: #de8f05; stroke-width: 2.7; stroke-linecap: round"/>
   </g>
   <g id="line2d_26">
    <path d="M 216.990813 180.957881 
L 216.990813 177.276654 
" clip-path="url(#p62693f05a8)" style="fill: none; stroke: #de8f05; stroke-width: 2.7; stroke-linecap: round"/>
   </g>
   <g id="line2d_27">
    <path d="M 105.390813 184.142652 
L 216.990813 125.115724 
" clip-path="url(#p62693f05a8)" style="fill: none; stroke: #029e73; stroke-width: 2.7; stroke-linecap: round"/>
    <defs>
     <path id="mf2c0597fe4" d="M 0 3.383948 
C 0.897434 3.383948 1.758231 3.027394 2.392813 2.392813 
C 3.027394 1.758231 3.383948 0.897434 3.383948 0 
C 3.383948 -0.897434 3.027394 -1.758231 2.392813 -2.392813 
C 1.758231 -3.027394 0.897434 -3.383948 0 -3.383948 
C -0.897434 -3.383948 -1.758231 -3.027394 -2.392813 -2.392813 
C -3.027394 -1.758231 -3.383948 -0.897434 -3.383948 0 
C -3.383948 0.897434 -3.027394 1.758231 -2.392813 2.392813 
C -1.758231 3.027394 -0.897434 3.383948 0 3.383948 
z
" style="stroke: #029e73; stroke-width: 2.025"/>
    </defs>
    <g clip-path="url(#p62693f05a8)">
     <use xlink:href="#mf2c0597fe4" x="105.390813" y="184.142652" style="fill: #029e73; stroke: #029e73; stroke-width: 2.025"/>
     <use xlink:href="#mf2c0597fe4" x="216.990813" y="125.115724" style="fill: #029e73; stroke: #029e73; stroke-width: 2.025"/>
    </g>
   </g>
   <g id="line2d_28">
    <path d="M 105.390813 188.576176 
L 105.390813 179.092629 
" clip-path="url(#p62693f05a8)" style="fill: none; stroke: #029e73; stroke-width: 2.7; stroke-linecap: round"/>
   </g>
   <g id="line2d_29">
    <path d="M 216.990813 135.198461 
L 216.990813 114.624015 
" clip-path="url(#p62693f05a8)" style="fill: none; stroke: #029e73; stroke-width: 2.7; stroke-linecap: round"/>
   </g>
   <g id="line2d_30">
    <path d="M 105.390813 182.275581 
L 216.990813 94.305208 
" clip-path="url(#p62693f05a8)" style="fill: none; stroke: #d55e00; stroke-width: 2.7; stroke-linecap: round"/>
    <defs>
     <path id="m85794a28d5" d="M 0 3.383948 
C 0.897434 3.383948 1.758231 3.027394 2.392813 2.392813 
C 3.027394 1.758231 3.383948 0.897434 3.383948 0 
C 3.383948 -0.897434 3.027394 -1.758231 2.392813 -2.392813 
C 1.758231 -3.027394 0.897434 -3.383948 0 -3.383948 
C -0.897434 -3.383948 -1.758231 -3.027394 -2.392813 -2.392813 
C -3.027394 -1.758231 -3.383948 -0.897434 -3.383948 0 
C -3.383948 0.897434 -3.027394 1.758231 -2.392813 2.392813 
C -1.758231 3.027394 -0.897434 3.383948 0 3.383948 
z
" style="stroke: #d55e00; stroke-width: 2.025"/>
    </defs>
    <g clip-path="url(#p62693f05a8)">
     <use xlink:href="#m85794a28d5" x="105.390813" y="182.275581" style="fill: #d55e00; stroke: #d55e00; stroke-width: 2.025"/>
     <use xlink:href="#m85794a28d5" x="216.990813" y="94.305208" style="fill: #d55e00; stroke: #d55e00; stroke-width: 2.025"/>
    </g>
   </g>
   <g id="line2d_31">
    <path d="M 105.390813 184.023537 
L 105.390813 180.360443 
" clip-path="url(#p62693f05a8)" style="fill: none; stroke: #d55e00; stroke-width: 2.7; stroke-linecap: round"/>
   </g>
   <g id="line2d_32">
    <path d="M 216.990813 100.00924 
L 216.990813 88.420526 
" clip-path="url(#p62693f05a8)" style="fill: none; stroke: #d55e00; stroke-width: 2.7; stroke-linecap: round"/>
   </g>
   <g id="line2d_33">
    <path d="M 105.390813 218.219528 
L 216.990813 188.655153 
" clip-path="url(#p62693f05a8)" style="fill: none; stroke: #cc78bc; stroke-width: 2.7; stroke-linecap: round"/>
    <defs>
     <path id="m31508f78ed" d="M 0 3.383948 
C 0.897434 3.383948 1.758231 3.027394 2.392813 2.392813 
C 3.027394 1.758231 3.383948 0.897434 3.383948 0 
C 3.383948 -0.897434 3.027394 -1.758231 2.392813 -2.392813 
C 1.758231 -3.027394 0.897434 -3.383948 0 -3.383948 
C -0.897434 -3.383948 -1.758231 -3.027394 -2.392813 -2.392813 
C -3.027394 -1.758231 -3.383948 -0.897434 -3.383948 0 
C -3.383948 0.897434 -3.027394 1.758231 -2.392813 2.392813 
C -1.758231 3.027394 -0.897434 3.383948 0 3.383948 
z
" style="stroke: #cc78bc; stroke-width: 2.025"/>
    </defs>
    <g clip-path="url(#p62693f05a8)">
     <use xlink:href="#m31508f78ed" x="105.390813" y="218.219528" style="fill: #cc78bc; stroke: #cc78bc; stroke-width: 2.025"/>
     <use xlink:href="#m31508f78ed" x="216.990813" y="188.655153" style="fill: #cc78bc; stroke: #cc78bc; stroke-width: 2.025"/>
    </g>
   </g>
   <g id="line2d_34">
    <path d="M 105.390813 218.88 
L 105.390813 217.441831 
" clip-path="url(#p62693f05a8)" style="fill: none; stroke: #cc78bc; stroke-width: 2.7; stroke-linecap: round"/>
   </g>
   <g id="line2d_35">
    <path d="M 216.990813 190.918408 
L 216.990813 186.554128 
" clip-path="url(#p62693f05a8)" style="fill: none; stroke: #cc78bc; stroke-width: 2.7; stroke-linecap: round"/>
   </g>
   <g id="line2d_36">
    <path d="M 105.390813 177.373737 
L 216.990813 101.007744 
" clip-path="url(#p62693f05a8)" style="fill: none; stroke: #ca9161; stroke-width: 2.7; stroke-linecap: round"/>
    <defs>
     <path id="md1029d8eef" d="M 0 3.383948 
C 0.897434 3.383948 1.758231 3.027394 2.392813 2.392813 
C 3.027394 1.758231 3.383948 0.897434 3.383948 0 
C 3.383948 -0.897434 3.027394 -1.758231 2.392813 -2.392813 
C 1.758231 -3.027394 0.897434 -3.383948 0 -3.383948 
C -0.897434 -3.383948 -1.758231 -3.027394 -2.392813 -2.392813 
C -3.027394 -1.758231 -3.383948 -0.897434 -3.383948 0 
C -3.383948 0.897434 -3.027394 1.758231 -2.392813 2.392813 
C -1.758231 3.027394 -0.897434 3.383948 0 3.383948 
z
" style="stroke: #ca9161; stroke-width: 2.025"/>
    </defs>
    <g clip-path="url(#p62693f05a8)">
     <use xlink:href="#md1029d8eef" x="105.390813" y="177.373737" style="fill: #ca9161; stroke: #ca9161; stroke-width: 2.025"/>
     <use xlink:href="#md1029d8eef" x="216.990813" y="101.007744" style="fill: #ca9161; stroke: #ca9161; stroke-width: 2.025"/>
    </g>
   </g>
   <g id="line2d_37">
    <path d="M 105.390813 180.441881 
L 105.390813 174.283099 
" clip-path="url(#p62693f05a8)" style="fill: none; stroke: #ca9161; stroke-width: 2.7; stroke-linecap: round"/>
   </g>
   <g id="line2d_38">
    <path d="M 216.990813 108.563721 
L 216.990813 92.894178 
" clip-path="url(#p62693f05a8)" style="fill: none; stroke: #ca9161; stroke-width: 2.7; stroke-linecap: round"/>
   </g>
   <g id="line2d_39"/>
   <g id="line2d_40"/>
   <g id="line2d_41"/>
   <g id="line2d_42"/>
   <g id="line2d_43"/>
   <g id="line2d_44"/>
   <g id="patch_3">
    <path d="M 49.590813 228.96 
L 49.590813 7.2 
" style="fill: none; stroke: #262626; stroke-width: 1.25; stroke-linejoin: miter; stroke-linecap: square"/>
   </g>
   <g id="patch_4">
    <path d="M 49.590813 228.96 
L 272.790813 228.96 
" style="fill: none; stroke: #262626; stroke-width: 1.25; stroke-linejoin: miter; stroke-linecap: square"/>
   </g>
   <g id="legend_1">
    <g id="patch_5">
     <path d="M 292.420813 139.432375 
L 519.443281 139.432375 
Q 521.863281 139.432375 521.863281 137.012375 
L 521.863281 15.67 
Q 521.863281 13.25 519.443281 13.25 
L 292.420813 13.25 
Q 290.000813 13.25 290.000813 15.67 
L 290.000813 137.012375 
Q 290.000813 139.432375 292.420813 139.432375 
z
" style="fill: #ffffff; opacity: 0.8; stroke: #cccccc; stroke-linejoin: miter"/>
    </g>
    <g id="text_9">
     <text style="fill: #262626; font: 13.2px 'Arial', 'DejaVu Sans', 'Liberation Sans', 'Bitstream Vera Sans', sans-serif; text-anchor: start" x="383.187828" y="27.538313" transform="rotate(-0 383.187828 27.538313)">Dataset</text>
    </g>
    <g id="line2d_45">
     <path d="M 294.840813 40.785234 
L 306.940813 40.785234 
L 319.040813 40.785234 
" style="fill: none; stroke: #0173b2; stroke-width: 2.7; stroke-linecap: round"/>
     <g>
      <use xlink:href="#mf143820d31" x="306.940813" y="40.785234" style="fill: #0173b2; stroke: #0173b2; stroke-width: 2.025"/>
     </g>
    </g>
    <g id="text_10">
     <text style="fill: #262626; font: 12.1px 'Arial', 'DejaVu Sans', 'Liberation Sans', 'Bitstream Vera Sans', sans-serif; text-anchor: start" x="328.720813" y="45.020234" transform="rotate(-0 328.720813 45.020234)">GIAB - HG002 Long Insert (CB)</text>
    </g>
    <g id="line2d_46">
     <path d="M 294.840813 58.190328 
L 306.940813 58.190328 
L 319.040813 58.190328 
" style="fill: none; stroke: #de8f05; stroke-width: 2.7; stroke-linecap: round"/>
     <g>
      <use xlink:href="#ma63e87121f" x="306.940813" y="58.190328" style="fill: #de8f05; stroke: #de8f05; stroke-width: 2.025"/>
     </g>
    </g>
    <g id="text_11">
     <text style="fill: #262626; font: 12.1px 'Arial', 'DejaVu Sans', 'Liberation Sans', 'Bitstream Vera Sans', sans-serif; text-anchor: start" x="328.720813" y="62.425328" transform="rotate(-0 328.720813 62.425328)">GIAB - HG002 Std Insert (CB)</text>
    </g>
    <g id="line2d_47">
     <path d="M 294.840813 75.595422 
L 306.940813 75.595422 
L 319.040813 75.595422 
" style="fill: none; stroke: #029e73; stroke-width: 2.7; stroke-linecap: round"/>
     <g>
      <use xlink:href="#mf2c0597fe4" x="306.940813" y="75.595422" style="fill: #029e73; stroke: #029e73; stroke-width: 2.025"/>
     </g>
    </g>
    <g id="text_12">
     <text style="fill: #262626; font: 12.1px 'Arial', 'DejaVu Sans', 'Liberation Sans', 'Bitstream Vera Sans', sans-serif; text-anchor: start" x="328.720813" y="79.830422" transform="rotate(-0 328.720813 79.830422)">Arslan et al. 2024 - HG002 (CB)</text>
    </g>
    <g id="line2d_48">
     <path d="M 294.840813 93.000516 
L 306.940813 93.000516 
L 319.040813 93.000516 
" style="fill: none; stroke: #d55e00; stroke-width: 2.7; stroke-linecap: round"/>
     <g>
      <use xlink:href="#m85794a28d5" x="306.940813" y="93.000516" style="fill: #d55e00; stroke: #d55e00; stroke-width: 2.025"/>
     </g>
    </g>
    <g id="text_13">
     <text style="fill: #262626; font: 12.1px 'Arial', 'DejaVu Sans', 'Liberation Sans', 'Bitstream Vera Sans', sans-serif; text-anchor: start" x="328.720813" y="97.235516" transform="rotate(-0 328.720813 97.235516)">Platinum Pedigree - NA12878 (CB)</text>
    </g>
    <g id="line2d_49">
     <path d="M 294.840813 110.405609 
L 306.940813 110.405609 
L 319.040813 110.405609 
" style="fill: none; stroke: #cc78bc; stroke-width: 2.7; stroke-linecap: round"/>
     <g>
      <use xlink:href="#m31508f78ed" x="306.940813" y="110.405609" style="fill: #cc78bc; stroke: #cc78bc; stroke-width: 2.025"/>
     </g>
    </g>
    <g id="text_14">
     <text style="fill: #262626; font: 12.1px 'Arial', 'DejaVu Sans', 'Liberation Sans', 'Bitstream Vera Sans', sans-serif; text-anchor: start" x="328.720813" y="114.640609" transform="rotate(-0 328.720813 114.640609)">GIAB - HG008-N-D (CB)</text>
    </g>
    <g id="line2d_50">
     <path d="M 294.840813 127.810703 
L 306.940813 127.810703 
L 319.040813 127.810703 
" style="fill: none; stroke: #ca9161; stroke-width: 2.7; stroke-linecap: round"/>
     <g>
      <use xlink:href="#md1029d8eef" x="306.940813" y="127.810703" style="fill: #ca9161; stroke: #ca9161; stroke-width: 2.025"/>
     </g>
    </g>
    <g id="text_15">
     <text style="fill: #262626; font: 12.1px 'Arial', 'DejaVu Sans', 'Liberation Sans', 'Bitstream Vera Sans', sans-serif; text-anchor: start" x="328.720813" y="132.045703" transform="rotate(-0 328.720813 132.045703)">Element Bio - HG002 (CB FS)</text>
    </g>
   </g>
  </g>
 </g>
 <defs>
  <clipPath id="p62693f05a8">
   <rect x="49.590813" y="7.2" width="223.2" height="221.76"/>
  </clipPath>
 </defs>
</svg>
