<?xml version="1.0" encoding="utf-8" standalone="no"?>
<!DOCTYPE svg PUBLIC "-//W3C//DTD SVG 1.1//EN"
  "http://www.w3.org/Graphics/SVG/1.1/DTD/svg11.dtd">
<svg xmlns:xlink="http://www.w3.org/1999/xlink" width="391.914625pt" height="273.113203pt" viewBox="0 0 391.914625 273.113203" xmlns="http://www.w3.org/2000/svg" version="1.1">
 <metadata>
  <rdf:RDF xmlns:dc="http://purl.org/dc/elements/1.1/" xmlns:cc="http://creativecommons.org/ns#" xmlns:rdf="http://www.w3.org/1999/02/22-rdf-syntax-ns#">
   <cc:Work>
    <dc:type rdf:resource="http://purl.org/dc/dcmitype/StillImage"/>
    <dc:date>2026-01-15T10:59:36.868971</dc:date>
    <dc:format>image/svg+xml</dc:format>
    <dc:creator>
     <cc:Agent>
      <dc:title>Matplotlib v3.9.2, https://matplotlib.org/</dc:title>
     </cc:Agent>
    </dc:creator>
   </cc:Work>
  </rdf:RDF>
 </metadata>
 <defs>
  <style type="text/css">*{stroke-linejoin: round; stroke-linecap: butt}</style>
 </defs>
 <g id="figure_1">
  <g id="patch_1">
   <path d="M 0 273.113203 
L 391.914625 273.113203 
L 391.914625 0 
L 0 0 
L 0 273.113203 
z
" style="fill: none"/>
  </g>
  <g id="axes_1">
   <g id="patch_2">
    <path d="M 49.914625 228.96 
L 384.714625 228.96 
L 384.714625 7.2 
L 49.914625 7.2 
L 49.914625 228.96 
z
" style="fill: none"/>
   </g>
   <g id="matplotlib.axis_1">
    <g id="xtick_1">
     <g id="line2d_1">
      <defs>
       <path id="me0d950ec25" d="M 0 0 
L 0 6 
" style="stroke: #262626; stroke-width: 1.25"/>
      </defs>
      <g>
       <use xlink:href="#me0d950ec25" x="65.132807" y="228.96" style="fill: #262626; stroke: #262626; stroke-width: 1.25"/>
      </g>
     </g>
     <g id="text_1">
      <text style="fill: #262626; font: 12.1px 'Arial', 'DejaVu Sans', 'Liberation Sans', 'Bitstream Vera Sans', sans-serif; text-anchor: middle" x="65.132807" y="247.120953" transform="rotate(-0 65.132807 247.120953)">0</text>
     </g>
    </g>
    <g id="xtick_2">
     <g id="line2d_2">
      <g>
       <use xlink:href="#me0d950ec25" x="115.86008" y="228.96" style="fill: #262626; stroke: #262626; stroke-width: 1.25"/>
      </g>
     </g>
     <g id="text_2">
      <text style="fill: #262626; font: 12.1px 'Arial', 'DejaVu Sans', 'Liberation Sans', 'Bitstream Vera Sans', sans-serif; text-anchor: middle" x="115.86008" y="247.120953" transform="rotate(-0 115.86008 247.120953)">50</text>
     </g>
    </g>
    <g id="xtick_3">
     <g id="line2d_3">
      <g>
       <use xlink:href="#me0d950ec25" x="166.587352" y="228.96" style="fill: #262626; stroke: #262626; stroke-width: 1.25"/>
      </g>
     </g>
     <g id="text_3">
      <text style="fill: #262626; font: 12.1px 'Arial', 'DejaVu Sans', 'Liberation Sans', 'Bitstream Vera Sans', sans-serif; text-anchor: middle" x="166.587352" y="247.120953" transform="rotate(-0 166.587352 247.120953)">100</text>
     </g>
    </g>
    <g id="xtick_4">
     <g id="line2d_4">
      <g>
       <use xlink:href="#me0d950ec25" x="217.314625" y="228.96" style="fill: #262626; stroke: #262626; stroke-width: 1.25"/>
      </g>
     </g>
     <g id="text_4">
      <text style="fill: #262626; font: 12.1px 'Arial', 'DejaVu Sans', 'Liberation Sans', 'Bitstream Vera Sans', sans-serif; text-anchor: middle" x="217.314625" y="247.120953" transform="rotate(-0 217.314625 247.120953)">150</text>
     </g>
    </g>
    <g id="xtick_5">
     <g id="line2d_5">
      <g>
       <use xlink:href="#me0d950ec25" x="268.041898" y="228.96" style="fill: #262626; stroke: #262626; stroke-width: 1.25"/>
      </g>
     </g>
     <g id="text_5">
      <text style="fill: #262626; font: 12.1px 'Arial', 'DejaVu Sans', 'Liberation Sans', 'Bitstream Vera Sans', sans-serif; text-anchor: middle" x="268.041898" y="247.120953" transform="rotate(-0 268.041898 247.120953)">200</text>
     </g>
    </g>
    <g id="xtick_6">
     <g id="line2d_6">
      <g>
       <use xlink:href="#me0d950ec25" x="318.76917" y="228.96" style="fill: #262626; stroke: #262626; stroke-width: 1.25"/>
      </g>
     </g>
     <g id="text_6">
      <text style="fill: #262626; font: 12.1px 'Arial', 'DejaVu Sans', 'Liberation Sans', 'Bitstream Vera Sans', sans-serif; text-anchor: middle" x="318.76917" y="247.120953" transform="rotate(-0 318.76917 247.120953)">250</text>
     </g>
    </g>
    <g id="xtick_7">
     <g id="line2d_7">
      <g>
       <use xlink:href="#me0d950ec25" x="369.496443" y="228.96" style="fill: #262626; stroke: #262626; stroke-width: 1.25"/>
      </g>
     </g>
     <g id="text_7">
      <text style="fill: #262626; font: 12.1px 'Arial', 'DejaVu Sans', 'Liberation Sans', 'Bitstream Vera Sans', sans-serif; text-anchor: middle" x="369.496443" y="247.120953" transform="rotate(-0 369.496443 247.120953)">300</text>
     </g>
    </g>
    <g id="text_8">
     <text style="fill: #262626; font: 13.2px 'Arial', 'DejaVu Sans', 'Liberation Sans', 'Bitstream Vera Sans', sans-serif; text-anchor: middle" x="217.314625" y="263.135016" transform="rotate(-0 217.314625 263.135016)">Cycle</text>
    </g>
   </g>
   <g id="matplotlib.axis_2">
    <g id="ytick_1">
     <g id="line2d_8">
      <defs>
       <path id="mcfc1d04ace" d="M 0 0 
L -6 0 
" style="stroke: #262626; stroke-width: 1.25"/>
      </defs>
      <g>
       <use xlink:href="#mcfc1d04ace" x="49.914625" y="228.96" style="fill: #262626; stroke: #262626; stroke-width: 1.25"/>
      </g>
     </g>
     <g id="text_9">
      <text style="fill: #262626; font: 12.1px 'Arial', 'DejaVu Sans', 'Liberation Sans', 'Bitstream Vera Sans', sans-serif; text-anchor: end" x="40.414625" y="233.290477" transform="rotate(-0 40.414625 233.290477)">0.0</text>
     </g>
    </g>
    <g id="ytick_2">
     <g id="line2d_9">
      <g>
       <use xlink:href="#mcfc1d04ace" x="49.914625" y="181.966045" style="fill: #262626; stroke: #262626; stroke-width: 1.25"/>
      </g>
     </g>
     <g id="text_10">
      <text style="fill: #262626; font: 12.1px 'Arial', 'DejaVu Sans', 'Liberation Sans', 'Bitstream Vera Sans', sans-serif; text-anchor: end" x="40.414625" y="186.296522" transform="rotate(-0 40.414625 186.296522)">0.2</text>
     </g>
    </g>
    <g id="ytick_3">
     <g id="line2d_10">
      <g>
       <use xlink:href="#mcfc1d04ace" x="49.914625" y="134.97209" style="fill: #262626; stroke: #262626; stroke-width: 1.25"/>
      </g>
     </g>
     <g id="text_11">
      <text style="fill: #262626; font: 12.1px 'Arial', 'DejaVu Sans', 'Liberation Sans', 'Bitstream Vera Sans', sans-serif; text-anchor: end" x="40.414625" y="139.302567" transform="rotate(-0 40.414625 139.302567)">0.4</text>
     </g>
    </g>
    <g id="ytick_4">
     <g id="line2d_11">
      <g>
       <use xlink:href="#mcfc1d04ace" x="49.914625" y="87.978136" style="fill: #262626; stroke: #262626; stroke-width: 1.25"/>
      </g>
     </g>
     <g id="text_12">
      <text style="fill: #262626; font: 12.1px 'Arial', 'DejaVu Sans', 'Liberation Sans', 'Bitstream Vera Sans', sans-serif; text-anchor: end" x="40.414625" y="92.308612" transform="rotate(-0 40.414625 92.308612)">0.6</text>
     </g>
    </g>
    <g id="ytick_5">
     <g id="line2d_12">
      <g>
       <use xlink:href="#mcfc1d04ace" x="49.914625" y="40.984181" style="fill: #262626; stroke: #262626; stroke-width: 1.25"/>
      </g>
     </g>
     <g id="text_13">
      <text style="fill: #262626; font: 12.1px 'Arial', 'DejaVu Sans', 'Liberation Sans', 'Bitstream Vera Sans', sans-serif; text-anchor: end" x="40.414625" y="45.314657" transform="rotate(-0 40.414625 45.314657)">0.8</text>
     </g>
    </g>
    <g id="text_14">
     <text style="fill: #262626; font: 13.2px 'Arial', 'DejaVu Sans', 'Liberation Sans', 'Bitstream Vera Sans', sans-serif; text-anchor: middle" x="16.817438" y="118.08" transform="rotate(-90 16.817438 118.08)">Overlap-based error rate (%)</text>
    </g>
   </g>
   <g id="PolyCollection_1">
    <defs>
     <path id="me59509c5b2" d="M 217.314625 -103.549269 
L 217.314625 -52.827312 
L 217.314625 -103.549269 
L 217.314625 -103.549269 
z
" style="stroke: #0173b2; stroke-opacity: 0.2"/>
    </defs>
    <g clip-path="url(#p248f1cc4a9)">
     <use xlink:href="#me59509c5b2" x="0" y="273.113203" style="fill: #0173b2; fill-opacity: 0.2; stroke: #0173b2; stroke-opacity: 0.2"/>
    </g>
   </g>
   <g id="PolyCollection_2">
    <defs>
     <path id="mb0d4912299" d="M 217.314625 -48.85436 
L 217.314625 -48.667533 
L 217.314625 -48.85436 
L 217.314625 -48.85436 
z
" style="stroke: #de8f05; stroke-opacity: 0.2"/>
    </defs>
    <g clip-path="url(#p248f1cc4a9)">
     <use xlink:href="#mb0d4912299" x="0" y="273.113203" style="fill: #de8f05; fill-opacity: 0.2; stroke: #de8f05; stroke-opacity: 0.2"/>
    </g>
   </g>
   <g id="PolyCollection_3">
    <defs>
     <path id="ma1b3d11d79" d="M 217.314625 -53.424654 
L 217.314625 -46.704627 
L 217.314625 -53.424654 
L 217.314625 -53.424654 
z
" style="stroke: #029e73; stroke-opacity: 0.2"/>
    </defs>
    <g clip-path="url(#p248f1cc4a9)">
     <use xlink:href="#ma1b3d11d79" x="0" y="273.113203" style="fill: #029e73; fill-opacity: 0.2; stroke: #029e73; stroke-opacity: 0.2"/>
    </g>
   </g>
   <g id="PolyCollection_4">
    <defs>
     <path id="mf4f6fddc03" d="M 217.314625 -57.377353 
L 217.314625 -49.509889 
L 217.314625 -57.377353 
L 217.314625 -57.377353 
z
" style="stroke: #d55e00; stroke-opacity: 0.2"/>
    </defs>
    <g clip-path="url(#p248f1cc4a9)">
     <use xlink:href="#mf4f6fddc03" x="0" y="273.113203" style="fill: #d55e00; fill-opacity: 0.2; stroke: #d55e00; stroke-opacity: 0.2"/>
    </g>
   </g>
   <g id="PolyCollection_5">
    <defs>
     <path id="m8de53fdfda" d="M 217.314625 -49.960303 
L 217.314625 -46.31785 
L 217.314625 -49.960303 
L 217.314625 -49.960303 
z
" style="stroke: #cc78bc; stroke-opacity: 0.2"/>
    </defs>
    <g clip-path="url(#p248f1cc4a9)">
     <use xlink:href="#m8de53fdfda" x="0" y="273.113203" style="fill: #cc78bc; fill-opacity: 0.2; stroke: #cc78bc; stroke-opacity: 0.2"/>
    </g>
   </g>
   <g id="PolyCollection_6">
    <defs>
     <path id="m86fdc16d99" d="M 217.314625 -50.995639 
L 217.314625 -49.863331 
L 217.314625 -50.995639 
L 217.314625 -50.995639 
z
" style="stroke: #ca9161; stroke-opacity: 0.2"/>
    </defs>
    <g clip-path="url(#p248f1cc4a9)">
     <use xlink:href="#m86fdc16d99" x="0" y="273.113203" style="fill: #ca9161; fill-opacity: 0.2; stroke: #ca9161; stroke-opacity: 0.2"/>
    </g>
   </g>
   <g id="PolyCollection_7"/>
   <g id="PolyCollection_8"/>
   <g id="PolyCollection_9"/>
   <g id="PolyCollection_10"/>
   <g id="PolyCollection_11"/>
   <g id="PolyCollection_12"/>
   <g id="line2d_13">
    <path d="M 65.132807 227.327925 
L 66.147352 224.899521 
L 67.161898 223.662071 
L 68.176443 226.684956 
L 69.190989 223.203524 
L 70.205534 224.558581 
L 71.22008 224.630014 
L 72.234625 220.133301 
L 73.24917 220.885746 
L 74.263716 224.248118 
L 75.278261 223.452035 
L 76.292807 222.392611 
L 77.307352 222.484909 
L 78.321898 220.639835 
L 79.336443 223.216221 
L 80.350989 218.921687 
L 81.365534 220.084081 
L 82.38008 214.595593 
L 83.394625 215.0636 
L 84.40917 216.012723 
L 85.423716 214.910298 
L 86.438261 214.546538 
L 87.452807 213.707905 
L 88.467352 211.178343 
L 89.481898 212.189465 
L 90.496443 212.37271 
L 92.525534 212.285983 
L 93.54008 209.685716 
L 94.554625 211.03548 
L 95.56917 211.684148 
L 96.583716 212.78911 
L 97.598261 216.063256 
L 98.612807 214.653377 
L 99.627352 210.648968 
L 100.641898 211.4699 
L 101.656443 211.209323 
L 102.670989 212.240089 
L 103.685534 211.321518 
L 104.70008 209.201358 
L 105.714625 209.798977 
L 106.72917 215.293511 
L 107.743716 211.548533 
L 108.758261 209.482596 
L 109.772807 208.473711 
L 110.787352 210.775627 
L 111.801898 210.931228 
L 112.816443 207.765275 
L 113.830989 207.728431 
L 114.845534 210.189386 
L 115.86008 210.525632 
L 116.874625 211.277683 
L 117.88917 205.447347 
L 118.903716 212.841435 
L 119.918261 211.153001 
L 120.932807 212.399248 
L 121.947352 212.325484 
L 122.961898 209.409229 
L 123.976443 207.591341 
L 124.990989 213.077583 
L 126.005534 213.367878 
L 127.02008 210.199106 
L 128.034625 211.35888 
L 129.04917 214.243694 
L 130.063716 214.165342 
L 131.078261 213.435742 
L 132.092807 214.900778 
L 133.107352 212.318138 
L 134.121898 210.782566 
L 135.136443 214.012813 
L 136.150989 212.135609 
L 137.165534 215.008178 
L 138.18008 213.328545 
L 139.194625 216.301631 
L 140.20917 213.374864 
L 141.223716 211.429892 
L 142.238261 214.9936 
L 143.252807 215.084507 
L 144.267352 211.74712 
L 145.281898 214.947582 
L 146.296443 213.169639 
L 147.310989 214.761877 
L 148.325534 215.011607 
L 149.34008 212.266038 
L 150.354625 214.463166 
L 151.36917 216.193857 
L 152.383716 215.823467 
L 153.398261 216.760345 
L 154.412807 216.842662 
L 155.427352 212.975365 
L 157.456443 216.736596 
L 158.470989 217.672375 
L 159.485534 216.030446 
L 160.50008 217.238555 
L 161.514625 216.591542 
L 162.52917 217.761765 
L 163.543716 218.26143 
L 164.558261 217.203697 
L 165.572807 218.908141 
L 166.587352 217.070892 
L 167.601898 219.316955 
L 168.616443 218.54773 
L 169.630989 217.399768 
L 170.645534 218.543608 
L 171.66008 219.514968 
L 173.68917 219.894352 
L 175.718261 218.305542 
L 176.732807 218.746677 
L 177.747352 219.954665 
L 178.761898 217.578408 
L 180.790989 222.261492 
L 181.805534 219.5271 
L 182.82008 221.197909 
L 183.834625 219.60432 
L 184.84917 218.310682 
L 185.863716 219.117149 
L 186.878261 221.851625 
L 187.892807 219.807093 
L 188.907352 218.635609 
L 189.921898 221.224131 
L 190.936443 220.90502 
L 191.950989 221.545743 
L 193.98008 220.08424 
L 194.994625 220.962911 
L 196.00917 219.60364 
L 197.023716 220.820948 
L 198.038261 222.474849 
L 199.052807 221.933736 
L 200.067352 220.828528 
L 201.081898 220.871461 
L 202.096443 221.25715 
L 203.110989 222.655774 
L 204.125534 221.113214 
L 205.14008 222.491428 
L 206.154625 221.972002 
L 207.16917 221.78471 
L 208.183716 220.605754 
L 209.198261 222.500034 
L 210.212807 221.545813 
L 211.227352 221.031116 
L 212.241898 221.81668 
L 213.256443 223.136389 
L 214.270989 222.192716 
L 215.285534 220.939678 
L 216.30008 220.55439 
L 217.314625 194.924913 
L 218.32917 151.069467 
L 219.343716 177.094613 
L 220.358261 185.443524 
L 221.372807 148.64945 
L 222.387352 120.693253 
L 223.401898 64.216109 
L 224.416443 92.163859 
L 225.430989 136.141138 
L 226.445534 141.674034 
L 227.46008 136.359109 
L 228.474625 123.322234 
L 229.48917 128.496028 
L 230.503716 121.429802 
L 231.518261 117.615213 
L 232.532807 105.561841 
L 233.547352 108.994059 
L 234.561898 94.005246 
L 235.576443 97.538233 
L 236.590989 94.935239 
L 237.605534 89.638467 
L 238.62008 87.823628 
L 239.634625 83.894279 
L 240.64917 77.86805 
L 241.663716 69.53063 
L 242.678261 76.111118 
L 243.692807 89.338455 
L 244.707352 89.491575 
L 245.721898 82.814164 
L 246.736443 89.940604 
L 247.750989 71.029605 
L 248.765534 71.794729 
L 249.78008 72.200269 
L 250.794625 83.573906 
L 251.80917 65.14665 
L 252.823716 60.066029 
L 253.838261 62.920639 
L 254.852807 63.907414 
L 255.867352 63.832988 
L 256.881898 69.228738 
L 257.896443 63.890062 
L 258.910989 72.369552 
L 259.925534 72.456301 
L 260.94008 48.35643 
L 261.954625 52.761514 
L 262.96917 31.971673 
L 263.983716 33.084444 
L 264.998261 50.382742 
L 266.012807 44.046186 
L 267.027352 48.032614 
L 268.041898 41.771161 
L 269.056443 55.052671 
L 270.070989 48.04555 
L 271.085534 48.762028 
L 272.10008 49.141737 
L 273.114625 50.095495 
L 274.12917 38.696746 
L 275.143716 43.888809 
L 276.158261 28.792954 
L 277.172807 35.926279 
L 278.187352 28.104495 
L 279.201898 49.056492 
L 280.216443 39.123614 
L 281.230989 39.024958 
L 282.245534 33.776476 
L 283.26008 44.334459 
L 284.274625 30.694255 
L 285.28917 36.220044 
L 286.303716 44.53329 
L 287.318261 43.064647 
L 288.332807 45.714597 
L 289.347352 41.202615 
L 290.361898 32.808989 
L 291.376443 40.835586 
L 292.390989 47.903042 
L 293.405534 41.332208 
L 294.42008 37.802473 
L 295.434625 40.141689 
L 296.44917 37.237677 
L 297.463716 33.293144 
L 298.478261 35.830406 
L 299.492807 49.885198 
L 300.507352 39.038956 
L 301.521898 30.009149 
L 302.536443 37.489283 
L 303.550989 48.565195 
L 304.565534 34.986442 
L 305.58008 35.408249 
L 306.594625 31.490488 
L 307.60917 34.079169 
L 308.623716 32.399453 
L 309.638261 31.782367 
L 310.652807 33.326655 
L 311.667352 19.505352 
L 312.681898 17.736946 
L 313.696443 34.66692 
L 314.710989 43.440636 
L 315.725534 42.733956 
L 316.74008 45.259395 
L 317.754625 52.914075 
L 318.76917 43.022525 
L 319.783716 37.828124 
L 320.798261 37.207123 
L 321.812807 49.882362 
L 322.827352 39.338653 
L 323.841898 48.272445 
L 324.856443 47.505428 
L 325.870989 53.238973 
L 326.885534 39.933714 
L 327.90008 33.014693 
L 328.914625 35.498614 
L 329.92917 43.262826 
L 330.943716 44.380546 
L 331.958261 42.427214 
L 332.972807 41.862238 
L 333.987352 35.976774 
L 335.001898 46.677753 
L 336.016443 45.398716 
L 337.030989 51.180387 
L 338.045534 50.080621 
L 339.06008 51.970199 
L 340.074625 55.875391 
L 341.08917 54.465624 
L 342.103716 59.229422 
L 343.118261 62.843761 
L 344.132807 62.072553 
L 345.147352 66.198169 
L 346.161898 76.950611 
L 347.176443 67.049298 
L 348.190989 82.052634 
L 349.205534 66.329925 
L 350.22008 75.057375 
L 351.234625 77.485167 
L 352.24917 72.946413 
L 353.263716 74.217295 
L 354.278261 87.566431 
L 355.292807 88.442544 
L 356.307352 92.612354 
L 357.321898 92.19209 
L 358.336443 93.304403 
L 359.350989 96.943723 
L 360.365534 99.654594 
L 361.38008 108.364121 
L 362.394625 111.782327 
L 363.40917 105.333392 
L 364.423716 113.718095 
L 365.438261 123.198913 
L 366.452807 127.000598 
L 367.467352 125.584146 
L 368.481898 124.886569 
L 369.496443 110.020726 
L 369.496443 110.020726 
" clip-path="url(#p248f1cc4a9)" style="fill: none; stroke: #0173b2; stroke-opacity: 0.2; stroke-width: 1.5; stroke-linecap: round"/>
   </g>
   <g id="line2d_14">
    <path d="M 65.132807 228.226011 
L 66.147352 227.900407 
L 67.161898 227.740174 
L 68.176443 227.381308 
L 69.190989 226.245511 
L 70.205534 225.521137 
L 71.22008 226.023967 
L 72.234625 226.345928 
L 73.24917 226.139618 
L 74.263716 226.152488 
L 75.278261 225.185713 
L 76.292807 225.928118 
L 77.307352 226.331204 
L 78.321898 225.740427 
L 79.336443 226.50053 
L 80.350989 225.545265 
L 81.365534 224.982769 
L 82.38008 225.034008 
L 84.40917 224.255017 
L 85.423716 225.343133 
L 86.438261 224.410029 
L 87.452807 224.142074 
L 88.467352 224.430365 
L 89.481898 224.494579 
L 90.496443 224.092192 
L 91.510989 224.442381 
L 92.525534 225.0277 
L 93.54008 224.217909 
L 94.554625 224.428217 
L 95.56917 224.878458 
L 96.583716 224.724 
L 98.612807 223.564598 
L 99.627352 224.913022 
L 100.641898 224.604433 
L 101.656443 224.640429 
L 102.670989 224.174304 
L 103.685534 224.899107 
L 104.70008 224.946565 
L 105.714625 224.510012 
L 107.743716 224.807551 
L 108.758261 224.375436 
L 109.772807 225.080602 
L 110.787352 224.676614 
L 111.801898 224.406576 
L 112.816443 224.356655 
L 113.830989 224.96977 
L 114.845534 224.56412 
L 115.86008 224.995772 
L 116.874625 225.242281 
L 117.88917 224.427655 
L 118.903716 225.148817 
L 119.918261 224.718599 
L 120.932807 225.097667 
L 121.947352 224.706154 
L 122.961898 224.646928 
L 123.976443 224.778332 
L 124.990989 224.517829 
L 126.005534 225.39253 
L 127.02008 225.379695 
L 128.034625 225.097706 
L 129.04917 225.169016 
L 131.078261 225.093108 
L 132.092807 224.844444 
L 133.107352 224.941144 
L 134.121898 225.217856 
L 136.150989 224.821213 
L 137.165534 224.973966 
L 138.18008 224.814101 
L 139.194625 225.068441 
L 140.20917 224.944168 
L 141.223716 225.389327 
L 142.238261 225.297325 
L 143.252807 225.363963 
L 144.267352 225.200105 
L 145.281898 225.288533 
L 148.325534 225.143946 
L 149.34008 224.912128 
L 150.354625 225.290396 
L 155.427352 225.186151 
L 156.441898 225.455372 
L 157.456443 225.388077 
L 158.470989 225.164481 
L 159.485534 225.175722 
L 160.50008 224.952405 
L 161.514625 224.875532 
L 162.52917 225.299385 
L 163.543716 225.074192 
L 164.558261 225.162306 
L 166.587352 224.961069 
L 168.616443 225.581808 
L 169.630989 225.495957 
L 170.645534 225.205598 
L 172.674625 225.252352 
L 173.68917 225.229352 
L 174.703716 225.394914 
L 175.718261 225.13684 
L 176.732807 225.067663 
L 177.747352 225.238392 
L 178.761898 225.242865 
L 179.776443 224.883032 
L 180.790989 224.975549 
L 181.805534 225.264644 
L 182.82008 225.1716 
L 183.834625 225.282383 
L 184.84917 225.212112 
L 186.878261 225.278395 
L 187.892807 225.19663 
L 189.921898 225.408963 
L 190.936443 224.910502 
L 191.950989 224.936777 
L 193.98008 225.339552 
L 197.023716 224.892527 
L 199.052807 225.283244 
L 203.110989 224.985253 
L 209.198261 225.177146 
L 211.227352 225.107938 
L 212.241898 225.374309 
L 213.256443 225.50885 
L 214.270989 225.424503 
L 215.285534 225.203642 
L 216.30008 224.469709 
L 217.314625 224.352257 
L 218.32917 222.456341 
L 219.343716 224.335646 
L 220.358261 222.238183 
L 221.372807 222.880033 
L 222.387352 221.43198 
L 223.401898 218.067595 
L 224.416443 217.666342 
L 225.430989 222.101969 
L 226.445534 221.4346 
L 228.474625 222.444281 
L 229.48917 221.784539 
L 230.503716 221.869014 
L 231.518261 221.093597 
L 232.532807 219.654923 
L 233.547352 220.130237 
L 234.561898 219.752093 
L 235.576443 220.845545 
L 236.590989 220.639399 
L 237.605534 220.656625 
L 238.62008 219.781941 
L 239.634625 220.478253 
L 240.64917 219.819068 
L 241.663716 220.797182 
L 242.678261 220.896779 
L 243.692807 221.811367 
L 245.721898 220.549525 
L 246.736443 221.368756 
L 247.750989 221.246152 
L 248.765534 221.8411 
L 251.80917 221.270136 
L 252.823716 221.760657 
L 254.852807 221.979231 
L 255.867352 222.438746 
L 256.881898 221.710389 
L 257.896443 222.190383 
L 258.910989 222.241716 
L 260.94008 221.969507 
L 262.96917 221.909886 
L 264.998261 222.248729 
L 266.012807 222.840867 
L 267.027352 223.038615 
L 268.041898 222.353024 
L 269.056443 222.892855 
L 271.085534 223.156952 
L 272.10008 222.842691 
L 273.114625 222.679729 
L 274.12917 223.146802 
L 276.158261 223.188005 
L 277.172807 222.903253 
L 278.187352 223.02645 
L 279.201898 223.422211 
L 280.216443 222.962087 
L 281.230989 223.016256 
L 282.245534 224.009393 
L 284.274625 223.380132 
L 285.28917 223.519927 
L 287.318261 223.262506 
L 288.332807 223.629485 
L 289.347352 223.206329 
L 290.361898 223.628642 
L 291.376443 223.568136 
L 292.390989 223.698383 
L 293.405534 223.685852 
L 294.42008 223.845685 
L 295.434625 223.728255 
L 296.44917 223.944431 
L 297.463716 223.639215 
L 298.478261 223.487742 
L 299.492807 223.735612 
L 300.507352 223.371263 
L 304.565534 223.755732 
L 306.594625 223.415904 
L 307.60917 223.639702 
L 308.623716 224.005389 
L 309.638261 223.695525 
L 312.681898 223.651666 
L 313.696443 223.653913 
L 314.710989 223.921801 
L 315.725534 223.93494 
L 316.74008 223.808167 
L 317.754625 223.881648 
L 318.76917 224.196609 
L 319.783716 223.572015 
L 320.798261 224.196307 
L 321.812807 223.809116 
L 322.827352 224.211625 
L 323.841898 223.992808 
L 324.856443 223.636904 
L 325.870989 224.01321 
L 327.90008 224.055955 
L 328.914625 224.332888 
L 330.943716 224.127153 
L 331.958261 224.278109 
L 332.972807 224.101099 
L 333.987352 224.047995 
L 337.030989 224.171901 
L 338.045534 223.985812 
L 339.06008 224.211487 
L 342.103716 224.228388 
L 346.161898 224.061871 
L 347.176443 224.29032 
L 354.278261 224.121747 
L 355.292807 224.438143 
L 356.307352 224.423326 
L 357.321898 224.093921 
L 359.350989 224.486253 
L 362.394625 224.638447 
L 363.40917 224.314147 
L 364.423716 224.531205 
L 365.438261 224.86977 
L 366.452807 224.770602 
L 367.467352 224.544068 
L 368.481898 223.860029 
L 369.496443 223.928756 
L 369.496443 223.928756 
" clip-path="url(#p248f1cc4a9)" style="fill: none; stroke: #de8f05; stroke-opacity: 0.2; stroke-width: 1.5; stroke-linecap: round"/>
   </g>
   <g id="line2d_15">
    <path d="M 65.132807 227.980826 
L 66.147352 228.336885 
L 67.161898 228.438446 
L 68.176443 228.388704 
L 69.190989 228.221931 
L 70.205534 227.565502 
L 71.22008 227.15594 
L 72.234625 226.959479 
L 73.24917 227.108914 
L 74.263716 227.662793 
L 76.292807 227.349327 
L 77.307352 227.369449 
L 78.321898 227.258563 
L 79.336443 227.658838 
L 80.350989 226.372459 
L 81.365534 225.603428 
L 82.38008 225.984192 
L 83.394625 226.52263 
L 84.40917 225.901637 
L 85.423716 225.665711 
L 86.438261 226.037074 
L 87.452807 225.717933 
L 88.467352 225.727484 
L 89.481898 226.18152 
L 90.496443 225.915437 
L 92.525534 225.590704 
L 93.54008 224.913992 
L 94.554625 224.81757 
L 95.56917 225.005755 
L 96.583716 224.842496 
L 97.598261 225.618798 
L 98.612807 224.889882 
L 99.627352 224.698484 
L 100.641898 224.957778 
L 101.656443 224.903097 
L 102.670989 224.616907 
L 103.685534 224.595888 
L 104.70008 224.717703 
L 105.714625 225.130722 
L 106.72917 224.87495 
L 107.743716 225.287048 
L 108.758261 224.875932 
L 109.772807 225.591928 
L 110.787352 225.257818 
L 111.801898 224.734935 
L 112.816443 225.194927 
L 113.830989 225.321966 
L 114.845534 224.913786 
L 115.86008 225.345389 
L 117.88917 225.128264 
L 118.903716 225.399805 
L 119.918261 225.515437 
L 120.932807 225.354823 
L 121.947352 225.045466 
L 122.961898 225.380634 
L 123.976443 225.313158 
L 124.990989 225.61942 
L 127.02008 225.772333 
L 128.034625 225.658948 
L 129.04917 225.292792 
L 130.063716 225.732639 
L 131.078261 225.815211 
L 132.092807 225.603405 
L 133.107352 225.583047 
L 134.121898 225.707939 
L 136.150989 225.411398 
L 137.165534 225.747428 
L 138.18008 225.40681 
L 139.194625 225.848543 
L 140.20917 225.610828 
L 141.223716 224.980235 
L 142.238261 224.879396 
L 143.252807 225.551331 
L 144.267352 225.259439 
L 145.281898 225.54311 
L 146.296443 225.43483 
L 147.310989 225.086149 
L 148.325534 225.379121 
L 149.34008 225.471024 
L 150.354625 224.903813 
L 152.383716 225.245088 
L 153.398261 224.943515 
L 154.412807 225.381504 
L 155.427352 225.530941 
L 157.456443 225.113078 
L 158.470989 225.00553 
L 159.485534 223.802573 
L 160.50008 223.442154 
L 161.514625 224.908818 
L 162.52917 224.915189 
L 163.543716 224.246996 
L 164.558261 224.726948 
L 165.572807 224.540853 
L 166.587352 225.011309 
L 167.601898 224.579135 
L 168.616443 224.440613 
L 169.630989 224.551265 
L 170.645534 224.316841 
L 171.66008 224.752732 
L 172.674625 224.367317 
L 173.68917 224.255504 
L 174.703716 224.501989 
L 175.718261 223.808868 
L 176.732807 223.681278 
L 177.747352 223.668062 
L 178.761898 224.150762 
L 179.776443 224.128617 
L 180.790989 224.417214 
L 181.805534 223.930515 
L 182.82008 223.638446 
L 183.834625 223.200564 
L 184.84917 223.145735 
L 185.863716 222.92229 
L 186.878261 223.527424 
L 188.907352 223.33435 
L 190.936443 222.437512 
L 191.950989 222.510889 
L 192.965534 222.131784 
L 193.98008 222.502213 
L 194.994625 222.194699 
L 196.00917 220.228234 
L 197.023716 220.00852 
L 198.038261 222.419458 
L 199.052807 222.009048 
L 201.081898 222.075918 
L 202.096443 221.990278 
L 204.125534 221.306017 
L 206.154625 221.637512 
L 207.16917 221.670395 
L 209.198261 221.232767 
L 210.212807 221.180605 
L 211.227352 220.962554 
L 212.241898 220.989626 
L 213.256443 221.365654 
L 214.270989 221.227755 
L 215.285534 220.883918 
L 216.30008 220.037918 
L 217.314625 223.048562 
L 218.32917 224.509318 
L 219.343716 226.530595 
L 220.358261 226.342827 
L 221.372807 226.771798 
L 223.401898 224.306539 
L 224.416443 223.430752 
L 225.430989 223.368329 
L 226.445534 223.527039 
L 227.46008 223.47965 
L 228.474625 222.907049 
L 229.48917 224.35838 
L 230.503716 223.705628 
L 231.518261 223.901319 
L 232.532807 222.207713 
L 233.547352 221.507027 
L 234.561898 221.005038 
L 236.590989 221.232037 
L 237.605534 221.42793 
L 238.62008 220.289809 
L 239.634625 221.308274 
L 240.64917 221.482232 
L 241.663716 219.397161 
L 242.678261 221.053629 
L 243.692807 219.383055 
L 244.707352 220.011319 
L 245.721898 220.366052 
L 246.736443 221.359995 
L 247.750989 219.951277 
L 248.765534 219.8788 
L 249.78008 219.639653 
L 250.794625 219.065543 
L 251.80917 219.358996 
L 252.823716 219.266884 
L 253.838261 220.085653 
L 254.852807 219.467297 
L 255.867352 219.855837 
L 256.881898 219.731798 
L 257.896443 220.868714 
L 258.910989 220.365768 
L 259.925534 220.470427 
L 260.94008 220.221065 
L 261.954625 219.65746 
L 262.96917 220.650092 
L 263.983716 220.174605 
L 264.998261 220.328142 
L 266.012807 220.358969 
L 267.027352 219.843601 
L 268.041898 219.971254 
L 269.056443 220.866788 
L 270.070989 220.918225 
L 271.085534 220.517484 
L 272.10008 220.977445 
L 273.114625 220.180564 
L 274.12917 219.720272 
L 275.143716 220.722257 
L 276.158261 220.96919 
L 277.172807 220.926412 
L 278.187352 220.65054 
L 279.201898 220.506891 
L 280.216443 220.002677 
L 281.230989 221.109699 
L 282.245534 220.538763 
L 283.26008 221.554085 
L 284.274625 220.530697 
L 285.28917 219.962485 
L 286.303716 220.342524 
L 288.332807 220.587526 
L 289.347352 220.636301 
L 290.361898 220.209972 
L 291.376443 220.212227 
L 293.405534 219.800924 
L 294.42008 220.542952 
L 296.44917 220.872504 
L 298.478261 220.030575 
L 299.492807 220.508175 
L 302.536443 219.599589 
L 304.565534 219.723406 
L 306.594625 219.32228 
L 307.60917 218.715599 
L 309.638261 219.276059 
L 310.652807 218.890486 
L 311.667352 219.432336 
L 312.681898 218.726882 
L 313.696443 218.880806 
L 314.710989 218.167336 
L 315.725534 218.512706 
L 316.74008 217.967678 
L 317.754625 218.577619 
L 318.76917 218.260861 
L 319.783716 217.572917 
L 320.798261 217.319927 
L 321.812807 217.46723 
L 322.827352 218.537676 
L 323.841898 218.037149 
L 324.856443 216.707777 
L 325.870989 216.454389 
L 326.885534 216.083158 
L 327.90008 216.439552 
L 328.914625 216.12176 
L 329.92917 216.757893 
L 330.943716 216.681484 
L 331.958261 215.525202 
L 332.972807 215.859929 
L 333.987352 215.79875 
L 335.001898 215.162679 
L 336.016443 215.36684 
L 337.030989 216.071545 
L 338.045534 215.171174 
L 339.06008 215.405715 
L 340.074625 216.661098 
L 341.08917 215.985563 
L 342.103716 214.486494 
L 343.118261 214.51174 
L 344.132807 214.340706 
L 345.147352 214.02434 
L 346.161898 212.688138 
L 347.176443 212.920385 
L 348.190989 213.948706 
L 349.205534 214.151632 
L 350.22008 212.704988 
L 351.234625 212.730837 
L 352.24917 213.001649 
L 353.263716 213.606873 
L 354.278261 212.732585 
L 355.292807 211.177166 
L 356.307352 211.634245 
L 357.321898 210.438903 
L 358.336443 210.013329 
L 359.350989 211.692616 
L 360.365534 211.795058 
L 361.38008 211.354639 
L 363.40917 210.154477 
L 364.423716 209.684854 
L 365.438261 209.805953 
L 366.452807 209.747843 
L 367.467352 209.913394 
L 368.481898 209.477156 
L 369.496443 209.329104 
L 369.496443 209.329104 
" clip-path="url(#p248f1cc4a9)" style="fill: none; stroke: #029e73; stroke-opacity: 0.2; stroke-width: 1.5; stroke-linecap: round"/>
   </g>
   <g id="line2d_16">
    <path d="M 65.132807 224.67861 
L 66.147352 227.223456 
L 67.161898 227.594911 
L 68.176443 227.298269 
L 69.190989 227.266503 
L 70.205534 226.961793 
L 71.22008 220.909377 
L 72.234625 224.685345 
L 73.24917 225.158829 
L 74.263716 225.239311 
L 75.278261 225.17118 
L 76.292807 225.744722 
L 77.307352 225.659565 
L 78.321898 225.329084 
L 79.336443 225.167429 
L 80.350989 223.670807 
L 81.365534 223.93098 
L 82.38008 224.058434 
L 87.452807 223.410206 
L 88.467352 223.980171 
L 89.481898 223.331018 
L 90.496443 224.057708 
L 91.510989 224.048549 
L 92.525534 223.681583 
L 94.554625 223.751265 
L 95.56917 223.765932 
L 96.583716 224.039572 
L 97.598261 223.69913 
L 98.612807 223.554933 
L 99.627352 224.077794 
L 100.641898 223.510789 
L 101.656443 224.300068 
L 102.670989 224.363872 
L 104.70008 223.810096 
L 105.714625 223.741762 
L 106.72917 223.366019 
L 107.743716 223.914609 
L 109.772807 223.919131 
L 110.787352 223.683005 
L 111.801898 224.310272 
L 112.816443 224.453426 
L 113.830989 224.139549 
L 115.86008 224.04884 
L 116.874625 224.551239 
L 118.903716 224.406016 
L 119.918261 224.754673 
L 120.932807 224.375384 
L 121.947352 224.123995 
L 122.961898 224.069446 
L 123.976443 224.41431 
L 124.990989 224.326453 
L 126.005534 223.972584 
L 127.02008 224.020392 
L 128.034625 224.484639 
L 129.04917 224.310572 
L 130.063716 224.391141 
L 131.078261 224.74155 
L 132.092807 224.241498 
L 133.107352 224.565354 
L 134.121898 224.028815 
L 136.150989 224.366005 
L 137.165534 223.294756 
L 138.18008 223.611685 
L 139.194625 224.533225 
L 140.20917 224.319978 
L 142.238261 224.649245 
L 143.252807 224.367719 
L 146.296443 224.486947 
L 147.310989 224.250034 
L 148.325534 220.607714 
L 149.34008 221.304546 
L 150.354625 224.614505 
L 151.36917 224.730272 
L 152.383716 224.286546 
L 153.398261 224.570018 
L 155.427352 224.273344 
L 156.441898 224.382012 
L 157.456443 224.198933 
L 158.470989 224.563316 
L 159.485534 224.371669 
L 160.50008 224.452451 
L 161.514625 224.174854 
L 162.52917 224.831401 
L 164.558261 224.774978 
L 166.587352 224.378387 
L 167.601898 224.464452 
L 168.616443 224.264141 
L 172.674625 224.304782 
L 174.703716 224.616313 
L 175.718261 224.291857 
L 176.732807 224.165295 
L 177.747352 224.365506 
L 178.761898 224.695715 
L 180.790989 224.44776 
L 181.805534 224.169744 
L 183.834625 224.488531 
L 184.84917 224.426602 
L 185.863716 224.576475 
L 186.878261 224.155874 
L 188.907352 224.254071 
L 190.936443 224.248495 
L 191.950989 224.351887 
L 192.965534 224.341511 
L 193.98008 224.524056 
L 196.00917 223.909009 
L 197.023716 223.979272 
L 198.038261 224.391473 
L 199.052807 224.372797 
L 200.067352 224.228399 
L 201.081898 224.36886 
L 202.096443 224.396935 
L 203.110989 224.13959 
L 204.125534 224.232977 
L 205.14008 224.192338 
L 206.154625 224.340557 
L 207.16917 224.190572 
L 208.183716 224.317561 
L 209.198261 224.315685 
L 210.212807 224.552933 
L 211.227352 224.308696 
L 213.256443 224.420802 
L 214.270989 224.578431 
L 216.30008 223.733544 
L 217.314625 219.669582 
L 218.32917 220.914751 
L 220.358261 222.458566 
L 221.372807 221.016597 
L 222.387352 221.312744 
L 223.401898 220.94938 
L 224.416443 220.457579 
L 225.430989 222.21016 
L 227.46008 222.838744 
L 228.474625 221.647138 
L 229.48917 222.322658 
L 230.503716 221.603322 
L 231.518261 222.109035 
L 232.532807 221.241703 
L 234.561898 221.289087 
L 235.576443 221.195195 
L 236.590989 221.328966 
L 237.605534 221.840338 
L 238.62008 221.171937 
L 239.634625 221.331971 
L 240.64917 220.614847 
L 241.663716 220.919277 
L 242.678261 221.710963 
L 243.692807 221.779448 
L 244.707352 220.920251 
L 245.721898 220.866193 
L 246.736443 221.711121 
L 248.765534 221.705542 
L 249.78008 221.83901 
L 251.80917 221.368103 
L 252.823716 220.990798 
L 253.838261 221.455131 
L 254.852807 221.086549 
L 255.867352 221.89708 
L 256.881898 221.505917 
L 257.896443 222.076011 
L 258.910989 221.717009 
L 259.925534 221.837853 
L 260.94008 221.834694 
L 262.96917 220.811907 
L 263.983716 221.217351 
L 266.012807 221.119188 
L 267.027352 222.022173 
L 269.056443 221.897502 
L 270.070989 221.386131 
L 271.085534 221.899777 
L 272.10008 221.810775 
L 273.114625 222.265043 
L 276.158261 221.563111 
L 277.172807 220.832206 
L 278.187352 221.547296 
L 279.201898 221.682805 
L 282.245534 221.258966 
L 283.26008 221.773543 
L 284.274625 221.337588 
L 285.28917 221.257412 
L 286.303716 221.306151 
L 287.318261 221.831362 
L 289.347352 221.281314 
L 290.361898 221.76222 
L 291.376443 221.272109 
L 292.390989 221.431396 
L 293.405534 220.875368 
L 294.42008 221.668676 
L 295.434625 220.679687 
L 297.463716 221.049301 
L 298.478261 221.489051 
L 299.492807 220.764631 
L 300.507352 221.197597 
L 302.536443 221.031193 
L 305.58008 220.226609 
L 306.594625 220.296833 
L 307.60917 220.598571 
L 308.623716 220.047874 
L 309.638261 220.589047 
L 310.652807 221.288858 
L 311.667352 221.084564 
L 312.681898 221.332674 
L 313.696443 220.777575 
L 314.710989 220.88376 
L 315.725534 220.262169 
L 316.74008 220.057469 
L 317.754625 220.771497 
L 318.76917 220.233718 
L 319.783716 220.131923 
L 320.798261 219.711642 
L 321.812807 219.659921 
L 322.827352 219.862263 
L 323.841898 219.202961 
L 324.856443 219.859217 
L 325.870989 220.063119 
L 326.885534 219.919093 
L 327.90008 219.565279 
L 328.914625 219.604366 
L 329.92917 220.111276 
L 330.943716 219.768578 
L 331.958261 219.74457 
L 333.987352 218.969987 
L 335.001898 219.566135 
L 336.016443 219.761075 
L 337.030989 219.509655 
L 338.045534 219.590813 
L 339.06008 219.080899 
L 340.074625 219.391155 
L 341.08917 219.543497 
L 342.103716 219.814701 
L 343.118261 219.158296 
L 344.132807 218.815704 
L 345.147352 218.708443 
L 346.161898 219.123868 
L 347.176443 219.254464 
L 350.22008 218.483377 
L 351.234625 218.623934 
L 352.24917 219.209954 
L 354.278261 219.108839 
L 355.292807 218.501681 
L 356.307352 218.437843 
L 357.321898 218.648327 
L 358.336443 218.63536 
L 359.350989 218.109696 
L 360.365534 218.241809 
L 361.38008 218.757279 
L 362.394625 218.732502 
L 364.423716 219.69418 
L 365.438261 219.759936 
L 366.452807 219.482798 
L 367.467352 219.340397 
L 368.481898 218.931393 
L 369.496443 218.924503 
L 369.496443 218.924503 
" clip-path="url(#p248f1cc4a9)" style="fill: none; stroke: #d55e00; stroke-opacity: 0.2; stroke-width: 1.5; stroke-linecap: round"/>
   </g>
   <g id="line2d_17">
    <path d="M 65.132807 227.687692 
L 66.147352 228.047035 
L 68.176443 227.922976 
L 69.190989 227.721296 
L 70.205534 228.108352 
L 71.22008 225.835125 
L 72.234625 227.635063 
L 73.24917 227.553907 
L 74.263716 227.849719 
L 75.278261 227.347614 
L 77.307352 227.917616 
L 78.321898 227.239183 
L 79.336443 227.383434 
L 80.350989 227.096184 
L 82.38008 227.027535 
L 83.394625 227.178862 
L 84.40917 226.790761 
L 85.423716 226.963382 
L 86.438261 227.270691 
L 87.452807 226.952341 
L 88.467352 227.225187 
L 89.481898 227.022516 
L 90.496443 226.58757 
L 91.510989 226.976658 
L 92.525534 227.134027 
L 93.54008 226.971723 
L 94.554625 227.004578 
L 95.56917 226.805081 
L 96.583716 226.952959 
L 97.598261 226.796071 
L 98.612807 226.862311 
L 99.627352 227.163592 
L 100.641898 226.895417 
L 101.656443 226.926028 
L 102.670989 227.404527 
L 103.685534 226.862258 
L 104.70008 227.081036 
L 105.714625 226.594759 
L 106.72917 226.797547 
L 107.743716 226.866662 
L 108.758261 226.759165 
L 109.772807 226.997855 
L 111.801898 227.049466 
L 113.830989 226.817344 
L 115.86008 227.070484 
L 116.874625 227.211387 
L 117.88917 227.128792 
L 118.903716 227.264289 
L 119.918261 227.103533 
L 122.961898 227.142943 
L 123.976443 227.315447 
L 124.990989 227.041759 
L 128.034625 227.070624 
L 129.04917 226.81239 
L 131.078261 227.255826 
L 132.092807 227.194594 
L 133.107352 227.334667 
L 134.121898 227.124331 
L 135.136443 227.30096 
L 137.165534 227.000071 
L 138.18008 227.259721 
L 141.223716 227.343731 
L 142.238261 227.555484 
L 143.252807 227.275222 
L 144.267352 227.407862 
L 145.281898 227.190909 
L 150.354625 227.179384 
L 151.36917 227.472536 
L 152.383716 227.384677 
L 153.398261 227.441937 
L 154.412807 227.257102 
L 156.441898 227.497253 
L 157.456443 227.50617 
L 159.485534 227.240116 
L 160.50008 227.365392 
L 161.514625 227.248576 
L 162.52917 227.455033 
L 163.543716 227.366457 
L 164.558261 227.591795 
L 165.572807 227.51434 
L 166.587352 227.304776 
L 167.601898 227.464246 
L 168.616443 227.348771 
L 172.674625 227.460084 
L 173.68917 227.560872 
L 177.747352 227.436923 
L 178.761898 227.231575 
L 180.790989 227.569167 
L 181.805534 227.369988 
L 184.84917 227.526058 
L 185.863716 227.535871 
L 186.878261 227.379901 
L 190.936443 227.469984 
L 194.994625 227.493622 
L 196.00917 227.386113 
L 197.023716 227.523679 
L 198.038261 227.347568 
L 201.081898 227.259655 
L 202.096443 227.565897 
L 204.125534 227.555947 
L 207.16917 227.635387 
L 208.183716 227.511272 
L 211.227352 227.548824 
L 212.241898 227.411228 
L 214.270989 227.528627 
L 215.285534 227.468308 
L 216.30008 226.872236 
L 217.314625 224.974127 
L 218.32917 221.497435 
L 220.358261 221.01825 
L 221.372807 222.653278 
L 222.387352 221.789888 
L 223.401898 221.504936 
L 224.416443 222.747694 
L 225.430989 222.838095 
L 226.445534 223.835257 
L 227.46008 224.239812 
L 228.474625 222.90986 
L 229.48917 223.545423 
L 230.503716 223.703731 
L 231.518261 222.763251 
L 232.532807 222.105389 
L 233.547352 222.44871 
L 235.576443 223.624862 
L 236.590989 223.367622 
L 237.605534 222.265723 
L 239.634625 222.723441 
L 240.64917 221.845632 
L 241.663716 222.116284 
L 242.678261 223.345845 
L 243.692807 223.143555 
L 244.707352 222.545464 
L 245.721898 222.847381 
L 246.736443 222.762685 
L 247.750989 223.094274 
L 248.765534 222.751171 
L 249.78008 223.647572 
L 250.794625 223.909838 
L 251.80917 223.202227 
L 252.823716 222.782393 
L 253.838261 223.162019 
L 254.852807 223.260333 
L 255.867352 223.521295 
L 256.881898 222.93866 
L 257.896443 223.762424 
L 258.910989 223.882267 
L 259.925534 224.123586 
L 260.94008 223.343851 
L 261.954625 223.79519 
L 262.96917 223.408472 
L 263.983716 223.197077 
L 266.012807 224.042666 
L 267.027352 223.496137 
L 268.041898 223.977047 
L 269.056443 224.270525 
L 271.085534 224.244905 
L 272.10008 223.776376 
L 273.114625 223.916127 
L 274.12917 223.7424 
L 275.143716 223.978513 
L 277.172807 223.48112 
L 278.187352 224.219375 
L 279.201898 224.506539 
L 280.216443 224.531776 
L 281.230989 224.419278 
L 282.245534 224.066539 
L 283.26008 224.769943 
L 284.274625 224.137114 
L 285.28917 224.639789 
L 286.303716 224.441032 
L 288.332807 224.439062 
L 289.347352 224.631469 
L 290.361898 224.425957 
L 291.376443 224.656408 
L 292.390989 224.555904 
L 293.405534 224.707701 
L 294.42008 224.542464 
L 295.434625 224.497878 
L 301.521898 224.926482 
L 303.550989 224.441203 
L 304.565534 224.599141 
L 305.58008 224.1657 
L 306.594625 224.523808 
L 307.60917 224.578788 
L 308.623716 224.456353 
L 310.652807 224.878249 
L 311.667352 224.512956 
L 314.710989 224.909811 
L 315.725534 224.83386 
L 316.74008 225.016102 
L 317.754625 224.831257 
L 318.76917 224.389471 
L 319.783716 224.691063 
L 320.798261 224.780959 
L 321.812807 224.995047 
L 322.827352 224.851046 
L 323.841898 225.054623 
L 324.856443 224.940123 
L 325.870989 225.063557 
L 327.90008 224.919261 
L 328.914625 224.673819 
L 329.92917 224.672091 
L 330.943716 224.952889 
L 331.958261 225.004108 
L 332.972807 225.331661 
L 333.987352 225.189311 
L 335.001898 225.216066 
L 336.016443 224.898656 
L 337.030989 225.011103 
L 338.045534 224.778723 
L 339.06008 224.9329 
L 340.074625 224.745578 
L 341.08917 224.789305 
L 342.103716 225.155389 
L 343.118261 224.735966 
L 345.147352 225.358788 
L 346.161898 224.90957 
L 347.176443 225.299208 
L 348.190989 225.30647 
L 349.205534 225.112186 
L 350.22008 225.24302 
L 351.234625 225.129091 
L 352.24917 225.389407 
L 353.263716 225.205393 
L 354.278261 225.622405 
L 355.292807 226.293738 
L 358.336443 225.772814 
L 359.350989 225.767978 
L 360.365534 225.959927 
L 361.38008 225.914991 
L 362.394625 226.14664 
L 363.40917 225.801425 
L 364.423716 225.834519 
L 365.438261 226.284946 
L 366.452807 226.121765 
L 367.467352 225.753067 
L 368.481898 224.939682 
L 369.496443 225.189808 
L 369.496443 225.189808 
" clip-path="url(#p248f1cc4a9)" style="fill: none; stroke: #cc78bc; stroke-opacity: 0.2; stroke-width: 1.5; stroke-linecap: round"/>
   </g>
   <g id="line2d_18">
    <path d="M 65.132807 228.064577 
L 66.147352 228.394244 
L 68.176443 228.446886 
L 69.190989 228.273117 
L 70.205534 227.176534 
L 71.22008 226.439729 
L 72.234625 226.197336 
L 73.24917 226.512502 
L 74.263716 226.605685 
L 75.278261 225.657603 
L 76.292807 226.403165 
L 77.307352 225.917973 
L 78.321898 225.637801 
L 79.336443 226.146328 
L 80.350989 224.903263 
L 81.365534 224.932677 
L 82.38008 224.197093 
L 83.394625 224.903304 
L 84.40917 225.252098 
L 86.438261 224.18654 
L 87.452807 225.029182 
L 88.467352 224.774639 
L 89.481898 224.757652 
L 90.496443 224.181025 
L 91.510989 224.17929 
L 92.525534 224.438541 
L 93.54008 224.525652 
L 94.554625 224.369807 
L 95.56917 223.921501 
L 96.583716 224.315776 
L 97.598261 224.463878 
L 98.612807 224.282762 
L 99.627352 224.229078 
L 100.641898 224.636475 
L 101.656443 223.976815 
L 103.685534 224.259524 
L 104.70008 224.694987 
L 106.72917 224.394742 
L 107.743716 224.456437 
L 108.758261 224.088019 
L 109.772807 223.979477 
L 110.787352 225.071951 
L 111.801898 225.07302 
L 112.816443 224.219373 
L 113.830989 224.49998 
L 114.845534 225.046112 
L 115.86008 224.625282 
L 116.874625 224.457234 
L 117.88917 224.747086 
L 118.903716 224.677949 
L 119.918261 225.027878 
L 120.932807 224.439483 
L 121.947352 224.784662 
L 122.961898 224.432348 
L 123.976443 224.326655 
L 124.990989 224.755963 
L 127.02008 224.582233 
L 128.034625 220.70111 
L 129.04917 221.768174 
L 130.063716 224.257841 
L 131.078261 224.822497 
L 132.092807 224.636731 
L 133.107352 224.284369 
L 134.121898 224.757752 
L 135.136443 224.804389 
L 136.150989 224.731099 
L 137.165534 224.542601 
L 138.18008 224.680933 
L 139.194625 224.45203 
L 140.20917 224.586363 
L 141.223716 224.485573 
L 142.238261 224.581509 
L 143.252807 224.25073 
L 144.267352 224.587055 
L 145.281898 224.424066 
L 146.296443 224.389222 
L 148.325534 224.812146 
L 150.354625 224.81341 
L 151.36917 224.562198 
L 152.383716 224.704802 
L 153.398261 224.37792 
L 154.412807 224.468518 
L 155.427352 224.805512 
L 156.441898 224.38418 
L 158.470989 224.184653 
L 159.485534 224.339557 
L 161.514625 224.00723 
L 162.52917 224.259738 
L 163.543716 223.873655 
L 164.558261 224.214172 
L 165.572807 224.408926 
L 167.601898 223.737597 
L 168.616443 223.817016 
L 169.630989 224.554753 
L 170.645534 224.109311 
L 171.66008 223.786916 
L 173.68917 224.018813 
L 174.703716 224.060239 
L 175.718261 224.352689 
L 176.732807 224.02392 
L 178.761898 224.090683 
L 180.790989 223.651007 
L 181.805534 223.901808 
L 183.834625 223.94216 
L 184.84917 224.183769 
L 185.863716 223.657453 
L 188.907352 223.564287 
L 189.921898 223.308746 
L 190.936443 223.262792 
L 191.950989 223.43049 
L 194.994625 223.339278 
L 196.00917 222.735468 
L 197.023716 223.399087 
L 198.038261 223.550101 
L 199.052807 223.242734 
L 200.067352 223.19989 
L 201.081898 223.430695 
L 203.110989 223.141372 
L 204.125534 223.166512 
L 205.14008 222.944041 
L 206.154625 222.961856 
L 207.16917 222.804457 
L 208.183716 222.97621 
L 209.198261 222.813367 
L 213.256443 223.147338 
L 214.270989 222.93862 
L 216.30008 222.049554 
L 217.314625 222.683718 
L 218.32917 220.970607 
L 219.343716 221.483889 
L 220.358261 213.356606 
L 221.372807 218.385664 
L 222.387352 216.224044 
L 223.401898 212.400299 
L 224.416443 212.629357 
L 225.430989 213.786234 
L 226.445534 217.708759 
L 227.46008 215.945532 
L 228.474625 216.542907 
L 229.48917 216.821423 
L 230.503716 216.005535 
L 231.518261 213.841385 
L 232.532807 214.147744 
L 233.547352 214.862815 
L 234.561898 214.590518 
L 235.576443 215.084906 
L 236.590989 214.864563 
L 237.605534 214.103101 
L 238.62008 214.237428 
L 239.634625 213.612164 
L 240.64917 213.763082 
L 241.663716 214.919818 
L 242.678261 215.419571 
L 243.692807 214.334838 
L 244.707352 215.74998 
L 245.721898 215.16957 
L 246.736443 215.850406 
L 247.750989 215.31982 
L 248.765534 216.30862 
L 249.78008 214.902865 
L 250.794625 214.981315 
L 251.80917 215.527512 
L 252.823716 215.125997 
L 253.838261 216.074369 
L 254.852807 216.537699 
L 255.867352 216.289614 
L 256.881898 216.573248 
L 257.896443 215.762384 
L 259.925534 215.961089 
L 260.94008 217.024351 
L 262.96917 216.959085 
L 263.983716 216.362039 
L 264.998261 216.318187 
L 266.012807 216.795574 
L 267.027352 217.66726 
L 268.041898 216.46413 
L 269.056443 216.842513 
L 270.070989 216.046059 
L 271.085534 216.610848 
L 273.114625 216.939093 
L 274.12917 216.644642 
L 275.143716 216.225344 
L 276.158261 216.470776 
L 277.172807 217.700717 
L 278.187352 217.368155 
L 279.201898 217.478659 
L 280.216443 216.880463 
L 281.230989 217.291173 
L 282.245534 217.452109 
L 283.26008 217.389113 
L 284.274625 217.484308 
L 285.28917 217.712595 
L 286.303716 217.32389 
L 287.318261 216.23314 
L 288.332807 217.571251 
L 289.347352 217.882794 
L 290.361898 216.986077 
L 291.376443 217.964233 
L 292.390989 217.590319 
L 294.42008 217.811497 
L 295.434625 217.275023 
L 296.44917 217.822291 
L 297.463716 217.051077 
L 299.492807 217.519928 
L 300.507352 217.512072 
L 301.521898 217.659305 
L 302.536443 218.120279 
L 303.550989 217.401301 
L 305.58008 217.839773 
L 306.594625 217.784235 
L 307.60917 217.370658 
L 308.623716 217.519958 
L 309.638261 217.258726 
L 310.652807 217.595203 
L 311.667352 217.134697 
L 312.681898 216.814994 
L 313.696443 216.93618 
L 314.710989 217.847704 
L 315.725534 217.323915 
L 316.74008 217.314265 
L 317.754625 218.286811 
L 318.76917 217.693718 
L 319.783716 217.801674 
L 320.798261 217.663364 
L 321.812807 217.139648 
L 322.827352 217.387704 
L 323.841898 217.119145 
L 324.856443 217.187421 
L 325.870989 217.717956 
L 326.885534 217.24928 
L 328.914625 216.777778 
L 329.92917 217.436606 
L 330.943716 217.226072 
L 331.958261 216.829562 
L 332.972807 216.591784 
L 333.987352 216.601073 
L 335.001898 217.723123 
L 337.030989 216.582983 
L 339.06008 216.91781 
L 340.074625 216.465242 
L 341.08917 216.636893 
L 343.118261 216.119243 
L 345.147352 216.912343 
L 346.161898 216.960808 
L 347.176443 216.443758 
L 348.190989 216.875662 
L 349.205534 216.110028 
L 350.22008 216.037924 
L 352.24917 216.807194 
L 353.263716 215.99813 
L 354.278261 216.115088 
L 355.292807 216.626964 
L 356.307352 216.706388 
L 357.321898 216.191045 
L 358.336443 216.052558 
L 359.350989 215.764484 
L 360.365534 216.82784 
L 362.394625 216.647299 
L 363.40917 216.680788 
L 365.438261 217.477742 
L 366.452807 216.556116 
L 367.467352 216.630649 
L 368.481898 216.35027 
L 369.496443 215.58488 
L 369.496443 215.58488 
" clip-path="url(#p248f1cc4a9)" style="fill: none; stroke: #ca9161; stroke-opacity: 0.2; stroke-width: 1.5; stroke-linecap: round"/>
   </g>
   <g id="line2d_19">
    <path d="M 67.161898 225.155599 
L 68.176443 224.60173 
L 69.190989 224.547829 
L 70.205534 223.842075 
L 71.22008 222.682233 
L 72.234625 222.891152 
L 73.24917 222.669843 
L 74.263716 222.222362 
L 75.278261 222.692684 
L 76.292807 222.643502 
L 77.307352 222.437122 
L 78.321898 221.531053 
L 79.336443 221.069347 
L 80.350989 219.491484 
L 81.365534 218.376237 
L 82.38008 216.935537 
L 83.394625 216.133259 
L 84.40917 215.02575 
L 85.423716 214.848213 
L 87.452807 213.30651 
L 89.481898 212.35626 
L 92.525534 211.542553 
L 93.54008 211.404841 
L 94.554625 211.496087 
L 95.56917 212.251542 
L 96.583716 213.245074 
L 98.612807 213.124922 
L 99.627352 212.808965 
L 101.656443 211.37796 
L 103.685534 210.754253 
L 104.70008 211.571091 
L 105.714625 211.432779 
L 106.72917 211.064995 
L 107.743716 210.919466 
L 108.758261 211.114796 
L 110.787352 209.485688 
L 111.801898 209.134854 
L 112.816443 209.477989 
L 113.830989 209.42799 
L 114.845534 209.497282 
L 115.86008 209.033696 
L 116.874625 210.056297 
L 117.88917 210.24902 
L 118.903716 210.623743 
L 119.918261 210.833303 
L 120.932807 211.625679 
L 121.947352 210.575661 
L 122.961898 210.960577 
L 123.976443 211.154303 
L 124.990989 210.729027 
L 126.005534 211.118958 
L 127.02008 212.449428 
L 128.034625 212.66698 
L 129.04917 212.680553 
L 130.063716 213.620887 
L 131.078261 213.812739 
L 132.092807 213.120513 
L 133.107352 213.090007 
L 134.121898 212.829981 
L 135.136443 212.851461 
L 136.150989 213.053542 
L 137.165534 214.157355 
L 140.20917 213.885707 
L 141.223716 214.236899 
L 142.238261 213.325997 
L 144.267352 213.988489 
L 146.296443 213.927565 
L 147.310989 214.031349 
L 148.325534 213.934465 
L 149.34008 214.539309 
L 150.354625 214.751627 
L 151.36917 215.101374 
L 152.383716 216.016699 
L 154.412807 215.438602 
L 156.441898 215.803634 
L 157.456443 215.641191 
L 158.470989 216.493829 
L 159.485534 216.853903 
L 166.587352 218.209483 
L 167.601898 218.248697 
L 168.616443 218.175791 
L 169.630989 218.664606 
L 170.645534 218.743319 
L 172.674625 219.36576 
L 175.718261 219.213317 
L 176.732807 218.750128 
L 177.747352 218.928291 
L 178.761898 219.71948 
L 180.790989 220.124214 
L 181.805534 220.529396 
L 182.82008 220.1803 
L 183.834625 219.551432 
L 184.84917 220.016337 
L 186.878261 219.544432 
L 187.892807 220.127121 
L 188.907352 220.484696 
L 189.921898 220.423519 
L 191.950989 220.902652 
L 192.965534 220.850408 
L 193.98008 220.590132 
L 194.994625 220.445173 
L 197.023716 221.159217 
L 198.038261 221.13234 
L 199.052807 221.385904 
L 201.081898 221.50933 
L 202.096443 221.345225 
L 204.125534 221.897913 
L 205.14008 222.003425 
L 206.154625 221.593421 
L 207.16917 221.870785 
L 209.198261 221.493485 
L 210.212807 221.499879 
L 211.227352 222.006006 
L 214.270989 221.727971 
L 215.285534 221.421813 
L 219.343716 166.364198 
L 220.358261 156.590061 
L 222.387352 122.233239 
L 223.401898 112.372762 
L 224.416443 110.977679 
L 225.430989 114.11085 
L 226.445534 125.932075 
L 227.46008 133.198509 
L 228.474625 130.256242 
L 229.48917 125.444477 
L 230.503716 119.285024 
L 231.518261 116.419389 
L 232.532807 109.521232 
L 234.561898 100.206924 
L 235.576443 97.022249 
L 236.590989 92.788163 
L 237.605534 90.765969 
L 238.62008 86.831933 
L 239.634625 81.751011 
L 240.64917 79.045541 
L 241.663716 79.348506 
L 243.692807 81.457189 
L 244.707352 85.539183 
L 245.721898 84.522881 
L 247.750989 77.555874 
L 248.765534 77.707822 
L 249.78008 72.749032 
L 250.794625 70.556316 
L 252.823716 67.122928 
L 253.838261 63.174744 
L 255.867352 64.755968 
L 257.896443 68.355528 
L 259.925534 61.966772 
L 260.94008 55.583094 
L 261.954625 47.726073 
L 262.96917 43.311361 
L 264.998261 41.503532 
L 266.012807 43.463429 
L 267.027352 47.857075 
L 268.041898 47.389636 
L 269.056443 48.332805 
L 270.070989 48.554629 
L 271.085534 50.219496 
L 272.10008 46.948311 
L 273.114625 46.116963 
L 274.12917 42.123148 
L 275.143716 39.480057 
L 276.158261 35.081857 
L 277.172807 37.153806 
L 278.187352 36.200767 
L 279.201898 38.247167 
L 280.216443 37.817207 
L 281.230989 41.0632 
L 282.245534 37.390752 
L 283.26008 36.810038 
L 284.274625 37.911705 
L 285.28917 39.769339 
L 286.303716 40.045367 
L 287.318261 42.147039 
L 289.347352 40.725287 
L 290.361898 41.692966 
L 291.376443 40.816488 
L 292.390989 40.13646 
L 293.405534 41.603 
L 294.42008 40.883418 
L 295.434625 37.961438 
L 296.44917 36.861078 
L 297.463716 39.277623 
L 298.478261 39.057076 
L 299.492807 37.611371 
L 300.507352 38.450598 
L 301.521898 40.997556 
L 302.536443 38.017805 
L 303.550989 37.291664 
L 304.565534 37.587931 
L 305.58008 36.905909 
L 306.594625 33.67276 
L 307.60917 33.031945 
L 308.623716 32.615626 
L 309.638261 30.218599 
L 310.652807 26.950154 
L 311.667352 27.403648 
L 312.681898 29.735302 
L 313.696443 31.616762 
L 314.710989 36.76757 
L 315.725534 43.802996 
L 316.74008 45.474117 
L 318.76917 43.246249 
L 319.783716 44.170842 
L 320.798261 41.455757 
L 321.812807 42.505741 
L 322.827352 44.441202 
L 323.841898 47.647572 
L 324.856443 45.657843 
L 325.870989 44.393051 
L 326.885534 41.838284 
L 327.90008 40.989764 
L 328.914625 39.218079 
L 329.92917 39.716779 
L 330.943716 41.486288 
L 331.958261 41.58192 
L 332.972807 42.264905 
L 333.987352 42.468539 
L 336.016443 45.86285 
L 337.030989 49.061535 
L 339.06008 52.714444 
L 340.074625 54.324251 
L 341.08917 56.87688 
L 343.118261 60.961906 
L 344.132807 65.458903 
L 345.147352 67.022878 
L 346.161898 70.864653 
L 347.176443 71.716127 
L 348.190989 73.487968 
L 349.205534 73.59488 
L 350.22008 74.774303 
L 351.234625 73.207235 
L 352.24917 77.454536 
L 353.263716 80.13157 
L 354.278261 83.157007 
L 356.307352 90.823564 
L 357.321898 92.699023 
L 358.336443 94.941433 
L 359.350989 98.091786 
L 360.365534 102.009834 
L 361.38008 104.415631 
L 362.394625 107.770506 
L 363.40917 112.47937 
L 364.423716 116.206665 
L 365.438261 118.967029 
L 366.452807 122.877664 
L 367.467352 122.13819 
L 367.467352 122.13819 
" clip-path="url(#p248f1cc4a9)" style="fill: none; stroke: #0173b2; stroke-width: 1.5; stroke-linecap: round"/>
   </g>
   <g id="line2d_20">
    <path d="M 67.161898 227.498682 
L 68.176443 226.957707 
L 70.205534 226.30357 
L 71.22008 226.055232 
L 79.336443 225.820039 
L 81.365534 225.35217 
L 82.38008 224.903067 
L 84.40917 224.748093 
L 85.423716 224.569706 
L 89.481898 224.320318 
L 90.496443 224.497443 
L 92.525534 224.44168 
L 94.554625 224.655257 
L 96.583716 224.346698 
L 97.598261 224.443659 
L 100.641898 224.379357 
L 101.656443 224.646259 
L 109.772807 224.669356 
L 110.787352 224.579177 
L 111.801898 224.698043 
L 112.816443 224.594747 
L 118.903716 224.927004 
L 119.918261 224.819778 
L 120.932807 224.863633 
L 122.961898 224.749382 
L 126.005534 225.033218 
L 129.04917 225.173048 
L 131.078261 225.034685 
L 135.136443 224.983864 
L 138.18008 224.924378 
L 141.223716 225.212645 
L 145.281898 225.245577 
L 149.34008 225.151912 
L 157.456443 225.273961 
L 163.543716 225.102367 
L 166.587352 225.219863 
L 169.630989 225.367629 
L 176.732807 225.216135 
L 178.761898 225.0815 
L 185.863716 225.248136 
L 189.921898 225.147025 
L 199.052807 225.136405 
L 201.081898 225.15534 
L 205.14008 225.061603 
L 208.183716 225.195871 
L 211.227352 225.268901 
L 213.256443 225.323848 
L 215.285534 225.010475 
L 220.358261 222.668437 
L 221.372807 221.790687 
L 222.387352 220.456827 
L 223.401898 220.429584 
L 224.416443 220.140497 
L 225.430989 220.238344 
L 227.46008 221.937321 
L 229.48917 221.822529 
L 232.532807 220.499973 
L 233.547352 220.295279 
L 234.561898 220.204439 
L 235.576443 220.40478 
L 236.590989 220.335121 
L 237.605534 220.480353 
L 238.62008 220.275057 
L 240.64917 220.354645 
L 241.663716 220.76053 
L 245.721898 221.233189 
L 247.750989 221.329918 
L 248.765534 221.50695 
L 249.78008 221.487226 
L 251.80917 221.604707 
L 252.823716 221.671741 
L 254.852807 221.960604 
L 257.896443 222.128228 
L 258.910989 222.03438 
L 260.94008 222.0163 
L 262.96917 222.03035 
L 268.041898 222.825445 
L 271.085534 222.914818 
L 277.172807 223.147266 
L 279.201898 223.066051 
L 281.230989 223.409694 
L 282.245534 223.401278 
L 284.274625 223.581601 
L 285.28917 223.432223 
L 289.347352 223.45902 
L 293.405534 223.705262 
L 295.434625 223.768688 
L 301.521898 223.603578 
L 313.696443 223.76028 
L 322.827352 223.969352 
L 325.870989 223.946256 
L 330.943716 224.217929 
L 333.987352 224.157922 
L 339.06008 224.153027 
L 359.350989 224.414774 
L 361.38008 224.522352 
L 366.452807 224.515135 
L 367.467352 224.394645 
L 367.467352 224.394645 
" clip-path="url(#p248f1cc4a9)" style="fill: none; stroke: #de8f05; stroke-width: 1.5; stroke-linecap: round"/>
   </g>
   <g id="line2d_21">
    <path d="M 67.161898 228.273358 
L 68.176443 228.190293 
L 72.234625 227.290526 
L 74.263716 227.321005 
L 76.292807 227.432929 
L 77.307352 227.432137 
L 78.321898 227.201727 
L 80.350989 226.575496 
L 81.365534 226.428309 
L 82.38008 226.076869 
L 83.394625 225.93552 
L 84.40917 226.022249 
L 88.467352 225.91589 
L 91.510989 225.6814 
L 93.54008 225.226674 
L 94.554625 225.034103 
L 99.627352 225.013608 
L 100.641898 224.81323 
L 102.670989 224.758275 
L 106.72917 224.977271 
L 107.743716 225.152116 
L 111.801898 225.220315 
L 112.816443 225.084686 
L 116.874625 225.20752 
L 117.88917 225.32785 
L 123.976443 225.413907 
L 126.005534 225.614943 
L 139.194625 225.518769 
L 140.20917 225.345162 
L 141.223716 225.374067 
L 143.252807 225.242702 
L 145.281898 225.374972 
L 152.383716 225.118638 
L 154.412807 225.282307 
L 156.441898 225.268308 
L 158.470989 224.534765 
L 161.514625 224.263146 
L 163.543716 224.667761 
L 166.587352 224.659772 
L 173.68917 224.337282 
L 175.718261 223.98314 
L 178.761898 224.009186 
L 180.790989 224.053111 
L 182.82008 223.666495 
L 183.834625 223.36751 
L 185.863716 223.250754 
L 187.892807 223.220429 
L 189.921898 222.920167 
L 191.950989 222.488545 
L 192.965534 222.355419 
L 194.994625 221.41309 
L 196.00917 221.470625 
L 198.038261 221.343352 
L 200.067352 222.10924 
L 204.125534 221.621856 
L 214.270989 220.900974 
L 215.285534 220.640759 
L 219.343716 226.112623 
L 220.358261 225.938094 
L 221.372807 225.897539 
L 224.416443 224.033718 
L 225.430989 223.622462 
L 226.445534 223.342564 
L 227.46008 223.528089 
L 229.48917 223.670405 
L 231.518261 223.136013 
L 232.532807 222.465345 
L 234.561898 221.403902 
L 236.590989 221.004502 
L 238.62008 221.148057 
L 239.634625 220.781081 
L 241.663716 220.52487 
L 243.692807 220.042243 
L 244.707352 220.43481 
L 245.721898 220.21434 
L 246.736443 220.313489 
L 247.750989 220.239155 
L 248.765534 219.979054 
L 249.78008 219.578854 
L 250.794625 219.441976 
L 254.852807 219.681494 
L 255.867352 220.00186 
L 256.881898 220.057883 
L 257.896443 220.258509 
L 259.925534 220.316687 
L 263.983716 220.233854 
L 264.998261 220.271082 
L 266.012807 220.135314 
L 268.041898 220.391767 
L 269.056443 220.42347 
L 270.070989 220.650239 
L 271.085534 220.692101 
L 272.10008 220.462798 
L 273.114625 220.423604 
L 277.172807 220.755058 
L 278.187352 220.611142 
L 283.26008 220.739146 
L 284.274625 220.585711 
L 285.28917 220.579015 
L 286.303716 220.385703 
L 289.347352 220.430262 
L 292.390989 220.161808 
L 296.44917 220.53227 
L 298.478261 220.419569 
L 301.521898 219.992277 
L 307.60917 219.162344 
L 308.623716 219.037976 
L 311.667352 219.041314 
L 312.681898 218.819569 
L 313.696443 218.744013 
L 314.710989 218.451082 
L 316.74008 218.29724 
L 317.754625 218.178356 
L 318.76917 217.9398 
L 320.798261 217.831722 
L 321.812807 217.78698 
L 324.856443 217.16403 
L 326.885534 216.361327 
L 329.92917 216.305178 
L 331.958261 216.124652 
L 333.987352 215.54268 
L 335.001898 215.651949 
L 337.030989 215.43559 
L 338.045534 215.735274 
L 339.06008 215.859019 
L 340.074625 215.542009 
L 342.103716 215.19712 
L 343.118261 214.669769 
L 344.132807 214.010284 
L 345.147352 213.697062 
L 349.205534 213.29131 
L 351.234625 213.239196 
L 354.278261 212.430504 
L 355.292807 211.917954 
L 356.307352 211.199246 
L 357.321898 210.991252 
L 358.336443 211.11483 
L 359.350989 211.058909 
L 361.38008 211.14427 
L 364.423716 210.023538 
L 366.452807 209.72584 
L 367.467352 209.65469 
L 367.467352 209.65469 
" clip-path="url(#p248f1cc4a9)" style="fill: none; stroke: #029e73; stroke-width: 1.5; stroke-linecap: round"/>
   </g>
   <g id="line2d_22">
    <path d="M 67.161898 226.81235 
L 68.176443 227.268987 
L 69.190989 226.006171 
L 70.205534 225.424258 
L 73.24917 224.232808 
L 74.263716 225.199877 
L 75.278261 225.394721 
L 77.307352 225.414396 
L 82.38008 223.858692 
L 84.40917 223.743924 
L 85.423716 223.614278 
L 89.481898 223.76553 
L 92.525534 223.857763 
L 94.554625 223.797612 
L 99.627352 223.828543 
L 101.656443 224.061542 
L 108.758261 223.767709 
L 110.787352 224.064323 
L 116.874625 224.310342 
L 118.903716 224.513781 
L 123.976443 224.181358 
L 127.02008 224.222928 
L 128.034625 224.235866 
L 130.063716 224.43388 
L 132.092807 224.393672 
L 134.121898 224.290127 
L 136.150989 223.910045 
L 138.18008 224.02513 
L 139.194625 224.053942 
L 140.20917 224.324839 
L 141.223716 224.476046 
L 145.281898 224.396799 
L 147.310989 223.017305 
L 150.354625 223.108717 
L 151.36917 223.901177 
L 152.383716 224.517917 
L 155.427352 224.36251 
L 159.485534 224.352244 
L 161.514625 224.526579 
L 164.558261 224.68183 
L 171.66008 224.268429 
L 173.68917 224.370183 
L 177.747352 224.427931 
L 180.790989 224.457943 
L 184.84917 224.40054 
L 191.950989 224.333405 
L 193.98008 224.272519 
L 196.00917 224.207989 
L 198.038261 224.17619 
L 200.067352 224.351693 
L 204.125534 224.26048 
L 206.154625 224.254801 
L 213.256443 224.370554 
L 215.285534 224.105438 
L 219.343716 220.372258 
L 220.358261 221.487637 
L 221.372807 221.494562 
L 222.387352 221.238973 
L 223.401898 221.189292 
L 225.430989 221.80158 
L 226.445534 221.941132 
L 227.46008 222.314147 
L 229.48917 222.104179 
L 230.503716 221.784771 
L 231.518261 221.711165 
L 232.532807 221.504451 
L 234.561898 221.266811 
L 235.576443 221.386538 
L 238.62008 221.257612 
L 240.64917 221.149799 
L 241.663716 221.271301 
L 242.678261 221.188957 
L 246.736443 221.378958 
L 248.765534 221.714773 
L 251.80917 221.45591 
L 252.823716 221.305418 
L 254.852807 221.387095 
L 255.867352 221.604138 
L 259.925534 221.760746 
L 260.94008 221.507925 
L 263.983716 221.124295 
L 269.056443 221.841439 
L 271.085534 221.851846 
L 274.12917 221.914699 
L 276.158261 221.575435 
L 279.201898 221.409766 
L 281.230989 221.540368 
L 284.274625 221.386732 
L 285.28917 221.501211 
L 287.318261 221.450678 
L 289.347352 221.544831 
L 295.434625 221.030895 
L 296.44917 221.153631 
L 297.463716 220.972822 
L 299.492807 221.124566 
L 300.507352 221.120944 
L 306.594625 220.316901 
L 307.60917 220.351787 
L 309.638261 220.721783 
L 312.681898 221.073486 
L 315.725534 220.550494 
L 320.798261 219.919893 
L 321.812807 219.713742 
L 322.827352 219.659201 
L 324.856443 219.781331 
L 325.870989 219.721934 
L 327.90008 219.852627 
L 336.016443 219.479533 
L 338.045534 219.466719 
L 344.132807 219.124203 
L 346.161898 218.986596 
L 355.292807 218.771142 
L 358.336443 218.414607 
L 361.38008 218.609212 
L 363.40917 219.229734 
L 365.438261 219.496416 
L 367.467352 219.287805 
L 367.467352 219.287805 
" clip-path="url(#p248f1cc4a9)" style="fill: none; stroke: #d55e00; stroke-width: 1.5; stroke-linecap: round"/>
   </g>
   <g id="line2d_23">
    <path d="M 67.161898 227.876773 
L 68.176443 227.960905 
L 69.190989 227.518523 
L 73.24917 227.244286 
L 74.263716 227.603002 
L 75.278261 227.659513 
L 79.336443 227.329911 
L 80.350989 227.151895 
L 82.38008 227.021296 
L 85.423716 227.031207 
L 88.467352 227.011661 
L 91.510989 226.938499 
L 99.627352 226.928684 
L 100.641898 227.050375 
L 104.70008 226.948025 
L 106.72917 226.819834 
L 108.758261 226.889132 
L 111.801898 226.960578 
L 114.845534 226.980996 
L 121.947352 227.18273 
L 126.005534 227.107803 
L 128.034625 227.012326 
L 134.121898 227.227411 
L 138.18008 227.180827 
L 144.267352 227.325296 
L 147.310989 227.222826 
L 150.354625 227.310537 
L 157.456443 227.402163 
L 170.645534 227.416153 
L 174.703716 227.515168 
L 203.110989 227.494796 
L 206.154625 227.558129 
L 213.256443 227.485509 
L 215.285534 227.227017 
L 219.343716 221.913117 
L 220.358261 221.640514 
L 221.372807 221.642014 
L 224.416443 222.543174 
L 225.430989 223.033159 
L 226.445534 223.314144 
L 228.474625 223.646817 
L 229.48917 223.432415 
L 230.503716 223.005531 
L 233.547352 222.798297 
L 235.576443 222.951238 
L 237.605534 222.896384 
L 239.634625 222.29027 
L 241.663716 222.634952 
L 242.678261 222.599356 
L 244.707352 222.928986 
L 246.736443 222.800195 
L 248.765534 223.233108 
L 249.78008 223.321016 
L 250.794625 223.25864 
L 251.80917 223.34081 
L 254.852807 223.13294 
L 257.896443 223.645646 
L 258.910989 223.610158 
L 259.925534 223.781464 
L 262.96917 223.471827 
L 263.983716 223.61159 
L 264.998261 223.55178 
L 267.027352 223.880184 
L 269.056443 224.046064 
L 271.085534 224.089928 
L 275.143716 223.779001 
L 277.172807 223.992478 
L 281.230989 224.458815 
L 283.26008 224.406533 
L 290.361898 224.54176 
L 293.405534 224.592071 
L 297.463716 224.637841 
L 300.507352 224.786787 
L 306.594625 224.464758 
L 307.60917 224.476688 
L 308.623716 224.619198 
L 311.667352 224.706426 
L 315.725534 224.878509 
L 318.76917 224.741771 
L 320.798261 224.741517 
L 322.827352 224.92436 
L 325.870989 225.001246 
L 328.914625 224.849345 
L 330.943716 224.926914 
L 333.987352 225.12796 
L 335.001898 225.129359 
L 338.045534 224.873392 
L 342.103716 224.886039 
L 344.132807 225.032734 
L 352.24917 225.317863 
L 355.292807 225.839235 
L 357.321898 225.981834 
L 359.350989 225.875662 
L 364.423716 226.037859 
L 366.452807 225.786796 
L 367.467352 225.657853 
L 367.467352 225.657853 
" clip-path="url(#p248f1cc4a9)" style="fill: none; stroke: #cc78bc; stroke-width: 1.5; stroke-linecap: round"/>
   </g>
   <g id="line2d_24">
    <path d="M 67.161898 228.330938 
L 68.176443 228.153329 
L 73.24917 226.282571 
L 75.278261 226.219386 
L 79.336443 225.507608 
L 80.350989 225.163432 
L 84.40917 224.645688 
L 85.423716 224.812106 
L 87.452807 224.687484 
L 90.496443 224.466229 
L 96.583716 224.270745 
L 97.598261 224.242599 
L 98.612807 224.385594 
L 101.656443 224.244477 
L 102.670989 224.337659 
L 104.70008 224.402031 
L 106.72917 224.434919 
L 107.743716 224.291817 
L 109.772807 224.533781 
L 110.787352 224.486368 
L 111.801898 224.56876 
L 112.816443 224.782087 
L 114.845534 224.569596 
L 116.874625 224.710732 
L 121.947352 224.602205 
L 123.976443 224.604047 
L 124.990989 224.563561 
L 126.005534 223.817314 
L 127.02008 223.305617 
L 128.034625 223.205993 
L 130.063716 223.237271 
L 132.092807 224.551838 
L 133.107352 224.661148 
L 145.281898 224.447565 
L 148.325534 224.68866 
L 150.354625 224.746865 
L 153.398261 224.58379 
L 157.456443 224.400744 
L 159.485534 224.197506 
L 168.616443 224.054049 
L 170.645534 224.039378 
L 171.66008 224.079738 
L 172.674625 223.980835 
L 176.732807 224.111167 
L 177.747352 224.083039 
L 178.761898 223.942703 
L 186.878261 223.744384 
L 188.907352 223.490447 
L 197.023716 223.253333 
L 198.038261 223.225456 
L 199.052807 223.364501 
L 203.110989 223.187389 
L 207.16917 222.899986 
L 211.227352 222.968564 
L 212.241898 222.993614 
L 214.270989 222.732894 
L 215.285534 222.538747 
L 219.343716 219.489328 
L 220.358261 218.084162 
L 222.387352 214.599194 
L 223.401898 214.68512 
L 225.430989 214.494036 
L 227.46008 216.160971 
L 228.474625 216.604831 
L 229.48917 215.831356 
L 233.547352 214.505474 
L 234.561898 214.710109 
L 235.576443 214.70118 
L 237.605534 214.380432 
L 238.62008 214.116067 
L 239.634625 214.127118 
L 240.64917 214.390413 
L 241.663716 214.409894 
L 242.678261 214.837458 
L 244.707352 215.304873 
L 245.721898 215.284923 
L 246.736443 215.679679 
L 247.750989 215.510256 
L 251.80917 215.322411 
L 253.838261 215.911038 
L 255.867352 216.247463 
L 257.896443 216.081374 
L 262.96917 216.740798 
L 263.983716 216.695042 
L 264.998261 216.820429 
L 266.012807 216.721438 
L 267.027352 216.817533 
L 269.056443 216.726162 
L 270.070989 216.539747 
L 271.085534 216.63474 
L 274.12917 216.603008 
L 276.158261 216.881927 
L 279.201898 217.343834 
L 282.245534 217.299433 
L 283.26008 217.46586 
L 284.274625 217.472403 
L 285.28917 217.228609 
L 287.318261 217.344734 
L 288.332807 217.19943 
L 289.347352 217.327499 
L 290.361898 217.598935 
L 294.42008 217.636635 
L 297.463716 217.39669 
L 304.565534 217.758362 
L 305.58008 217.608437 
L 307.60917 217.55467 
L 309.638261 217.375848 
L 311.667352 217.14796 
L 312.681898 217.265755 
L 314.710989 217.247412 
L 315.725534 217.541775 
L 316.74008 217.693283 
L 319.783716 217.717043 
L 321.812807 217.422307 
L 322.827352 217.299457 
L 325.870989 217.264638 
L 326.885534 217.196365 
L 327.90008 217.246201 
L 331.958261 216.937019 
L 333.987352 216.989416 
L 336.016443 216.981638 
L 337.030989 217.044986 
L 338.045534 216.793409 
L 342.103716 216.431067 
L 346.161898 216.747079 
L 348.190989 216.485636 
L 349.205534 216.375787 
L 350.22008 216.448474 
L 351.234625 216.272967 
L 352.24917 216.27398 
L 354.278261 216.450753 
L 355.292807 216.327523 
L 360.365534 216.404846 
L 361.38008 216.530492 
L 362.394625 216.793251 
L 363.40917 216.923232 
L 366.452807 216.818612 
L 367.467352 216.519931 
L 367.467352 216.519931 
" clip-path="url(#p248f1cc4a9)" style="fill: none; stroke: #ca9161; stroke-width: 1.5; stroke-linecap: round"/>
   </g>
   <g id="line2d_25"/>
   <g id="line2d_26"/>
   <g id="line2d_27"/>
   <g id="line2d_28"/>
   <g id="line2d_29"/>
   <g id="line2d_30"/>
   <g id="line2d_31">
    <path d="M 217.821898 228.96 
L 217.821898 7.2 
" clip-path="url(#p248f1cc4a9)" style="fill: none; stroke: #ffffff; stroke-opacity: 0.7; stroke-width: 3; stroke-linecap: round"/>
   </g>
   <g id="patch_3">
    <path d="M 49.914625 228.96 
L 49.914625 7.2 
" style="fill: none; stroke: #262626; stroke-width: 1.25; stroke-linejoin: miter; stroke-linecap: square"/>
   </g>
   <g id="patch_4">
    <path d="M 49.914625 228.96 
L 384.714625 228.96 
" style="fill: none; stroke: #262626; stroke-width: 1.25; stroke-linejoin: miter; stroke-linecap: square"/>
   </g>
   <g id="line2d_32">
    <path d="M 217.821898 228.96 
L 217.821898 7.2 
" clip-path="url(#p248f1cc4a9)" style="fill: none; stroke-dasharray: 1.5,2.475; stroke-dashoffset: 0; stroke: #1a1a1a; stroke-width: 1.5"/>
   </g>
   <g id="legend_1">
    <g id="line2d_33">
     <path d="M 60.804625 73.463141 
L 72.904625 73.463141 
L 85.004625 73.463141 
" style="fill: none; stroke: #0173b2; stroke-width: 1.5; stroke-linecap: round"/>
    </g>
    <g id="text_15">
     <text style="fill: #262626; font: 12.1px 'Arial', 'DejaVu Sans', 'Liberation Sans', 'Bitstream Vera Sans', sans-serif; text-anchor: start" x="94.684625" y="77.698141" transform="rotate(-0 94.684625 77.698141)">GIAB - HG002 Long Insert (CB)</text>
    </g>
    <g id="line2d_34">
     <path d="M 60.804625 90.868234 
L 72.904625 90.868234 
L 85.004625 90.868234 
" style="fill: none; stroke: #de8f05; stroke-width: 1.5; stroke-linecap: round"/>
    </g>
    <g id="text_16">
     <text style="fill: #262626; font: 12.1px 'Arial', 'DejaVu Sans', 'Liberation Sans', 'Bitstream Vera Sans', sans-serif; text-anchor: start" x="94.684625" y="95.103234" transform="rotate(-0 94.684625 95.103234)">GIAB - HG002 Std Insert (CB)</text>
    </g>
    <g id="line2d_35">
     <path d="M 60.804625 108.273328 
L 72.904625 108.273328 
L 85.004625 108.273328 
" style="fill: none; stroke: #029e73; stroke-width: 1.5; stroke-linecap: round"/>
    </g>
    <g id="text_17">
     <text style="fill: #262626; font: 12.1px 'Arial', 'DejaVu Sans', 'Liberation Sans', 'Bitstream Vera Sans', sans-serif; text-anchor: start" x="94.684625" y="112.508328" transform="rotate(-0 94.684625 112.508328)">Arslan et al. 2024 - HG002 (CB)</text>
    </g>
    <g id="line2d_36">
     <path d="M 60.804625 125.678422 
L 72.904625 125.678422 
L 85.004625 125.678422 
" style="fill: none; stroke: #d55e00; stroke-width: 1.5; stroke-linecap: round"/>
    </g>
    <g id="text_18">
     <text style="fill: #262626; font: 12.1px 'Arial', 'DejaVu Sans', 'Liberation Sans', 'Bitstream Vera Sans', sans-serif; text-anchor: start" x="94.684625" y="129.913422" transform="rotate(-0 94.684625 129.913422)">Platinum Pedigree - NA12878 (CB)</text>
    </g>
    <g id="line2d_37">
     <path d="M 60.804625 143.083516 
L 72.904625 143.083516 
L 85.004625 143.083516 
" style="fill: none; stroke: #cc78bc; stroke-width: 1.5; stroke-linecap: round"/>
    </g>
    <g id="text_19">
     <text style="fill: #262626; font: 12.1px 'Arial', 'DejaVu Sans', 'Liberation Sans', 'Bitstream Vera Sans', sans-serif; text-anchor: start" x="94.684625" y="147.318516" transform="rotate(-0 94.684625 147.318516)">GIAB - HG008-N-D (CB)</text>
    </g>
    <g id="line2d_38">
     <path d="M 60.804625 160.488609 
L 72.904625 160.488609 
L 85.004625 160.488609 
" style="fill: none; stroke: #ca9161; stroke-width: 1.5; stroke-linecap: round"/>
    </g>
    <g id="text_20">
     <text style="fill: #262626; font: 12.1px 'Arial', 'DejaVu Sans', 'Liberation Sans', 'Bitstream Vera Sans', sans-serif; text-anchor: start" x="94.684625" y="164.723609" transform="rotate(-0 94.684625 164.723609)">Element Bio - HG002 (CB FS)</text>
    </g>
   </g>
  </g>
 </g>
 <defs>
  <clipPath id="p248f1cc4a9">
   <rect x="49.914625" y="7.2" width="334.8" height="221.76"/>
  </clipPath>
 </defs>
</svg>
