<?xml version="1.0" encoding="utf-8" standalone="no"?>
<!DOCTYPE svg PUBLIC "-//W3C//DTD SVG 1.1//EN"
  "http://www.w3.org/Graphics/SVG/1.1/DTD/svg11.dtd">
<svg xmlns:xlink="http://www.w3.org/1999/xlink" width="646.558844pt" height="273.113203pt" viewBox="0 0 646.558844 273.113203" xmlns="http://www.w3.org/2000/svg" version="1.1">
 <metadata>
  <rdf:RDF xmlns:dc="http://purl.org/dc/elements/1.1/" xmlns:cc="http://creativecommons.org/ns#" xmlns:rdf="http://www.w3.org/1999/02/22-rdf-syntax-ns#">
   <cc:Work>
    <dc:type rdf:resource="http://purl.org/dc/dcmitype/StillImage"/>
    <dc:date>2026-01-12T15:42:43.559218</dc:date>
    <dc:format>image/svg+xml</dc:format>
    <dc:creator>
     <cc:Agent>
      <dc:title>Matplotlib v3.9.2, https://matplotlib.org/</dc:title>
     </cc:Agent>
    </dc:creator>
   </cc:Work>
  </rdf:RDF>
 </metadata>
 <defs>
  <style type="text/css">*{stroke-linejoin: round; stroke-linecap: butt}</style>
 </defs>
 <g id="figure_1">
  <g id="patch_1">
   <path d="M 0 273.113203 
L 646.558844 273.113203 
L 646.558844 0 
L 0 0 
L 0 273.113203 
z
" style="fill: none"/>
  </g>
  <g id="axes_1">
   <g id="patch_2">
    <path d="M 49.906375 228.96 
L 384.706375 228.96 
L 384.706375 7.2 
L 49.906375 7.2 
L 49.906375 228.96 
z
" style="fill: none"/>
   </g>
   <g id="matplotlib.axis_1">
    <g id="xtick_1">
     <g id="line2d_1">
      <defs>
       <path id="m58147773d2" d="M 0 0 
L 0 6 
" style="stroke: #262626; stroke-width: 1.25"/>
      </defs>
      <g>
       <use xlink:href="#m58147773d2" x="64.106618" y="228.96" style="fill: #262626; stroke: #262626; stroke-width: 1.25"/>
      </g>
     </g>
     <g id="text_1">
      <text style="fill: #262626; font: 12.1px 'Arial', 'DejaVu Sans', 'Liberation Sans', 'Bitstream Vera Sans', sans-serif; text-anchor: middle" x="64.106618" y="247.120953" transform="rotate(-0 64.106618 247.120953)">0</text>
     </g>
    </g>
    <g id="xtick_2">
     <g id="line2d_2">
      <g>
       <use xlink:href="#m58147773d2" x="115.003547" y="228.96" style="fill: #262626; stroke: #262626; stroke-width: 1.25"/>
      </g>
     </g>
     <g id="text_2">
      <text style="fill: #262626; font: 12.1px 'Arial', 'DejaVu Sans', 'Liberation Sans', 'Bitstream Vera Sans', sans-serif; text-anchor: middle" x="115.003547" y="247.120953" transform="rotate(-0 115.003547 247.120953)">50</text>
     </g>
    </g>
    <g id="xtick_3">
     <g id="line2d_3">
      <g>
       <use xlink:href="#m58147773d2" x="165.900477" y="228.96" style="fill: #262626; stroke: #262626; stroke-width: 1.25"/>
      </g>
     </g>
     <g id="text_3">
      <text style="fill: #262626; font: 12.1px 'Arial', 'DejaVu Sans', 'Liberation Sans', 'Bitstream Vera Sans', sans-serif; text-anchor: middle" x="165.900477" y="247.120953" transform="rotate(-0 165.900477 247.120953)">100</text>
     </g>
    </g>
    <g id="xtick_4">
     <g id="line2d_4">
      <g>
       <use xlink:href="#m58147773d2" x="216.797406" y="228.96" style="fill: #262626; stroke: #262626; stroke-width: 1.25"/>
      </g>
     </g>
     <g id="text_4">
      <text style="fill: #262626; font: 12.1px 'Arial', 'DejaVu Sans', 'Liberation Sans', 'Bitstream Vera Sans', sans-serif; text-anchor: middle" x="216.797406" y="247.120953" transform="rotate(-0 216.797406 247.120953)">150</text>
     </g>
    </g>
    <g id="xtick_5">
     <g id="line2d_5">
      <g>
       <use xlink:href="#m58147773d2" x="267.694335" y="228.96" style="fill: #262626; stroke: #262626; stroke-width: 1.25"/>
      </g>
     </g>
     <g id="text_5">
      <text style="fill: #262626; font: 12.1px 'Arial', 'DejaVu Sans', 'Liberation Sans', 'Bitstream Vera Sans', sans-serif; text-anchor: middle" x="267.694335" y="247.120953" transform="rotate(-0 267.694335 247.120953)">200</text>
     </g>
    </g>
    <g id="xtick_6">
     <g id="line2d_6">
      <g>
       <use xlink:href="#m58147773d2" x="318.591264" y="228.96" style="fill: #262626; stroke: #262626; stroke-width: 1.25"/>
      </g>
     </g>
     <g id="text_6">
      <text style="fill: #262626; font: 12.1px 'Arial', 'DejaVu Sans', 'Liberation Sans', 'Bitstream Vera Sans', sans-serif; text-anchor: middle" x="318.591264" y="247.120953" transform="rotate(-0 318.591264 247.120953)">250</text>
     </g>
    </g>
    <g id="xtick_7">
     <g id="line2d_7">
      <g>
       <use xlink:href="#m58147773d2" x="369.488193" y="228.96" style="fill: #262626; stroke: #262626; stroke-width: 1.25"/>
      </g>
     </g>
     <g id="text_7">
      <text style="fill: #262626; font: 12.1px 'Arial', 'DejaVu Sans', 'Liberation Sans', 'Bitstream Vera Sans', sans-serif; text-anchor: middle" x="369.488193" y="247.120953" transform="rotate(-0 369.488193 247.120953)">300</text>
     </g>
    </g>
    <g id="text_8">
     <text style="fill: #262626; font: 13.2px 'Arial', 'DejaVu Sans', 'Liberation Sans', 'Bitstream Vera Sans', sans-serif; text-anchor: middle" x="217.306375" y="263.135016" transform="rotate(-0 217.306375 263.135016)">Cycle</text>
    </g>
   </g>
   <g id="matplotlib.axis_2">
    <g id="ytick_1">
     <g id="line2d_8">
      <defs>
       <path id="md5702142ab" d="M 0 0 
L -6 0 
" style="stroke: #262626; stroke-width: 1.25"/>
      </defs>
      <g>
       <use xlink:href="#md5702142ab" x="49.906375" y="221.742903" style="fill: #262626; stroke: #262626; stroke-width: 1.25"/>
      </g>
     </g>
     <g id="text_9">
      <text style="fill: #262626; font: 12.1px 'Arial', 'DejaVu Sans', 'Liberation Sans', 'Bitstream Vera Sans', sans-serif; text-anchor: end" x="40.406375" y="226.07338" transform="rotate(-0 40.406375 226.07338)">0.1</text>
     </g>
    </g>
    <g id="ytick_2">
     <g id="line2d_9">
      <g>
       <use xlink:href="#md5702142ab" x="49.906375" y="191.900301" style="fill: #262626; stroke: #262626; stroke-width: 1.25"/>
      </g>
     </g>
     <g id="text_10">
      <text style="fill: #262626; font: 12.1px 'Arial', 'DejaVu Sans', 'Liberation Sans', 'Bitstream Vera Sans', sans-serif; text-anchor: end" x="40.406375" y="196.230778" transform="rotate(-0 40.406375 196.230778)">0.2</text>
     </g>
    </g>
    <g id="ytick_3">
     <g id="line2d_10">
      <g>
       <use xlink:href="#md5702142ab" x="49.906375" y="162.057699" style="fill: #262626; stroke: #262626; stroke-width: 1.25"/>
      </g>
     </g>
     <g id="text_11">
      <text style="fill: #262626; font: 12.1px 'Arial', 'DejaVu Sans', 'Liberation Sans', 'Bitstream Vera Sans', sans-serif; text-anchor: end" x="40.406375" y="166.388175" transform="rotate(-0 40.406375 166.388175)">0.3</text>
     </g>
    </g>
    <g id="ytick_4">
     <g id="line2d_11">
      <g>
       <use xlink:href="#md5702142ab" x="49.906375" y="132.215096" style="fill: #262626; stroke: #262626; stroke-width: 1.25"/>
      </g>
     </g>
     <g id="text_12">
      <text style="fill: #262626; font: 12.1px 'Arial', 'DejaVu Sans', 'Liberation Sans', 'Bitstream Vera Sans', sans-serif; text-anchor: end" x="40.406375" y="136.545573" transform="rotate(-0 40.406375 136.545573)">0.4</text>
     </g>
    </g>
    <g id="ytick_5">
     <g id="line2d_12">
      <g>
       <use xlink:href="#md5702142ab" x="49.906375" y="102.372494" style="fill: #262626; stroke: #262626; stroke-width: 1.25"/>
      </g>
     </g>
     <g id="text_13">
      <text style="fill: #262626; font: 12.1px 'Arial', 'DejaVu Sans', 'Liberation Sans', 'Bitstream Vera Sans', sans-serif; text-anchor: end" x="40.406375" y="106.702971" transform="rotate(-0 40.406375 106.702971)">0.5</text>
     </g>
    </g>
    <g id="ytick_6">
     <g id="line2d_13">
      <g>
       <use xlink:href="#md5702142ab" x="49.906375" y="72.529892" style="fill: #262626; stroke: #262626; stroke-width: 1.25"/>
      </g>
     </g>
     <g id="text_14">
      <text style="fill: #262626; font: 12.1px 'Arial', 'DejaVu Sans', 'Liberation Sans', 'Bitstream Vera Sans', sans-serif; text-anchor: end" x="40.406375" y="76.860368" transform="rotate(-0 40.406375 76.860368)">0.6</text>
     </g>
    </g>
    <g id="ytick_7">
     <g id="line2d_14">
      <g>
       <use xlink:href="#md5702142ab" x="49.906375" y="42.687289" style="fill: #262626; stroke: #262626; stroke-width: 1.25"/>
      </g>
     </g>
     <g id="text_15">
      <text style="fill: #262626; font: 12.1px 'Arial', 'DejaVu Sans', 'Liberation Sans', 'Bitstream Vera Sans', sans-serif; text-anchor: end" x="40.406375" y="47.017766" transform="rotate(-0 40.406375 47.017766)">0.7</text>
     </g>
    </g>
    <g id="ytick_8">
     <g id="line2d_15">
      <g>
       <use xlink:href="#md5702142ab" x="49.906375" y="12.844687" style="fill: #262626; stroke: #262626; stroke-width: 1.25"/>
      </g>
     </g>
     <g id="text_16">
      <text style="fill: #262626; font: 12.1px 'Arial', 'DejaVu Sans', 'Liberation Sans', 'Bitstream Vera Sans', sans-serif; text-anchor: end" x="40.406375" y="17.175164" transform="rotate(-0 40.406375 17.175164)">0.8</text>
     </g>
    </g>
    <g id="text_17">
     <text style="fill: #262626; font: 13.2px 'Arial', 'DejaVu Sans', 'Liberation Sans', 'Bitstream Vera Sans', sans-serif; text-anchor: middle" x="16.809188" y="118.08" transform="rotate(-90 16.809188 118.08)">Reference-based error rate (%)</text>
    </g>
   </g>
   <g id="line2d_16">
    <path d="M 65.124557 206.355196 
L 66.142495 213.01836 
L 67.160434 214.916243 
L 68.178373 214.995965 
L 69.196311 211.817396 
L 70.21425 207.777323 
L 71.232188 198.678799 
L 72.250127 204.673332 
L 73.268065 202.353697 
L 74.286004 205.781717 
L 75.303943 201.373896 
L 76.321881 202.533713 
L 77.33982 204.200147 
L 79.375697 200.440384 
L 80.393636 196.534037 
L 81.411574 198.146466 
L 82.429513 195.6391 
L 83.447451 196.665191 
L 84.46539 197.374969 
L 85.483328 197.022652 
L 86.501267 196.258869 
L 87.519206 196.541752 
L 88.537144 195.847399 
L 89.555083 196.456877 
L 90.573021 196.209989 
L 91.59096 196.678016 
L 92.608899 195.376752 
L 93.626837 197.248906 
L 94.644776 195.68788 
L 95.662714 195.160587 
L 96.680653 196.785818 
L 97.698591 197.662669 
L 98.71653 197.091631 
L 99.734469 196.716052 
L 100.752407 196.011262 
L 101.770346 197.446131 
L 102.788284 197.507744 
L 103.806223 194.007483 
L 104.824162 194.565377 
L 105.8421 195.766148 
L 106.860039 195.601403 
L 107.877977 195.603768 
L 108.895916 193.222141 
L 109.913854 193.705416 
L 110.931793 194.373793 
L 111.949732 192.454964 
L 112.96767 192.521601 
L 113.985609 193.817483 
L 115.003547 194.125858 
L 116.021486 194.313275 
L 117.039425 195.583444 
L 118.057363 194.068356 
L 119.075302 193.834068 
L 120.09324 192.553005 
L 121.111179 193.668969 
L 122.129117 194.190702 
L 123.147056 192.750203 
L 124.164995 194.077003 
L 125.182933 189.935861 
L 126.200872 192.180789 
L 127.21881 192.640841 
L 128.236749 193.949523 
L 129.254688 193.645697 
L 130.272626 190.849423 
L 132.308503 192.473983 
L 133.326442 192.892736 
L 134.34438 191.467222 
L 135.362319 193.735423 
L 136.380258 190.630267 
L 137.398196 190.359688 
L 138.416135 192.342279 
L 139.434073 191.289719 
L 140.452012 190.522608 
L 141.469951 189.392829 
L 143.505828 192.375586 
L 145.541705 191.142235 
L 146.559643 190.418721 
L 147.577582 189.875384 
L 148.595521 188.863806 
L 149.613459 190.555822 
L 150.631398 191.651107 
L 151.649336 191.861451 
L 152.667275 189.913273 
L 153.685214 190.800045 
L 154.703152 189.657009 
L 155.721091 189.205991 
L 156.739029 187.661651 
L 157.756968 189.605794 
L 158.774906 188.601646 
L 159.792845 188.482575 
L 160.810784 188.106137 
L 161.828722 190.099273 
L 164.882538 187.716948 
L 165.900477 188.413463 
L 166.918415 188.181112 
L 167.936354 188.586856 
L 168.954292 187.484594 
L 169.972231 186.639841 
L 170.990169 186.90661 
L 172.008108 186.782416 
L 173.026047 188.696004 
L 174.043985 189.644683 
L 175.061924 188.511625 
L 176.079862 186.938593 
L 177.097801 184.709182 
L 178.11574 184.847228 
L 179.133678 188.04244 
L 180.151617 186.281281 
L 181.169555 187.81677 
L 182.187494 187.012886 
L 183.205432 187.557482 
L 184.223371 185.11921 
L 185.24131 184.255886 
L 186.259248 183.740018 
L 187.277187 186.840336 
L 188.295125 184.955192 
L 189.313064 185.046822 
L 190.331003 186.090786 
L 191.348941 186.887698 
L 192.36688 186.639718 
L 194.402757 185.564418 
L 195.420695 184.322487 
L 197.456573 186.408303 
L 198.474511 185.830749 
L 199.49245 184.558238 
L 200.510388 185.808255 
L 201.528327 185.536933 
L 202.546266 184.80482 
L 203.564204 183.699426 
L 204.582143 181.695434 
L 205.600081 184.091068 
L 206.61802 184.599614 
L 207.635958 184.79656 
L 208.653897 187.488094 
L 209.671836 187.149342 
L 210.689774 184.485546 
L 211.707713 184.630688 
L 212.725651 190.394252 
L 213.74359 189.159236 
L 214.761529 187.679094 
L 215.779467 182.675544 
L 216.797406 177.024591 
L 216.797406 177.024591 
" clip-path="url(#pff27edf1b3)" style="fill: none; stroke: #0173b2; stroke-opacity: 0.2; stroke-width: 1.5; stroke-linecap: round"/>
   </g>
   <g id="line2d_17">
    <path d="M 217.815344 194.286304 
L 218.833283 195.147654 
L 219.851221 200.946896 
L 220.86916 197.227311 
L 221.887099 198.013649 
L 222.905037 190.760716 
L 223.922976 174.876173 
L 224.940914 187.855922 
L 225.958853 181.311728 
L 226.976792 188.872471 
L 227.99473 180.802161 
L 229.012669 182.892164 
L 230.030607 181.888548 
L 231.048546 179.053593 
L 232.066484 179.043247 
L 233.084423 163.906242 
L 234.102362 160.706571 
L 235.1203 163.450994 
L 236.138239 159.312373 
L 237.156177 159.190801 
L 238.174116 151.632645 
L 239.192055 159.563277 
L 240.209993 152.37501 
L 241.227932 146.940475 
L 242.24587 151.899052 
L 244.281747 144.087358 
L 245.299686 147.954374 
L 246.317625 143.158735 
L 247.335563 143.26475 
L 248.353502 146.430652 
L 249.37144 140.721851 
L 250.389379 143.424747 
L 251.407318 142.252767 
L 252.425256 138.50971 
L 253.443195 143.287035 
L 254.461133 135.529326 
L 255.479072 138.912457 
L 256.49701 139.331129 
L 257.514949 138.029672 
L 258.532888 132.941225 
L 259.550826 135.827664 
L 260.568765 130.035673 
L 261.586703 133.871438 
L 262.604642 132.820837 
L 263.622581 126.050758 
L 264.640519 128.810251 
L 265.658458 125.886715 
L 266.676396 120.534045 
L 267.694335 126.382191 
L 268.712273 126.960952 
L 270.748151 120.518544 
L 271.766089 114.604467 
L 272.784028 115.749884 
L 273.801966 116.55649 
L 274.819905 115.171763 
L 275.837844 111.04522 
L 276.855782 113.007933 
L 277.873721 107.771314 
L 278.891659 116.141704 
L 279.909598 110.421284 
L 280.927536 114.241184 
L 281.945475 113.451395 
L 282.963414 107.282959 
L 283.981352 105.866761 
L 284.999291 110.160003 
L 286.017229 102.987541 
L 287.035168 104.471096 
L 288.053107 96.455254 
L 289.071045 104.041823 
L 290.088984 101.362977 
L 291.106922 91.455303 
L 292.124861 88.395869 
L 293.142799 96.978613 
L 294.160738 95.39647 
L 295.178677 95.979837 
L 297.214554 79.886353 
L 298.232492 89.825442 
L 300.26837 80.639633 
L 301.286308 80.658731 
L 302.304247 83.239111 
L 304.340124 82.193246 
L 305.358062 75.975916 
L 306.376001 71.543901 
L 307.39394 74.173238 
L 308.411878 66.617798 
L 309.429817 69.019584 
L 310.447755 60.428896 
L 311.465694 65.56325 
L 312.483633 65.760505 
L 313.501571 63.877027 
L 314.51951 50.733708 
L 315.537448 62.469737 
L 316.555387 58.531075 
L 318.591264 55.635829 
L 319.609203 48.149195 
L 320.627141 51.392091 
L 321.64508 45.835372 
L 322.663018 56.120495 
L 323.680957 52.880518 
L 324.698896 57.022178 
L 325.716834 51.362081 
L 326.734773 50.523585 
L 327.752711 50.75667 
L 328.77065 35.29234 
L 329.788588 37.435252 
L 330.806527 38.423913 
L 331.824466 30.058174 
L 332.842404 36.8444 
L 333.860343 28.007421 
L 334.878281 33.116571 
L 335.89622 30.726664 
L 336.914159 32.299677 
L 337.932097 35.793594 
L 338.950036 26.5336 
L 339.967974 36.625926 
L 340.985913 21.429621 
L 342.003851 35.661466 
L 343.02179 31.650981 
L 344.039729 18.613401 
L 345.057667 35.939984 
L 346.075606 30.485028 
L 347.093544 19.300917 
L 348.111483 35.032479 
L 349.129422 17.28 
L 350.14736 31.234737 
L 351.165299 29.660299 
L 352.183237 33.981331 
L 353.201176 20.268878 
L 354.219114 28.159878 
L 355.237053 32.721517 
L 356.254992 38.839551 
L 357.27293 37.205349 
L 358.290869 28.520577 
L 359.308807 27.543476 
L 360.326746 30.822633 
L 361.344685 33.492663 
L 362.362623 30.714483 
L 363.380562 26.920871 
L 364.3985 21.171805 
L 365.416439 64.566607 
L 366.434377 66.993542 
L 367.452316 51.539427 
L 368.470255 51.929956 
L 369.488193 32.368603 
L 369.488193 32.368603 
" clip-path="url(#pff27edf1b3)" style="fill: none; stroke: #0173b2; stroke-opacity: 0.2; stroke-width: 1.5; stroke-linecap: round"/>
   </g>
   <g id="line2d_18">
    <path d="M 65.124557 206.081121 
L 66.142495 214.00778 
L 67.160434 215.403367 
L 68.178373 215.468678 
L 70.21425 207.729358 
L 71.232188 204.334919 
L 72.250127 209.109476 
L 73.268065 207.7792 
L 74.286004 208.636833 
L 75.303943 206.856256 
L 76.321881 205.969406 
L 77.33982 207.949352 
L 78.357758 207.940758 
L 79.375697 207.609048 
L 80.393636 203.51166 
L 81.411574 202.7434 
L 82.429513 203.198856 
L 83.447451 203.166201 
L 84.46539 202.140135 
L 85.483328 202.789805 
L 86.501267 202.454658 
L 87.519206 202.483876 
L 88.537144 201.774048 
L 89.555083 202.269015 
L 90.573021 202.119462 
L 91.59096 203.004562 
L 92.608899 202.251723 
L 93.626837 203.184948 
L 94.644776 202.182866 
L 95.662714 202.653689 
L 96.680653 202.342474 
L 97.698591 202.354332 
L 98.71653 201.728541 
L 99.734469 201.896733 
L 100.752407 201.681624 
L 101.770346 202.303567 
L 102.788284 202.732918 
L 103.806223 202.634613 
L 104.824162 202.383288 
L 105.8421 202.300343 
L 106.860039 203.119635 
L 107.877977 202.374843 
L 108.895916 202.551421 
L 109.913854 201.877099 
L 110.931793 201.508615 
L 111.949732 202.836709 
L 112.96767 202.272182 
L 113.985609 202.080662 
L 115.003547 201.373448 
L 116.021486 202.643153 
L 117.039425 202.787048 
L 119.075302 202.276283 
L 120.09324 201.292917 
L 121.111179 202.350074 
L 122.129117 202.336214 
L 124.164995 201.952658 
L 125.182933 202.081519 
L 126.200872 202.062516 
L 127.21881 202.581562 
L 128.236749 202.560786 
L 129.254688 202.993552 
L 130.272626 201.277133 
L 133.326442 202.217159 
L 134.34438 201.942051 
L 135.362319 201.358935 
L 136.380258 202.094539 
L 137.398196 201.449399 
L 138.416135 203.199409 
L 139.434073 201.996797 
L 140.452012 201.306265 
L 141.469951 201.860926 
L 143.505828 202.146229 
L 144.523766 201.507006 
L 145.541705 202.532773 
L 146.559643 201.950007 
L 149.613459 201.814589 
L 150.631398 201.478905 
L 151.649336 202.08798 
L 152.667275 201.793317 
L 153.685214 201.694849 
L 154.703152 201.789155 
L 155.721091 201.332579 
L 156.739029 201.60705 
L 157.756968 201.077497 
L 158.774906 201.977088 
L 159.792845 201.24409 
L 160.810784 200.045725 
L 161.828722 200.663934 
L 162.846661 201.773189 
L 164.882538 201.014484 
L 165.900477 200.352272 
L 166.918415 199.326181 
L 167.936354 201.102334 
L 168.954292 201.272113 
L 169.972231 201.105889 
L 170.990169 200.790811 
L 172.008108 201.13068 
L 173.026047 200.45802 
L 174.043985 201.589151 
L 176.079862 200.487508 
L 177.097801 200.635183 
L 178.11574 201.279768 
L 179.133678 200.408834 
L 180.151617 199.356516 
L 181.169555 199.627654 
L 182.187494 200.936817 
L 183.205432 201.091929 
L 185.24131 200.91509 
L 186.259248 200.086464 
L 188.295125 200.376699 
L 189.313064 201.200381 
L 190.331003 199.649629 
L 191.348941 198.535134 
L 192.36688 199.378727 
L 193.384818 199.512801 
L 194.402757 200.410163 
L 195.420695 200.339459 
L 196.438634 199.347344 
L 197.456573 199.88065 
L 198.474511 200.566681 
L 199.49245 200.69828 
L 200.510388 200.333927 
L 201.528327 199.799737 
L 202.546266 200.823652 
L 204.582143 199.85253 
L 205.600081 199.251617 
L 206.61802 200.537524 
L 207.635958 201.104456 
L 208.653897 200.96489 
L 209.671836 201.063122 
L 210.689774 200.950784 
L 211.707713 201.07315 
L 212.725651 203.327577 
L 213.74359 203.035589 
L 214.761529 202.342074 
L 215.779467 200.081572 
L 216.797406 195.466149 
L 216.797406 195.466149 
" clip-path="url(#pff27edf1b3)" style="fill: none; stroke: #de8f05; stroke-opacity: 0.2; stroke-width: 1.5; stroke-linecap: round"/>
   </g>
   <g id="line2d_19">
    <path d="M 217.815344 194.730754 
L 219.851221 205.967737 
L 220.86916 207.367829 
L 221.887099 207.865025 
L 222.905037 202.375148 
L 223.922976 192.163632 
L 224.940914 197.850316 
L 225.958853 196.840386 
L 226.976792 200.562453 
L 227.99473 197.513672 
L 229.012669 197.810609 
L 230.030607 197.665594 
L 231.048546 196.811037 
L 232.066484 195.776938 
L 233.084423 189.917617 
L 234.102362 189.356544 
L 235.1203 191.355688 
L 236.138239 190.223185 
L 237.156177 188.697068 
L 238.174116 188.522704 
L 239.192055 189.675924 
L 240.209993 188.94394 
L 241.227932 187.210655 
L 242.24587 188.636612 
L 243.263809 188.482925 
L 244.281747 187.854475 
L 245.299686 188.412037 
L 247.335563 187.926784 
L 248.353502 188.123453 
L 249.37144 188.097395 
L 250.389379 189.136463 
L 252.425256 188.214035 
L 254.461133 188.121907 
L 255.479072 188.447775 
L 257.514949 187.697571 
L 258.532888 186.415959 
L 259.550826 187.725591 
L 260.568765 188.192788 
L 261.586703 186.564064 
L 262.604642 185.717367 
L 263.622581 186.502107 
L 264.640519 186.477091 
L 265.658458 186.581477 
L 266.676396 186.53046 
L 267.694335 187.063069 
L 268.712273 186.820488 
L 269.730212 187.550259 
L 270.748151 187.693403 
L 271.766089 185.811213 
L 272.784028 186.332581 
L 273.801966 186.448223 
L 274.819905 186.78484 
L 275.837844 186.266739 
L 276.855782 186.119845 
L 278.891659 185.299463 
L 281.945475 185.124197 
L 282.963414 186.25255 
L 283.981352 186.648534 
L 284.999291 184.617602 
L 286.017229 185.850475 
L 287.035168 184.091808 
L 288.053107 183.902588 
L 289.071045 184.917117 
L 290.088984 183.916048 
L 291.106922 184.106454 
L 292.124861 183.863174 
L 294.160738 185.194935 
L 295.178677 182.503112 
L 296.196615 184.30831 
L 297.214554 183.589213 
L 298.232492 183.602496 
L 299.250431 184.007841 
L 300.26837 183.009977 
L 301.286308 181.308056 
L 302.304247 181.681891 
L 303.322185 183.019901 
L 304.340124 181.433317 
L 305.358062 182.074454 
L 306.376001 182.51689 
L 308.411878 179.265826 
L 309.429817 180.298734 
L 310.447755 180.228411 
L 311.465694 179.604699 
L 313.501571 180.449165 
L 314.51951 181.177123 
L 315.537448 181.373998 
L 316.555387 181.079228 
L 317.573325 179.382154 
L 318.591264 179.23207 
L 319.609203 178.740782 
L 320.627141 178.855308 
L 321.64508 180.027417 
L 322.663018 177.383406 
L 323.680957 179.708464 
L 324.698896 178.650954 
L 326.734773 178.493566 
L 327.752711 178.096574 
L 328.77065 178.555337 
L 329.788588 178.157828 
L 330.806527 178.892013 
L 331.824466 179.406082 
L 332.842404 177.600153 
L 333.860343 177.067631 
L 334.878281 177.907054 
L 335.89622 179.262923 
L 336.914159 178.674313 
L 337.932097 178.836288 
L 338.950036 177.893943 
L 339.967974 177.258544 
L 340.985913 179.222639 
L 342.003851 177.970272 
L 343.02179 177.992553 
L 344.039729 176.289908 
L 345.057667 177.72349 
L 346.075606 177.650077 
L 347.093544 176.437468 
L 348.111483 179.107089 
L 349.129422 175.891066 
L 350.14736 178.53531 
L 351.165299 178.314308 
L 352.183237 179.480442 
L 353.201176 176.805497 
L 355.237053 175.980814 
L 356.254992 180.340106 
L 357.27293 177.624133 
L 358.290869 179.282756 
L 359.308807 176.581937 
L 360.326746 180.706838 
L 361.344685 178.861047 
L 362.362623 180.255459 
L 363.380562 178.847783 
L 364.3985 178.623573 
L 365.416439 183.50026 
L 366.434377 185.004243 
L 367.452316 183.488497 
L 368.470255 180.661776 
L 369.488193 175.430448 
L 369.488193 175.430448 
" clip-path="url(#pff27edf1b3)" style="fill: none; stroke: #de8f05; stroke-opacity: 0.2; stroke-width: 1.5; stroke-linecap: round"/>
   </g>
   <g id="line2d_20">
    <path d="M 65.124557 202.006539 
L 66.142495 214.248259 
L 67.160434 216.380291 
L 68.178373 216.647308 
L 69.196311 216.207756 
L 70.21425 211.002971 
L 71.232188 210.296402 
L 72.250127 211.200153 
L 73.268065 209.413191 
L 74.286004 210.842761 
L 75.303943 209.750043 
L 76.321881 210.567527 
L 78.357758 210.127976 
L 79.375697 209.528214 
L 80.393636 205.522953 
L 81.411574 205.752999 
L 82.429513 204.906759 
L 84.46539 205.481873 
L 85.483328 205.264151 
L 86.501267 204.446667 
L 87.519206 204.409696 
L 88.537144 204.721888 
L 89.555083 204.023534 
L 90.573021 204.368571 
L 91.59096 203.686603 
L 92.608899 202.827984 
L 94.644776 202.630619 
L 95.662714 201.923943 
L 96.680653 202.215488 
L 97.698591 202.206953 
L 98.71653 201.446711 
L 99.734469 202.021443 
L 100.752407 200.550439 
L 101.770346 200.615572 
L 102.788284 199.472923 
L 104.824162 199.603026 
L 105.8421 199.988447 
L 106.860039 201.429775 
L 107.877977 199.604515 
L 108.895916 199.3857 
L 109.913854 199.742049 
L 110.931793 198.874005 
L 111.949732 199.764539 
L 113.985609 198.529602 
L 115.003547 198.388708 
L 116.021486 198.765708 
L 117.039425 197.576956 
L 118.057363 196.766269 
L 119.075302 197.78413 
L 120.09324 196.800854 
L 121.111179 196.803855 
L 122.129117 196.609497 
L 123.147056 196.978238 
L 124.164995 197.108425 
L 126.200872 196.501808 
L 127.21881 195.501444 
L 128.236749 196.593031 
L 129.254688 196.58642 
L 130.272626 195.523166 
L 131.290565 195.4048 
L 132.308503 194.603729 
L 133.326442 195.570547 
L 134.34438 195.036254 
L 136.380258 195.719119 
L 137.398196 195.513387 
L 138.416135 194.056827 
L 139.434073 193.439051 
L 140.452012 191.557998 
L 141.469951 177.465587 
L 142.487889 193.418606 
L 143.505828 191.660073 
L 144.523766 190.633423 
L 145.541705 191.504071 
L 146.559643 190.102606 
L 147.577582 187.551691 
L 148.595521 190.879334 
L 149.613459 189.587427 
L 150.631398 187.228469 
L 151.649336 189.007305 
L 152.667275 188.471334 
L 153.685214 186.221429 
L 154.703152 187.382976 
L 155.721091 189.541106 
L 156.739029 186.416304 
L 157.756968 187.840938 
L 158.774906 183.675947 
L 159.792845 165.368781 
L 160.810784 184.337968 
L 161.828722 185.510252 
L 162.846661 183.134543 
L 163.864599 182.791632 
L 164.882538 183.699072 
L 165.900477 182.963213 
L 166.918415 183.197323 
L 167.936354 183.269886 
L 168.954292 182.892444 
L 169.972231 179.371132 
L 170.990169 181.837864 
L 172.008108 181.132078 
L 173.026047 180.636657 
L 175.061924 180.11931 
L 176.079862 177.159614 
L 177.097801 175.092083 
L 178.11574 178.078103 
L 179.133678 178.013888 
L 180.151617 179.808661 
L 181.169555 178.108097 
L 182.187494 177.42006 
L 183.205432 172.296327 
L 184.223371 170.957513 
L 185.24131 168.240658 
L 186.259248 172.271896 
L 187.277187 171.155804 
L 188.295125 172.035288 
L 189.313064 169.705107 
L 191.348941 163.330861 
L 192.36688 164.314268 
L 193.384818 162.306963 
L 194.402757 166.071265 
L 195.420695 164.506061 
L 196.438634 135.870984 
L 197.456573 161.604403 
L 198.474511 163.067854 
L 199.49245 163.820072 
L 200.510388 163.941899 
L 201.528327 163.096271 
L 202.546266 158.893448 
L 203.564204 160.192247 
L 204.582143 155.600244 
L 205.600081 159.836583 
L 206.61802 160.630824 
L 208.653897 156.463481 
L 209.671836 158.881879 
L 210.689774 153.960537 
L 211.707713 155.109525 
L 212.725651 163.421762 
L 213.74359 158.919893 
L 214.761529 159.284455 
L 215.779467 151.623273 
L 216.797406 129.753298 
L 216.797406 129.753298 
" clip-path="url(#pff27edf1b3)" style="fill: none; stroke: #029e73; stroke-opacity: 0.2; stroke-width: 1.5; stroke-linecap: round"/>
   </g>
   <g id="line2d_21">
    <path d="M 217.815344 195.984413 
L 218.833283 199.871019 
L 219.851221 208.096641 
L 220.86916 206.044349 
L 221.887099 208.906865 
L 223.922976 197.279948 
L 224.940914 199.451513 
L 225.958853 197.831065 
L 226.976792 200.109562 
L 227.99473 198.102511 
L 229.012669 198.715319 
L 230.030607 198.620725 
L 231.048546 198.102511 
L 232.066484 197.909208 
L 233.084423 186.241163 
L 234.102362 188.23999 
L 235.1203 186.043749 
L 236.138239 188.873363 
L 237.156177 187.039049 
L 238.174116 187.409202 
L 239.192055 185.060787 
L 240.209993 185.16772 
L 241.227932 186.86218 
L 242.24587 184.02434 
L 243.263809 185.541922 
L 244.281747 183.567705 
L 245.299686 183.156357 
L 246.317625 183.888328 
L 247.335563 182.485719 
L 248.353502 181.720578 
L 249.37144 183.196929 
L 250.389379 182.012005 
L 251.407318 181.513998 
L 252.425256 180.135694 
L 253.443195 181.089563 
L 254.461133 180.426623 
L 255.479072 180.561608 
L 256.49701 180.001347 
L 258.532888 180.509499 
L 259.550826 177.464764 
L 260.568765 180.679917 
L 261.586703 178.634114 
L 262.604642 177.275161 
L 264.640519 175.984687 
L 265.658458 176.879807 
L 266.676396 176.503996 
L 267.694335 174.63883 
L 268.712273 176.928922 
L 269.730212 175.499763 
L 272.784028 176.89837 
L 273.801966 171.256128 
L 274.819905 172.040343 
L 275.837844 175.112401 
L 276.855782 173.744674 
L 277.873721 173.438703 
L 278.891659 171.091558 
L 279.909598 168.011443 
L 280.927536 168.087186 
L 281.945475 172.149397 
L 282.963414 172.063288 
L 283.981352 169.914458 
L 284.999291 169.041001 
L 286.017229 168.37751 
L 288.053107 165.019354 
L 289.071045 167.367954 
L 290.088984 165.245367 
L 291.106922 166.934752 
L 292.124861 165.004508 
L 293.142799 161.817532 
L 294.160738 161.870926 
L 295.178677 165.470487 
L 296.196615 166.698113 
L 297.214554 166.965561 
L 298.232492 163.471446 
L 299.250431 163.20699 
L 300.26837 161.288979 
L 301.286308 156.600686 
L 302.304247 158.176359 
L 303.322185 152.817895 
L 304.340124 158.585579 
L 305.358062 151.339435 
L 306.376001 157.883408 
L 307.39394 150.945296 
L 308.411878 150.266238 
L 309.429817 150.98608 
L 310.447755 155.114226 
L 311.465694 154.415075 
L 312.483633 151.026041 
L 313.501571 148.602674 
L 314.51951 147.028235 
L 315.537448 149.301856 
L 316.555387 141.954361 
L 317.573325 141.512374 
L 318.591264 145.552876 
L 319.609203 136.074613 
L 320.627141 138.080763 
L 321.64508 131.669138 
L 322.663018 142.969119 
L 323.680957 137.801922 
L 324.698896 137.263377 
L 325.716834 130.433824 
L 326.734773 131.266069 
L 327.752711 126.48035 
L 328.77065 129.35217 
L 329.788588 122.079554 
L 330.806527 127.927243 
L 331.824466 126.702071 
L 332.842404 117.395517 
L 333.860343 124.04584 
L 334.878281 117.455736 
L 335.89622 113.516499 
L 337.932097 125.505254 
L 338.950036 115.714099 
L 339.967974 123.84414 
L 340.985913 121.339929 
L 342.003851 113.371326 
L 343.02179 109.001737 
L 344.039729 111.554658 
L 345.057667 99.950728 
L 346.075606 104.949203 
L 347.093544 83.768965 
L 348.111483 104.620523 
L 349.129422 109.931362 
L 350.14736 97.634044 
L 351.165299 93.148027 
L 352.183237 86.484558 
L 353.201176 98.530251 
L 354.219114 101.136198 
L 355.237053 88.51492 
L 356.254992 84.981935 
L 357.27293 85.841334 
L 358.290869 75.569035 
L 359.308807 70.102416 
L 360.326746 94.188234 
L 361.344685 85.087553 
L 362.362623 84.740806 
L 363.380562 79.810862 
L 364.3985 61.43964 
L 365.416439 79.960487 
L 366.434377 66.133973 
L 367.452316 72.241655 
L 368.470255 73.698049 
L 369.488193 55.382927 
L 369.488193 55.382927 
" clip-path="url(#pff27edf1b3)" style="fill: none; stroke: #029e73; stroke-opacity: 0.2; stroke-width: 1.5; stroke-linecap: round"/>
   </g>
   <g id="line2d_22">
    <path d="M 65.124557 184.285853 
L 66.142495 208.416558 
L 67.160434 213.139975 
L 68.178373 211.16158 
L 69.196311 213.198946 
L 70.21425 204.520643 
L 71.232188 150.369704 
L 72.250127 199.336869 
L 73.268065 192.226063 
L 74.286004 197.697084 
L 76.321881 197.392716 
L 78.357758 195.465684 
L 79.375697 195.482804 
L 80.393636 183.279535 
L 81.411574 183.378454 
L 82.429513 184.160301 
L 83.447451 185.758235 
L 84.46539 184.717675 
L 85.483328 184.046163 
L 86.501267 184.915515 
L 87.519206 183.618145 
L 88.537144 183.317572 
L 89.555083 184.289644 
L 90.573021 185.704958 
L 91.59096 185.847626 
L 92.608899 184.046145 
L 93.626837 185.035334 
L 94.644776 184.938313 
L 95.662714 182.581341 
L 96.680653 185.025759 
L 97.698591 186.155687 
L 98.71653 184.449297 
L 99.734469 184.736468 
L 100.752407 183.836067 
L 101.770346 186.028576 
L 102.788284 185.772394 
L 103.806223 185.1204 
L 104.824162 184.026899 
L 105.8421 183.962354 
L 106.860039 186.068943 
L 107.877977 184.492002 
L 108.895916 186.109416 
L 109.913854 183.978172 
L 110.931793 187.408807 
L 111.949732 185.93754 
L 112.96767 186.479826 
L 113.985609 186.043943 
L 115.003547 185.421428 
L 116.021486 185.98621 
L 117.039425 188.668161 
L 118.057363 185.972075 
L 119.075302 187.381005 
L 120.09324 185.885604 
L 121.111179 185.301128 
L 122.129117 186.574259 
L 123.147056 186.349521 
L 124.164995 186.575876 
L 125.182933 187.217147 
L 126.200872 180.625975 
L 127.21881 187.407195 
L 128.236749 187.26424 
L 130.272626 187.326696 
L 131.290565 187.002923 
L 132.308503 188.142774 
L 133.326442 187.356485 
L 134.34438 182.687258 
L 135.362319 185.74351 
L 136.380258 185.171278 
L 137.398196 173.487098 
L 138.416135 186.807255 
L 139.434073 187.52675 
L 140.452012 187.072301 
L 141.469951 185.914249 
L 142.487889 187.52585 
L 143.505828 186.513247 
L 144.523766 186.376273 
L 145.541705 185.983918 
L 146.559643 186.300968 
L 147.577582 185.59344 
L 148.595521 151.354236 
L 149.613459 186.491914 
L 150.631398 187.778844 
L 151.649336 187.108673 
L 152.667275 188.012198 
L 153.685214 186.208841 
L 154.703152 187.410734 
L 155.721091 184.560846 
L 156.739029 183.285659 
L 157.756968 186.510103 
L 158.774906 185.777533 
L 160.810784 184.973927 
L 161.828722 186.250509 
L 162.846661 186.826633 
L 164.882538 187.223905 
L 165.900477 186.919086 
L 166.918415 185.542406 
L 167.936354 185.907516 
L 168.954292 185.193555 
L 169.972231 185.174658 
L 170.990169 185.496086 
L 172.008108 185.323024 
L 173.026047 186.879485 
L 174.043985 185.67149 
L 175.061924 185.328119 
L 176.079862 183.748149 
L 177.097801 185.817668 
L 179.133678 188.208843 
L 180.151617 187.646527 
L 181.169555 185.223032 
L 182.187494 184.748261 
L 183.205432 186.501265 
L 184.223371 185.826064 
L 185.24131 185.908245 
L 186.259248 187.975697 
L 187.277187 181.542571 
L 188.295125 185.51057 
L 189.313064 183.051516 
L 190.331003 183.938231 
L 191.348941 185.073253 
L 192.36688 183.299184 
L 193.384818 185.581669 
L 194.402757 185.658449 
L 195.420695 184.058994 
L 196.438634 182.230733 
L 197.456573 185.449012 
L 198.474511 186.332244 
L 199.49245 185.698948 
L 200.510388 185.294512 
L 201.528327 185.577914 
L 202.546266 186.086571 
L 203.564204 186.103054 
L 204.582143 185.143452 
L 205.600081 185.270049 
L 206.61802 186.487793 
L 207.635958 185.72122 
L 208.653897 187.089474 
L 209.671836 186.700718 
L 210.689774 185.955449 
L 211.707713 185.713076 
L 212.725651 187.557905 
L 213.74359 188.966822 
L 214.761529 188.045851 
L 215.779467 188.407384 
L 216.797406 179.170787 
L 216.797406 179.170787 
" clip-path="url(#pff27edf1b3)" style="fill: none; stroke: #d55e00; stroke-opacity: 0.2; stroke-width: 1.5; stroke-linecap: round"/>
   </g>
   <g id="line2d_23">
    <path d="M 217.815344 162.263167 
L 218.833283 179.000056 
L 219.851221 182.937357 
L 220.86916 184.772458 
L 221.887099 183.054572 
L 223.922976 175.570051 
L 224.940914 175.904404 
L 227.99473 180.320176 
L 229.012669 173.635028 
L 230.030607 177.482014 
L 231.048546 175.660365 
L 232.066484 174.376755 
L 233.084423 158.496886 
L 234.102362 154.480801 
L 235.1203 158.160611 
L 236.138239 155.916215 
L 238.174116 156.907746 
L 239.192055 154.050369 
L 240.209993 154.978488 
L 241.227932 156.252484 
L 242.24587 148.892857 
L 243.263809 154.025376 
L 244.281747 156.692518 
L 245.299686 150.164932 
L 246.317625 151.48313 
L 247.335563 154.413521 
L 248.353502 149.432799 
L 249.37144 154.309731 
L 250.389379 154.33853 
L 252.425256 147.637877 
L 253.443195 145.796081 
L 254.461133 151.657598 
L 255.479072 145.623604 
L 256.49701 148.273403 
L 257.514949 145.338568 
L 258.532888 147.282591 
L 259.550826 152.486624 
L 260.568765 148.375344 
L 261.586703 149.62964 
L 262.604642 144.473568 
L 263.622581 144.26863 
L 264.640519 146.111997 
L 265.658458 142.283801 
L 266.676396 150.015517 
L 267.694335 146.632858 
L 268.712273 145.206657 
L 269.730212 147.626631 
L 270.748151 143.885555 
L 271.766089 145.75199 
L 272.784028 144.325219 
L 274.819905 142.829001 
L 275.837844 139.029892 
L 276.855782 136.976409 
L 277.873721 139.071745 
L 278.891659 134.267072 
L 279.909598 136.702708 
L 280.927536 142.719902 
L 281.945475 137.596105 
L 282.963414 137.75914 
L 283.981352 134.826893 
L 284.999291 137.468129 
L 286.017229 137.546668 
L 287.035168 138.084415 
L 288.053107 136.939694 
L 289.071045 136.118864 
L 290.088984 138.009131 
L 292.124861 131.962733 
L 293.142799 134.074534 
L 294.160738 125.291751 
L 295.178677 129.358113 
L 296.196615 121.781175 
L 297.214554 130.263963 
L 298.232492 131.885617 
L 299.250431 132.914966 
L 300.26837 129.020405 
L 301.286308 132.16365 
L 302.304247 127.81469 
L 303.322185 127.373647 
L 304.340124 126.286429 
L 305.358062 122.165019 
L 306.376001 122.112742 
L 307.39394 127.789579 
L 308.411878 122.833065 
L 309.429817 112.604314 
L 310.447755 124.752802 
L 311.465694 127.446229 
L 312.483633 126.876057 
L 314.51951 122.263604 
L 315.537448 124.031962 
L 316.555387 114.297746 
L 317.573325 121.692347 
L 318.591264 120.626336 
L 319.609203 119.722412 
L 320.627141 120.628234 
L 321.64508 110.304215 
L 322.663018 118.088867 
L 323.680957 104.673518 
L 324.698896 107.981186 
L 325.716834 115.928265 
L 326.734773 108.776019 
L 327.752711 115.723352 
L 328.77065 114.203441 
L 329.788588 114.462116 
L 330.806527 116.606147 
L 332.842404 109.497334 
L 333.860343 104.920745 
L 334.878281 105.233355 
L 335.89622 108.363444 
L 336.914159 109.248435 
L 337.932097 111.030406 
L 338.950036 104.324205 
L 339.967974 101.666868 
L 340.985913 109.451028 
L 342.003851 112.054219 
L 343.02179 115.042966 
L 344.039729 104.159028 
L 345.057667 104.059299 
L 346.075606 105.344909 
L 347.093544 107.571373 
L 348.111483 107.231764 
L 349.129422 105.252019 
L 350.14736 101.65901 
L 351.165299 101.047056 
L 352.183237 106.938333 
L 353.201176 104.571698 
L 354.219114 105.028364 
L 355.237053 106.03352 
L 356.254992 100.970977 
L 357.27293 99.967233 
L 358.290869 103.423117 
L 359.308807 96.070956 
L 360.326746 100.117764 
L 361.344685 101.496634 
L 362.362623 109.46908 
L 363.380562 106.970282 
L 364.3985 110.866194 
L 365.416439 122.414656 
L 366.434377 123.010728 
L 367.452316 117.553583 
L 368.470255 106.771684 
L 369.488193 99.894594 
L 369.488193 99.894594 
" clip-path="url(#pff27edf1b3)" style="fill: none; stroke: #d55e00; stroke-opacity: 0.2; stroke-width: 1.5; stroke-linecap: round"/>
   </g>
   <g id="line2d_24">
    <path d="M 65.124557 201.367511 
L 66.142495 215.32712 
L 67.160434 218.88 
L 68.178373 217.727394 
L 69.196311 218.323897 
L 70.21425 214.637933 
L 71.232188 192.465111 
L 72.250127 215.072834 
L 73.268065 211.092183 
L 74.286004 213.157368 
L 75.303943 213.423537 
L 76.321881 212.539476 
L 77.33982 213.463938 
L 78.357758 212.451545 
L 79.375697 213.121721 
L 80.393636 210.172474 
L 81.411574 209.421497 
L 82.429513 209.383473 
L 83.447451 208.682403 
L 84.46539 208.93669 
L 85.483328 208.074017 
L 86.501267 208.392469 
L 87.519206 209.03175 
L 88.537144 209.160078 
L 90.573021 208.190456 
L 91.59096 209.233736 
L 92.608899 208.810714 
L 93.626837 209.376293 
L 94.644776 208.154749 
L 95.662714 208.306794 
L 96.680653 208.853304 
L 97.698591 208.867482 
L 98.71653 208.323158 
L 99.734469 208.19945 
L 100.752407 208.679227 
L 101.770346 208.783175 
L 102.788284 209.181692 
L 103.806223 207.837939 
L 104.824162 208.31892 
L 106.860039 207.809228 
L 107.877977 208.256656 
L 108.895916 208.311782 
L 109.913854 209.296284 
L 110.931793 208.552502 
L 111.949732 208.49803 
L 112.96767 207.970601 
L 113.985609 208.037484 
L 115.003547 207.866492 
L 116.021486 209.331419 
L 117.039425 207.728929 
L 118.057363 208.832523 
L 119.075302 208.202478 
L 120.09324 208.307257 
L 121.111179 208.762165 
L 122.129117 208.709095 
L 123.147056 208.392299 
L 125.182933 207.294704 
L 126.200872 207.244133 
L 127.21881 207.852443 
L 128.236749 207.423619 
L 129.254688 207.508542 
L 130.272626 208.466367 
L 131.290565 207.851541 
L 132.308503 207.99794 
L 133.326442 208.397814 
L 134.34438 207.545461 
L 136.380258 207.445009 
L 137.398196 206.697766 
L 138.416135 207.104215 
L 139.434073 207.378993 
L 140.452012 208.212932 
L 141.469951 208.07066 
L 142.487889 208.662118 
L 144.523766 208.187352 
L 145.541705 207.549679 
L 146.559643 207.111896 
L 147.577582 207.793833 
L 148.595521 207.479173 
L 149.613459 208.05601 
L 150.631398 207.276223 
L 151.649336 207.404541 
L 152.667275 208.381799 
L 153.685214 207.782859 
L 154.703152 207.672569 
L 155.721091 207.214069 
L 157.756968 207.568009 
L 158.774906 207.215721 
L 159.792845 207.546076 
L 160.810784 206.368468 
L 161.828722 207.816119 
L 162.846661 207.367105 
L 163.864599 208.26133 
L 164.882538 206.958602 
L 165.900477 206.992482 
L 166.918415 207.387482 
L 167.936354 206.550396 
L 168.954292 207.08126 
L 169.972231 207.308044 
L 170.990169 208.039284 
L 173.026047 208.566155 
L 174.043985 207.162849 
L 175.061924 208.356635 
L 176.079862 207.54485 
L 178.11574 207.171393 
L 179.133678 207.514775 
L 180.151617 207.468959 
L 182.187494 206.101578 
L 183.205432 207.848211 
L 184.223371 207.885119 
L 185.24131 207.568844 
L 187.277187 206.404737 
L 188.295125 207.174967 
L 189.313064 207.497651 
L 190.331003 207.546174 
L 191.348941 207.211341 
L 192.36688 207.451118 
L 193.384818 206.873675 
L 194.402757 207.418717 
L 195.420695 207.349351 
L 196.438634 206.678702 
L 197.456573 207.007282 
L 198.474511 206.432778 
L 199.49245 206.386683 
L 200.510388 204.808885 
L 201.528327 207.231229 
L 202.546266 208.090994 
L 203.564204 207.78777 
L 204.582143 208.349424 
L 206.61802 207.370095 
L 207.635958 208.606228 
L 208.653897 207.822234 
L 209.671836 208.826058 
L 210.689774 208.011074 
L 211.707713 208.71688 
L 212.725651 210.400779 
L 213.74359 209.068349 
L 214.761529 209.585979 
L 215.779467 207.270795 
L 216.797406 201.145353 
L 216.797406 201.145353 
" clip-path="url(#pff27edf1b3)" style="fill: none; stroke: #cc78bc; stroke-opacity: 0.2; stroke-width: 1.5; stroke-linecap: round"/>
   </g>
   <g id="line2d_25">
    <path d="M 217.815344 197.442898 
L 218.833283 204.266494 
L 219.851221 205.896045 
L 220.86916 207.26315 
L 221.887099 209.112201 
L 222.905037 206.077371 
L 223.922976 206.80029 
L 224.940914 205.573952 
L 225.958853 206.382763 
L 226.976792 205.667001 
L 227.99473 204.058923 
L 229.012669 205.936604 
L 230.030607 204.915451 
L 231.048546 205.060989 
L 232.066484 205.087234 
L 233.084423 200.029184 
L 234.102362 201.050337 
L 235.1203 199.501906 
L 236.138239 198.874421 
L 237.156177 198.471209 
L 238.174116 198.778987 
L 239.192055 198.435421 
L 240.209993 198.642992 
L 241.227932 197.691024 
L 242.24587 198.161033 
L 244.281747 197.433337 
L 245.299686 196.727119 
L 246.317625 196.261856 
L 247.335563 196.712773 
L 248.353502 195.798974 
L 249.37144 195.608077 
L 250.389379 197.323465 
L 251.407318 195.297823 
L 252.425256 195.164159 
L 254.461133 196.286977 
L 255.479072 197.617511 
L 256.49701 196.387679 
L 257.514949 195.851391 
L 259.550826 196.818406 
L 261.586703 194.907178 
L 262.604642 196.799496 
L 263.622581 195.417397 
L 264.640519 192.753399 
L 265.658458 195.600747 
L 266.676396 195.003793 
L 267.694335 193.509058 
L 268.712273 194.902563 
L 269.730212 195.577922 
L 270.748151 192.822305 
L 271.766089 193.167985 
L 272.784028 193.921903 
L 273.801966 192.892866 
L 274.819905 195.012309 
L 275.837844 192.762384 
L 276.855782 192.042998 
L 277.873721 193.300745 
L 278.891659 193.190119 
L 279.909598 194.15168 
L 280.927536 193.207644 
L 281.945475 190.4318 
L 282.963414 192.680316 
L 283.981352 192.652684 
L 284.999291 191.409368 
L 286.017229 191.862603 
L 287.035168 191.710544 
L 288.053107 191.966553 
L 289.071045 191.033771 
L 290.088984 190.454105 
L 291.106922 191.536509 
L 292.124861 189.991686 
L 293.142799 192.064559 
L 294.160738 191.814244 
L 295.178677 190.775194 
L 296.196615 192.038219 
L 297.214554 189.875053 
L 298.232492 189.997752 
L 299.250431 190.443392 
L 300.26837 190.637431 
L 301.286308 189.959937 
L 302.304247 189.028394 
L 303.322185 188.958239 
L 304.340124 188.217252 
L 305.358062 186.90086 
L 306.376001 185.196698 
L 307.39394 188.315831 
L 308.411878 187.167142 
L 309.429817 187.912776 
L 310.447755 187.97059 
L 311.465694 186.53448 
L 312.483633 183.476623 
L 313.501571 186.255839 
L 314.51951 187.827067 
L 315.537448 185.800654 
L 316.555387 188.356771 
L 317.573325 184.445356 
L 318.591264 184.258681 
L 319.609203 184.974671 
L 320.627141 184.25931 
L 321.64508 184.482225 
L 322.663018 185.322241 
L 323.680957 180.881304 
L 324.698896 183.017511 
L 326.734773 185.94575 
L 327.752711 183.318171 
L 328.77065 183.372738 
L 329.788588 183.164693 
L 330.806527 182.062919 
L 331.824466 183.496853 
L 332.842404 184.436727 
L 333.860343 183.793765 
L 334.878281 184.244079 
L 335.89622 183.259035 
L 336.914159 182.608331 
L 337.932097 180.688356 
L 338.950036 178.081898 
L 339.967974 179.08342 
L 340.985913 177.542035 
L 342.003851 180.347018 
L 343.02179 178.403222 
L 344.039729 177.885792 
L 345.057667 181.020264 
L 346.075606 181.287276 
L 347.093544 180.997313 
L 348.111483 181.247135 
L 349.129422 180.091663 
L 350.14736 180.782364 
L 351.165299 179.422654 
L 353.201176 178.805042 
L 354.219114 180.40389 
L 355.237053 182.899396 
L 356.254992 182.266535 
L 357.27293 182.253171 
L 359.308807 176.440615 
L 360.326746 180.334152 
L 361.344685 180.601074 
L 362.362623 179.485836 
L 363.380562 182.816992 
L 364.3985 177.994633 
L 365.416439 183.341651 
L 366.434377 186.771343 
L 367.452316 180.843959 
L 368.470255 180.083139 
L 369.488193 174.21521 
L 369.488193 174.21521 
" clip-path="url(#pff27edf1b3)" style="fill: none; stroke: #cc78bc; stroke-opacity: 0.2; stroke-width: 1.5; stroke-linecap: round"/>
   </g>
   <g id="line2d_26">
    <path d="M 65.124557 205.677136 
L 66.142495 214.385844 
L 67.160434 217.063664 
L 68.178373 216.759366 
L 69.196311 213.032444 
L 70.21425 206.195891 
L 71.232188 196.962631 
L 72.250127 200.959074 
L 73.268065 199.721596 
L 74.286004 202.5733 
L 75.303943 197.979855 
L 76.321881 200.463503 
L 77.33982 200.341784 
L 78.357758 196.997408 
L 79.375697 198.736252 
L 80.393636 191.137505 
L 81.411574 188.87411 
L 82.429513 191.285307 
L 83.447451 192.598134 
L 84.46539 192.890839 
L 85.483328 192.670586 
L 86.501267 189.511686 
L 87.519206 193.171952 
L 88.537144 192.366282 
L 89.555083 192.137323 
L 90.573021 190.192716 
L 91.59096 189.085639 
L 92.608899 190.485403 
L 93.626837 189.723198 
L 94.644776 191.409877 
L 95.662714 189.867945 
L 96.680653 192.92516 
L 97.698591 189.432714 
L 98.71653 190.919219 
L 99.734469 190.214696 
L 101.770346 189.782311 
L 103.806223 190.909028 
L 104.824162 189.685668 
L 105.8421 191.160472 
L 106.860039 188.61247 
L 107.877977 189.736538 
L 108.895916 188.597049 
L 109.913854 188.897923 
L 110.931793 189.810453 
L 111.949732 192.128553 
L 112.96767 186.919792 
L 113.985609 190.061018 
L 115.003547 189.556171 
L 116.021486 189.95267 
L 117.039425 190.662384 
L 118.057363 190.340058 
L 119.075302 190.808648 
L 120.09324 190.055879 
L 121.111179 189.850335 
L 122.129117 188.533118 
L 123.147056 186.131748 
L 124.164995 188.232181 
L 125.182933 189.787591 
L 126.200872 187.752349 
L 127.21881 186.337324 
L 128.236749 151.705816 
L 129.254688 186.683112 
L 130.272626 188.071226 
L 131.290565 187.574176 
L 132.308503 184.076965 
L 133.326442 184.787749 
L 134.34438 186.633276 
L 135.362319 186.252747 
L 136.380258 186.745336 
L 137.398196 186.097492 
L 138.416135 186.398713 
L 139.434073 187.315433 
L 140.452012 184.709079 
L 141.469951 184.533013 
L 142.487889 183.163459 
L 143.505828 182.786722 
L 144.523766 182.851636 
L 145.541705 183.163114 
L 146.559643 184.668446 
L 147.577582 182.564058 
L 148.595521 186.411525 
L 149.613459 183.654625 
L 150.631398 182.026458 
L 151.649336 184.56823 
L 152.667275 184.159333 
L 153.685214 178.269406 
L 154.703152 184.693021 
L 155.721091 184.079228 
L 156.739029 181.179837 
L 157.756968 182.512288 
L 158.774906 180.40001 
L 159.792845 180.843485 
L 160.810784 178.548666 
L 161.828722 178.48945 
L 162.846661 179.430104 
L 163.864599 178.546411 
L 164.882538 179.516381 
L 165.900477 180.288938 
L 166.918415 177.967058 
L 167.936354 177.537004 
L 169.972231 179.958591 
L 170.990169 176.288969 
L 172.008108 176.247363 
L 173.026047 180.504503 
L 174.043985 174.948266 
L 175.061924 178.678653 
L 176.079862 178.678017 
L 177.097801 175.342222 
L 178.11574 175.975533 
L 179.133678 177.295493 
L 181.169555 173.668493 
L 182.187494 175.9504 
L 183.205432 175.117816 
L 184.223371 173.180386 
L 185.24131 175.541368 
L 186.259248 170.852986 
L 187.277187 173.726288 
L 188.295125 172.876484 
L 190.331003 168.641949 
L 191.348941 173.010429 
L 192.36688 172.057474 
L 193.384818 170.304447 
L 194.402757 170.538991 
L 196.438634 167.721021 
L 197.456573 170.624509 
L 198.474511 168.114184 
L 199.49245 169.792157 
L 200.510388 170.202115 
L 201.528327 167.50799 
L 202.546266 171.362656 
L 203.564204 167.411194 
L 204.582143 168.312114 
L 205.600081 167.915706 
L 206.61802 167.020802 
L 207.635958 165.927662 
L 208.653897 166.740201 
L 209.671836 167.913877 
L 210.689774 166.7614 
L 211.707713 164.829276 
L 212.725651 170.915247 
L 213.74359 169.133184 
L 214.761529 165.664935 
L 215.779467 165.019754 
L 216.797406 162.064523 
L 216.797406 162.064523 
" clip-path="url(#pff27edf1b3)" style="fill: none; stroke: #ca9161; stroke-opacity: 0.2; stroke-width: 1.5; stroke-linecap: round"/>
   </g>
   <g id="line2d_27">
    <path d="M 217.815344 188.867121 
L 218.833283 201.772258 
L 219.851221 203.687591 
L 220.86916 169.115253 
L 221.887099 203.141604 
L 222.905037 189.08318 
L 223.922976 182.134259 
L 224.940914 187.197044 
L 225.958853 183.179517 
L 226.976792 189.760553 
L 227.99473 182.83791 
L 229.012669 184.896309 
L 230.030607 185.156164 
L 231.048546 179.442283 
L 232.066484 178.832062 
L 233.084423 169.497735 
L 234.102362 168.715252 
L 235.1203 167.626198 
L 236.138239 170.77949 
L 237.156177 164.394075 
L 238.174116 162.481662 
L 239.192055 165.705026 
L 240.209993 165.001375 
L 241.227932 163.442239 
L 242.24587 166.788224 
L 243.263809 165.623258 
L 244.281747 163.053882 
L 245.299686 163.868466 
L 246.317625 165.296207 
L 247.335563 161.331232 
L 248.353502 163.646413 
L 249.37144 160.87825 
L 250.389379 158.974324 
L 251.407318 158.579895 
L 252.425256 160.089109 
L 253.443195 159.388115 
L 254.461133 161.463705 
L 255.479072 163.191867 
L 256.49701 161.90673 
L 258.532888 158.07499 
L 259.550826 156.465614 
L 260.568765 159.113365 
L 261.586703 160.312822 
L 262.604642 157.906205 
L 263.622581 157.788959 
L 264.640519 156.179365 
L 266.676396 155.094802 
L 267.694335 157.24034 
L 268.712273 152.298866 
L 269.730212 153.431336 
L 270.748151 148.136547 
L 271.766089 152.529871 
L 272.784028 153.694836 
L 273.801966 151.693251 
L 274.819905 148.135508 
L 275.837844 150.059969 
L 276.855782 151.691721 
L 277.873721 150.343817 
L 278.891659 152.669104 
L 279.909598 146.916619 
L 280.927536 148.088657 
L 281.945475 151.151873 
L 283.981352 147.18111 
L 284.999291 147.214219 
L 286.017229 145.103072 
L 287.035168 146.467562 
L 288.053107 142.522065 
L 289.071045 145.680839 
L 290.088984 140.894907 
L 291.106922 146.464499 
L 292.124861 143.634042 
L 293.142799 141.775656 
L 294.160738 139.633239 
L 295.178677 140.97868 
L 296.196615 137.419287 
L 297.214554 139.900106 
L 298.232492 132.750606 
L 299.250431 134.986825 
L 300.26837 136.502397 
L 301.286308 133.370412 
L 303.322185 136.197392 
L 304.340124 130.485602 
L 305.358062 133.440789 
L 306.376001 133.711873 
L 307.39394 136.233465 
L 308.411878 129.778846 
L 309.429817 133.510012 
L 310.447755 124.646875 
L 311.465694 125.388446 
L 312.483633 122.714822 
L 313.501571 125.347403 
L 314.51951 127.598107 
L 315.537448 128.893373 
L 316.555387 121.652987 
L 317.573325 126.104242 
L 318.591264 126.921547 
L 320.627141 125.19021 
L 321.64508 120.398295 
L 322.663018 118.030802 
L 323.680957 117.194447 
L 324.698896 117.36175 
L 325.716834 114.004043 
L 326.734773 115.193894 
L 327.752711 115.690848 
L 328.77065 112.185331 
L 329.788588 110.540018 
L 330.806527 114.078514 
L 331.824466 111.446646 
L 332.842404 104.413444 
L 333.860343 107.719232 
L 334.878281 112.28521 
L 335.89622 114.776337 
L 337.932097 103.444416 
L 338.950036 107.399015 
L 339.967974 102.557457 
L 340.985913 102.371696 
L 342.003851 97.63432 
L 343.02179 95.683171 
L 344.039729 96.69327 
L 345.057667 96.477828 
L 346.075606 101.824562 
L 347.093544 97.870056 
L 348.111483 98.111418 
L 349.129422 98.631907 
L 350.14736 92.877624 
L 351.165299 93.037576 
L 352.183237 94.079225 
L 353.201176 91.116704 
L 354.219114 87.264476 
L 355.237053 91.907612 
L 356.254992 91.574832 
L 357.27293 93.31356 
L 358.290869 93.680292 
L 359.308807 85.313093 
L 360.326746 86.927763 
L 361.344685 95.367189 
L 362.362623 87.932102 
L 363.380562 88.020712 
L 364.3985 89.183061 
L 365.416439 105.511494 
L 366.434377 104.420923 
L 367.452316 95.608539 
L 368.470255 97.295886 
L 369.488193 86.668043 
L 369.488193 86.668043 
" clip-path="url(#pff27edf1b3)" style="fill: none; stroke: #ca9161; stroke-opacity: 0.2; stroke-width: 1.5; stroke-linecap: round"/>
   </g>
   <g id="line2d_28">
    <path d="M 67.160434 212.220632 
L 68.178373 212.505058 
L 69.196311 209.637145 
L 70.21425 207.588563 
L 71.232188 205.060109 
L 73.268065 202.572288 
L 74.286004 203.343271 
L 76.321881 203.218288 
L 78.357758 201.18205 
L 79.375697 200.304601 
L 80.393636 198.592391 
L 81.411574 197.485036 
L 82.429513 196.871952 
L 83.447451 196.969675 
L 84.46539 196.592156 
L 85.483328 196.772686 
L 88.537144 196.262977 
L 89.555083 196.346807 
L 90.573021 196.113807 
L 91.59096 196.394108 
L 93.626837 196.030428 
L 94.644776 196.051989 
L 95.662714 196.509172 
L 96.680653 196.477717 
L 99.734469 196.985549 
L 100.752407 196.954564 
L 101.770346 196.337735 
L 102.788284 195.9076 
L 103.806223 195.858577 
L 105.8421 195.108836 
L 107.877977 194.779775 
L 108.895916 194.501304 
L 110.931793 193.255583 
L 112.96767 193.45874 
L 113.985609 193.446636 
L 115.003547 194.072332 
L 116.021486 194.381683 
L 117.039425 194.385 
L 118.057363 194.07043 
L 119.075302 193.941568 
L 121.111179 193.399389 
L 122.129117 193.447976 
L 123.147056 192.924548 
L 125.182933 192.31694 
L 126.200872 192.556803 
L 127.21881 192.470542 
L 128.236749 192.653255 
L 131.290565 192.294427 
L 132.308503 191.858732 
L 133.326442 192.435932 
L 134.34438 192.239926 
L 135.362319 191.817067 
L 137.398196 191.671475 
L 138.416135 191.028913 
L 139.434073 190.781425 
L 141.469951 190.900712 
L 143.505828 191.125929 
L 144.523766 191.331108 
L 145.541705 191.121621 
L 146.559643 190.419265 
L 147.577582 190.171194 
L 148.595521 190.272968 
L 149.613459 190.561514 
L 150.631398 190.569092 
L 151.649336 190.956339 
L 152.667275 190.776577 
L 153.685214 190.287554 
L 154.703152 189.447594 
L 155.721091 189.386098 
L 156.739029 188.946418 
L 158.774906 188.49156 
L 159.792845 188.979085 
L 163.864599 188.837485 
L 164.882538 188.453853 
L 166.918415 188.076595 
L 168.954292 187.559803 
L 169.972231 187.280063 
L 170.990169 187.301893 
L 173.026047 188.108268 
L 174.043985 188.114664 
L 175.061924 187.700017 
L 176.079862 186.930262 
L 177.097801 186.609813 
L 178.11574 186.163745 
L 179.133678 186.33938 
L 181.169555 187.342172 
L 182.187494 186.757526 
L 183.205432 186.352447 
L 184.223371 185.537097 
L 185.24131 185.502587 
L 186.259248 184.982129 
L 187.277187 184.967651 
L 188.295125 185.334631 
L 189.313064 185.964167 
L 190.331003 185.924043 
L 191.348941 186.148519 
L 192.36688 186.252038 
L 194.402757 185.592102 
L 196.438634 185.496455 
L 197.456573 185.295219 
L 198.474511 185.592373 
L 199.49245 185.628496 
L 201.528327 184.881534 
L 202.546266 184.308974 
L 203.564204 183.965536 
L 204.582143 183.778072 
L 205.600081 183.77642 
L 206.61802 184.534154 
L 207.635958 185.624936 
L 209.671836 185.710046 
L 210.689774 186.829584 
L 211.707713 187.163813 
L 212.725651 187.269763 
L 213.74359 186.907763 
L 214.761529 185.386543 
L 214.761529 185.386543 
" clip-path="url(#pff27edf1b3)" style="fill: none; stroke: #0173b2; stroke-width: 1.5; stroke-linecap: round"/>
   </g>
   <g id="line2d_29">
    <path d="M 219.851221 197.124363 
L 220.86916 196.419245 
L 221.887099 192.364949 
L 222.905037 189.746754 
L 223.922976 186.563638 
L 225.958853 182.743691 
L 226.976792 184.346889 
L 227.99473 183.153414 
L 229.012669 182.701787 
L 230.030607 180.735943 
L 231.048546 177.356759 
L 232.066484 172.91964 
L 234.102362 165.283885 
L 235.1203 161.313396 
L 236.138239 158.858677 
L 237.156177 158.630018 
L 239.192055 153.940442 
L 240.209993 152.482092 
L 241.227932 151.711267 
L 242.24587 148.616083 
L 244.281747 146.975608 
L 245.299686 145.248747 
L 246.317625 144.979174 
L 247.335563 144.306073 
L 248.353502 143.400147 
L 249.37144 143.218953 
L 250.389379 142.267945 
L 251.407318 141.639222 
L 253.443195 139.698259 
L 254.461133 139.113931 
L 255.479072 139.017924 
L 256.49701 136.948762 
L 257.514949 137.00843 
L 258.532888 135.233073 
L 260.568765 133.099367 
L 262.604642 130.317792 
L 263.622581 129.488 
L 264.640519 126.820521 
L 265.658458 125.532792 
L 266.676396 125.714831 
L 268.712273 123.622959 
L 269.730212 122.437043 
L 271.766089 118.22969 
L 273.801966 114.625565 
L 274.819905 114.306258 
L 275.837844 112.710544 
L 276.855782 112.627587 
L 277.873721 111.677491 
L 278.891659 112.316684 
L 279.909598 112.405376 
L 280.927536 112.307705 
L 281.945475 110.252717 
L 282.963414 110.20046 
L 283.981352 107.949732 
L 284.999291 106.153672 
L 286.017229 103.988131 
L 287.035168 103.623143 
L 288.053107 101.863738 
L 289.071045 99.557291 
L 290.088984 96.342245 
L 291.106922 96.446917 
L 292.124861 94.717846 
L 293.142799 93.641218 
L 294.160738 92.870822 
L 295.178677 91.168919 
L 296.196615 89.738284 
L 297.214554 87.724885 
L 298.232492 84.656844 
L 299.250431 83.267926 
L 300.26837 83.938478 
L 301.286308 82.522047 
L 302.304247 81.894801 
L 303.322185 80.962058 
L 305.358062 77.325917 
L 306.376001 74.10082 
L 307.39394 71.466087 
L 308.411878 68.356683 
L 309.429817 67.160553 
L 310.447755 65.478007 
L 311.465694 64.929852 
L 312.483633 61.272677 
L 313.501571 61.680845 
L 314.51951 60.27441 
L 316.555387 56.886887 
L 317.573325 56.369984 
L 318.591264 54.154455 
L 319.609203 51.615315 
L 320.627141 51.426596 
L 321.64508 50.875534 
L 322.663018 52.650131 
L 323.680957 52.644129 
L 324.698896 53.581771 
L 325.716834 52.509006 
L 326.734773 48.991371 
L 327.752711 45.073986 
L 328.77065 42.486352 
L 329.788588 38.39327 
L 330.806527 35.610816 
L 331.824466 34.153832 
L 332.842404 33.290096 
L 333.860343 31.750646 
L 334.878281 32.198947 
L 336.914159 31.694021 
L 337.932097 32.395892 
L 338.950036 30.536484 
L 339.967974 31.208842 
L 340.985913 30.380319 
L 342.003851 28.796279 
L 343.02179 28.659091 
L 344.039729 30.470172 
L 345.057667 27.198062 
L 346.075606 27.874362 
L 347.093544 27.607682 
L 348.111483 26.666632 
L 349.129422 26.501687 
L 350.14736 29.437769 
L 351.165299 26.485049 
L 352.183237 28.661025 
L 353.201176 28.958381 
L 354.219114 30.794231 
L 355.237053 31.439035 
L 356.254992 33.089374 
L 357.27293 32.966094 
L 358.290869 32.586317 
L 359.308807 31.51694 
L 360.326746 30.218766 
L 361.344685 29.898825 
L 362.362623 28.624491 
L 364.3985 42.073461 
L 365.416439 46.23845 
L 366.434377 51.240267 
L 367.452316 53.479627 
L 367.452316 53.479627 
" clip-path="url(#pff27edf1b3)" style="fill: none; stroke: #0173b2; stroke-width: 1.5; stroke-linecap: round"/>
   </g>
   <g id="line2d_30">
    <path d="M 67.160434 212.504259 
L 68.178373 212.833906 
L 69.196311 210.899334 
L 70.21425 209.640556 
L 71.232188 208.10266 
L 72.250127 207.517957 
L 73.268065 207.343337 
L 74.286004 207.670234 
L 75.303943 207.438209 
L 76.321881 207.470521 
L 77.33982 207.264964 
L 79.375697 205.950844 
L 82.429513 202.95205 
L 86.501267 202.328504 
L 87.519206 202.35428 
L 88.537144 202.220212 
L 89.555083 202.330193 
L 90.573021 202.283762 
L 91.59096 202.565942 
L 92.608899 202.548712 
L 93.626837 202.655557 
L 94.644776 202.52314 
L 95.662714 202.543662 
L 96.680653 202.25238 
L 97.698591 202.195154 
L 98.71653 202.000741 
L 100.752407 202.068677 
L 102.788284 202.347202 
L 104.824162 202.63416 
L 112.96767 202.014323 
L 113.985609 202.241231 
L 116.021486 202.287483 
L 118.057363 202.310501 
L 122.129117 202.006837 
L 123.147056 202.164558 
L 125.182933 202.156116 
L 126.200872 202.247808 
L 127.21881 202.455987 
L 130.272626 202.060084 
L 131.290565 201.991359 
L 132.308503 201.781058 
L 135.362319 201.812417 
L 136.380258 202.008866 
L 140.452012 202.068402 
L 142.487889 201.759808 
L 143.505828 202.005109 
L 147.577582 202.036526 
L 148.595521 201.825752 
L 150.631398 201.826064 
L 157.756968 201.447661 
L 159.792845 201.001667 
L 160.810784 201.140805 
L 162.846661 200.975515 
L 163.864599 201.036824 
L 164.882538 200.769274 
L 165.900477 200.635102 
L 167.936354 200.631758 
L 168.954292 200.719466 
L 169.972231 201.080365 
L 170.990169 200.951503 
L 173.026047 200.995911 
L 175.061924 200.836151 
L 176.079862 201.000501 
L 179.133678 200.261591 
L 182.187494 200.409558 
L 183.205432 200.721273 
L 184.223371 200.813035 
L 186.259248 200.520125 
L 187.277187 200.553227 
L 191.348941 199.655334 
L 192.36688 199.497291 
L 197.456573 200.166483 
L 199.49245 200.255855 
L 200.510388 200.444455 
L 201.528327 200.406094 
L 203.564204 200.020482 
L 205.600081 200.2242 
L 206.61802 200.342203 
L 209.671836 201.03128 
L 211.707713 201.890044 
L 212.725651 202.145835 
L 213.74359 201.971992 
L 214.761529 200.850592 
L 214.761529 200.850592 
" clip-path="url(#pff27edf1b3)" style="fill: none; stroke: #de8f05; stroke-width: 1.5; stroke-linecap: round"/>
   </g>
   <g id="line2d_31">
    <path d="M 219.851221 203.211405 
L 220.86916 204.740284 
L 222.905037 201.52439 
L 223.922976 199.418901 
L 224.940914 197.958387 
L 225.958853 196.986092 
L 226.976792 198.115487 
L 229.012669 198.072673 
L 230.030607 197.11557 
L 233.084423 192.643565 
L 235.1203 189.91002 
L 236.138239 189.631038 
L 237.156177 189.694914 
L 239.192055 188.610058 
L 241.227932 188.590011 
L 242.24587 188.225721 
L 243.263809 188.119341 
L 244.281747 188.312996 
L 246.317625 188.099136 
L 248.353502 188.292605 
L 250.389379 188.451744 
L 252.425256 188.461577 
L 255.479072 188.09589 
L 256.49701 187.749461 
L 258.532888 187.619201 
L 260.568765 186.923154 
L 261.586703 186.940383 
L 263.622581 186.368421 
L 264.640519 186.3617 
L 265.658458 186.630841 
L 266.676396 186.694517 
L 268.712273 187.131536 
L 273.801966 186.328719 
L 274.819905 186.390446 
L 276.855782 186.028686 
L 278.891659 185.513545 
L 279.909598 185.314415 
L 280.927536 185.430417 
L 281.945475 185.700231 
L 282.963414 185.57839 
L 283.981352 185.698672 
L 284.999291 185.492194 
L 286.017229 185.022201 
L 287.035168 184.675918 
L 288.053107 184.535607 
L 289.071045 184.186803 
L 290.088984 184.141076 
L 292.124861 184.330379 
L 293.142799 184.047792 
L 295.178677 184.033371 
L 297.214554 183.602195 
L 298.232492 183.703567 
L 299.250431 183.103517 
L 300.26837 182.722052 
L 301.286308 182.605533 
L 302.304247 182.090628 
L 303.322185 181.903524 
L 304.340124 182.145291 
L 305.358062 181.982026 
L 306.376001 181.231212 
L 307.39394 181.004295 
L 308.411878 180.635086 
L 309.429817 180.052648 
L 310.447755 179.87733 
L 314.51951 180.813698 
L 315.537448 180.692333 
L 316.555387 180.448914 
L 318.591264 179.457908 
L 319.609203 179.247546 
L 320.627141 178.847796 
L 321.64508 178.943075 
L 323.680957 178.868721 
L 324.698896 178.56195 
L 325.716834 178.704584 
L 326.734773 178.473959 
L 327.752711 178.375333 
L 328.77065 178.439064 
L 329.788588 178.621567 
L 330.806527 178.522283 
L 331.824466 178.224741 
L 332.842404 178.174587 
L 333.860343 178.248769 
L 334.878281 178.102415 
L 336.914159 178.514904 
L 337.932097 178.385202 
L 338.950036 178.377145 
L 340.985913 178.06759 
L 342.003851 177.746783 
L 343.02179 177.839773 
L 345.057667 177.218699 
L 346.075606 177.441607 
L 347.093544 177.361838 
L 349.129422 177.657048 
L 350.14736 178.265643 
L 351.165299 177.805325 
L 352.183237 177.907975 
L 353.201176 177.397075 
L 354.219114 177.802235 
L 355.237053 177.430973 
L 356.254992 177.926425 
L 357.27293 177.961949 
L 358.290869 178.907154 
L 359.308807 178.611342 
L 360.326746 179.137607 
L 361.344685 179.050613 
L 362.362623 179.45894 
L 363.380562 180.017625 
L 364.3985 181.246264 
L 365.416439 181.892871 
L 366.434377 182.25567 
L 367.452316 181.617045 
L 367.452316 181.617045 
" clip-path="url(#pff27edf1b3)" style="fill: none; stroke: #de8f05; stroke-width: 1.5; stroke-linecap: round"/>
   </g>
   <g id="line2d_32">
    <path d="M 67.160434 213.098031 
L 68.178373 214.897317 
L 69.196311 214.106946 
L 70.21425 213.070918 
L 71.232188 211.624095 
L 72.250127 210.551096 
L 73.268065 210.30051 
L 74.286004 210.354735 
L 75.303943 210.173985 
L 76.321881 210.316942 
L 77.33982 210.054032 
L 79.375697 208.245709 
L 81.411574 206.190086 
L 82.429513 205.380817 
L 83.447451 205.329057 
L 84.46539 205.067791 
L 86.501267 204.864855 
L 88.537144 204.394071 
L 89.555083 204.242058 
L 92.608899 203.248616 
L 93.626837 202.759691 
L 94.644776 202.465468 
L 95.662714 202.341261 
L 96.680653 202.084743 
L 97.698591 201.962907 
L 99.734469 201.368224 
L 100.752407 200.821418 
L 102.788284 199.950234 
L 103.806223 199.837835 
L 104.824162 200.000676 
L 107.877977 200.030097 
L 112.96767 198.935016 
L 113.985609 198.913357 
L 116.021486 198.005448 
L 117.039425 197.856354 
L 120.09324 196.952921 
L 121.111179 196.995315 
L 122.129117 196.860174 
L 124.164995 196.805981 
L 125.182933 196.58437 
L 127.21881 196.402928 
L 129.254688 195.921772 
L 131.290565 195.537732 
L 132.308503 195.227699 
L 134.34438 195.264783 
L 135.362319 195.446714 
L 137.398196 194.82453 
L 138.416135 194.057276 
L 139.434073 190.40657 
L 141.469951 189.508263 
L 142.487889 188.947137 
L 143.505828 188.936352 
L 144.523766 191.463756 
L 145.541705 190.290373 
L 147.577582 189.925026 
L 148.595521 189.069906 
L 149.613459 188.850845 
L 150.631398 189.034774 
L 151.649336 188.103193 
L 152.667275 187.662303 
L 153.685214 188.12483 
L 154.703152 187.60663 
L 155.721091 187.48055 
L 156.739029 186.971454 
L 157.756968 182.568615 
L 158.774906 181.527988 
L 159.792845 181.346777 
L 160.810784 180.405498 
L 161.828722 180.228635 
L 162.846661 183.894693 
L 163.864599 183.619742 
L 164.882538 183.157157 
L 166.918415 183.204388 
L 167.936354 182.3388 
L 168.954292 182.11373 
L 170.990169 181.174035 
L 172.008108 180.674022 
L 173.026047 180.823657 
L 174.043985 179.888007 
L 175.061924 178.680008 
L 177.097801 177.6926 
L 178.11574 177.63047 
L 179.133678 177.820166 
L 180.151617 178.285762 
L 181.169555 177.129407 
L 182.187494 175.718132 
L 183.205432 173.404531 
L 185.24131 170.98444 
L 186.259248 170.932232 
L 188.295125 170.353643 
L 189.313064 168.565436 
L 190.331003 167.197129 
L 191.348941 165.251464 
L 192.36688 164.524695 
L 193.384818 164.105884 
L 194.402757 158.613908 
L 195.420695 158.071935 
L 196.438634 158.224113 
L 197.456573 157.773875 
L 198.474511 157.661042 
L 199.49245 163.1061 
L 201.528327 161.988787 
L 202.546266 160.344822 
L 203.564204 159.523759 
L 204.582143 159.030669 
L 205.600081 158.946933 
L 206.61802 158.20118 
L 207.635958 158.857507 
L 209.671836 156.578038 
L 210.689774 157.567437 
L 211.707713 158.058719 
L 212.725651 158.139234 
L 213.74359 157.671782 
L 214.761529 152.600536 
L 214.761529 152.600536 
" clip-path="url(#pff27edf1b3)" style="fill: none; stroke: #029e73; stroke-width: 1.5; stroke-linecap: round"/>
   </g>
   <g id="line2d_33">
    <path d="M 219.851221 203.780658 
L 220.86916 205.225899 
L 221.887099 204.707685 
L 224.940914 199.576542 
L 225.958853 198.55492 
L 226.976792 198.841994 
L 227.99473 198.675836 
L 229.012669 198.730126 
L 230.030607 198.290055 
L 233.084423 191.307324 
L 234.102362 189.461495 
L 235.1203 187.287463 
L 236.138239 187.52107 
L 237.156177 186.88523 
L 238.174116 186.710024 
L 239.192055 186.307787 
L 240.209993 185.704846 
L 243.263809 184.630501 
L 244.281747 184.03573 
L 245.299686 183.728006 
L 246.317625 182.963737 
L 247.335563 182.889582 
L 248.353502 182.660712 
L 250.389379 181.715841 
L 251.407318 181.589638 
L 252.425256 181.035577 
L 254.461133 180.442967 
L 255.479072 180.468572 
L 256.49701 180.352559 
L 257.514949 179.760188 
L 258.532888 179.78385 
L 259.550826 179.510403 
L 260.568765 178.912691 
L 261.586703 178.124842 
L 262.604642 177.828827 
L 263.622581 177.068805 
L 265.658458 176.115515 
L 266.676396 176.187249 
L 269.730212 175.887333 
L 270.748151 176.339241 
L 271.766089 175.204683 
L 272.784028 174.512799 
L 273.801966 174.341819 
L 274.819905 173.810383 
L 275.837844 173.11845 
L 276.855782 173.085536 
L 277.873721 172.279756 
L 278.891659 170.874713 
L 280.927536 170.280574 
L 281.945475 170.045155 
L 282.963414 170.251066 
L 283.981352 170.309131 
L 284.999291 169.215242 
L 286.017229 167.806455 
L 287.035168 167.297154 
L 288.053107 166.538027 
L 290.088984 165.914387 
L 291.106922 165.274023 
L 292.124861 164.174617 
L 294.160738 164.172313 
L 296.196615 164.895307 
L 297.214554 165.16252 
L 298.232492 164.326218 
L 299.250431 162.306732 
L 300.26837 160.548892 
L 301.286308 158.418182 
L 302.304247 157.4939 
L 303.322185 155.503991 
L 304.340124 155.760535 
L 305.358062 154.314323 
L 306.376001 153.803991 
L 307.39394 152.284092 
L 308.411878 153.03905 
L 309.429817 152.345383 
L 310.447755 152.361532 
L 311.465694 152.028819 
L 312.483633 151.23725 
L 313.501571 150.074776 
L 314.51951 147.582633 
L 315.537448 145.6799 
L 316.555387 145.06994 
L 319.609203 138.577953 
L 320.627141 138.869302 
L 321.64508 137.319111 
L 322.663018 137.556864 
L 323.680957 136.027476 
L 324.698896 135.946862 
L 325.716834 132.649108 
L 326.734773 130.959158 
L 327.752711 127.922393 
L 328.77065 127.421077 
L 329.788588 126.508278 
L 330.806527 124.691311 
L 332.842404 122.705281 
L 333.860343 119.823132 
L 334.878281 118.424409 
L 335.89622 120.046357 
L 336.914159 118.380008 
L 337.932097 119.657689 
L 338.950036 121.222375 
L 339.967974 119.954949 
L 340.985913 116.654246 
L 342.003851 115.822358 
L 343.02179 111.043676 
L 344.039729 107.76553 
L 345.057667 101.845058 
L 346.075606 100.968815 
L 347.093544 100.644156 
L 348.111483 100.180819 
L 349.129422 97.820584 
L 350.14736 98.363703 
L 351.165299 97.145648 
L 354.219114 91.929572 
L 355.237053 91.800928 
L 356.254992 87.208684 
L 357.27293 81.001928 
L 358.290869 82.136591 
L 359.308807 82.157714 
L 360.326746 81.937609 
L 361.344685 82.785974 
L 362.362623 81.053419 
L 363.380562 78.20787 
L 364.3985 74.417153 
L 365.416439 71.917323 
L 367.452316 69.483418 
L 367.452316 69.483418 
" clip-path="url(#pff27edf1b3)" style="fill: none; stroke: #029e73; stroke-width: 1.5; stroke-linecap: round"/>
   </g>
   <g id="line2d_34">
    <path d="M 67.160434 206.040582 
L 68.178373 210.087541 
L 69.196311 198.47817 
L 70.21425 195.717548 
L 71.232188 191.930445 
L 72.250127 188.830073 
L 73.268065 187.430739 
L 74.286004 196.835341 
L 75.303943 196.253617 
L 76.321881 196.901541 
L 77.33982 196.458685 
L 79.375697 190.806945 
L 80.393636 188.353356 
L 82.429513 184.25884 
L 83.447451 184.412166 
L 84.46539 184.719578 
L 85.483328 184.611146 
L 86.501267 184.123014 
L 87.519206 184.037408 
L 88.537144 184.369167 
L 92.608899 185.114475 
L 93.626837 184.489752 
L 94.644776 184.325379 
L 95.662714 184.747287 
L 97.698591 184.58971 
L 99.734469 185.041219 
L 100.752407 184.96456 
L 101.770346 185.098781 
L 102.788284 184.956867 
L 104.824162 184.990198 
L 105.8421 184.73412 
L 106.860039 184.931923 
L 107.877977 184.922177 
L 108.895916 185.611468 
L 109.913854 185.585188 
L 110.931793 185.982752 
L 111.949732 185.969658 
L 112.96767 186.258309 
L 113.985609 185.973789 
L 115.003547 186.519914 
L 116.021486 186.418363 
L 117.039425 186.685776 
L 118.057363 186.778611 
L 119.075302 186.641595 
L 120.09324 186.222814 
L 121.111179 186.298303 
L 122.129117 186.137278 
L 123.147056 186.403586 
L 124.164995 185.468556 
L 127.21881 185.964107 
L 128.236749 185.986017 
L 129.254688 187.261406 
L 130.272626 187.408522 
L 131.290565 187.426971 
L 132.308503 186.503227 
L 134.34438 185.820261 
L 135.362319 182.889126 
L 136.380258 182.77928 
L 137.398196 183.747178 
L 138.416135 184.012936 
L 139.434073 184.161531 
L 140.452012 186.969281 
L 141.469951 186.91048 
L 143.505828 186.462707 
L 144.523766 186.540051 
L 145.541705 186.153569 
L 146.559643 179.121767 
L 147.577582 179.144895 
L 148.595521 179.503881 
L 149.613459 179.665422 
L 150.631398 180.149173 
L 151.649336 187.120094 
L 152.667275 187.303858 
L 154.703152 185.895655 
L 155.721091 185.595236 
L 156.739029 185.508975 
L 157.756968 185.108157 
L 158.774906 185.190774 
L 159.792845 185.783743 
L 160.810784 185.84705 
L 161.828722 186.091422 
L 163.864599 186.843906 
L 165.900477 186.518462 
L 168.954292 185.462844 
L 169.972231 185.418968 
L 172.008108 185.708948 
L 173.026047 185.739641 
L 174.043985 185.390053 
L 176.079862 185.527562 
L 178.11574 186.498714 
L 179.133678 186.793691 
L 181.169555 186.465586 
L 182.187494 185.98903 
L 183.205432 185.641373 
L 184.223371 186.191906 
L 185.24131 185.550769 
L 186.259248 185.35263 
L 187.277187 184.79772 
L 188.295125 184.403717 
L 189.313064 183.823228 
L 190.331003 184.174551 
L 191.348941 184.18877 
L 192.36688 184.710157 
L 193.384818 184.73431 
L 194.402757 184.165806 
L 195.420695 184.595771 
L 196.438634 184.745886 
L 197.456573 184.753986 
L 198.474511 185.00109 
L 199.49245 185.670526 
L 200.510388 185.798038 
L 203.564204 185.636208 
L 204.582143 185.818184 
L 205.600081 185.745114 
L 206.61802 185.942398 
L 207.635958 186.253851 
L 208.653897 186.390931 
L 209.671836 186.235988 
L 213.74359 187.738208 
L 214.761529 186.42975 
L 214.761529 186.42975 
" clip-path="url(#pff27edf1b3)" style="fill: none; stroke: #d55e00; stroke-width: 1.5; stroke-linecap: round"/>
   </g>
   <g id="line2d_35">
    <path d="M 219.851221 178.405522 
L 220.86916 181.812084 
L 221.887099 181.126083 
L 223.922976 178.231427 
L 224.940914 177.406305 
L 225.958853 177.611144 
L 226.976792 177.22414 
L 227.99473 177.539662 
L 229.012669 177.205308 
L 230.030607 176.294867 
L 231.048546 171.93021 
L 235.1203 156.700217 
L 236.138239 156.382389 
L 237.156177 156.296302 
L 238.174116 155.659878 
L 239.192055 155.727131 
L 240.209993 154.216389 
L 241.227932 153.639915 
L 242.24587 154.168345 
L 244.281747 152.251763 
L 245.299686 153.355895 
L 246.317625 152.43738 
L 247.335563 151.960823 
L 248.353502 152.795542 
L 249.37144 152.678694 
L 250.389379 151.323565 
L 251.407318 150.596221 
L 252.425256 150.065795 
L 253.443195 148.32281 
L 255.479072 147.337851 
L 256.49701 147.635153 
L 257.514949 147.800958 
L 258.532888 148.351306 
L 259.550826 148.622554 
L 260.568765 148.449554 
L 261.586703 147.846761 
L 263.622581 145.353527 
L 264.640519 145.430703 
L 265.658458 145.862561 
L 266.676396 146.050166 
L 268.712273 146.673444 
L 269.730212 145.820738 
L 270.748151 145.35921 
L 271.766089 145.025608 
L 273.801966 143.094949 
L 274.819905 141.339833 
L 275.837844 140.289138 
L 276.855782 138.434824 
L 277.873721 137.209565 
L 278.891659 137.947567 
L 279.909598 138.071507 
L 280.927536 137.808985 
L 282.963414 138.074034 
L 283.981352 137.039387 
L 284.999291 137.137049 
L 286.017229 136.97316 
L 287.035168 137.231554 
L 288.053107 137.339754 
L 289.071045 136.797292 
L 290.088984 135.572955 
L 291.106922 134.999923 
L 292.124861 132.834501 
L 293.142799 131.104297 
L 294.160738 128.493661 
L 296.196615 127.716124 
L 297.214554 129.240767 
L 298.232492 129.173225 
L 299.250431 131.24972 
L 300.26837 130.759866 
L 301.286308 129.857472 
L 303.322185 127.160687 
L 304.340124 125.150505 
L 305.358062 125.145483 
L 306.376001 124.237367 
L 307.39394 121.500944 
L 308.411878 122.0185 
L 309.429817 123.085198 
L 310.447755 122.902493 
L 311.465694 123.226048 
L 312.483633 125.157906 
L 313.501571 125.013738 
L 314.51951 122.384041 
L 315.537448 121.347299 
L 316.555387 120.582399 
L 317.573325 120.07416 
L 319.609203 118.594709 
L 320.627141 117.874013 
L 321.64508 114.683449 
L 322.663018 112.335204 
L 323.680957 111.39521 
L 324.698896 111.089571 
L 325.716834 110.616468 
L 326.734773 112.522452 
L 327.752711 113.818639 
L 328.77065 113.954215 
L 329.788588 114.782689 
L 330.806527 113.537485 
L 333.860343 108.186653 
L 334.878281 107.452663 
L 335.89622 107.759277 
L 336.914159 107.639969 
L 337.932097 106.926671 
L 338.950036 107.144188 
L 339.967974 107.705345 
L 340.985913 108.507857 
L 342.003851 108.474822 
L 343.02179 108.953308 
L 345.057667 107.235515 
L 346.075606 105.673275 
L 347.093544 105.891873 
L 348.111483 105.411815 
L 349.129422 104.552244 
L 350.14736 104.425636 
L 351.165299 103.893623 
L 352.183237 103.848892 
L 353.201176 104.723794 
L 354.219114 104.708579 
L 355.237053 103.314358 
L 356.254992 103.084642 
L 357.27293 101.293161 
L 358.290869 100.110009 
L 359.308807 100.215141 
L 360.326746 102.11551 
L 361.344685 102.824943 
L 362.362623 105.783991 
L 364.3985 114.546188 
L 365.416439 116.163089 
L 366.434377 116.123369 
L 367.452316 113.929049 
L 367.452316 113.929049 
" clip-path="url(#pff27edf1b3)" style="fill: none; stroke: #d55e00; stroke-width: 1.5; stroke-linecap: round"/>
   </g>
   <g id="line2d_36">
    <path d="M 67.160434 214.325184 
L 68.178373 216.979269 
L 69.196311 212.406867 
L 70.21425 211.645434 
L 71.232188 210.318392 
L 72.250127 209.285086 
L 73.268065 209.042207 
L 74.286004 213.05708 
L 75.303943 212.7353 
L 76.321881 213.007173 
L 77.33982 213.000043 
L 79.375697 211.726235 
L 82.429513 209.319308 
L 83.447451 208.899616 
L 84.46539 208.693811 
L 85.483328 208.623466 
L 86.501267 208.719001 
L 88.537144 208.681449 
L 89.555083 208.849702 
L 94.644776 208.700371 
L 95.662714 208.711725 
L 96.680653 208.501098 
L 102.788284 208.560191 
L 104.824162 208.252575 
L 105.8421 208.067568 
L 108.895916 208.44529 
L 109.913854 208.583051 
L 111.949732 208.47098 
L 112.96767 208.185022 
L 113.985609 208.340805 
L 115.003547 208.186985 
L 116.021486 208.359369 
L 121.111179 208.474659 
L 122.129117 208.413099 
L 127.21881 207.464688 
L 129.254688 207.820502 
L 130.272626 207.849602 
L 131.290565 208.044441 
L 132.308503 208.051825 
L 133.326442 207.853664 
L 134.34438 207.772358 
L 136.380258 207.253603 
L 137.398196 207.22031 
L 139.434073 207.492913 
L 140.452012 207.885784 
L 142.487889 208.302482 
L 145.541705 207.804422 
L 146.559643 207.624387 
L 149.613459 207.601956 
L 151.649336 207.780286 
L 153.685214 207.691167 
L 154.703152 207.684899 
L 156.739029 207.408713 
L 157.756968 207.383414 
L 158.774906 207.214294 
L 159.792845 207.302879 
L 160.810784 207.262698 
L 161.828722 207.47182 
L 162.846661 207.354325 
L 163.864599 207.479128 
L 165.900477 207.230058 
L 166.918415 206.994044 
L 167.936354 207.063933 
L 169.972231 207.457982 
L 170.990169 207.861134 
L 172.008108 207.877451 
L 173.026047 208.087169 
L 175.061924 207.804952 
L 176.079862 207.525999 
L 177.097801 207.596384 
L 180.151617 207.01736 
L 182.187494 207.226793 
L 186.259248 207.19953 
L 188.295125 207.117503 
L 189.313064 207.166974 
L 190.331003 207.37625 
L 196.438634 206.977366 
L 197.456573 206.770959 
L 198.474511 206.262866 
L 200.510388 206.590114 
L 201.528327 206.861112 
L 202.546266 207.25366 
L 203.564204 207.862224 
L 206.61802 207.999937 
L 209.671836 208.396495 
L 211.707713 209.004628 
L 212.725651 209.156612 
L 213.74359 209.008557 
L 214.761529 207.494251 
L 214.761529 207.494251 
" clip-path="url(#pff27edf1b3)" style="fill: none; stroke: #cc78bc; stroke-width: 1.5; stroke-linecap: round"/>
   </g>
   <g id="line2d_37">
    <path d="M 219.851221 204.796157 
L 220.86916 206.523052 
L 221.887099 207.029811 
L 222.905037 206.965393 
L 223.922976 206.789315 
L 224.940914 206.100275 
L 225.958853 205.696586 
L 230.030607 205.01184 
L 231.048546 204.205892 
L 233.084423 202.14593 
L 235.1203 199.585412 
L 236.138239 199.335372 
L 237.156177 198.812389 
L 242.24587 197.944399 
L 244.281747 197.27539 
L 246.317625 196.586812 
L 247.335563 196.221759 
L 248.353502 196.341029 
L 249.37144 196.148222 
L 250.389379 195.8385 
L 251.407318 195.83412 
L 257.514949 196.592645 
L 259.550826 195.945385 
L 260.568765 196.135006 
L 261.586703 195.960838 
L 262.604642 195.147837 
L 264.640519 195.114966 
L 265.658458 194.456879 
L 266.676396 194.353912 
L 267.694335 194.918817 
L 268.712273 194.363128 
L 269.730212 193.995967 
L 270.748151 194.078536 
L 271.766089 193.676596 
L 275.837844 193.20226 
L 276.855782 193.261711 
L 277.873721 193.089585 
L 278.891659 193.178637 
L 279.909598 192.856398 
L 281.945475 192.624825 
L 282.963414 192.076362 
L 283.981352 191.807354 
L 284.999291 192.063103 
L 286.017229 191.92035 
L 287.035168 191.596568 
L 288.053107 191.405515 
L 289.071045 191.340297 
L 290.088984 190.996525 
L 291.106922 191.016126 
L 293.142799 191.236438 
L 294.160738 191.33678 
L 295.178677 191.313454 
L 296.196615 190.900092 
L 297.214554 190.625922 
L 298.232492 190.598369 
L 299.250431 190.182713 
L 301.286308 189.805479 
L 302.304247 189.360251 
L 303.322185 188.612936 
L 304.340124 187.660289 
L 305.358062 187.517776 
L 306.376001 187.159557 
L 307.39394 187.098661 
L 309.429817 187.580164 
L 310.447755 186.612322 
L 311.465694 186.430061 
L 312.483633 186.41292 
L 313.501571 185.978932 
L 314.51951 186.343391 
L 315.537448 186.537137 
L 316.555387 186.137706 
L 317.573325 185.567227 
L 318.591264 185.258958 
L 319.609203 184.484049 
L 320.627141 184.659426 
L 321.64508 183.98395 
L 322.663018 183.592518 
L 323.680957 183.651446 
L 324.698896 183.944151 
L 325.716834 183.543337 
L 326.734773 184.041624 
L 327.752711 184.07106 
L 329.788588 183.083075 
L 330.806527 183.306786 
L 331.824466 183.390991 
L 333.860343 183.846092 
L 334.878281 183.668387 
L 335.89622 182.918713 
L 338.950036 179.600808 
L 340.985913 178.691519 
L 342.003851 178.652298 
L 343.02179 179.039666 
L 344.039729 179.788714 
L 345.057667 179.918774 
L 346.075606 180.487556 
L 347.093544 180.92873 
L 348.111483 180.88115 
L 351.165299 179.652832 
L 352.183237 179.715278 
L 353.201176 180.138684 
L 355.237053 181.325607 
L 356.254992 181.448395 
L 357.27293 180.65574 
L 358.290869 180.142691 
L 359.308807 179.809599 
L 360.326746 179.256132 
L 361.344685 179.935734 
L 362.362623 180.246537 
L 363.380562 180.848037 
L 364.3985 182.082091 
L 365.416439 182.353715 
L 366.434377 181.806945 
L 367.452316 181.05106 
L 367.452316 181.05106 
" clip-path="url(#pff27edf1b3)" style="fill: none; stroke: #cc78bc; stroke-width: 1.5; stroke-linecap: round"/>
   </g>
   <g id="line2d_38">
    <path d="M 67.160434 213.383691 
L 68.178373 213.487442 
L 71.232188 203.374327 
L 72.250127 201.282498 
L 73.268065 199.639291 
L 74.286004 200.339466 
L 75.303943 200.216008 
L 76.321881 199.67117 
L 77.33982 198.90376 
L 78.357758 197.53529 
L 79.375697 195.217412 
L 80.393636 193.406116 
L 81.411574 192.526262 
L 82.429513 191.357179 
L 83.447451 191.663795 
L 84.46539 191.79131 
L 85.483328 192.168639 
L 87.519206 191.971566 
L 88.537144 191.475992 
L 89.555083 191.390782 
L 91.59096 190.324856 
L 93.626837 190.114413 
L 94.644776 190.882317 
L 95.662714 190.671779 
L 96.680653 190.910983 
L 97.698591 190.671947 
L 98.71653 190.695465 
L 99.734469 190.066895 
L 100.752407 190.26138 
L 102.788284 190.153536 
L 103.806223 190.388524 
L 105.8421 190.020835 
L 106.860039 189.558439 
L 107.877977 189.40089 
L 108.895916 189.130886 
L 109.913854 189.834103 
L 110.931793 189.270754 
L 111.949732 189.563548 
L 113.985609 189.723641 
L 115.003547 189.430407 
L 116.021486 190.11446 
L 118.057363 190.363928 
L 119.075302 190.343461 
L 120.09324 189.917608 
L 121.111179 189.075946 
L 122.129117 188.560652 
L 123.147056 188.506995 
L 125.182933 187.648239 
L 126.200872 180.763052 
L 128.236749 180.109965 
L 129.254688 180.074331 
L 130.272626 179.622259 
L 131.290565 186.238645 
L 132.308503 186.228678 
L 133.326442 185.864983 
L 134.34438 185.699215 
L 136.380258 186.425513 
L 137.398196 186.561945 
L 138.416135 186.253211 
L 139.434073 185.810746 
L 140.452012 185.223939 
L 141.469951 184.501541 
L 142.487889 183.608782 
L 143.505828 183.299589 
L 144.523766 183.326676 
L 145.541705 183.206795 
L 146.559643 183.931756 
L 147.577582 184.092354 
L 148.595521 183.865023 
L 149.613459 183.844979 
L 150.631398 184.164034 
L 151.649336 182.53561 
L 152.667275 182.74329 
L 153.685214 183.153844 
L 154.703152 182.476165 
L 155.721091 182.146756 
L 156.739029 182.572877 
L 157.756968 181.80297 
L 158.774906 180.696857 
L 161.828722 179.171623 
L 162.846661 178.906202 
L 163.864599 179.254257 
L 164.882538 179.149779 
L 165.900477 178.771159 
L 167.936354 178.895554 
L 168.954292 178.09556 
L 169.972231 177.751621 
L 170.990169 178.345121 
L 172.008108 177.589538 
L 173.026047 177.333551 
L 174.043985 177.81136 
L 175.061924 177.630332 
L 176.079862 176.724538 
L 177.097801 177.193983 
L 178.11574 176.549032 
L 179.133678 175.547127 
L 180.151617 175.668763 
L 181.169555 175.497219 
L 182.187494 174.674198 
L 183.205432 174.691692 
L 185.24131 173.683769 
L 187.277187 172.769378 
L 188.295125 171.389494 
L 189.313064 171.820982 
L 190.331003 171.48722 
L 191.348941 170.972812 
L 192.36688 170.910658 
L 193.384818 171.000682 
L 194.402757 169.942801 
L 195.420695 169.656207 
L 196.438634 169.218155 
L 197.456573 169.068788 
L 198.474511 169.290797 
L 199.49245 169.248191 
L 200.510388 169.395821 
L 201.528327 169.255223 
L 202.546266 168.959214 
L 203.564204 168.501932 
L 204.582143 168.404495 
L 205.600081 167.317496 
L 208.653897 166.872788 
L 209.671836 166.434483 
L 210.689774 167.432 
L 211.707713 167.910597 
L 214.761529 166.559529 
L 214.761529 166.559529 
" clip-path="url(#pff27edf1b3)" style="fill: none; stroke: #ca9161; stroke-width: 1.5; stroke-linecap: round"/>
   </g>
   <g id="line2d_39">
    <path d="M 219.851221 193.316765 
L 220.86916 193.359977 
L 221.887099 189.432377 
L 222.905037 186.134268 
L 223.922976 188.947121 
L 224.940914 186.270911 
L 225.958853 185.021857 
L 226.976792 185.574267 
L 227.99473 185.166091 
L 229.012669 184.418644 
L 230.030607 182.232946 
L 231.048546 179.564911 
L 233.084423 172.822706 
L 234.102362 171.090148 
L 235.1203 168.20255 
L 236.138239 166.799335 
L 238.174116 165.672326 
L 239.192055 164.204875 
L 240.209993 164.683705 
L 241.227932 165.312024 
L 242.24587 164.781796 
L 243.263809 164.555214 
L 244.281747 164.926007 
L 245.299686 163.834609 
L 247.335563 163.004114 
L 248.353502 162.025285 
L 249.37144 160.682023 
L 250.389379 160.433598 
L 251.407318 159.581938 
L 252.425256 159.699029 
L 253.443195 160.542538 
L 254.461133 161.207905 
L 255.479072 161.169577 
L 256.49701 160.906952 
L 257.514949 159.907334 
L 258.532888 159.091634 
L 260.568765 158.374599 
L 262.604642 158.260143 
L 263.622581 157.557009 
L 264.640519 156.513405 
L 265.658458 156.380232 
L 266.676396 155.282214 
L 267.694335 154.732608 
L 268.712273 153.240378 
L 269.730212 152.727392 
L 270.748151 152.018291 
L 271.766089 151.897168 
L 272.784028 150.838003 
L 273.801966 151.222687 
L 274.819905 151.055057 
L 275.837844 150.384853 
L 276.855782 150.580024 
L 277.873721 150.336246 
L 278.891659 149.941984 
L 279.909598 149.834014 
L 280.927536 149.606412 
L 281.945475 148.508813 
L 282.963414 148.568333 
L 283.981352 147.971216 
L 284.999291 147.034354 
L 286.017229 145.697606 
L 287.035168 145.397552 
L 288.053107 144.133689 
L 289.071045 144.405974 
L 290.088984 143.83927 
L 291.106922 143.689989 
L 292.124861 142.480469 
L 293.142799 142.497223 
L 294.160738 140.688181 
L 295.178677 139.941394 
L 296.196615 138.136383 
L 298.232492 136.311844 
L 299.250431 135.502069 
L 300.26837 134.491329 
L 301.286308 135.180687 
L 302.304247 134.280442 
L 303.322185 133.66812 
L 304.340124 133.736412 
L 305.358062 134.013824 
L 306.376001 132.730115 
L 307.39394 133.334997 
L 309.429817 129.911529 
L 310.447755 127.2078 
L 311.465694 126.321512 
L 312.483633 125.139131 
L 313.501571 125.98843 
L 314.51951 125.241338 
L 315.537448 125.919222 
L 316.555387 126.234051 
L 317.573325 125.938322 
L 318.591264 125.197689 
L 319.609203 124.946751 
L 320.627141 123.332063 
L 323.680957 117.397867 
L 324.698896 116.356987 
L 325.716834 115.888996 
L 326.734773 114.887173 
L 327.752711 113.522827 
L 328.77065 113.537721 
L 329.788588 112.788271 
L 330.806527 110.532791 
L 331.824466 109.639571 
L 332.842404 109.988609 
L 333.860343 110.128174 
L 334.878281 109.65903 
L 335.89622 109.465225 
L 336.914159 109.401181 
L 337.932097 107.455631 
L 339.967974 102.681381 
L 340.985913 101.129132 
L 342.003851 98.987983 
L 343.02179 97.772057 
L 344.039729 97.66263 
L 345.057667 97.709777 
L 347.093544 98.583154 
L 348.111483 97.863113 
L 349.129422 96.105716 
L 350.14736 95.34755 
L 351.165299 93.948607 
L 352.183237 91.675121 
L 355.237053 91.035437 
L 356.254992 91.548154 
L 357.27293 91.157878 
L 358.290869 90.161908 
L 359.308807 90.920379 
L 361.344685 88.712172 
L 362.362623 89.486165 
L 363.380562 93.202911 
L 364.3985 95.013658 
L 365.416439 96.548946 
L 366.434377 98.403981 
L 367.452316 97.900977 
L 367.452316 97.900977 
" clip-path="url(#pff27edf1b3)" style="fill: none; stroke: #ca9161; stroke-width: 1.5; stroke-linecap: round"/>
   </g>
   <g id="line2d_40"/>
   <g id="line2d_41"/>
   <g id="line2d_42"/>
   <g id="line2d_43"/>
   <g id="line2d_44"/>
   <g id="line2d_45"/>
   <g id="patch_3">
    <path d="M 49.906375 228.96 
L 49.906375 7.2 
" style="fill: none; stroke: #262626; stroke-width: 1.25; stroke-linejoin: miter; stroke-linecap: square"/>
   </g>
   <g id="patch_4">
    <path d="M 49.906375 228.96 
L 384.706375 228.96 
" style="fill: none; stroke: #262626; stroke-width: 1.25; stroke-linejoin: miter; stroke-linecap: square"/>
   </g>
   <g id="line2d_46">
    <path d="M 217.306375 228.96 
L 217.306375 7.2 
" clip-path="url(#pff27edf1b3)" style="fill: none; stroke-dasharray: 1.5,2.475; stroke-dashoffset: 0; stroke: #1a1a1a; stroke-width: 1.5"/>
   </g>
   <g id="legend_1">
    <g id="text_18">
     <text style="fill: #262626; font: 13.2px 'Arial', 'DejaVu Sans', 'Liberation Sans', 'Bitstream Vera Sans', sans-serif; text-anchor: start" x="500.683391" y="27.538313" transform="rotate(-0 500.683391 27.538313)">Dataset</text>
    </g>
    <g id="line2d_47">
     <path d="M 412.336375 40.785234 
L 424.436375 40.785234 
L 436.536375 40.785234 
" style="fill: none; stroke: #0173b2; stroke-width: 1.5; stroke-linecap: round"/>
    </g>
    <g id="text_19">
     <text style="fill: #262626; font: 12.1px 'Arial', 'DejaVu Sans', 'Liberation Sans', 'Bitstream Vera Sans', sans-serif; text-anchor: start" x="446.216375" y="45.020234" transform="rotate(-0 446.216375 45.020234)">GIAB - HG002 Long Insert (CB)</text>
    </g>
    <g id="line2d_48">
     <path d="M 412.336375 58.190328 
L 424.436375 58.190328 
L 436.536375 58.190328 
" style="fill: none; stroke: #de8f05; stroke-width: 1.5; stroke-linecap: round"/>
    </g>
    <g id="text_20">
     <text style="fill: #262626; font: 12.1px 'Arial', 'DejaVu Sans', 'Liberation Sans', 'Bitstream Vera Sans', sans-serif; text-anchor: start" x="446.216375" y="62.425328" transform="rotate(-0 446.216375 62.425328)">GIAB - HG002 Std Insert (CB)</text>
    </g>
    <g id="line2d_49">
     <path d="M 412.336375 75.595422 
L 424.436375 75.595422 
L 436.536375 75.595422 
" style="fill: none; stroke: #029e73; stroke-width: 1.5; stroke-linecap: round"/>
    </g>
    <g id="text_21">
     <text style="fill: #262626; font: 12.1px 'Arial', 'DejaVu Sans', 'Liberation Sans', 'Bitstream Vera Sans', sans-serif; text-anchor: start" x="446.216375" y="79.830422" transform="rotate(-0 446.216375 79.830422)">Arslan et al. 2024 - HG002 (CB)</text>
    </g>
    <g id="line2d_50">
     <path d="M 412.336375 93.000516 
L 424.436375 93.000516 
L 436.536375 93.000516 
" style="fill: none; stroke: #d55e00; stroke-width: 1.5; stroke-linecap: round"/>
    </g>
    <g id="text_22">
     <text style="fill: #262626; font: 12.1px 'Arial', 'DejaVu Sans', 'Liberation Sans', 'Bitstream Vera Sans', sans-serif; text-anchor: start" x="446.216375" y="97.235516" transform="rotate(-0 446.216375 97.235516)">Platinum Pedigree - NA12878 (CB)</text>
    </g>
    <g id="line2d_51">
     <path d="M 412.336375 110.405609 
L 424.436375 110.405609 
L 436.536375 110.405609 
" style="fill: none; stroke: #cc78bc; stroke-width: 1.5; stroke-linecap: round"/>
    </g>
    <g id="text_23">
     <text style="fill: #262626; font: 12.1px 'Arial', 'DejaVu Sans', 'Liberation Sans', 'Bitstream Vera Sans', sans-serif; text-anchor: start" x="446.216375" y="114.640609" transform="rotate(-0 446.216375 114.640609)">GIAB - HG008-N-D (CB)</text>
    </g>
    <g id="line2d_52">
     <path d="M 412.336375 127.810703 
L 424.436375 127.810703 
L 436.536375 127.810703 
" style="fill: none; stroke: #ca9161; stroke-width: 1.5; stroke-linecap: round"/>
    </g>
    <g id="text_24">
     <text style="fill: #262626; font: 12.1px 'Arial', 'DejaVu Sans', 'Liberation Sans', 'Bitstream Vera Sans', sans-serif; text-anchor: start" x="446.216375" y="132.045703" transform="rotate(-0 446.216375 132.045703)">Element Bio - HG002 (CB FS)</text>
    </g>
   </g>
  </g>
 </g>
 <defs>
  <clipPath id="pff27edf1b3">
   <rect x="49.906375" y="7.2" width="334.8" height="221.76"/>
  </clipPath>
 </defs>
</svg>
