<?xml version="1.0" encoding="utf-8" standalone="no"?>
<!DOCTYPE svg PUBLIC "-//W3C//DTD SVG 1.1//EN"
  "http://www.w3.org/Graphics/SVG/1.1/DTD/svg11.dtd">
<svg xmlns:xlink="http://www.w3.org/1999/xlink" width="405.372094pt" height="277.44368pt" viewBox="0 0 405.372094 277.44368" xmlns="http://www.w3.org/2000/svg" version="1.1">
 <metadata>
  <rdf:RDF xmlns:dc="http://purl.org/dc/elements/1.1/" xmlns:cc="http://creativecommons.org/ns#" xmlns:rdf="http://www.w3.org/1999/02/22-rdf-syntax-ns#">
   <cc:Work>
    <dc:type rdf:resource="http://purl.org/dc/dcmitype/StillImage"/>
    <dc:date>2026-01-15T10:59:37.311140</dc:date>
    <dc:format>image/svg+xml</dc:format>
    <dc:creator>
     <cc:Agent>
      <dc:title>Matplotlib v3.9.2, https://matplotlib.org/</dc:title>
     </cc:Agent>
    </dc:creator>
   </cc:Work>
  </rdf:RDF>
 </metadata>
 <defs>
  <style type="text/css">*{stroke-linejoin: round; stroke-linecap: butt}</style>
 </defs>
 <g id="figure_1">
  <g id="patch_1">
   <path d="M 0 277.44368 
L 405.372094 277.44368 
L 405.372094 0 
L 0 0 
L 0 277.44368 
z
" style="fill: none"/>
  </g>
  <g id="axes_1">
   <g id="patch_2">
    <path d="M 63.372094 233.290477 
L 398.172094 233.290477 
L 398.172094 11.530477 
L 63.372094 11.530477 
L 63.372094 233.290477 
z
" style="fill: none"/>
   </g>
   <g id="matplotlib.axis_1">
    <g id="xtick_1">
     <g id="line2d_1">
      <defs>
       <path id="m949c5fa403" d="M 0 0 
L 0 6 
" style="stroke: #262626; stroke-width: 1.25"/>
      </defs>
      <g>
       <use xlink:href="#m949c5fa403" x="78.590276" y="233.290477" style="fill: #262626; stroke: #262626; stroke-width: 1.25"/>
      </g>
     </g>
     <g id="text_1">
      <text style="fill: #262626; font: 12.1px 'Arial', 'DejaVu Sans', 'Liberation Sans', 'Bitstream Vera Sans', sans-serif; text-anchor: middle" x="78.590276" y="251.45143" transform="rotate(-0 78.590276 251.45143)">0</text>
     </g>
    </g>
    <g id="xtick_2">
     <g id="line2d_2">
      <g>
       <use xlink:href="#m949c5fa403" x="129.317548" y="233.290477" style="fill: #262626; stroke: #262626; stroke-width: 1.25"/>
      </g>
     </g>
     <g id="text_2">
      <text style="fill: #262626; font: 12.1px 'Arial', 'DejaVu Sans', 'Liberation Sans', 'Bitstream Vera Sans', sans-serif; text-anchor: middle" x="129.317548" y="251.45143" transform="rotate(-0 129.317548 251.45143)">50</text>
     </g>
    </g>
    <g id="xtick_3">
     <g id="line2d_3">
      <g>
       <use xlink:href="#m949c5fa403" x="180.044821" y="233.290477" style="fill: #262626; stroke: #262626; stroke-width: 1.25"/>
      </g>
     </g>
     <g id="text_3">
      <text style="fill: #262626; font: 12.1px 'Arial', 'DejaVu Sans', 'Liberation Sans', 'Bitstream Vera Sans', sans-serif; text-anchor: middle" x="180.044821" y="251.45143" transform="rotate(-0 180.044821 251.45143)">100</text>
     </g>
    </g>
    <g id="xtick_4">
     <g id="line2d_4">
      <g>
       <use xlink:href="#m949c5fa403" x="230.772094" y="233.290477" style="fill: #262626; stroke: #262626; stroke-width: 1.25"/>
      </g>
     </g>
     <g id="text_4">
      <text style="fill: #262626; font: 12.1px 'Arial', 'DejaVu Sans', 'Liberation Sans', 'Bitstream Vera Sans', sans-serif; text-anchor: middle" x="230.772094" y="251.45143" transform="rotate(-0 230.772094 251.45143)">150</text>
     </g>
    </g>
    <g id="xtick_5">
     <g id="line2d_5">
      <g>
       <use xlink:href="#m949c5fa403" x="281.499366" y="233.290477" style="fill: #262626; stroke: #262626; stroke-width: 1.25"/>
      </g>
     </g>
     <g id="text_5">
      <text style="fill: #262626; font: 12.1px 'Arial', 'DejaVu Sans', 'Liberation Sans', 'Bitstream Vera Sans', sans-serif; text-anchor: middle" x="281.499366" y="251.45143" transform="rotate(-0 281.499366 251.45143)">200</text>
     </g>
    </g>
    <g id="xtick_6">
     <g id="line2d_6">
      <g>
       <use xlink:href="#m949c5fa403" x="332.226639" y="233.290477" style="fill: #262626; stroke: #262626; stroke-width: 1.25"/>
      </g>
     </g>
     <g id="text_6">
      <text style="fill: #262626; font: 12.1px 'Arial', 'DejaVu Sans', 'Liberation Sans', 'Bitstream Vera Sans', sans-serif; text-anchor: middle" x="332.226639" y="251.45143" transform="rotate(-0 332.226639 251.45143)">250</text>
     </g>
    </g>
    <g id="xtick_7">
     <g id="line2d_7">
      <g>
       <use xlink:href="#m949c5fa403" x="382.953912" y="233.290477" style="fill: #262626; stroke: #262626; stroke-width: 1.25"/>
      </g>
     </g>
     <g id="text_7">
      <text style="fill: #262626; font: 12.1px 'Arial', 'DejaVu Sans', 'Liberation Sans', 'Bitstream Vera Sans', sans-serif; text-anchor: middle" x="382.953912" y="251.45143" transform="rotate(-0 382.953912 251.45143)">300</text>
     </g>
    </g>
    <g id="text_8">
     <text style="fill: #262626; font: 13.2px 'Arial', 'DejaVu Sans', 'Liberation Sans', 'Bitstream Vera Sans', sans-serif; text-anchor: middle" x="230.772094" y="267.465492" transform="rotate(-0 230.772094 267.465492)">Cycle</text>
    </g>
   </g>
   <g id="matplotlib.axis_2">
    <g id="ytick_1">
     <g id="line2d_8">
      <defs>
       <path id="m1b2f080586" d="M 0 0 
L -6 0 
" style="stroke: #262626; stroke-width: 1.25"/>
      </defs>
      <g>
       <use xlink:href="#m1b2f080586" x="63.372094" y="233.290477" style="fill: #262626; stroke: #262626; stroke-width: 1.25"/>
      </g>
     </g>
     <g id="text_9">
      <text style="fill: #262626; font: 12.1px 'Arial', 'DejaVu Sans', 'Liberation Sans', 'Bitstream Vera Sans', sans-serif; text-anchor: end" x="53.872094" y="237.620953" transform="rotate(-0 53.872094 237.620953)">0.000</text>
     </g>
    </g>
    <g id="ytick_2">
     <g id="line2d_9">
      <g>
       <use xlink:href="#m1b2f080586" x="63.372094" y="205.570477" style="fill: #262626; stroke: #262626; stroke-width: 1.25"/>
      </g>
     </g>
     <g id="text_10">
      <text style="fill: #262626; font: 12.1px 'Arial', 'DejaVu Sans', 'Liberation Sans', 'Bitstream Vera Sans', sans-serif; text-anchor: end" x="53.872094" y="209.900953" transform="rotate(-0 53.872094 209.900953)">0.025</text>
     </g>
    </g>
    <g id="ytick_3">
     <g id="line2d_10">
      <g>
       <use xlink:href="#m1b2f080586" x="63.372094" y="177.850477" style="fill: #262626; stroke: #262626; stroke-width: 1.25"/>
      </g>
     </g>
     <g id="text_11">
      <text style="fill: #262626; font: 12.1px 'Arial', 'DejaVu Sans', 'Liberation Sans', 'Bitstream Vera Sans', sans-serif; text-anchor: end" x="53.872094" y="182.180953" transform="rotate(-0 53.872094 182.180953)">0.050</text>
     </g>
    </g>
    <g id="ytick_4">
     <g id="line2d_11">
      <g>
       <use xlink:href="#m1b2f080586" x="63.372094" y="150.130477" style="fill: #262626; stroke: #262626; stroke-width: 1.25"/>
      </g>
     </g>
     <g id="text_12">
      <text style="fill: #262626; font: 12.1px 'Arial', 'DejaVu Sans', 'Liberation Sans', 'Bitstream Vera Sans', sans-serif; text-anchor: end" x="53.872094" y="154.460953" transform="rotate(-0 53.872094 154.460953)">0.075</text>
     </g>
    </g>
    <g id="ytick_5">
     <g id="line2d_12">
      <g>
       <use xlink:href="#m1b2f080586" x="63.372094" y="122.410477" style="fill: #262626; stroke: #262626; stroke-width: 1.25"/>
      </g>
     </g>
     <g id="text_13">
      <text style="fill: #262626; font: 12.1px 'Arial', 'DejaVu Sans', 'Liberation Sans', 'Bitstream Vera Sans', sans-serif; text-anchor: end" x="53.872094" y="126.740953" transform="rotate(-0 53.872094 126.740953)">0.100</text>
     </g>
    </g>
    <g id="ytick_6">
     <g id="line2d_13">
      <g>
       <use xlink:href="#m1b2f080586" x="63.372094" y="94.690477" style="fill: #262626; stroke: #262626; stroke-width: 1.25"/>
      </g>
     </g>
     <g id="text_14">
      <text style="fill: #262626; font: 12.1px 'Arial', 'DejaVu Sans', 'Liberation Sans', 'Bitstream Vera Sans', sans-serif; text-anchor: end" x="53.872094" y="99.020953" transform="rotate(-0 53.872094 99.020953)">0.125</text>
     </g>
    </g>
    <g id="ytick_7">
     <g id="line2d_14">
      <g>
       <use xlink:href="#m1b2f080586" x="63.372094" y="66.970477" style="fill: #262626; stroke: #262626; stroke-width: 1.25"/>
      </g>
     </g>
     <g id="text_15">
      <text style="fill: #262626; font: 12.1px 'Arial', 'DejaVu Sans', 'Liberation Sans', 'Bitstream Vera Sans', sans-serif; text-anchor: end" x="53.872094" y="71.300953" transform="rotate(-0 53.872094 71.300953)">0.150</text>
     </g>
    </g>
    <g id="ytick_8">
     <g id="line2d_15">
      <g>
       <use xlink:href="#m1b2f080586" x="63.372094" y="39.250477" style="fill: #262626; stroke: #262626; stroke-width: 1.25"/>
      </g>
     </g>
     <g id="text_16">
      <text style="fill: #262626; font: 12.1px 'Arial', 'DejaVu Sans', 'Liberation Sans', 'Bitstream Vera Sans', sans-serif; text-anchor: end" x="53.872094" y="43.580953" transform="rotate(-0 53.872094 43.580953)">0.175</text>
     </g>
    </g>
    <g id="ytick_9">
     <g id="line2d_16">
      <g>
       <use xlink:href="#m1b2f080586" x="63.372094" y="11.530477" style="fill: #262626; stroke: #262626; stroke-width: 1.25"/>
      </g>
     </g>
     <g id="text_17">
      <text style="fill: #262626; font: 12.1px 'Arial', 'DejaVu Sans', 'Liberation Sans', 'Bitstream Vera Sans', sans-serif; text-anchor: end" x="53.872094" y="15.860953" transform="rotate(-0 53.872094 15.860953)">0.200</text>
     </g>
    </g>
    <g id="text_18">
     <text style="fill: #262626; font: 13.2px 'Arial', 'DejaVu Sans', 'Liberation Sans', 'Bitstream Vera Sans', sans-serif; text-anchor: middle" x="16.817438" y="122.410477" transform="rotate(-90 16.817438 122.410477)">Overlap-based error rate (%)</text>
    </g>
   </g>
   <g id="PolyCollection_1">
    <defs>
     <path id="me54f37ec56" d="M 230.772094 -324.437583 
L 230.772094 -85.085496 
L 230.772094 -324.437583 
L 230.772094 -324.437583 
z
" style="stroke: #0173b2; stroke-opacity: 0.2"/>
    </defs>
    <g clip-path="url(#pa9682ac74e)">
     <use xlink:href="#me54f37ec56" x="0" y="277.44368" style="fill: #0173b2; fill-opacity: 0.2; stroke: #0173b2; stroke-opacity: 0.2"/>
    </g>
   </g>
   <g id="PolyCollection_2">
    <defs>
     <path id="m73d059029c" d="M 230.772094 -66.337514 
L 230.772094 -65.455894 
L 230.772094 -66.337514 
L 230.772094 -66.337514 
z
" style="stroke: #de8f05; stroke-opacity: 0.2"/>
    </defs>
    <g clip-path="url(#pa9682ac74e)">
     <use xlink:href="#m73d059029c" x="0" y="277.44368" style="fill: #de8f05; fill-opacity: 0.2; stroke: #de8f05; stroke-opacity: 0.2"/>
    </g>
   </g>
   <g id="PolyCollection_3">
    <defs>
     <path id="m69de72868f" d="M 230.772094 -87.904298 
L 230.772094 -56.193131 
L 230.772094 -87.904298 
L 230.772094 -87.904298 
z
" style="stroke: #029e73; stroke-opacity: 0.2"/>
    </defs>
    <g clip-path="url(#pa9682ac74e)">
     <use xlink:href="#m69de72868f" x="0" y="277.44368" style="fill: #029e73; fill-opacity: 0.2; stroke: #029e73; stroke-opacity: 0.2"/>
    </g>
   </g>
   <g id="PolyCollection_4">
    <defs>
     <path id="m565029c27b" d="M 230.772094 -106.556706 
L 230.772094 -69.430894 
L 230.772094 -106.556706 
L 230.772094 -106.556706 
z
" style="stroke: #d55e00; stroke-opacity: 0.2"/>
    </defs>
    <g clip-path="url(#pa9682ac74e)">
     <use xlink:href="#m565029c27b" x="0" y="277.44368" style="fill: #d55e00; fill-opacity: 0.2; stroke: #d55e00; stroke-opacity: 0.2"/>
    </g>
   </g>
   <g id="PolyCollection_5">
    <defs>
     <path id="mf8b221751a" d="M 230.772094 -71.556354 
L 230.772094 -54.367965 
L 230.772094 -71.556354 
L 230.772094 -71.556354 
z
" style="stroke: #cc78bc; stroke-opacity: 0.2"/>
    </defs>
    <g clip-path="url(#pa9682ac74e)">
     <use xlink:href="#mf8b221751a" x="0" y="277.44368" style="fill: #cc78bc; fill-opacity: 0.2; stroke: #cc78bc; stroke-opacity: 0.2"/>
    </g>
   </g>
   <g id="PolyCollection_6">
    <defs>
     <path id="m9022bd768b" d="M 230.772094 -76.442008 
L 230.772094 -71.098751 
L 230.772094 -76.442008 
L 230.772094 -76.442008 
z
" style="stroke: #ca9161; stroke-opacity: 0.2"/>
    </defs>
    <g clip-path="url(#pa9682ac74e)">
     <use xlink:href="#m9022bd768b" x="0" y="277.44368" style="fill: #ca9161; fill-opacity: 0.2; stroke: #ca9161; stroke-opacity: 0.2"/>
    </g>
   </g>
   <g id="PolyCollection_7"/>
   <g id="PolyCollection_8"/>
   <g id="PolyCollection_9"/>
   <g id="PolyCollection_10"/>
   <g id="PolyCollection_11"/>
   <g id="PolyCollection_12"/>
   <g id="line2d_17">
    <path d="M 78.590276 225.588872 
L 79.604821 214.129462 
L 80.619366 208.290054 
L 81.633912 222.554761 
L 82.648457 206.126212 
L 83.663003 212.520597 
L 84.677548 212.857686 
L 85.692094 191.638124 
L 86.706639 195.188839 
L 87.721185 211.055554 
L 88.73573 207.298915 
L 89.750276 202.299591 
L 90.764821 202.735141 
L 91.779366 194.028411 
L 92.793912 206.186132 
L 93.808457 185.920633 
L 94.823003 191.405861 
L 95.837548 165.506208 
L 96.852094 167.714687 
L 97.866639 172.193508 
L 98.881185 166.991269 
L 99.89573 165.274721 
L 100.910276 161.317292 
L 101.924821 149.380531 
L 102.939366 154.15192 
L 103.953912 155.016636 
L 105.983003 154.607379 
L 106.997548 142.336966 
L 108.012094 148.706373 
L 109.026639 151.767375 
L 110.041185 156.981584 
L 111.05573 172.431971 
L 112.070276 165.778885 
L 113.084821 146.882461 
L 114.099366 150.75636 
L 115.113912 149.526722 
L 116.128457 154.390809 
L 117.143003 150.05616 
L 118.157548 140.051324 
L 119.172094 142.871431 
L 120.186639 168.799618 
L 121.201185 151.12742 
L 122.21573 141.378463 
L 123.230276 136.617631 
L 124.244821 147.48015 
L 125.259366 148.214416 
L 126.273912 133.274588 
L 127.288457 133.100723 
L 128.303003 144.713738 
L 129.317548 146.300449 
L 130.332094 149.849306 
L 131.346639 122.336507 
L 132.361185 157.228501 
L 133.37573 149.260944 
L 134.390276 155.141864 
L 135.404821 154.793778 
L 136.419366 141.03225 
L 137.433912 132.453809 
L 138.448457 158.342861 
L 139.463003 159.712737 
L 140.477548 144.759604 
L 141.492094 150.232467 
L 142.506639 163.845632 
L 143.521185 163.475895 
L 144.53573 160.032979 
L 145.550276 166.946345 
L 146.564821 154.759115 
L 147.579366 147.512896 
L 148.593912 162.756125 
L 149.608457 153.897776 
L 150.623003 167.453156 
L 151.637548 159.527129 
L 152.652094 173.556838 
L 153.666639 159.745705 
L 154.681185 150.567567 
L 155.69573 167.384364 
L 156.710276 167.813348 
L 157.724821 152.064532 
L 158.739366 167.167209 
L 159.753912 158.777265 
L 160.768457 166.290886 
L 161.783003 167.469338 
L 162.797548 154.513258 
L 163.812094 164.881295 
L 164.826639 173.048261 
L 165.841185 171.300427 
L 166.85573 175.721463 
L 167.870276 176.109914 
L 168.884821 157.860506 
L 170.913912 175.609397 
L 171.928457 180.025249 
L 172.943003 172.277143 
L 173.957548 177.978095 
L 174.972094 174.924902 
L 175.986639 180.447069 
L 177.001185 182.804943 
L 178.01573 177.813601 
L 179.030276 185.856711 
L 180.044821 177.186907 
L 181.059366 187.785864 
L 182.073912 184.155966 
L 183.088457 178.738844 
L 184.103003 184.136512 
L 185.117548 188.720271 
L 187.146639 190.510546 
L 188.161185 187.070448 
L 189.17573 183.013104 
L 190.190276 185.094778 
L 191.204821 190.795158 
L 192.219366 179.581826 
L 193.233912 191.274107 
L 194.248457 201.680853 
L 195.263003 188.777518 
L 196.277548 196.661906 
L 197.292094 189.141913 
L 198.306639 183.037358 
L 199.321185 186.842999 
L 200.33573 199.746733 
L 201.350276 190.098778 
L 202.364821 184.570659 
L 203.379366 196.785646 
L 204.393912 195.279793 
L 205.408457 198.303302 
L 206.423003 194.567751 
L 207.437548 191.406609 
L 208.452094 195.552973 
L 209.466639 189.138705 
L 210.481185 194.883066 
L 211.49573 202.687664 
L 212.510276 200.134207 
L 213.524821 194.918832 
L 214.539366 195.121432 
L 215.553912 196.941461 
L 216.568457 203.541432 
L 217.583003 196.262239 
L 218.597548 202.765899 
L 219.612094 200.314778 
L 220.626639 199.430966 
L 221.641185 193.867583 
L 222.65573 202.806511 
L 223.670276 198.303632 
L 224.684821 195.874826 
L 225.699366 199.581829 
L 226.713912 205.809409 
L 227.728457 201.356307 
L 228.743003 195.44334 
L 229.757548 193.625205 
L 230.772094 72.68214 
L 231.133311 -1 
M 233.070476 -1 
L 233.81573 27.940366 
L 233.984835 -1 
L 233.984835 -1 
" clip-path="url(#pa9682ac74e)" style="fill: none; stroke: #0173b2; stroke-opacity: 0.2; stroke-width: 1.5; stroke-linecap: round"/>
   </g>
   <g id="line2d_18">
    <path d="M 78.590276 229.826854 
L 79.604821 228.290357 
L 80.619366 227.534236 
L 81.633912 225.84078 
L 82.648457 220.48106 
L 83.663003 217.062808 
L 84.677548 219.435618 
L 85.692094 220.95492 
L 86.706639 219.981361 
L 87.721185 220.042095 
L 88.73573 215.479973 
L 89.750276 218.983314 
L 90.764821 220.885437 
L 91.779366 218.097616 
L 92.793912 221.684472 
L 93.808457 217.176666 
L 94.823003 214.522301 
L 95.837548 214.764093 
L 96.852094 213.179815 
L 97.866639 211.088111 
L 98.881185 216.222825 
L 99.89573 211.819594 
L 100.910276 210.555142 
L 101.924821 211.91556 
L 102.939366 212.218579 
L 103.953912 210.319752 
L 104.968457 211.972261 
L 105.983003 214.734327 
L 106.997548 210.913002 
L 108.012094 211.905425 
L 109.026639 214.030067 
L 110.041185 213.301198 
L 112.070276 207.830086 
L 113.084821 214.193175 
L 114.099366 212.736972 
L 115.113912 212.906832 
L 116.128457 210.70723 
L 117.143003 214.127507 
L 118.157548 214.35146 
L 119.172094 212.291407 
L 120.186639 212.900499 
L 121.201185 213.695466 
L 122.21573 211.656355 
L 123.230276 214.983965 
L 124.244821 213.077588 
L 125.259366 211.803303 
L 126.273912 211.567729 
L 127.288457 214.460961 
L 128.303003 212.546735 
L 129.317548 214.583664 
L 130.332094 215.746914 
L 131.346639 211.902771 
L 132.361185 215.305866 
L 133.37573 213.27571 
L 134.390276 215.064495 
L 135.404821 213.216983 
L 136.419366 212.937502 
L 137.433912 213.557586 
L 138.448457 212.328293 
L 139.463003 216.455924 
L 140.477548 216.39536 
L 141.492094 215.064678 
L 142.506639 215.401182 
L 144.53573 215.042981 
L 145.550276 213.869561 
L 146.564821 214.325877 
L 147.579366 215.631653 
L 148.593912 214.439121 
L 149.608457 213.759936 
L 150.623003 214.48076 
L 151.637548 213.726376 
L 152.652094 214.92658 
L 153.666639 214.340149 
L 154.681185 216.440809 
L 155.69573 216.006663 
L 156.710276 216.32112 
L 157.724821 215.547888 
L 158.739366 215.965172 
L 159.753912 215.697381 
L 160.768457 215.280785 
L 161.783003 215.282882 
L 162.797548 214.188956 
L 163.812094 215.973963 
L 164.826639 215.875769 
L 165.841185 215.932094 
L 166.85573 215.599039 
L 167.870276 215.626148 
L 168.884821 215.482044 
L 169.899366 216.75247 
L 170.913912 216.434914 
L 171.928457 215.379783 
L 172.943003 215.432829 
L 173.957548 214.379017 
L 174.972094 214.016262 
L 175.986639 216.016382 
L 177.001185 214.953718 
L 178.01573 215.369519 
L 179.030276 215.077491 
L 180.044821 214.419903 
L 181.059366 215.989608 
L 182.073912 217.349109 
L 183.088457 216.943989 
L 184.103003 215.57381 
L 185.117548 215.835589 
L 187.146639 215.685902 
L 188.161185 216.467175 
L 189.17573 215.249347 
L 190.190276 214.922908 
L 191.204821 215.728562 
L 192.219366 215.749669 
L 193.233912 214.05165 
L 194.248457 214.48823 
L 195.263003 215.852444 
L 196.277548 215.413377 
L 197.292094 215.936154 
L 198.306639 215.604548 
L 199.321185 215.883182 
L 200.33573 215.917332 
L 201.350276 215.531493 
L 202.364821 215.935546 
L 203.379366 216.533471 
L 204.393912 214.181279 
L 205.408457 214.305271 
L 207.437548 216.205928 
L 208.452094 215.671343 
L 210.481185 214.096459 
L 212.510276 215.940215 
L 213.524821 215.561469 
L 214.539366 215.552684 
L 216.568457 214.534024 
L 217.583003 214.755114 
L 218.597548 214.576162 
L 220.626639 215.554835 
L 221.641185 216.15839 
L 222.65573 215.439549 
L 223.670276 215.435365 
L 224.684821 215.112964 
L 225.699366 216.369944 
L 226.713912 217.004827 
L 227.728457 216.606802 
L 228.743003 215.564582 
L 229.757548 212.101219 
L 230.772094 211.546975 
L 231.786639 202.600328 
L 232.801185 211.468591 
L 233.81573 201.570864 
L 234.830276 204.599691 
L 235.844821 197.766466 
L 236.859366 181.890253 
L 237.873912 179.996778 
L 238.888457 200.928081 
L 239.903003 197.778831 
L 241.932094 202.54342 
L 242.946639 199.430161 
L 243.961185 199.828787 
L 244.97573 196.16967 
L 245.990276 189.380704 
L 247.004821 191.623665 
L 248.019366 189.83924 
L 249.033912 194.999136 
L 250.048457 194.026352 
L 251.063003 194.107642 
L 252.077548 189.980091 
L 253.092094 193.265918 
L 254.106639 190.155287 
L 255.121185 194.770917 
L 256.13573 195.240904 
L 257.150276 199.556757 
L 259.179366 193.602246 
L 260.193912 197.468116 
L 261.208457 196.889562 
L 262.223003 199.697067 
L 265.266639 197.002742 
L 266.281185 199.317464 
L 267.29573 200.041064 
L 268.310276 200.348892 
L 269.324821 202.517301 
L 270.339366 199.080251 
L 271.353912 201.3453 
L 272.368457 201.587534 
L 273.383003 200.729594 
L 275.412094 199.977294 
L 276.426639 200.021658 
L 277.441185 201.028005 
L 278.45573 201.620626 
L 279.470276 204.414868 
L 280.484821 205.348023 
L 281.499366 202.112787 
L 282.513912 204.660197 
L 283.528457 205.174603 
L 284.543003 205.906445 
L 285.557548 204.423478 
L 286.572094 203.654475 
L 287.586639 205.85855 
L 288.601185 206.092645 
L 289.61573 206.052983 
L 290.630276 204.709262 
L 291.644821 205.29062 
L 292.659366 207.158177 
L 293.673912 204.986898 
L 294.688457 205.242515 
L 295.703003 209.929035 
L 296.717548 208.178933 
L 297.732094 206.95961 
L 298.746639 207.619288 
L 299.761185 206.864743 
L 300.77573 206.404546 
L 301.790276 208.136284 
L 302.804821 206.139449 
L 303.819366 208.132305 
L 304.833912 207.846783 
L 305.848457 208.461405 
L 306.863003 208.402275 
L 307.877548 209.156513 
L 308.892094 208.60237 
L 309.906639 209.622484 
L 310.921185 208.182199 
L 311.93573 207.467413 
L 312.950276 208.637085 
L 313.964821 206.917756 
L 314.979366 207.396678 
L 315.993912 208.312965 
L 317.008457 208.805681 
L 318.023003 208.732033 
L 319.037548 207.811568 
L 320.052094 207.128415 
L 321.066639 208.184498 
L 322.081185 209.910139 
L 323.09573 208.447921 
L 324.110276 208.212879 
L 326.139366 208.240956 
L 327.153912 208.251559 
L 328.168457 209.515693 
L 329.183003 209.577697 
L 330.197548 208.979465 
L 331.212094 209.326215 
L 332.226639 210.812489 
L 333.241185 207.865087 
L 334.25573 210.811065 
L 335.270276 208.983945 
L 336.284821 210.883347 
L 337.299366 209.85077 
L 338.313912 208.171293 
L 339.328457 209.947046 
L 341.357548 210.148755 
L 342.372094 211.455576 
L 343.386639 211.066305 
L 344.401185 210.48473 
L 345.41573 211.197078 
L 346.430276 210.361785 
L 347.444821 210.11119 
L 348.459366 210.442045 
L 349.473912 211.037538 
L 350.488457 210.695894 
L 351.503003 209.817758 
L 352.517548 210.882695 
L 353.532094 211.004097 
L 354.546639 210.63369 
L 355.561185 210.96245 
L 356.57573 210.813774 
L 357.590276 210.156248 
L 358.604821 210.987872 
L 359.619366 210.176674 
L 360.633912 211.254703 
L 361.648457 211.206857 
L 362.663003 210.946265 
L 363.677548 210.997314 
L 364.692094 211.587571 
L 365.706639 211.20794 
L 366.721185 210.563629 
L 367.73573 210.459219 
L 368.750276 211.952262 
L 369.764821 211.882343 
L 370.779366 210.327913 
L 371.793912 211.398455 
L 372.808457 212.179289 
L 373.823003 212.56268 
L 375.852094 212.89748 
L 376.866639 211.367138 
L 377.881185 212.391413 
L 378.89573 213.989069 
L 379.910276 213.521105 
L 380.924821 212.452113 
L 381.939366 209.224199 
L 382.953912 209.548513 
L 382.953912 209.548513 
" clip-path="url(#pa9682ac74e)" style="fill: none; stroke: #de8f05; stroke-opacity: 0.2; stroke-width: 1.5; stroke-linecap: round"/>
   </g>
   <g id="line2d_19">
    <path d="M 78.590276 228.669846 
L 79.604821 230.350055 
L 80.619366 230.829313 
L 81.633912 230.594585 
L 82.648457 229.807597 
L 83.663003 226.709972 
L 84.677548 224.77729 
L 85.692094 223.850208 
L 86.706639 224.555378 
L 87.721185 227.169082 
L 88.73573 226.51654 
L 89.750276 225.689862 
L 90.764821 225.784819 
L 91.779366 225.261557 
L 92.793912 227.150415 
L 93.808457 221.080115 
L 94.823003 217.451134 
L 95.837548 219.247923 
L 96.852094 221.788758 
L 97.866639 218.858355 
L 98.881185 217.745039 
L 99.89573 219.497466 
L 100.910276 217.99147 
L 101.924821 218.036539 
L 102.939366 220.179094 
L 103.953912 218.923475 
L 104.968457 218.403972 
L 105.983003 217.391089 
L 106.997548 214.197751 
L 108.012094 213.742743 
L 109.026639 214.630773 
L 110.041185 213.860367 
L 111.05573 217.523664 
L 112.070276 214.083977 
L 113.084821 213.18079 
L 114.099366 214.404373 
L 115.113912 214.146338 
L 116.128457 212.795833 
L 117.143003 212.696646 
L 118.157548 213.271481 
L 119.172094 215.22048 
L 120.186639 214.013514 
L 121.201185 215.958167 
L 122.21573 214.018151 
L 123.230276 217.396866 
L 124.244821 215.820232 
L 125.259366 213.352797 
L 126.273912 215.523458 
L 127.288457 216.122939 
L 128.303003 214.196778 
L 129.317548 216.23347 
L 130.332094 215.78502 
L 131.346639 215.208879 
L 132.361185 216.490254 
L 133.37573 217.035912 
L 134.390276 216.277989 
L 135.404821 214.818162 
L 136.419366 216.399787 
L 137.433912 216.081378 
L 138.448457 217.526599 
L 139.463003 217.958078 
L 140.477548 218.248181 
L 141.492094 217.713125 
L 142.506639 215.985269 
L 143.521185 218.060866 
L 144.53573 218.450518 
L 145.550276 217.451023 
L 146.564821 217.354955 
L 147.579366 217.944311 
L 148.593912 217.487922 
L 149.608457 216.544961 
L 150.623003 218.130653 
L 151.637548 216.523309 
L 152.652094 218.607806 
L 153.666639 217.486052 
L 154.681185 214.510345 
L 155.69573 214.034493 
L 156.710276 217.205294 
L 157.724821 215.827884 
L 158.739366 217.1665 
L 159.753912 216.655536 
L 160.768457 215.010143 
L 161.783003 216.39265 
L 162.797548 216.826331 
L 163.812094 214.149717 
L 164.826639 215.166453 
L 165.841185 215.760159 
L 166.85573 214.337064 
L 167.870276 216.403892 
L 168.884821 217.109075 
L 170.913912 215.137217 
L 171.928457 214.629709 
L 172.943003 208.953069 
L 173.957548 207.252288 
L 174.972094 214.173335 
L 175.986639 214.203397 
L 177.001185 211.050261 
L 178.01573 213.315105 
L 179.030276 212.436943 
L 180.044821 214.65698 
L 181.059366 212.617592 
L 182.073912 211.963919 
L 183.088457 212.486077 
L 184.103003 211.379852 
L 185.117548 213.436777 
L 186.132094 211.618043 
L 187.146639 211.090406 
L 188.161185 212.253545 
L 189.17573 208.982775 
L 190.190276 208.380689 
L 191.204821 208.318327 
L 192.219366 210.596138 
L 193.233912 210.491639 
L 194.248457 211.853501 
L 195.263003 209.556815 
L 196.277548 208.178571 
L 197.292094 206.112246 
L 198.306639 205.853514 
L 199.321185 204.799096 
L 200.33573 207.654669 
L 201.350276 207.325913 
L 202.364821 206.743571 
L 204.393912 202.511478 
L 205.408457 202.857737 
L 206.423003 201.068775 
L 207.437548 202.816793 
L 208.452094 201.365664 
L 209.466639 192.086106 
L 210.481185 191.049294 
L 211.49573 202.42628 
L 212.510276 200.489595 
L 214.539366 200.805149 
L 215.553912 200.401023 
L 216.568457 198.944117 
L 217.583003 197.172057 
L 218.597548 198.05882 
L 219.612094 198.736352 
L 220.626639 198.891523 
L 221.641185 197.603432 
L 222.65573 196.826399 
L 223.670276 196.580251 
L 224.684821 195.551291 
L 225.699366 195.679041 
L 226.713912 197.45348 
L 227.728457 196.802748 
L 228.743003 195.180216 
L 229.757548 191.188018 
L 230.772094 205.394965 
L 231.786639 212.288133 
L 232.801185 221.826346 
L 233.81573 220.940287 
L 234.830276 222.964561 
L 236.859366 211.331237 
L 237.873912 207.19848 
L 238.888457 206.903912 
L 239.903003 207.652849 
L 240.917548 207.429224 
L 241.932094 204.727179 
L 242.946639 211.575869 
L 243.961185 208.495595 
L 244.97573 209.419043 
L 245.990276 201.427076 
L 247.004821 198.120604 
L 248.019366 195.75177 
L 249.033912 196.047429 
L 250.048457 196.822955 
L 251.063003 197.747355 
L 252.077548 192.376673 
L 253.092094 197.18271 
L 254.106639 198.003602 
L 255.121185 188.164351 
L 256.13573 195.981062 
L 257.150276 188.097786 
L 258.164821 191.062505 
L 259.179366 192.736455 
L 260.193912 197.426776 
L 261.208457 190.779168 
L 262.223003 190.437158 
L 263.237548 189.308648 
L 264.252094 186.599478 
L 265.266639 187.984255 
L 266.281185 187.549586 
L 267.29573 191.413276 
L 268.310276 188.495314 
L 269.324821 190.328798 
L 270.339366 189.743469 
L 271.353912 195.108466 
L 272.368457 192.735112 
L 273.383003 193.228991 
L 274.397548 192.052273 
L 275.412094 189.392675 
L 276.426639 194.07681 
L 277.441185 191.833034 
L 278.45573 192.55756 
L 279.470276 192.703032 
L 280.484821 190.271058 
L 281.499366 190.873439 
L 282.513912 195.09938 
L 283.528457 195.342104 
L 284.543003 193.451045 
L 285.557548 195.62156 
L 286.572094 191.861154 
L 287.586639 189.68908 
L 288.601185 194.41735 
L 289.61573 195.582604 
L 290.630276 195.380741 
L 291.644821 194.078927 
L 292.659366 193.40106 
L 293.673912 191.021721 
L 294.688457 196.245654 
L 295.703003 193.551463 
L 296.717548 198.34267 
L 297.732094 193.513397 
L 298.746639 190.832058 
L 299.761185 192.625427 
L 300.77573 193.393467 
L 301.790276 193.781567 
L 302.804821 194.011731 
L 303.819366 191.999928 
L 304.833912 192.010571 
L 305.848457 191.211844 
L 306.863003 190.069667 
L 307.877548 193.571227 
L 308.892094 194.449414 
L 309.906639 195.126354 
L 310.921185 193.303752 
L 311.93573 191.153368 
L 312.950276 193.407119 
L 313.964821 191.954388 
L 314.979366 190.923135 
L 315.993912 189.119589 
L 318.023003 189.70387 
L 320.052094 187.810994 
L 321.066639 184.948125 
L 323.09573 187.592879 
L 324.110276 185.773398 
L 325.124821 188.330338 
L 326.139366 185.001369 
L 327.153912 185.727719 
L 328.168457 182.360921 
L 329.183003 183.990691 
L 330.197548 181.418754 
L 331.212094 184.297008 
L 332.226639 182.802256 
L 333.241185 179.555918 
L 334.25573 178.362078 
L 335.270276 179.05719 
L 336.284821 184.108523 
L 337.299366 181.746581 
L 338.313912 175.473401 
L 339.328457 174.277689 
L 340.343003 172.525884 
L 341.357548 174.207676 
L 342.372094 172.708042 
L 343.386639 175.709893 
L 344.401185 175.349328 
L 345.41573 169.892942 
L 346.430276 171.472489 
L 347.444821 171.183792 
L 348.459366 168.18223 
L 349.473912 169.14565 
L 350.488457 172.471082 
L 351.503003 168.222318 
L 352.517548 169.329096 
L 353.532094 175.253128 
L 354.546639 172.065343 
L 355.561185 164.991379 
L 356.57573 165.110515 
L 357.590276 164.303421 
L 358.604821 162.810519 
L 359.619366 156.505107 
L 360.633912 157.601061 
L 361.648457 162.45361 
L 362.663003 163.411195 
L 363.677548 156.584623 
L 364.692094 156.706602 
L 365.706639 157.984538 
L 366.721185 160.840531 
L 367.73573 156.714849 
L 368.750276 149.374977 
L 369.764821 151.531886 
L 370.779366 145.891185 
L 371.793912 143.88294 
L 372.808457 151.807336 
L 373.823003 152.290749 
L 374.837548 150.212452 
L 376.866639 144.549002 
L 377.881185 142.332899 
L 378.89573 142.904353 
L 379.910276 142.630138 
L 380.924821 143.411357 
L 381.939366 141.352789 
L 382.953912 140.654148 
L 382.953912 140.654148 
" clip-path="url(#pa9682ac74e)" style="fill: none; stroke: #029e73; stroke-opacity: 0.2; stroke-width: 1.5; stroke-linecap: round"/>
   </g>
   <g id="line2d_20">
    <path d="M 78.590276 213.087003 
L 79.604821 225.095891 
L 80.619366 226.848753 
L 81.633912 225.448927 
L 82.648457 225.299026 
L 83.663003 223.861128 
L 84.677548 195.300355 
L 85.692094 213.118788 
L 86.706639 215.353113 
L 87.721185 215.732898 
L 88.73573 215.411394 
L 89.750276 218.117886 
L 90.764821 217.716038 
L 91.779366 216.156531 
L 92.793912 215.393693 
L 93.808457 208.331279 
L 94.823003 209.559011 
L 95.837548 210.160452 
L 96.852094 209.493537 
L 98.881185 207.69639 
L 99.89573 207.485997 
L 100.910276 207.101526 
L 101.924821 209.791136 
L 102.939366 206.727848 
L 103.953912 210.157029 
L 104.968457 210.113808 
L 105.983003 208.382131 
L 106.997548 208.703607 
L 109.026639 208.780165 
L 110.041185 210.071444 
L 111.05573 208.464931 
L 112.070276 207.78448 
L 113.084821 210.251811 
L 114.099366 207.576167 
L 115.113912 211.3007 
L 116.128457 211.601788 
L 117.143003 210.145123 
L 118.157548 208.98857 
L 119.172094 208.666107 
L 120.186639 206.893012 
L 121.201185 209.481754 
L 122.21573 209.676038 
L 123.230276 209.503094 
L 124.244821 208.388839 
L 125.259366 211.348855 
L 126.273912 212.024382 
L 127.288457 210.543228 
L 128.303003 210.186837 
L 129.317548 210.11518 
L 130.332094 212.485953 
L 132.361185 211.800657 
L 133.37573 213.445941 
L 134.390276 211.656108 
L 135.404821 210.46983 
L 136.419366 210.212419 
L 137.433912 211.839798 
L 138.448457 211.425209 
L 139.463003 209.755336 
L 140.477548 209.980938 
L 141.492094 212.171675 
L 142.506639 211.35027 
L 143.521185 211.730467 
L 144.53573 213.384013 
L 145.550276 211.024317 
L 146.564821 212.55256 
L 147.579366 210.020682 
L 148.593912 211.059542 
L 149.608457 211.611851 
L 150.623003 206.556731 
L 151.637548 208.052287 
L 152.652094 212.400945 
L 153.666639 211.394654 
L 154.681185 212.291657 
L 155.69573 212.948432 
L 156.710276 211.619942 
L 157.724821 211.970504 
L 158.739366 211.948211 
L 159.753912 212.182564 
L 160.768457 211.064596 
L 161.783003 193.876833 
L 162.797548 197.165119 
L 163.812094 212.784499 
L 164.826639 213.330792 
L 165.841185 211.236894 
L 166.85573 212.574567 
L 167.870276 211.716801 
L 168.884821 211.174593 
L 169.899366 211.687387 
L 170.913912 210.823454 
L 171.928457 212.542941 
L 172.943003 211.638579 
L 173.957548 212.019782 
L 174.972094 210.709827 
L 175.986639 213.808012 
L 178.01573 213.541756 
L 179.030276 212.819227 
L 180.044821 211.670283 
L 181.059366 212.076413 
L 182.073912 211.131163 
L 183.088457 211.086855 
L 184.103003 210.567285 
L 187.146639 211.826163 
L 188.161185 212.793031 
L 189.17573 211.261954 
L 190.190276 210.664722 
L 191.204821 211.609498 
L 192.219366 213.167723 
L 193.233912 212.816473 
L 194.248457 211.997647 
L 195.263003 210.685713 
L 196.277548 211.560942 
L 197.292094 212.190039 
L 198.306639 211.897804 
L 199.321185 212.605038 
L 200.33573 210.620263 
L 201.350276 211.004389 
L 202.364821 211.083645 
L 203.379366 210.833566 
L 204.393912 211.057335 
L 205.408457 211.545229 
L 206.423003 211.496268 
L 207.437548 212.357678 
L 209.466639 209.455331 
L 210.481185 209.786897 
L 211.49573 211.732032 
L 212.510276 211.643903 
L 213.524821 210.9625 
L 214.539366 211.625326 
L 215.553912 211.757806 
L 216.568457 210.543422 
L 217.583003 210.984107 
L 218.597548 210.792335 
L 219.612094 211.491767 
L 220.626639 210.783998 
L 221.641185 211.383249 
L 222.65573 211.374395 
L 223.670276 212.493949 
L 224.684821 211.341416 
L 226.713912 211.870432 
L 227.728457 212.614268 
L 228.743003 210.786493 
L 229.757548 208.627329 
L 230.772094 189.44988 
L 231.786639 195.325713 
L 232.801185 199.198868 
L 233.81573 202.610829 
L 234.830276 195.806313 
L 235.844821 197.203803 
L 236.859366 195.489123 
L 237.873912 193.16836 
L 238.888457 201.438625 
L 239.903003 203.05191 
L 240.917548 204.404852 
L 241.932094 198.781777 
L 242.946639 201.96949 
L 243.961185 198.575014 
L 244.97573 200.961423 
L 245.990276 196.868569 
L 247.004821 197.045067 
L 248.019366 197.09217 
L 249.033912 196.649101 
L 250.048457 197.280352 
L 251.063003 199.693468 
L 252.077548 196.53935 
L 253.092094 197.294536 
L 254.106639 193.910493 
L 255.121185 195.34707 
L 256.13573 199.082962 
L 257.150276 199.406137 
L 258.164821 195.351668 
L 259.179366 195.096571 
L 260.193912 199.083709 
L 261.208457 198.991972 
L 262.223003 199.057378 
L 263.237548 199.687204 
L 264.252094 198.684433 
L 265.266639 197.465036 
L 266.281185 195.68457 
L 267.29573 197.875713 
L 268.310276 196.136412 
L 269.324821 199.961231 
L 270.339366 198.11537 
L 271.353912 200.805588 
L 272.368457 199.111492 
L 273.383003 199.681741 
L 274.397548 199.666836 
L 276.426639 194.840403 
L 277.441185 196.753655 
L 278.45573 196.364417 
L 279.470276 196.290432 
L 280.484821 200.551532 
L 281.499366 200.454504 
L 282.513912 199.96322 
L 283.528457 197.550108 
L 284.543003 199.973958 
L 285.557548 199.553966 
L 286.572094 201.697611 
L 288.601185 199.873759 
L 289.61573 198.38526 
L 290.630276 194.936191 
L 291.644821 198.310633 
L 292.659366 198.950088 
L 293.673912 198.250069 
L 294.688457 197.861232 
L 295.703003 196.95003 
L 296.717548 199.378272 
L 297.732094 197.321039 
L 298.746639 196.942699 
L 299.761185 197.17269 
L 300.77573 199.651113 
L 301.790276 198.451519 
L 302.804821 197.055487 
L 303.819366 199.324837 
L 304.833912 197.012048 
L 305.848457 197.763711 
L 306.863003 195.13987 
L 307.877548 198.883413 
L 308.892094 194.216466 
L 309.906639 195.16853 
L 310.921185 195.960639 
L 311.93573 198.03578 
L 312.950276 194.617311 
L 313.964821 196.660434 
L 315.993912 195.875189 
L 317.008457 194.56365 
L 318.023003 192.965637 
L 319.037548 192.078437 
L 320.052094 192.409815 
L 321.066639 193.833691 
L 322.081185 191.235 
L 323.09573 193.788747 
L 324.110276 197.091089 
L 325.124821 196.127042 
L 326.139366 197.297851 
L 327.153912 194.678392 
L 328.168457 195.179469 
L 329.183003 192.246239 
L 330.197548 191.280282 
L 331.212094 194.649709 
L 332.226639 192.111984 
L 333.241185 191.631619 
L 334.25573 189.648354 
L 335.270276 189.404291 
L 336.284821 190.359123 
L 337.299366 187.24794 
L 338.313912 190.344748 
L 339.328457 191.306942 
L 340.343003 190.627296 
L 341.357548 188.957684 
L 342.372094 189.14213 
L 343.386639 191.534192 
L 344.401185 189.917031 
L 345.41573 189.803741 
L 346.430276 187.714248 
L 347.444821 186.148557 
L 348.459366 188.961722 
L 349.473912 189.881624 
L 350.488457 188.695197 
L 351.503003 189.078174 
L 352.517548 186.671938 
L 353.532094 188.136007 
L 354.546639 188.854896 
L 355.561185 190.134681 
L 356.57573 187.037168 
L 357.590276 185.420511 
L 358.604821 184.914357 
L 359.619366 186.874707 
L 360.633912 187.490976 
L 361.648457 186.434122 
L 362.663003 184.995952 
L 363.677548 183.85229 
L 364.692094 184.515567 
L 365.706639 187.280938 
L 367.73573 186.803784 
L 368.750276 183.938663 
L 369.764821 183.637421 
L 370.779366 184.630675 
L 371.793912 184.569483 
L 372.808457 182.088927 
L 373.823003 182.712354 
L 374.837548 185.144809 
L 375.852094 185.027886 
L 377.881185 189.565953 
L 378.89573 189.876248 
L 379.910276 188.568464 
L 380.924821 187.896484 
L 381.939366 185.966433 
L 382.953912 185.933919 
L 382.953912 185.933919 
" clip-path="url(#pa9682ac74e)" style="fill: none; stroke: #d55e00; stroke-opacity: 0.2; stroke-width: 1.5; stroke-linecap: round"/>
   </g>
   <g id="line2d_21">
    <path d="M 78.590276 227.286578 
L 79.604821 228.982282 
L 80.619366 228.783297 
L 81.633912 228.39686 
L 82.648457 227.44515 
L 83.663003 229.271629 
L 84.677548 218.544488 
L 85.692094 227.038227 
L 86.706639 226.655257 
L 87.721185 228.051166 
L 88.73573 225.681781 
L 90.764821 228.371565 
L 91.779366 225.170106 
L 92.793912 225.85081 
L 93.808457 224.495305 
L 94.823003 224.103417 
L 95.837548 224.17136 
L 96.852094 224.885456 
L 97.866639 223.054043 
L 98.881185 223.868625 
L 99.89573 225.318787 
L 100.910276 223.816523 
L 101.924821 225.104059 
L 102.939366 224.147675 
L 103.953912 222.095205 
L 104.968457 223.931276 
L 105.983003 224.673883 
L 106.997548 223.907985 
L 108.012094 224.063025 
L 109.026639 223.121617 
L 110.041185 223.81944 
L 111.05573 223.079101 
L 112.070276 223.391683 
L 113.084821 224.813396 
L 114.099366 223.547905 
L 115.113912 223.692355 
L 116.128457 225.950347 
L 117.143003 223.39143 
L 118.157548 224.423826 
L 119.172094 222.129128 
L 120.186639 223.086069 
L 121.201185 223.412213 
L 122.21573 222.904947 
L 123.230276 224.031301 
L 125.259366 224.27485 
L 126.273912 223.634614 
L 127.288457 223.179489 
L 128.303003 223.53165 
L 129.317548 224.374029 
L 130.332094 225.038936 
L 131.346639 224.649181 
L 132.361185 225.288578 
L 133.37573 224.529983 
L 134.390276 224.588005 
L 135.404821 225.154602 
L 136.419366 224.715956 
L 137.433912 225.529986 
L 138.448457 224.238479 
L 139.463003 224.140202 
L 140.477548 224.467309 
L 141.492094 224.374691 
L 142.506639 223.156108 
L 143.521185 224.359642 
L 144.53573 225.248642 
L 145.550276 224.959693 
L 146.564821 225.620687 
L 147.579366 224.628131 
L 148.593912 225.461627 
L 149.608457 224.902635 
L 150.623003 224.041759 
L 151.637548 225.267024 
L 152.652094 225.322369 
L 153.666639 224.939867 
L 154.681185 225.663458 
L 155.69573 226.662699 
L 156.710276 225.340171 
L 157.724821 225.966084 
L 158.739366 224.942303 
L 160.768457 225.033009 
L 161.783003 225.543069 
L 162.797548 224.97515 
L 163.812094 224.887917 
L 164.826639 226.271277 
L 165.841185 225.856677 
L 166.85573 226.126883 
L 167.870276 225.254661 
L 168.884821 225.936304 
L 169.899366 226.387914 
L 170.913912 226.429992 
L 172.943003 225.174506 
L 173.957548 225.765674 
L 174.972094 225.21443 
L 175.986639 226.18868 
L 177.001185 225.770699 
L 178.01573 226.834047 
L 179.030276 226.468543 
L 180.044821 225.479632 
L 181.059366 226.232157 
L 182.073912 225.687239 
L 183.088457 225.744208 
L 184.103003 226.00068 
L 185.117548 226.381401 
L 186.132094 226.212517 
L 187.146639 226.688122 
L 188.161185 226.602934 
L 189.17573 226.375634 
L 190.190276 226.483044 
L 191.204821 226.10322 
L 192.219366 225.134204 
L 194.248457 226.727269 
L 195.263003 225.787361 
L 197.292094 226.592026 
L 198.306639 226.52384 
L 199.321185 226.570146 
L 200.33573 225.834142 
L 201.350276 226.068706 
L 202.364821 225.854943 
L 203.379366 226.609649 
L 204.393912 226.259233 
L 205.408457 226.293111 
L 206.423003 226.645521 
L 207.437548 226.057156 
L 208.452094 226.370779 
L 209.466639 225.863452 
L 210.481185 226.512612 
L 211.49573 225.681562 
L 212.510276 225.612572 
L 213.524821 225.155441 
L 214.539366 225.266711 
L 215.553912 226.711837 
L 216.568457 226.440201 
L 218.597548 226.797971 
L 219.612094 226.419219 
L 220.626639 227.039755 
L 221.641185 226.454065 
L 223.670276 226.420231 
L 224.684821 226.63127 
L 225.699366 225.981968 
L 227.728457 226.535962 
L 228.743003 226.251325 
L 229.757548 223.438517 
L 230.772094 214.48152 
L 231.786639 198.075343 
L 233.81573 195.814114 
L 234.830276 203.529656 
L 235.844821 199.4554 
L 236.859366 198.110739 
L 237.873912 203.975197 
L 238.888457 204.401791 
L 239.903003 209.107303 
L 240.917548 211.016357 
L 241.932094 204.740442 
L 242.946639 207.739601 
L 243.961185 208.486644 
L 244.97573 204.048609 
L 245.990276 200.944218 
L 247.004821 202.564319 
L 249.033912 208.114469 
L 250.048457 206.900575 
L 251.063003 201.70082 
L 253.092094 203.860748 
L 254.106639 199.718453 
L 255.121185 200.99563 
L 256.13573 206.797815 
L 257.150276 205.843228 
L 258.164821 203.020893 
L 259.179366 204.445608 
L 260.193912 204.045936 
L 261.208457 205.610674 
L 262.223003 203.991601 
L 263.237548 208.221636 
L 264.252094 209.459242 
L 265.266639 206.120093 
L 266.281185 204.138935 
L 267.29573 205.930357 
L 268.310276 206.394288 
L 269.324821 207.625745 
L 270.339366 204.876344 
L 271.353912 208.763611 
L 272.368457 209.329138 
L 273.383003 210.4679 
L 274.397548 206.788404 
L 275.412094 208.918228 
L 276.426639 207.093346 
L 277.441185 206.095791 
L 279.470276 210.086043 
L 280.484821 207.507029 
L 281.499366 209.776398 
L 282.513912 211.161288 
L 283.528457 211.025298 
L 284.543003 211.04039 
L 285.557548 208.829447 
L 286.572094 209.488919 
L 287.586639 208.669118 
L 288.601185 209.783315 
L 289.61573 208.831666 
L 290.630276 207.436162 
L 291.644821 210.919917 
L 292.659366 212.275016 
L 293.673912 212.394108 
L 294.688457 211.863241 
L 295.703003 210.198699 
L 296.717548 213.517997 
L 297.732094 210.531738 
L 298.746639 212.903813 
L 299.761185 211.965897 
L 301.790276 211.956602 
L 302.804821 212.864553 
L 303.819366 211.894761 
L 304.833912 212.982237 
L 305.848457 212.507967 
L 306.863003 213.22428 
L 307.877548 212.444545 
L 308.892094 212.234149 
L 311.93573 213.396854 
L 312.950276 213.352801 
L 313.964821 213.736129 
L 314.979366 214.256691 
L 315.993912 213.244941 
L 317.008457 211.966702 
L 318.023003 212.711997 
L 319.037548 210.666631 
L 320.052094 212.356507 
L 321.066639 212.615954 
L 322.081185 212.038196 
L 324.110276 214.029083 
L 325.124821 212.3053 
L 326.139366 213.096479 
L 328.168457 214.17802 
L 329.183003 213.819612 
L 330.197548 214.679598 
L 331.212094 213.807333 
L 332.226639 211.722583 
L 333.241185 213.145771 
L 334.25573 213.569982 
L 335.270276 214.580239 
L 336.284821 213.900714 
L 337.299366 214.861376 
L 338.313912 214.321061 
L 339.328457 214.903534 
L 340.343003 214.738877 
L 341.357548 214.222613 
L 342.372094 213.064398 
L 343.386639 213.056244 
L 344.401185 214.3813 
L 345.41573 214.623 
L 346.430276 216.168688 
L 347.444821 215.496955 
L 348.459366 215.623209 
L 349.473912 214.125381 
L 350.488457 214.656008 
L 351.503003 213.559429 
L 352.517548 214.286973 
L 353.532094 213.403022 
L 354.546639 213.609362 
L 355.561185 215.336879 
L 356.57573 213.357663 
L 357.590276 214.622292 
L 358.604821 216.296698 
L 359.619366 214.176884 
L 360.633912 216.015547 
L 361.648457 216.049814 
L 362.663003 215.133009 
L 363.677548 215.7504 
L 364.692094 215.212784 
L 365.706639 216.441186 
L 366.721185 215.572842 
L 367.73573 217.540682 
L 368.750276 220.708642 
L 369.764821 219.851225 
L 370.779366 219.146024 
L 371.793912 218.250449 
L 372.808457 218.227629 
L 373.823003 219.133417 
L 374.837548 218.921368 
L 375.852094 220.014499 
L 376.866639 218.385463 
L 377.881185 218.541628 
L 378.89573 220.667152 
L 379.910276 219.897114 
L 380.924821 218.157264 
L 381.939366 214.318979 
L 382.953912 215.499297 
L 382.953912 215.499297 
" clip-path="url(#pa9682ac74e)" style="fill: none; stroke: #cc78bc; stroke-opacity: 0.2; stroke-width: 1.5; stroke-linecap: round"/>
   </g>
   <g id="line2d_22">
    <path d="M 78.590276 229.065062 
L 79.604821 230.620728 
L 80.619366 231.005893 
L 81.633912 230.869141 
L 82.648457 230.049143 
L 83.663003 224.87447 
L 84.677548 221.39756 
L 85.692094 220.253727 
L 86.706639 221.740966 
L 87.721185 222.18069 
L 88.73573 217.706779 
L 89.750276 221.225017 
L 90.764821 218.935439 
L 91.779366 217.613337 
L 92.793912 220.013025 
L 93.808457 214.147121 
L 94.823003 214.285921 
L 95.837548 210.814772 
L 96.852094 214.147313 
L 97.866639 215.793238 
L 99.89573 210.764973 
L 100.910276 214.741322 
L 101.924821 213.540155 
L 102.939366 213.459997 
L 103.953912 210.738948 
L 104.968457 210.730759 
L 105.983003 211.954143 
L 106.997548 212.36521 
L 108.012094 211.629793 
L 109.026639 209.514277 
L 110.041185 211.374827 
L 111.05573 212.073707 
L 112.070276 211.219036 
L 113.084821 210.965707 
L 114.099366 212.888171 
L 115.113912 209.775301 
L 117.143003 211.109377 
L 118.157548 213.164287 
L 120.186639 211.747458 
L 121.201185 212.03859 
L 122.21573 210.300064 
L 123.230276 209.787863 
L 124.244821 214.943145 
L 125.259366 214.948188 
L 126.273912 210.919909 
L 127.288457 212.244065 
L 128.303003 214.821211 
L 129.317548 212.835354 
L 130.332094 212.042351 
L 131.346639 213.410135 
L 132.361185 213.083887 
L 133.37573 214.735169 
L 134.390276 211.958586 
L 135.404821 213.587452 
L 136.419366 211.92492 
L 137.433912 211.426164 
L 138.448457 213.452026 
L 139.463003 213.285185 
L 140.477548 212.632211 
L 141.492094 194.317561 
L 142.506639 199.352936 
L 143.521185 211.101435 
L 144.53573 213.765994 
L 145.550276 212.889382 
L 146.564821 211.226619 
L 147.579366 213.460469 
L 148.593912 213.680545 
L 149.608457 213.334697 
L 150.623003 212.445189 
L 151.637548 213.097968 
L 152.652094 212.017793 
L 153.666639 212.651701 
L 154.681185 212.176084 
L 155.69573 212.628793 
L 156.710276 211.067881 
L 157.724821 212.654966 
L 158.739366 211.885835 
L 159.753912 211.721408 
L 161.783003 213.717147 
L 162.797548 213.856934 
L 163.812094 213.723112 
L 164.826639 212.537667 
L 165.841185 213.2106 
L 166.85573 211.668076 
L 167.870276 212.095601 
L 168.884821 213.685843 
L 169.899366 211.697617 
L 171.928457 210.756071 
L 172.943003 211.487047 
L 174.972094 209.918826 
L 175.986639 211.110388 
L 177.001185 209.2885 
L 178.01573 210.895367 
L 179.030276 211.814393 
L 181.059366 208.646454 
L 182.073912 209.021224 
L 183.088457 212.502533 
L 184.103003 210.400535 
L 185.117548 208.879186 
L 186.132094 209.549174 
L 187.146639 209.973486 
L 188.161185 210.168971 
L 189.17573 211.549015 
L 190.190276 209.997586 
L 191.204821 210.018277 
L 192.219366 210.312635 
L 193.233912 209.505298 
L 194.248457 208.237846 
L 195.263003 209.421352 
L 196.277548 209.638192 
L 197.292094 209.611768 
L 198.306639 210.751899 
L 199.321185 208.268262 
L 200.33573 208.18947 
L 201.350276 208.354162 
L 202.364821 207.828621 
L 203.379366 206.622746 
L 204.393912 206.405893 
L 205.408457 207.197243 
L 207.437548 206.597673 
L 208.452094 206.766823 
L 209.466639 203.917503 
L 210.481185 207.049056 
L 211.49573 207.761677 
L 212.510276 206.311242 
L 213.524821 206.109067 
L 214.539366 207.198214 
L 215.553912 206.365942 
L 216.568457 205.832925 
L 217.583003 205.951556 
L 218.597548 204.901737 
L 219.612094 204.985805 
L 220.626639 204.243055 
L 221.641185 205.053539 
L 222.65573 204.2851 
L 223.670276 204.719416 
L 224.684821 204.639207 
L 225.699366 205.582489 
L 226.713912 205.861079 
L 227.728457 204.876157 
L 228.743003 202.526325 
L 229.757548 200.680741 
L 230.772094 203.6733 
L 231.786639 195.589293 
L 232.801185 198.01142 
L 233.81573 159.659546 
L 234.830276 183.391189 
L 235.844821 173.190711 
L 236.859366 155.146823 
L 237.873912 156.227729 
L 238.888457 161.686921 
L 239.903003 180.196942 
L 240.917548 171.87644 
L 241.932094 174.695398 
L 242.946639 176.009688 
L 243.961185 172.159588 
L 244.97573 161.947172 
L 245.990276 163.392852 
L 247.004821 166.767202 
L 248.019366 165.482257 
L 249.033912 167.815228 
L 250.048457 166.77545 
L 251.063003 163.182182 
L 252.077548 163.816063 
L 253.092094 160.865499 
L 254.106639 161.577665 
L 255.121185 167.036193 
L 256.13573 169.39448 
L 257.150276 164.275728 
L 258.164821 170.953652 
L 259.179366 168.214752 
L 260.193912 171.42755 
L 261.208457 168.923765 
L 262.223003 173.589816 
L 263.237548 166.956192 
L 264.252094 167.326393 
L 265.266639 169.903844 
L 266.281185 168.009131 
L 267.29573 172.484408 
L 268.310276 174.670819 
L 269.324821 173.500131 
L 270.339366 174.838573 
L 271.353912 171.012181 
L 272.368457 171.286597 
L 273.383003 171.949854 
L 274.397548 176.967286 
L 275.412094 177.042677 
L 276.426639 176.659302 
L 277.441185 173.841897 
L 278.45573 173.634962 
L 279.470276 175.887706 
L 280.484821 180.001112 
L 281.499366 174.323658 
L 282.513912 176.109208 
L 283.528457 172.350817 
L 284.543003 175.016002 
L 285.557548 175.602737 
L 286.572094 176.564963 
L 287.586639 175.175475 
L 288.601185 173.196847 
L 289.61573 174.355019 
L 290.630276 180.158994 
L 291.644821 178.589665 
L 292.659366 179.111123 
L 293.673912 176.288293 
L 294.688457 178.226394 
L 295.703003 178.985835 
L 296.717548 178.688562 
L 297.732094 179.137779 
L 298.746639 180.215044 
L 299.761185 178.380781 
L 300.77573 173.233637 
L 301.790276 179.548055 
L 302.804821 181.018195 
L 303.819366 176.786673 
L 304.833912 181.4025 
L 305.848457 179.638032 
L 306.863003 180.080311 
L 307.877548 180.681753 
L 308.892094 178.150183 
L 309.906639 180.732688 
L 310.921185 177.093402 
L 311.93573 178.339455 
L 312.950276 179.305863 
L 313.964821 179.268792 
L 314.979366 179.963574 
L 315.993912 182.138865 
L 317.008457 178.746077 
L 318.023003 179.901824 
L 319.037548 180.815184 
L 320.052094 180.553105 
L 321.066639 178.601474 
L 322.081185 179.306009 
L 323.09573 178.073277 
L 324.110276 179.66108 
L 325.124821 177.487995 
L 326.139366 175.979347 
L 327.153912 176.551216 
L 328.168457 180.852609 
L 329.183003 178.3809 
L 330.197548 178.335362 
L 331.212094 182.924712 
L 332.226639 180.125963 
L 333.241185 180.635397 
L 334.25573 179.982727 
L 335.270276 177.51136 
L 336.284821 178.681914 
L 337.299366 177.414611 
L 338.313912 177.736797 
L 339.328457 180.24034 
L 340.343003 178.028703 
L 341.357548 177.085435 
L 342.372094 175.803728 
L 343.386639 178.912675 
L 344.401185 177.919188 
L 345.41573 176.048092 
L 346.430276 174.926042 
L 347.444821 174.969875 
L 348.459366 180.264725 
L 349.473912 177.803421 
L 350.488457 174.884511 
L 351.503003 175.906105 
L 352.517548 176.464529 
L 353.532094 174.328902 
L 354.546639 175.138905 
L 356.57573 172.696165 
L 357.590276 174.694997 
L 358.604821 176.43873 
L 359.619366 176.667431 
L 360.633912 174.227524 
L 361.648457 176.265634 
L 362.663003 172.65268 
L 363.677548 172.312429 
L 365.706639 175.94254 
L 366.721185 172.124646 
L 367.73573 172.67656 
L 368.750276 175.092054 
L 369.764821 175.466846 
L 370.779366 173.034992 
L 371.793912 172.381488 
L 372.808457 171.022091 
L 373.823003 176.039969 
L 375.852094 175.18801 
L 376.866639 175.346046 
L 378.89573 179.106792 
L 379.910276 174.757729 
L 380.924821 175.109443 
L 381.939366 173.786362 
L 382.953912 170.174559 
L 382.953912 170.174559 
" clip-path="url(#pa9682ac74e)" style="fill: none; stroke: #ca9161; stroke-opacity: 0.2; stroke-width: 1.5; stroke-linecap: round"/>
   </g>
   <g id="line2d_23">
    <path d="M 80.619366 215.337872 
L 81.633912 212.724217 
L 82.648457 212.469862 
L 83.663003 209.139476 
L 84.677548 203.666291 
L 85.692094 204.65216 
L 86.706639 203.607823 
L 87.721185 201.496204 
L 88.73573 203.715608 
L 89.750276 203.483522 
L 90.764821 202.509638 
L 91.779366 198.233982 
L 92.793912 196.055236 
L 93.808457 188.609449 
L 94.823003 183.346704 
L 95.837548 176.54818 
L 96.852094 172.762307 
L 97.866639 167.536079 
L 98.881185 166.698296 
L 100.910276 159.423147 
L 101.924821 157.02822 
L 102.939366 154.939007 
L 104.968457 152.188312 
L 105.983003 151.099202 
L 106.997548 150.44935 
L 108.012094 150.879935 
L 109.026639 154.444854 
L 110.041185 159.133238 
L 111.05573 158.768455 
L 112.070276 158.566252 
L 113.084821 157.07528 
L 114.099366 153.467047 
L 115.113912 150.322502 
L 116.128457 148.956275 
L 117.143003 147.379289 
L 118.157548 151.233868 
L 119.172094 150.581191 
L 120.186639 148.845651 
L 121.201185 148.158913 
L 122.21573 149.080656 
L 123.230276 144.963616 
L 124.244821 141.393049 
L 125.259366 139.737501 
L 126.273912 141.356723 
L 127.288457 141.120783 
L 128.303003 141.447761 
L 129.317548 139.260145 
L 130.332094 144.0857 
L 131.346639 144.995142 
L 132.361185 146.763425 
L 133.37573 147.752319 
L 134.390276 151.491467 
L 135.404821 146.536529 
L 136.419366 148.352912 
L 137.433912 149.267087 
L 138.448457 147.260252 
L 139.463003 149.100296 
L 140.477548 155.37866 
L 141.492094 156.405267 
L 142.506639 156.469315 
L 143.521185 160.906663 
L 144.53573 161.811993 
L 145.550276 158.545446 
L 146.564821 158.401492 
L 147.579366 157.174451 
L 148.593912 157.275814 
L 149.608457 158.229416 
L 150.623003 163.438205 
L 152.652094 162.170079 
L 153.666639 162.15632 
L 154.681185 163.813564 
L 155.69573 159.515103 
L 157.724821 162.641343 
L 158.739366 162.422648 
L 159.753912 162.353846 
L 160.768457 162.843591 
L 161.783003 162.386408 
L 162.797548 165.240608 
L 163.812094 166.242516 
L 164.826639 167.892941 
L 165.841185 172.212272 
L 167.870276 169.484287 
L 169.899366 171.206838 
L 170.913912 170.440284 
L 171.928457 174.463802 
L 172.943003 176.162957 
L 173.957548 177.130492 
L 174.972094 177.686431 
L 175.986639 178.793722 
L 177.001185 180.369445 
L 178.01573 180.821846 
L 179.030276 182.289605 
L 181.059366 182.744858 
L 182.073912 182.400818 
L 183.088457 184.707491 
L 184.103003 185.078933 
L 185.117548 186.349849 
L 186.132094 188.01617 
L 187.146639 187.791488 
L 188.161185 187.066389 
L 189.17573 187.296807 
L 190.190276 185.111063 
L 191.204821 185.951795 
L 192.219366 189.685344 
L 193.233912 190.421892 
L 194.248457 191.595242 
L 195.263003 193.507259 
L 196.277548 191.85991 
L 197.292094 188.892339 
L 198.306639 191.086182 
L 199.321185 189.773556 
L 200.33573 188.859305 
L 201.350276 191.608963 
L 202.364821 193.296322 
L 203.379366 193.007636 
L 204.393912 193.90143 
L 205.408457 195.26862 
L 206.423003 195.022086 
L 207.437548 193.793868 
L 208.452094 193.109821 
L 210.481185 196.479323 
L 211.49573 196.352495 
L 212.510276 197.54904 
L 213.524821 197.960719 
L 214.539366 198.131473 
L 215.553912 197.357079 
L 216.568457 198.926493 
L 217.583003 199.965162 
L 218.597548 200.463063 
L 219.612094 198.528293 
L 220.626639 199.837148 
L 222.65573 198.056703 
L 223.670276 198.086876 
L 224.684821 200.475241 
L 225.699366 200.1852 
L 227.728457 199.163218 
L 228.743003 197.718489 
L 231.846927 -1 
L 231.846927 -1 
" clip-path="url(#pa9682ac74e)" style="fill: none; stroke: #0173b2; stroke-width: 1.5; stroke-linecap: round"/>
   </g>
   <g id="line2d_24">
    <path d="M 80.619366 226.394657 
L 81.633912 223.841848 
L 82.648457 222.0709 
L 84.677548 219.583154 
L 85.692094 219.49536 
L 86.706639 219.178793 
L 88.73573 219.074436 
L 89.750276 218.697687 
L 91.779366 219.365501 
L 92.793912 218.473298 
L 93.808457 217.24903 
L 94.823003 216.26547 
L 95.837548 214.146197 
L 96.852094 213.955429 
L 97.866639 213.414888 
L 98.881185 212.573097 
L 99.89573 212.320246 
L 100.910276 212.54634 
L 101.924821 211.365725 
L 102.939366 211.396259 
L 103.953912 212.232096 
L 104.968457 212.031584 
L 105.983003 211.968953 
L 106.997548 212.711016 
L 108.012094 212.976804 
L 109.026639 212.137328 
L 110.041185 211.520745 
L 111.05573 211.978295 
L 112.070276 211.719676 
L 113.084821 211.640803 
L 114.099366 211.674859 
L 115.113912 212.934343 
L 116.128457 212.966 
L 118.157548 212.875621 
L 119.172094 213.473268 
L 120.186639 212.979037 
L 122.21573 213.262775 
L 123.230276 213.043335 
L 124.244821 212.617788 
L 125.259366 213.178709 
L 126.273912 212.691263 
L 127.288457 212.992478 
L 128.303003 213.781201 
L 130.332094 214.01719 
L 132.361185 214.259151 
L 133.37573 213.753165 
L 134.390276 213.960111 
L 135.404821 213.610455 
L 136.419366 213.420972 
L 137.433912 213.699258 
L 138.448457 214.334933 
L 141.492094 215.702798 
L 142.506639 215.42021 
L 143.521185 214.91505 
L 144.53573 214.76729 
L 145.550276 214.813384 
L 147.579366 214.405229 
L 148.593912 214.527469 
L 151.637548 214.24676 
L 152.652094 214.782935 
L 153.666639 215.088116 
L 154.681185 215.607064 
L 155.69573 215.731326 
L 156.710276 216.056331 
L 159.753912 215.554822 
L 160.768457 215.283035 
L 162.797548 215.320471 
L 165.841185 215.801403 
L 166.85573 215.703019 
L 168.884821 215.978923 
L 170.913912 215.896408 
L 171.928457 215.675802 
L 172.943003 215.128561 
L 175.986639 214.946979 
L 178.01573 215.167402 
L 179.030276 215.162048 
L 180.044821 215.641126 
L 181.059366 215.95602 
L 182.073912 216.055284 
L 183.088457 216.338421 
L 184.103003 216.299387 
L 185.117548 215.966745 
L 189.17573 215.610779 
L 190.190276 215.623532 
L 191.204821 215.140427 
L 192.219366 214.988204 
L 193.233912 215.174111 
L 195.263003 215.148371 
L 197.292094 215.737941 
L 200.33573 215.77442 
L 201.350276 215.960205 
L 203.379366 215.297412 
L 204.393912 215.238513 
L 205.408457 215.29259 
L 206.423003 215.120164 
L 207.437548 215.271511 
L 211.49573 215.124364 
L 213.524821 215.446975 
L 214.539366 215.336648 
L 216.568457 214.902567 
L 217.583003 214.802314 
L 218.597548 214.894311 
L 219.612094 215.219184 
L 226.713912 216.131824 
L 227.728457 215.529475 
L 228.743003 214.653043 
L 232.801185 206.269128 
L 233.81573 203.601188 
L 234.830276 199.459173 
L 235.844821 193.16481 
L 236.859366 193.036254 
L 237.873912 191.672082 
L 238.888457 192.133811 
L 240.917548 200.151121 
L 242.946639 199.609429 
L 245.990276 193.368413 
L 247.004821 192.402483 
L 248.019366 191.973819 
L 249.033912 192.919207 
L 250.048457 192.590492 
L 251.063003 193.275828 
L 252.077548 192.307058 
L 254.106639 192.682623 
L 255.121185 194.597957 
L 258.164821 196.49866 
L 259.179366 196.828392 
L 260.193912 196.856454 
L 261.208457 197.284848 
L 262.223003 198.120242 
L 263.237548 198.027167 
L 264.252094 198.512748 
L 265.266639 198.581547 
L 266.281185 198.897876 
L 267.29573 199.845493 
L 270.339366 200.975856 
L 271.353912 201.051996 
L 272.368457 200.609137 
L 273.383003 200.788546 
L 274.397548 200.523817 
L 275.412094 200.411912 
L 276.426639 200.590118 
L 277.441185 201.41249 
L 278.45573 202.486636 
L 279.470276 202.904862 
L 281.499366 204.342096 
L 282.513912 204.640411 
L 283.528457 204.455502 
L 285.557548 205.00351 
L 286.572094 205.187119 
L 288.601185 205.273583 
L 290.630276 205.860737 
L 292.659366 205.477494 
L 293.673912 206.521449 
L 294.688457 207.099111 
L 295.703003 207.059398 
L 296.717548 207.585876 
L 297.732094 207.910322 
L 298.746639 207.205424 
L 299.761185 207.196894 
L 300.77573 207.032862 
L 302.804821 207.331873 
L 303.819366 207.743245 
L 304.833912 207.796443 
L 305.848457 208.399856 
L 306.863003 208.493869 
L 307.877548 208.849009 
L 308.892094 208.793168 
L 311.93573 208.165387 
L 312.950276 207.720226 
L 313.964821 207.746379 
L 314.979366 208.014033 
L 315.993912 208.033023 
L 317.008457 208.211785 
L 319.037548 208.132439 
L 320.052094 208.353331 
L 321.066639 208.296508 
L 322.081185 208.37677 
L 323.09573 208.587399 
L 324.110276 208.59869 
L 325.124821 208.266974 
L 329.183003 209.130126 
L 330.197548 209.642312 
L 331.212094 209.312191 
L 332.226639 209.558864 
L 333.241185 209.55976 
L 334.25573 209.871187 
L 335.270276 209.678843 
L 336.284821 209.740084 
L 337.299366 209.56728 
L 338.313912 209.778015 
L 339.328457 209.631096 
L 340.343003 209.952058 
L 341.357548 210.53106 
L 342.372094 210.638597 
L 343.386639 210.870489 
L 344.401185 210.913095 
L 345.41573 210.644218 
L 346.430276 210.519365 
L 347.444821 210.629927 
L 349.473912 210.420885 
L 351.503003 210.687596 
L 352.517548 210.606827 
L 353.532094 210.660138 
L 354.546639 210.859341 
L 355.561185 210.714052 
L 359.619366 210.756471 
L 360.633912 210.914474 
L 361.648457 210.916363 
L 362.663003 211.198542 
L 363.677548 211.189189 
L 365.706639 210.963135 
L 366.721185 211.154124 
L 367.73573 211.213079 
L 368.750276 211.037073 
L 369.764821 211.204039 
L 370.779366 211.548052 
L 372.808457 211.841989 
L 373.823003 212.355903 
L 375.852094 212.392064 
L 376.866639 212.677342 
L 377.881185 212.833241 
L 378.89573 212.744168 
L 379.910276 212.31558 
L 380.924821 211.747 
L 380.924821 211.747 
" clip-path="url(#pa9682ac74e)" style="fill: none; stroke: #de8f05; stroke-width: 1.5; stroke-linecap: round"/>
   </g>
   <g id="line2d_25">
    <path d="M 80.619366 230.050279 
L 81.633912 229.658304 
L 82.648457 228.543751 
L 84.677548 225.940089 
L 85.692094 225.412386 
L 86.706639 225.3737 
L 87.721185 225.556214 
L 88.73573 225.943136 
L 89.750276 226.084372 
L 90.764821 226.080639 
L 91.779366 224.993354 
L 92.793912 223.345608 
L 93.808457 222.038229 
L 94.823003 221.343669 
L 95.837548 219.685257 
L 96.852094 219.018242 
L 97.866639 219.427508 
L 98.881185 219.176217 
L 99.89573 218.425774 
L 101.924821 218.925609 
L 103.953912 218.586834 
L 104.968457 217.819076 
L 105.983003 216.531806 
L 108.012094 214.764545 
L 110.041185 214.768305 
L 112.070276 214.610634 
L 113.084821 214.667828 
L 114.099366 213.722262 
L 115.113912 213.444796 
L 116.128457 213.462934 
L 117.143003 213.626156 
L 118.157548 213.599591 
L 119.172094 214.232058 
L 120.186639 214.496359 
L 121.201185 215.321436 
L 122.21573 215.441386 
L 124.244821 215.222301 
L 125.259366 215.643258 
L 126.273912 215.003241 
L 127.288457 215.085888 
L 128.303003 215.572333 
L 129.317548 215.509417 
L 130.332094 215.58288 
L 131.346639 216.150707 
L 132.361185 216.159611 
L 133.37573 215.966239 
L 134.390276 216.204421 
L 135.404821 216.122646 
L 136.419366 216.220783 
L 137.433912 216.556801 
L 138.448457 217.242804 
L 139.463003 217.505472 
L 140.477548 217.48625 
L 142.506639 217.691592 
L 144.53573 217.460526 
L 145.550276 217.852335 
L 146.564821 217.737746 
L 147.579366 217.356634 
L 148.593912 217.49256 
L 149.608457 217.326231 
L 150.623003 217.45893 
L 151.637548 217.458556 
L 152.652094 217.051633 
L 153.666639 216.232401 
L 154.681185 216.368798 
L 155.69573 215.812813 
L 156.710276 215.748903 
L 157.724821 216.177941 
L 158.739366 216.373071 
L 159.753912 216.210543 
L 160.768457 216.410232 
L 161.783003 215.806876 
L 162.797548 215.509059 
L 163.812094 215.659062 
L 164.826639 215.247945 
L 165.841185 215.163457 
L 166.85573 215.755329 
L 167.870276 215.935794 
L 168.884821 215.811206 
L 169.899366 215.869735 
L 170.913912 214.37957 
L 171.928457 212.408213 
L 172.943003 212.029124 
L 173.957548 211.84236 
L 174.972094 211.12647 
L 175.986639 211.998877 
L 177.001185 213.035808 
L 178.01573 213.132537 
L 179.030276 212.815376 
L 180.044821 212.998108 
L 182.073912 212.620884 
L 185.117548 212.002231 
L 186.132094 211.955724 
L 187.146639 211.476309 
L 188.161185 210.465091 
L 189.17573 209.805148 
L 190.190276 209.706295 
L 191.204821 209.353913 
L 192.219366 209.928059 
L 193.233912 210.163284 
L 194.248457 210.135333 
L 196.277548 208.31093 
L 197.292094 206.900049 
L 198.306639 206.519619 
L 199.321185 206.349088 
L 200.33573 206.475353 
L 201.350276 206.205987 
L 202.364821 205.748463 
L 203.379366 204.789077 
L 204.393912 203.53765 
L 205.408457 202.752294 
L 206.423003 202.124089 
L 207.437548 200.039015 
L 208.452094 197.677326 
L 209.466639 197.948827 
L 210.481185 197.483388 
L 211.49573 197.348238 
L 213.524821 200.962393 
L 215.553912 199.602453 
L 217.583003 198.662474 
L 219.612094 198.092437 
L 220.626639 198.023305 
L 221.641185 197.727591 
L 223.670276 196.448083 
L 225.699366 196.413362 
L 226.713912 196.133355 
L 227.728457 195.260701 
L 228.743003 194.032769 
L 232.801185 219.853975 
L 233.81573 219.030392 
L 234.830276 218.839013 
L 237.873912 210.043822 
L 238.888457 208.103141 
L 239.903003 206.782329 
L 240.917548 207.657807 
L 242.946639 208.329382 
L 244.97573 205.807637 
L 245.990276 202.642818 
L 248.019366 197.633967 
L 249.033912 196.898023 
L 250.048457 195.749236 
L 252.077548 196.426659 
L 253.092094 194.694938 
L 254.106639 194.34168 
L 255.121185 193.485902 
L 257.150276 191.208432 
L 258.164821 193.060917 
L 259.179366 192.020538 
L 260.193912 192.488412 
L 261.208457 192.137641 
L 262.223003 190.910246 
L 263.237548 189.021741 
L 264.252094 188.375825 
L 265.266639 188.571048 
L 266.281185 188.408382 
L 267.29573 189.154246 
L 268.310276 189.506089 
L 269.324821 191.017865 
L 270.339366 191.282232 
L 271.353912 192.228967 
L 272.368457 192.573662 
L 273.383003 192.503503 
L 276.426639 191.98247 
L 278.45573 192.288299 
L 279.470276 191.647625 
L 281.499366 192.857803 
L 282.513912 193.007405 
L 283.528457 194.077505 
L 284.543003 194.275048 
L 285.557548 193.192989 
L 286.572094 193.008038 
L 287.586639 193.434349 
L 288.601185 193.386186 
L 289.61573 193.82974 
L 290.630276 194.572136 
L 291.644821 193.893011 
L 292.659366 194.025621 
L 293.673912 193.659765 
L 294.688457 194.512514 
L 296.717548 194.497048 
L 297.732094 193.773003 
L 298.746639 193.741404 
L 299.761185 192.829183 
L 300.77573 192.92885 
L 301.790276 193.162424 
L 302.804821 193.039453 
L 303.819366 192.603128 
L 304.833912 191.860748 
L 305.848457 191.772647 
L 306.863003 192.262544 
L 307.877548 192.885701 
L 308.892094 193.304083 
L 309.906639 193.520823 
L 310.921185 193.488002 
L 311.93573 192.988996 
L 313.964821 191.31152 
L 314.979366 190.972646 
L 317.008457 189.582679 
L 318.023003 188.960251 
L 319.037548 188.125958 
L 320.052094 187.478468 
L 321.066639 187.05627 
L 322.081185 186.46939 
L 324.110276 186.583908 
L 325.124821 186.485141 
L 326.139366 185.438749 
L 327.153912 185.082208 
L 328.168457 183.699891 
L 329.183003 183.559019 
L 331.212094 182.412925 
L 332.226639 181.287203 
L 333.241185 180.81489 
L 334.25573 180.777193 
L 335.270276 180.566058 
L 337.299366 178.932677 
L 338.313912 177.626416 
L 340.343003 173.838539 
L 341.357548 173.885837 
L 342.372094 174.100165 
L 344.401185 173.026539 
L 345.41573 172.721689 
L 346.430276 171.216156 
L 347.444821 169.975421 
L 348.459366 170.491049 
L 349.473912 169.841014 
L 350.488457 169.470075 
L 351.503003 170.884255 
L 352.517548 171.468193 
L 353.532094 169.972253 
L 354.546639 169.349892 
L 355.561185 168.344757 
L 356.57573 165.856236 
L 357.590276 162.744188 
L 358.604821 161.266125 
L 359.619366 160.734743 
L 360.633912 160.556298 
L 361.648457 159.311119 
L 363.677548 159.428114 
L 364.692094 159.105498 
L 366.721185 156.324299 
L 367.73573 155.289356 
L 368.750276 152.870686 
L 369.764821 149.479167 
L 370.779366 148.497665 
L 371.793912 149.080819 
L 372.808457 148.816932 
L 373.823003 149.086531 
L 374.837548 149.219744 
L 376.866639 145.447577 
L 377.881185 143.931115 
L 379.910276 142.526307 
L 380.924821 142.190557 
L 380.924821 142.190557 
" clip-path="url(#pa9682ac74e)" style="fill: none; stroke: #029e73; stroke-width: 1.5; stroke-linecap: round"/>
   </g>
   <g id="line2d_26">
    <path d="M 80.619366 223.15592 
L 81.633912 225.310745 
L 82.648457 219.351638 
L 83.663003 216.605645 
L 85.692094 212.673256 
L 86.706639 210.983309 
L 87.721185 215.546816 
L 88.73573 216.466266 
L 89.750276 216.626949 
L 90.764821 216.559108 
L 91.779366 215.143085 
L 93.808457 211.920193 
L 95.837548 209.21789 
L 96.852094 209.090912 
L 97.866639 208.676309 
L 98.881185 208.064524 
L 99.89573 208.124044 
L 100.910276 207.760579 
L 102.939366 208.778269 
L 103.953912 209.03439 
L 104.968457 208.816884 
L 105.983003 209.213505 
L 106.997548 208.938133 
L 109.026639 208.94622 
L 110.041185 208.762394 
L 111.05573 209.070566 
L 112.070276 208.829767 
L 113.084821 209.075618 
L 114.099366 209.702989 
L 115.113912 210.175118 
L 116.128457 209.922469 
L 117.143003 210.140457 
L 118.157548 209.25892 
L 119.172094 208.834913 
L 120.186639 208.741096 
L 121.201185 208.844001 
L 122.21573 208.788547 
L 123.230276 209.679716 
L 124.244821 210.188242 
L 126.273912 210.498428 
L 127.288457 210.843696 
L 128.303003 211.071116 
L 129.317548 211.097699 
L 130.332094 211.349185 
L 131.346639 212.001006 
L 132.361185 212.309192 
L 134.390276 211.516991 
L 135.404821 211.524819 
L 137.433912 210.740519 
L 138.448457 210.64274 
L 139.463003 211.034591 
L 140.477548 210.936686 
L 141.492094 210.997737 
L 142.506639 211.723473 
L 143.521185 211.932148 
L 144.53573 212.008325 
L 145.550276 211.742408 
L 146.564821 211.608223 
L 147.579366 211.25379 
L 149.608457 209.460219 
L 150.623003 209.936271 
L 152.652094 210.139255 
L 153.666639 211.417595 
L 154.681185 212.131126 
L 155.69573 212.045038 
L 156.710276 212.155749 
L 157.724821 212.133931 
L 158.739366 211.757163 
L 159.753912 208.208542 
L 160.768457 205.247465 
L 163.812094 205.678827 
L 164.826639 209.418374 
L 165.841185 212.328711 
L 167.870276 211.678048 
L 169.899366 211.589035 
L 170.913912 211.573391 
L 171.928457 211.742429 
L 172.943003 211.546917 
L 173.957548 212.143828 
L 174.972094 212.369585 
L 175.986639 212.750221 
L 178.01573 213.102201 
L 179.030276 212.755881 
L 182.073912 211.3064 
L 184.103003 211.012398 
L 185.117548 211.151398 
L 186.132094 211.492634 
L 187.146639 211.631567 
L 188.161185 211.573763 
L 189.17573 211.631074 
L 190.190276 211.899386 
L 191.204821 211.904074 
L 192.219366 212.051212 
L 194.248457 212.0457 
L 196.277548 211.666429 
L 197.292094 211.787907 
L 199.321185 211.663507 
L 202.364821 210.919839 
L 205.408457 211.458015 
L 206.423003 211.491103 
L 208.452094 210.819036 
L 209.466639 210.866188 
L 210.481185 210.723433 
L 211.49573 210.716132 
L 213.524821 211.544313 
L 215.553912 211.174632 
L 217.583003 211.113887 
L 218.597548 210.919126 
L 221.641185 211.505472 
L 222.65573 211.475401 
L 225.699366 211.974809 
L 226.713912 211.633318 
L 227.728457 211.0905 
L 228.743003 210.382262 
L 232.801185 192.765739 
L 233.81573 198.029105 
L 234.830276 198.061787 
L 235.844821 196.855686 
L 236.859366 196.621245 
L 238.888457 199.510574 
L 239.903003 200.169105 
L 240.917548 201.929331 
L 241.932094 201.356609 
L 242.946639 200.938511 
L 243.961185 199.431255 
L 244.97573 199.083913 
L 245.990276 198.108449 
L 247.004821 197.723266 
L 248.019366 196.987052 
L 249.033912 197.552032 
L 250.048457 197.450888 
L 251.063003 197.491361 
L 252.077548 196.94364 
L 253.092094 196.556983 
L 254.106639 196.434882 
L 255.121185 197.00824 
L 256.13573 196.619666 
L 257.150276 196.856882 
L 258.164821 197.604209 
L 260.193912 197.516259 
L 261.208457 198.383366 
L 262.223003 199.100939 
L 263.237548 198.777204 
L 264.252094 198.115724 
L 265.266639 197.879391 
L 266.281185 197.169233 
L 267.29573 197.424592 
L 268.310276 197.554659 
L 269.324821 198.578863 
L 270.339366 198.826018 
L 271.353912 199.535084 
L 273.383003 199.317881 
L 274.397548 198.124844 
L 275.412094 197.653277 
L 277.441185 196.314531 
L 278.45573 196.960088 
L 279.470276 198.082908 
L 280.484821 198.724821 
L 281.499366 198.961959 
L 282.513912 199.698665 
L 283.528457 199.499151 
L 285.557548 199.897379 
L 286.572094 200.362109 
L 287.586639 200.04437 
L 288.601185 199.120815 
L 289.61573 198.443419 
L 291.644821 197.766448 
L 292.659366 197.661643 
L 293.673912 198.06441 
L 294.688457 198.277938 
L 296.717548 197.690654 
L 297.732094 197.552946 
L 298.746639 198.093163 
L 299.761185 197.907812 
L 300.77573 197.854702 
L 301.790276 198.331129 
L 302.804821 198.299001 
L 303.819366 197.921521 
L 304.833912 197.259191 
L 305.848457 197.624776 
L 306.863003 196.603102 
L 308.892094 195.873784 
L 309.906639 196.452966 
L 310.921185 195.599745 
L 311.93573 196.088539 
L 312.950276 196.315808 
L 313.964821 196.298718 
L 314.979366 195.604292 
L 315.993912 195.273957 
L 318.023003 193.578546 
L 319.037548 193.170246 
L 320.052094 192.504516 
L 321.066639 192.669138 
L 322.081185 193.671668 
L 325.124821 195.796624 
L 326.139366 196.074769 
L 328.168457 194.136447 
L 330.197548 193.093537 
L 331.212094 192.383967 
L 332.226639 191.86439 
L 333.241185 191.489192 
L 335.270276 189.658265 
L 336.284821 189.400891 
L 338.313912 189.97721 
L 339.328457 189.696922 
L 340.343003 190.07576 
L 341.357548 190.313649 
L 343.386639 189.870956 
L 344.401185 189.622268 
L 346.430276 188.50906 
L 347.444821 188.501978 
L 348.459366 188.28027 
L 349.473912 188.553055 
L 350.488457 188.657731 
L 352.517548 188.287243 
L 353.532094 188.575139 
L 354.546639 188.166938 
L 355.561185 187.916653 
L 356.57573 187.272323 
L 357.590276 186.876285 
L 358.604821 186.347544 
L 361.648457 185.929609 
L 362.663003 185.457781 
L 363.677548 185.415774 
L 364.692094 185.537068 
L 365.706639 185.898635 
L 366.721185 185.915909 
L 367.73573 185.74028 
L 369.764821 184.716005 
L 370.779366 183.773034 
L 371.793912 183.527772 
L 372.808457 183.82925 
L 373.823003 183.908692 
L 374.837548 184.446092 
L 376.866639 187.374276 
L 378.89573 188.632726 
L 379.910276 188.374716 
L 380.924821 187.64831 
L 380.924821 187.64831 
" clip-path="url(#pa9682ac74e)" style="fill: none; stroke: #d55e00; stroke-width: 1.5; stroke-linecap: round"/>
   </g>
   <g id="line2d_27">
    <path d="M 80.619366 228.178833 
L 81.633912 228.575844 
L 82.648457 226.488285 
L 84.677548 225.79095 
L 85.692094 225.912153 
L 86.706639 225.194184 
L 87.721185 226.886934 
L 88.73573 227.153602 
L 89.750276 226.856572 
L 90.764821 226.416501 
L 91.779366 226.179205 
L 92.793912 225.598241 
L 93.808457 224.7582 
L 94.823003 224.70127 
L 95.837548 224.141916 
L 96.852094 224.01658 
L 97.866639 224.259654 
L 98.881185 224.188687 
L 99.89573 224.232407 
L 100.910276 224.451134 
L 102.939366 223.818947 
L 103.953912 223.99042 
L 104.968457 223.751205 
L 105.983003 223.734275 
L 106.997548 223.939557 
L 108.012094 223.91719 
L 109.026639 223.598234 
L 110.041185 223.494973 
L 112.070276 223.730305 
L 113.084821 223.704888 
L 114.099366 224.279137 
L 116.128457 224.201173 
L 117.143003 223.917417 
L 118.157548 223.79616 
L 119.172094 223.288533 
L 121.201185 223.112731 
L 122.21573 223.51825 
L 123.230276 223.756006 
L 125.259366 223.855395 
L 126.273912 223.755464 
L 128.303003 223.951743 
L 129.317548 224.154657 
L 130.332094 224.576475 
L 131.346639 224.776141 
L 135.404821 224.903706 
L 138.448457 224.618386 
L 139.463003 224.550133 
L 140.477548 224.075358 
L 141.492094 224.09959 
L 142.506639 224.321278 
L 143.521185 224.419755 
L 146.564821 225.183756 
L 147.579366 225.114554 
L 149.608457 224.860235 
L 150.623003 224.999083 
L 151.637548 224.894731 
L 152.652094 225.046895 
L 153.666639 225.571083 
L 154.681185 225.585713 
L 155.69573 225.714456 
L 156.710276 225.714943 
L 157.724821 225.576464 
L 158.739366 225.250526 
L 159.753912 225.291105 
L 160.768457 225.092919 
L 161.783003 225.082041 
L 163.812094 225.506818 
L 168.884821 226.027151 
L 174.972094 225.622798 
L 175.986639 225.954706 
L 178.01573 226.14832 
L 180.044821 226.140324 
L 181.059366 225.922356 
L 182.073912 225.828783 
L 183.088457 226.009137 
L 184.103003 226.005209 
L 186.132094 226.377131 
L 188.161185 226.47245 
L 189.17573 226.450591 
L 190.190276 226.139807 
L 191.204821 226.001389 
L 192.219366 226.071716 
L 193.233912 225.93258 
L 194.248457 225.948954 
L 195.263003 226.240519 
L 196.277548 226.363118 
L 203.379366 226.217128 
L 205.408457 226.372934 
L 209.466639 226.097112 
L 210.481185 226.008196 
L 211.49573 225.765128 
L 212.510276 225.64578 
L 213.524821 225.685625 
L 215.553912 226.047815 
L 217.583003 226.606822 
L 219.612094 226.675178 
L 222.65573 226.603312 
L 223.670276 226.391754 
L 226.713912 226.332495 
L 228.743003 225.112693 
L 232.801185 200.036905 
L 233.81573 198.75052 
L 234.830276 198.757599 
L 235.844821 200.177021 
L 236.859366 201.894556 
L 237.873912 203.010086 
L 238.888457 205.322277 
L 239.903003 206.648218 
L 241.932094 208.218069 
L 242.946639 207.206331 
L 243.961185 205.191903 
L 245.990276 204.288423 
L 247.004821 204.213988 
L 248.019366 204.784381 
L 250.048457 204.984365 
L 251.063003 204.67685 
L 252.077548 202.997646 
L 253.092094 201.816658 
L 254.106639 202.836057 
L 255.121185 203.443175 
L 256.13573 203.275204 
L 257.150276 204.220635 
L 258.164821 204.830696 
L 259.179366 204.593268 
L 260.193912 204.222943 
L 262.223003 206.265818 
L 263.237548 206.680649 
L 264.252094 206.386301 
L 265.266639 206.774053 
L 268.310276 205.793134 
L 269.324821 206.718069 
L 270.339366 207.397825 
L 271.353912 208.212548 
L 272.368457 208.045079 
L 273.383003 208.853456 
L 274.397548 208.519403 
L 275.412094 207.872734 
L 276.426639 207.392312 
L 277.441185 208.05184 
L 278.45573 207.7696 
L 279.470276 208.30621 
L 280.484821 209.31931 
L 281.499366 209.911211 
L 283.528457 210.366564 
L 284.543003 210.309068 
L 285.557548 209.810634 
L 286.572094 209.562238 
L 287.586639 209.120493 
L 288.601185 208.841836 
L 289.61573 209.128036 
L 290.630276 209.849215 
L 294.688457 212.049812 
L 295.703003 211.701156 
L 297.732094 211.823629 
L 298.746639 212.172268 
L 299.761185 211.859989 
L 300.77573 212.326552 
L 301.790276 212.124741 
L 304.833912 212.69476 
L 305.848457 212.610758 
L 306.863003 212.678636 
L 307.877548 212.603981 
L 310.921185 212.894621 
L 312.950276 213.524562 
L 313.964821 213.597483 
L 314.979366 213.311453 
L 315.993912 213.183292 
L 317.008457 212.569392 
L 318.023003 212.189356 
L 319.037548 212.063558 
L 321.066639 212.134155 
L 322.081185 212.806645 
L 324.110276 212.892509 
L 326.139366 213.455173 
L 327.153912 213.413279 
L 328.168457 213.888138 
L 329.183003 214.030309 
L 330.197548 213.641429 
L 331.212094 213.434979 
L 334.25573 213.383858 
L 335.270276 214.011617 
L 337.299366 214.513385 
L 339.328457 214.609492 
L 341.357548 213.997133 
L 343.386639 213.869511 
L 345.41573 214.745237 
L 346.430276 215.258631 
L 348.459366 215.214048 
L 349.473912 214.692196 
L 350.488457 214.4502 
L 351.503003 214.006162 
L 352.517548 213.902959 
L 353.532094 214.039133 
L 355.561185 214.065844 
L 356.57573 214.644579 
L 358.604821 214.893817 
L 359.619366 215.432247 
L 360.633912 215.534391 
L 361.648457 215.425131 
L 362.663003 215.632311 
L 363.677548 215.717439 
L 364.692094 215.622044 
L 365.706639 216.103579 
L 367.73573 218.022915 
L 369.764821 219.099404 
L 370.779366 219.236794 
L 371.793912 218.921749 
L 372.808457 218.735778 
L 373.823003 218.909473 
L 375.852094 218.999275 
L 377.881185 219.501171 
L 378.89573 219.129724 
L 379.910276 218.316427 
L 380.924821 217.707961 
L 380.924821 217.707961 
" clip-path="url(#pa9682ac74e)" style="fill: none; stroke: #cc78bc; stroke-width: 1.5; stroke-linecap: round"/>
   </g>
   <g id="line2d_28">
    <path d="M 80.619366 230.321993 
L 81.633912 229.483875 
L 82.648457 227.639241 
L 83.663003 225.488808 
L 84.677548 223.663173 
L 86.706639 220.655944 
L 87.721185 220.621436 
L 88.73573 220.357778 
L 89.750276 219.532252 
L 90.764821 219.098719 
L 91.779366 218.386788 
L 92.793912 216.998969 
L 93.808457 215.374835 
L 94.823003 214.68163 
L 95.837548 213.837673 
L 96.852094 213.635838 
L 97.866639 212.931649 
L 98.881185 213.716959 
L 99.89573 213.595527 
L 101.924821 212.649079 
L 102.939366 212.642236 
L 103.953912 212.084801 
L 104.968457 211.849811 
L 105.983003 211.48377 
L 106.997548 211.238836 
L 109.026639 211.391563 
L 111.05573 211.029511 
L 112.070276 211.70429 
L 114.099366 211.060305 
L 115.113912 211.038373 
L 116.128457 211.478089 
L 117.143003 211.387425 
L 119.172094 212.098913 
L 120.186639 211.93705 
L 121.201185 211.261765 
L 122.21573 211.763424 
L 123.230276 212.40357 
L 124.244821 212.179834 
L 125.259366 212.568634 
L 126.273912 213.575303 
L 127.288457 213.153745 
L 128.303003 212.572578 
L 129.317548 213.070623 
L 130.332094 213.238587 
L 131.346639 213.221379 
L 132.361185 213.046025 
L 133.37573 213.355046 
L 136.419366 212.469829 
L 137.433912 212.735149 
L 138.448457 212.544101 
L 139.463003 209.022629 
L 140.477548 206.607984 
L 141.492094 206.137865 
L 143.521185 206.285461 
L 144.53573 209.667273 
L 145.550276 212.48878 
L 146.564821 213.004602 
L 148.593912 212.829504 
L 149.608457 213.203774 
L 151.637548 212.70947 
L 152.652094 212.477747 
L 153.666639 212.514468 
L 154.681185 212.10845 
L 155.69573 212.235885 
L 157.724821 211.991777 
L 158.739366 211.996725 
L 159.753912 212.526578 
L 160.768457 212.766972 
L 161.783003 213.134427 
L 163.812094 213.409092 
L 165.841185 212.647011 
L 166.85573 212.639557 
L 167.870276 212.471547 
L 168.884821 212.079894 
L 170.913912 211.775783 
L 171.928457 211.172477 
L 172.943003 210.816719 
L 173.957548 210.788329 
L 174.972094 210.494815 
L 175.986639 210.376479 
L 177.001185 210.605495 
L 178.01573 210.647342 
L 179.030276 210.154555 
L 180.044821 210.1011 
L 181.059366 210.422533 
L 183.088457 209.889986 
L 185.117548 210.260983 
L 186.132094 209.79427 
L 188.161185 210.247646 
L 190.190276 210.409297 
L 191.204821 210.276563 
L 192.219366 209.614329 
L 195.263003 209.282891 
L 196.277548 209.532211 
L 197.292094 209.538294 
L 199.321185 209.035112 
L 200.33573 208.678483 
L 201.350276 207.852652 
L 202.364821 207.480178 
L 204.393912 206.993742 
L 205.408457 206.747552 
L 206.423003 206.776368 
L 207.437548 206.27869 
L 208.452094 206.249052 
L 209.466639 206.418546 
L 211.49573 206.229709 
L 212.510276 206.885851 
L 213.524821 206.749228 
L 214.539366 206.363478 
L 215.553912 206.291541 
L 216.568457 206.050075 
L 218.597548 205.183016 
L 219.612094 205.027138 
L 220.626639 204.693847 
L 222.65573 204.588063 
L 224.684821 205.017458 
L 225.699366 205.13567 
L 226.713912 204.697051 
L 228.743003 202.989195 
L 232.801185 188.599275 
L 233.81573 181.968432 
L 235.844821 165.5232 
L 236.859366 165.928675 
L 237.873912 165.289825 
L 238.888457 165.026971 
L 240.917548 172.893078 
L 241.932094 174.987611 
L 242.946639 171.337657 
L 244.97573 168.055301 
L 245.990276 165.949814 
L 247.004821 165.080942 
L 248.019366 166.046598 
L 249.033912 166.004464 
L 250.048457 165.414236 
L 251.063003 164.490884 
L 252.077548 163.243372 
L 253.092094 163.29552 
L 254.106639 164.53798 
L 255.121185 164.629913 
L 256.13573 166.647543 
L 257.150276 167.974961 
L 258.164821 168.853232 
L 259.179366 168.759089 
L 260.193912 170.621907 
L 261.208457 169.822415 
L 262.223003 169.644743 
L 263.237548 169.340002 
L 265.266639 168.935994 
L 266.281185 170.478919 
L 267.29573 171.713667 
L 268.310276 172.700612 
L 269.324821 173.301222 
L 270.339366 173.06166 
L 271.353912 172.517467 
L 272.368457 173.210898 
L 273.383003 173.651719 
L 274.397548 174.781143 
L 275.412094 175.292203 
L 276.426639 175.629225 
L 277.441185 175.413309 
L 278.45573 176.004996 
L 279.470276 175.537867 
L 280.484821 175.991329 
L 282.513912 175.56016 
L 283.528457 174.680485 
L 284.543003 175.128746 
L 285.557548 174.941999 
L 286.572094 175.111205 
L 287.586639 174.979008 
L 288.601185 175.89026 
L 289.61573 176.2952 
L 290.630276 177.08233 
L 291.644821 177.700619 
L 292.659366 178.474894 
L 293.673912 178.240262 
L 295.703003 178.265372 
L 296.717548 179.050723 
L 297.732094 179.0816 
L 298.746639 177.931161 
L 299.761185 178.103059 
L 300.77573 178.479142 
L 301.790276 177.793468 
L 302.804821 178.397812 
L 303.819366 179.678691 
L 304.833912 179.785142 
L 305.848457 179.717854 
L 306.863003 179.990556 
L 307.877548 179.856593 
L 308.892094 179.347667 
L 310.921185 178.724318 
L 311.93573 178.94804 
L 312.950276 178.794217 
L 313.964821 179.80331 
L 315.993912 180.003826 
L 317.008457 180.313105 
L 318.023003 180.431011 
L 319.037548 179.723533 
L 320.052094 179.835519 
L 321.066639 179.46981 
L 322.081185 179.238989 
L 324.110276 178.101542 
L 325.124821 177.550583 
L 326.139366 178.106449 
L 327.153912 177.850413 
L 328.168457 178.019887 
L 329.183003 179.40896 
L 330.197548 180.123909 
L 331.212094 180.080467 
L 332.226639 180.400832 
L 333.241185 180.236032 
L 334.25573 179.387472 
L 336.284821 178.265482 
L 338.313912 178.420473 
L 340.343003 177.779001 
L 341.357548 178.014176 
L 344.401185 176.721945 
L 345.41573 176.555174 
L 346.430276 176.825584 
L 347.444821 176.802431 
L 348.459366 176.569715 
L 350.488457 177.064658 
L 351.503003 175.877494 
L 352.517548 175.34459 
L 353.532094 175.163527 
L 354.546639 174.521539 
L 355.561185 174.167633 
L 357.590276 174.895304 
L 358.604821 174.944969 
L 359.619366 175.658863 
L 360.633912 175.2504 
L 361.648457 174.42514 
L 362.663003 173.906772 
L 363.677548 174.249775 
L 364.692094 173.421577 
L 365.706639 173.426353 
L 366.721185 173.982278 
L 367.73573 174.260529 
L 368.750276 173.67902 
L 369.764821 173.730388 
L 370.779366 173.399494 
L 371.793912 173.589077 
L 372.808457 173.613294 
L 373.823003 174.043898 
L 374.837548 174.636809 
L 375.852094 175.876748 
L 376.866639 176.490113 
L 377.881185 176.324073 
L 378.89573 176.308359 
L 379.910276 175.996422 
L 380.924821 174.586977 
L 380.924821 174.586977 
" clip-path="url(#pa9682ac74e)" style="fill: none; stroke: #ca9161; stroke-width: 1.5; stroke-linecap: round"/>
   </g>
   <g id="line2d_29"/>
   <g id="line2d_30"/>
   <g id="line2d_31"/>
   <g id="line2d_32"/>
   <g id="line2d_33"/>
   <g id="line2d_34"/>
   <g id="line2d_35">
    <path d="M 231.279366 233.290477 
L 231.279366 11.530477 
" clip-path="url(#pa9682ac74e)" style="fill: none; stroke: #ffffff; stroke-opacity: 0.7; stroke-width: 3; stroke-linecap: round"/>
   </g>
   <g id="patch_3">
    <path d="M 63.372094 233.290477 
L 63.372094 11.530477 
" style="fill: none; stroke: #262626; stroke-width: 1.25; stroke-linejoin: miter; stroke-linecap: square"/>
   </g>
   <g id="patch_4">
    <path d="M 63.372094 233.290477 
L 398.172094 233.290477 
" style="fill: none; stroke: #262626; stroke-width: 1.25; stroke-linejoin: miter; stroke-linecap: square"/>
   </g>
   <g id="line2d_36">
    <path d="M 231.279366 233.290477 
L 231.279366 11.530477 
" clip-path="url(#pa9682ac74e)" style="fill: none; stroke-dasharray: 1.5,2.475; stroke-dashoffset: 0; stroke: #1a1a1a; stroke-width: 1.5"/>
   </g>
   <g id="legend_1">
    <g id="line2d_37">
     <path d="M 165.099625 26.993898 
L 177.199625 26.993898 
L 189.299625 26.993898 
" style="fill: none; stroke: #0173b2; stroke-width: 1.5; stroke-linecap: round"/>
    </g>
    <g id="text_19">
     <text style="fill: #262626; font: 12.1px 'Arial', 'DejaVu Sans', 'Liberation Sans', 'Bitstream Vera Sans', sans-serif; text-anchor: start" x="198.979625" y="31.228898" transform="rotate(-0 198.979625 31.228898)">GIAB - HG002 Long Insert (CB)</text>
    </g>
    <g id="line2d_38">
     <path d="M 165.099625 44.398992 
L 177.199625 44.398992 
L 189.299625 44.398992 
" style="fill: none; stroke: #de8f05; stroke-width: 1.5; stroke-linecap: round"/>
    </g>
    <g id="text_20">
     <text style="fill: #262626; font: 12.1px 'Arial', 'DejaVu Sans', 'Liberation Sans', 'Bitstream Vera Sans', sans-serif; text-anchor: start" x="198.979625" y="48.633992" transform="rotate(-0 198.979625 48.633992)">GIAB - HG002 Std Insert (CB)</text>
    </g>
    <g id="line2d_39">
     <path d="M 165.099625 61.804086 
L 177.199625 61.804086 
L 189.299625 61.804086 
" style="fill: none; stroke: #029e73; stroke-width: 1.5; stroke-linecap: round"/>
    </g>
    <g id="text_21">
     <text style="fill: #262626; font: 12.1px 'Arial', 'DejaVu Sans', 'Liberation Sans', 'Bitstream Vera Sans', sans-serif; text-anchor: start" x="198.979625" y="66.039086" transform="rotate(-0 198.979625 66.039086)">Arslan et al. 2024 - HG002 (CB)</text>
    </g>
    <g id="line2d_40">
     <path d="M 165.099625 79.20918 
L 177.199625 79.20918 
L 189.299625 79.20918 
" style="fill: none; stroke: #d55e00; stroke-width: 1.5; stroke-linecap: round"/>
    </g>
    <g id="text_22">
     <text style="fill: #262626; font: 12.1px 'Arial', 'DejaVu Sans', 'Liberation Sans', 'Bitstream Vera Sans', sans-serif; text-anchor: start" x="198.979625" y="83.44418" transform="rotate(-0 198.979625 83.44418)">Platinum Pedigree - NA12878 (CB)</text>
    </g>
    <g id="line2d_41">
     <path d="M 165.099625 96.614273 
L 177.199625 96.614273 
L 189.299625 96.614273 
" style="fill: none; stroke: #cc78bc; stroke-width: 1.5; stroke-linecap: round"/>
    </g>
    <g id="text_23">
     <text style="fill: #262626; font: 12.1px 'Arial', 'DejaVu Sans', 'Liberation Sans', 'Bitstream Vera Sans', sans-serif; text-anchor: start" x="198.979625" y="100.849273" transform="rotate(-0 198.979625 100.849273)">GIAB - HG008-N-D (CB)</text>
    </g>
    <g id="line2d_42">
     <path d="M 165.099625 114.019367 
L 177.199625 114.019367 
L 189.299625 114.019367 
" style="fill: none; stroke: #ca9161; stroke-width: 1.5; stroke-linecap: round"/>
    </g>
    <g id="text_24">
     <text style="fill: #262626; font: 12.1px 'Arial', 'DejaVu Sans', 'Liberation Sans', 'Bitstream Vera Sans', sans-serif; text-anchor: start" x="198.979625" y="118.254367" transform="rotate(-0 198.979625 118.254367)">Element Bio - HG002 (CB FS)</text>
    </g>
   </g>
  </g>
 </g>
 <defs>
  <clipPath id="pa9682ac74e">
   <rect x="63.372094" y="11.530477" width="334.8" height="221.76"/>
  </clipPath>
 </defs>
</svg>
