<?xml version="1.0" encoding="utf-8" standalone="no"?>
<!DOCTYPE svg PUBLIC "-//W3C//DTD SVG 1.1//EN"
  "http://www.w3.org/Graphics/SVG/1.1/DTD/svg11.dtd">
<svg xmlns:xlink="http://www.w3.org/1999/xlink" width="391.914625pt" height="273.113203pt" viewBox="0 0 391.914625 273.113203" xmlns="http://www.w3.org/2000/svg" version="1.1">
 <metadata>
  <rdf:RDF xmlns:dc="http://purl.org/dc/elements/1.1/" xmlns:cc="http://creativecommons.org/ns#" xmlns:rdf="http://www.w3.org/1999/02/22-rdf-syntax-ns#">
   <cc:Work>
    <dc:type rdf:resource="http://purl.org/dc/dcmitype/StillImage"/>
    <dc:date>2026-01-12T15:42:52.205622</dc:date>
    <dc:format>image/svg+xml</dc:format>
    <dc:creator>
     <cc:Agent>
      <dc:title>Matplotlib v3.9.2, https://matplotlib.org/</dc:title>
     </cc:Agent>
    </dc:creator>
   </cc:Work>
  </rdf:RDF>
 </metadata>
 <defs>
  <style type="text/css">*{stroke-linejoin: round; stroke-linecap: butt}</style>
 </defs>
 <g id="figure_1">
  <g id="patch_1">
   <path d="M 0 273.113203 
L 391.914625 273.113203 
L 391.914625 0 
L 0 0 
L 0 273.113203 
z
" style="fill: none"/>
  </g>
  <g id="axes_1">
   <g id="patch_2">
    <path d="M 49.914625 228.96 
L 384.714625 228.96 
L 384.714625 7.2 
L 49.914625 7.2 
L 49.914625 228.96 
z
" style="fill: none"/>
   </g>
   <g id="matplotlib.axis_1">
    <g id="xtick_1">
     <g id="line2d_1">
      <defs>
       <path id="m7a8e4ebe02" d="M 0 0 
L 0 6 
" style="stroke: #262626; stroke-width: 1.25"/>
      </defs>
      <g>
       <use xlink:href="#m7a8e4ebe02" x="65.132807" y="228.96" style="fill: #262626; stroke: #262626; stroke-width: 1.25"/>
      </g>
     </g>
     <g id="text_1">
      <text style="fill: #262626; font: 12.1px 'Arial', 'DejaVu Sans', 'Liberation Sans', 'Bitstream Vera Sans', sans-serif; text-anchor: middle" x="65.132807" y="247.120953" transform="rotate(-0 65.132807 247.120953)">0</text>
     </g>
    </g>
    <g id="xtick_2">
     <g id="line2d_2">
      <g>
       <use xlink:href="#m7a8e4ebe02" x="115.86008" y="228.96" style="fill: #262626; stroke: #262626; stroke-width: 1.25"/>
      </g>
     </g>
     <g id="text_2">
      <text style="fill: #262626; font: 12.1px 'Arial', 'DejaVu Sans', 'Liberation Sans', 'Bitstream Vera Sans', sans-serif; text-anchor: middle" x="115.86008" y="247.120953" transform="rotate(-0 115.86008 247.120953)">50</text>
     </g>
    </g>
    <g id="xtick_3">
     <g id="line2d_3">
      <g>
       <use xlink:href="#m7a8e4ebe02" x="166.587352" y="228.96" style="fill: #262626; stroke: #262626; stroke-width: 1.25"/>
      </g>
     </g>
     <g id="text_3">
      <text style="fill: #262626; font: 12.1px 'Arial', 'DejaVu Sans', 'Liberation Sans', 'Bitstream Vera Sans', sans-serif; text-anchor: middle" x="166.587352" y="247.120953" transform="rotate(-0 166.587352 247.120953)">100</text>
     </g>
    </g>
    <g id="xtick_4">
     <g id="line2d_4">
      <g>
       <use xlink:href="#m7a8e4ebe02" x="217.314625" y="228.96" style="fill: #262626; stroke: #262626; stroke-width: 1.25"/>
      </g>
     </g>
     <g id="text_4">
      <text style="fill: #262626; font: 12.1px 'Arial', 'DejaVu Sans', 'Liberation Sans', 'Bitstream Vera Sans', sans-serif; text-anchor: middle" x="217.314625" y="247.120953" transform="rotate(-0 217.314625 247.120953)">150</text>
     </g>
    </g>
    <g id="xtick_5">
     <g id="line2d_5">
      <g>
       <use xlink:href="#m7a8e4ebe02" x="268.041898" y="228.96" style="fill: #262626; stroke: #262626; stroke-width: 1.25"/>
      </g>
     </g>
     <g id="text_5">
      <text style="fill: #262626; font: 12.1px 'Arial', 'DejaVu Sans', 'Liberation Sans', 'Bitstream Vera Sans', sans-serif; text-anchor: middle" x="268.041898" y="247.120953" transform="rotate(-0 268.041898 247.120953)">200</text>
     </g>
    </g>
    <g id="xtick_6">
     <g id="line2d_6">
      <g>
       <use xlink:href="#m7a8e4ebe02" x="318.76917" y="228.96" style="fill: #262626; stroke: #262626; stroke-width: 1.25"/>
      </g>
     </g>
     <g id="text_6">
      <text style="fill: #262626; font: 12.1px 'Arial', 'DejaVu Sans', 'Liberation Sans', 'Bitstream Vera Sans', sans-serif; text-anchor: middle" x="318.76917" y="247.120953" transform="rotate(-0 318.76917 247.120953)">250</text>
     </g>
    </g>
    <g id="xtick_7">
     <g id="line2d_7">
      <g>
       <use xlink:href="#m7a8e4ebe02" x="369.496443" y="228.96" style="fill: #262626; stroke: #262626; stroke-width: 1.25"/>
      </g>
     </g>
     <g id="text_7">
      <text style="fill: #262626; font: 12.1px 'Arial', 'DejaVu Sans', 'Liberation Sans', 'Bitstream Vera Sans', sans-serif; text-anchor: middle" x="369.496443" y="247.120953" transform="rotate(-0 369.496443 247.120953)">300</text>
     </g>
    </g>
    <g id="text_8">
     <text style="fill: #262626; font: 13.2px 'Arial', 'DejaVu Sans', 'Liberation Sans', 'Bitstream Vera Sans', sans-serif; text-anchor: middle" x="217.314625" y="263.135016" transform="rotate(-0 217.314625 263.135016)">Cycle</text>
    </g>
   </g>
   <g id="matplotlib.axis_2">
    <g id="ytick_1">
     <g id="line2d_8">
      <defs>
       <path id="mc80a309108" d="M 0 0 
L -6 0 
" style="stroke: #262626; stroke-width: 1.25"/>
      </defs>
      <g>
       <use xlink:href="#mc80a309108" x="49.914625" y="228.96" style="fill: #262626; stroke: #262626; stroke-width: 1.25"/>
      </g>
     </g>
     <g id="text_9">
      <text style="fill: #262626; font: 12.1px 'Arial', 'DejaVu Sans', 'Liberation Sans', 'Bitstream Vera Sans', sans-serif; text-anchor: end" x="40.414625" y="233.290477" transform="rotate(-0 40.414625 233.290477)">0.0</text>
     </g>
    </g>
    <g id="ytick_2">
     <g id="line2d_9">
      <g>
       <use xlink:href="#mc80a309108" x="49.914625" y="181.965649" style="fill: #262626; stroke: #262626; stroke-width: 1.25"/>
      </g>
     </g>
     <g id="text_10">
      <text style="fill: #262626; font: 12.1px 'Arial', 'DejaVu Sans', 'Liberation Sans', 'Bitstream Vera Sans', sans-serif; text-anchor: end" x="40.414625" y="186.296125" transform="rotate(-0 40.414625 186.296125)">0.2</text>
     </g>
    </g>
    <g id="ytick_3">
     <g id="line2d_10">
      <g>
       <use xlink:href="#mc80a309108" x="49.914625" y="134.971297" style="fill: #262626; stroke: #262626; stroke-width: 1.25"/>
      </g>
     </g>
     <g id="text_11">
      <text style="fill: #262626; font: 12.1px 'Arial', 'DejaVu Sans', 'Liberation Sans', 'Bitstream Vera Sans', sans-serif; text-anchor: end" x="40.414625" y="139.301774" transform="rotate(-0 40.414625 139.301774)">0.4</text>
     </g>
    </g>
    <g id="ytick_4">
     <g id="line2d_11">
      <g>
       <use xlink:href="#mc80a309108" x="49.914625" y="87.976946" style="fill: #262626; stroke: #262626; stroke-width: 1.25"/>
      </g>
     </g>
     <g id="text_12">
      <text style="fill: #262626; font: 12.1px 'Arial', 'DejaVu Sans', 'Liberation Sans', 'Bitstream Vera Sans', sans-serif; text-anchor: end" x="40.414625" y="92.307423" transform="rotate(-0 40.414625 92.307423)">0.6</text>
     </g>
    </g>
    <g id="ytick_5">
     <g id="line2d_12">
      <g>
       <use xlink:href="#mc80a309108" x="49.914625" y="40.982595" style="fill: #262626; stroke: #262626; stroke-width: 1.25"/>
      </g>
     </g>
     <g id="text_13">
      <text style="fill: #262626; font: 12.1px 'Arial', 'DejaVu Sans', 'Liberation Sans', 'Bitstream Vera Sans', sans-serif; text-anchor: end" x="40.414625" y="45.313071" transform="rotate(-0 40.414625 45.313071)">0.8</text>
     </g>
    </g>
    <g id="text_14">
     <text style="fill: #262626; font: 13.2px 'Arial', 'DejaVu Sans', 'Liberation Sans', 'Bitstream Vera Sans', sans-serif; text-anchor: middle" x="16.817438" y="118.08" transform="rotate(-90 16.817438 118.08)">Overlap-based error rate (%)</text>
    </g>
   </g>
   <g id="PolyCollection_1">
    <defs>
     <path id="m4946ef125b" d="M 217.314625 -103.54977 
L 217.314625 -52.827385 
L 217.314625 -103.54977 
L 217.314625 -103.54977 
z
" style="stroke: #0173b2; stroke-opacity: 0.2"/>
    </defs>
    <g clip-path="url(#p2cee218f07)">
     <use xlink:href="#m4946ef125b" x="0" y="273.113203" style="fill: #0173b2; fill-opacity: 0.2; stroke: #0173b2; stroke-opacity: 0.2"/>
    </g>
   </g>
   <g id="PolyCollection_2">
    <defs>
     <path id="m887004a825" d="M 217.314625 -48.8544 
L 217.314625 -48.667571 
L 217.314625 -48.8544 
L 217.314625 -48.8544 
z
" style="stroke: #de8f05; stroke-opacity: 0.2"/>
    </defs>
    <g clip-path="url(#p2cee218f07)">
     <use xlink:href="#m887004a825" x="0" y="273.113203" style="fill: #de8f05; fill-opacity: 0.2; stroke: #de8f05; stroke-opacity: 0.2"/>
    </g>
   </g>
   <g id="PolyCollection_3">
    <defs>
     <path id="m9a7597ed23" d="M 217.314625 -53.424732 
L 217.314625 -46.704649 
L 217.314625 -53.424732 
L 217.314625 -53.424732 
z
" style="stroke: #029e73; stroke-opacity: 0.2"/>
    </defs>
    <g clip-path="url(#p2cee218f07)">
     <use xlink:href="#m9a7597ed23" x="0" y="273.113203" style="fill: #029e73; fill-opacity: 0.2; stroke: #029e73; stroke-opacity: 0.2"/>
    </g>
   </g>
   <g id="PolyCollection_4">
    <defs>
     <path id="m797c5dbeb4" d="M 217.314625 -57.377464 
L 217.314625 -49.509934 
L 217.314625 -57.377464 
L 217.314625 -57.377464 
z
" style="stroke: #d55e00; stroke-opacity: 0.2"/>
    </defs>
    <g clip-path="url(#p2cee218f07)">
     <use xlink:href="#m797c5dbeb4" x="0" y="273.113203" style="fill: #d55e00; fill-opacity: 0.2; stroke: #d55e00; stroke-opacity: 0.2"/>
    </g>
   </g>
   <g id="PolyCollection_5">
    <defs>
     <path id="m7eb25f9a02" d="M 217.314625 -49.960352 
L 217.314625 -46.317868 
L 217.314625 -49.960352 
L 217.314625 -49.960352 
z
" style="stroke: #cc78bc; stroke-opacity: 0.2"/>
    </defs>
    <g clip-path="url(#p2cee218f07)">
     <use xlink:href="#m7eb25f9a02" x="0" y="273.113203" style="fill: #cc78bc; fill-opacity: 0.2; stroke: #cc78bc; stroke-opacity: 0.2"/>
    </g>
   </g>
   <g id="PolyCollection_6"/>
   <g id="PolyCollection_7"/>
   <g id="PolyCollection_8"/>
   <g id="PolyCollection_9"/>
   <g id="PolyCollection_10"/>
   <g id="line2d_13">
    <path d="M 65.132807 227.327912 
L 66.147352 224.899487 
L 67.161898 223.662026 
L 68.176443 226.684937 
L 69.190989 223.203475 
L 70.205534 224.558543 
L 71.22008 224.629978 
L 72.234625 220.133226 
L 73.24917 220.885677 
L 74.263716 224.248078 
L 75.278261 223.451989 
L 76.292807 222.392555 
L 77.307352 222.484855 
L 78.321898 220.639765 
L 79.336443 223.216173 
L 80.350989 218.921602 
L 81.365534 220.084006 
L 82.38008 214.595472 
L 83.394625 215.063483 
L 84.40917 216.012614 
L 85.423716 214.910179 
L 86.438261 214.546416 
L 87.452807 213.707776 
L 88.467352 211.178193 
L 89.481898 212.189324 
L 90.496443 212.372571 
L 92.525534 212.285843 
L 93.54008 209.685554 
L 94.554625 211.035329 
L 95.56917 211.684002 
L 96.583716 212.788973 
L 97.598261 216.063148 
L 98.612807 214.653256 
L 99.627352 210.648814 
L 100.641898 211.469753 
L 101.656443 211.209173 
L 102.670989 212.239948 
L 103.685534 211.321369 
L 104.70008 209.201191 
L 105.714625 209.798815 
L 106.72917 215.293396 
L 107.743716 211.548386 
L 108.758261 209.482432 
L 109.772807 208.473539 
L 110.787352 210.775473 
L 111.801898 210.931076 
L 112.816443 207.765096 
L 113.830989 207.728252 
L 114.845534 210.189228 
L 115.86008 210.525477 
L 116.874625 211.277534 
L 117.88917 205.447149 
L 118.903716 212.841299 
L 119.918261 211.152851 
L 120.932807 212.399108 
L 121.947352 212.325343 
L 122.961898 209.409064 
L 123.976443 207.591161 
L 124.990989 213.077449 
L 126.005534 213.367746 
L 127.02008 210.198948 
L 128.034625 211.358732 
L 129.04917 214.24357 
L 130.063716 214.165217 
L 131.078261 213.435611 
L 132.092807 214.900659 
L 133.107352 212.317998 
L 134.121898 210.782413 
L 135.136443 214.012687 
L 136.150989 212.135467 
L 137.165534 215.00806 
L 138.18008 213.328413 
L 139.194625 216.301524 
L 140.20917 213.374733 
L 141.223716 211.429744 
L 142.238261 214.993482 
L 143.252807 215.08439 
L 144.267352 211.746974 
L 145.281898 214.947464 
L 146.296443 213.169505 
L 147.310989 214.761757 
L 148.325534 215.011489 
L 149.34008 212.265897 
L 150.354625 214.463043 
L 151.36917 216.193749 
L 152.383716 215.823356 
L 153.398261 216.760242 
L 154.412807 216.84256 
L 155.427352 212.97523 
L 157.456443 216.736493 
L 158.470989 217.67228 
L 159.485534 216.030337 
L 160.50008 217.238456 
L 161.514625 216.591438 
L 162.52917 217.76167 
L 163.543716 218.26134 
L 164.558261 217.203598 
L 165.572807 218.908056 
L 166.587352 217.070792 
L 167.601898 219.316873 
L 168.616443 218.547642 
L 169.630989 217.399671 
L 170.645534 218.54352 
L 171.66008 219.514889 
L 173.68917 219.894275 
L 175.718261 218.305452 
L 176.732807 218.746591 
L 177.747352 219.954589 
L 178.761898 217.578312 
L 180.790989 222.261435 
L 181.805534 219.52702 
L 182.82008 221.197843 
L 183.834625 219.604241 
L 184.84917 218.310592 
L 185.863716 219.117066 
L 186.878261 221.851565 
L 187.892807 219.807016 
L 188.907352 218.635522 
L 189.921898 221.224066 
L 190.936443 220.904952 
L 191.950989 221.54568 
L 193.98008 220.084165 
L 194.994625 220.962843 
L 196.00917 219.603561 
L 197.023716 220.82088 
L 198.038261 222.474794 
L 199.052807 221.933677 
L 200.067352 220.828459 
L 201.081898 220.871393 
L 202.096443 221.257085 
L 203.110989 222.65572 
L 204.125534 221.113147 
L 205.14008 222.491373 
L 206.154625 221.971943 
L 207.16917 221.784649 
L 208.183716 220.605683 
L 209.198261 222.499979 
L 210.212807 221.54575 
L 211.227352 221.031049 
L 212.241898 221.81662 
L 213.256443 223.13634 
L 214.270989 222.192659 
L 215.285534 220.93961 
L 216.30008 220.554319 
L 217.314625 194.924626 
L 218.32917 151.06881 
L 219.343716 177.094176 
L 220.358261 185.443156 
L 221.372807 148.648772 
L 222.387352 120.69234 
L 223.401898 64.214719 
L 224.416443 92.162704 
L 225.430989 136.140355 
L 226.445534 141.673298 
L 227.46008 136.358328 
L 228.474625 123.321343 
L 229.48917 128.495181 
L 230.503716 121.428895 
L 231.518261 117.614274 
L 232.532807 105.5608 
L 233.547352 108.993047 
L 234.561898 94.004107 
L 235.576443 97.537124 
L 236.590989 94.934108 
L 237.605534 89.637292 
L 238.62008 87.822438 
L 239.634625 83.893055 
L 240.64917 77.866775 
L 241.663716 69.529285 
L 242.678261 76.109829 
L 243.692807 89.337277 
L 244.707352 89.490398 
L 245.721898 82.812931 
L 246.736443 89.939431 
L 247.750989 71.028273 
L 248.765534 71.793403 
L 249.78008 72.198946 
L 250.794625 83.572679 
L 251.80917 65.145268 
L 252.823716 60.064604 
L 253.838261 62.919239 
L 254.852807 63.906021 
L 255.867352 63.831595 
L 256.881898 69.22739 
L 257.896443 63.888669 
L 258.910989 72.368231 
L 259.925534 72.454981 
L 260.94008 48.354906 
L 261.954625 52.760028 
L 262.96917 31.970011 
L 263.983716 33.082792 
L 264.998261 50.381235 
L 266.012807 44.044626 
L 267.027352 48.031087 
L 268.041898 41.769581 
L 269.056443 55.051204 
L 270.070989 48.044023 
L 271.085534 48.760508 
L 272.10008 49.14022 
L 273.114625 50.093986 
L 274.12917 38.695141 
L 275.143716 43.887248 
L 276.158261 28.791265 
L 277.172807 35.92465 
L 278.187352 28.1028 
L 279.201898 49.054974 
L 280.216443 39.122012 
L 281.230989 39.023355 
L 282.245534 33.774829 
L 283.26008 44.332901 
L 284.274625 30.692582 
L 285.28917 36.218418 
L 286.303716 44.531734 
L 287.318261 43.063079 
L 288.332807 45.713051 
L 289.347352 41.201031 
L 290.361898 32.807334 
L 291.376443 40.833999 
L 292.390989 47.901514 
L 293.405534 41.330625 
L 294.42008 37.800861 
L 295.434625 40.140096 
L 296.44917 37.23606 
L 297.463716 33.291494 
L 298.478261 35.828776 
L 299.492807 49.883687 
L 300.507352 39.037354 
L 301.521898 30.00747 
L 302.536443 37.487668 
L 303.550989 48.563673 
L 304.565534 34.984805 
L 305.58008 35.406616 
L 306.594625 31.488822 
L 307.60917 34.077525 
L 308.623716 32.397794 
L 309.638261 31.780703 
L 310.652807 33.325004 
L 311.667352 19.503585 
L 312.681898 17.735164 
L 313.696443 34.665281 
L 314.710989 43.439071 
L 315.725534 42.732384 
L 316.74008 45.257845 
L 317.754625 52.91259 
L 318.76917 43.020957 
L 319.783716 37.826512 
L 320.798261 37.205506 
L 321.812807 49.880851 
L 322.827352 39.337053 
L 323.841898 48.270921 
L 324.856443 47.503897 
L 325.870989 53.23749 
L 326.885534 39.932119 
L 327.90008 33.01304 
L 328.914625 35.496982 
L 329.92917 43.26126 
L 330.943716 44.378988 
L 331.958261 42.42564 
L 332.972807 41.86066 
L 333.987352 35.975146 
L 335.001898 46.676215 
L 336.016443 45.397168 
L 337.030989 51.178887 
L 338.045534 50.079111 
L 339.06008 51.968706 
L 340.074625 55.873931 
L 341.08917 54.464151 
L 342.103716 59.22799 
L 343.118261 62.84236 
L 344.132807 62.071145 
L 345.147352 66.196796 
L 346.161898 76.949328 
L 347.176443 67.047932 
L 348.190989 82.051395 
L 349.205534 66.328552 
L 350.22008 75.056076 
L 351.234625 77.483889 
L 352.24917 72.945097 
L 353.263716 74.21599 
L 354.278261 87.565238 
L 355.292807 88.441358 
L 356.307352 92.611204 
L 357.321898 92.190936 
L 358.336443 93.303258 
L 359.350989 96.94261 
L 360.365534 99.653503 
L 361.38008 108.363104 
L 362.394625 111.781338 
L 363.40917 105.332349 
L 364.423716 113.717123 
L 365.438261 123.198021 
L 366.452807 126.999738 
L 367.467352 125.583274 
L 368.481898 124.885691 
L 369.496443 110.019722 
L 369.496443 110.019722 
" clip-path="url(#p2cee218f07)" style="fill: none; stroke: #0173b2; stroke-opacity: 0.2; stroke-width: 1.5; stroke-linecap: round"/>
   </g>
   <g id="line2d_14">
    <path d="M 65.132807 228.226005 
L 66.147352 227.900398 
L 67.161898 227.740164 
L 68.176443 227.381295 
L 69.190989 226.245488 
L 70.205534 225.521108 
L 71.22008 226.023943 
L 72.234625 226.345906 
L 73.24917 226.139594 
L 74.263716 226.152464 
L 75.278261 225.185681 
L 76.292807 225.928092 
L 77.307352 226.331181 
L 78.321898 225.740399 
L 79.336443 226.500509 
L 80.350989 225.545236 
L 81.365534 224.982735 
L 82.38008 225.033975 
L 84.40917 224.254978 
L 85.423716 225.343102 
L 86.438261 224.40999 
L 87.452807 224.142033 
L 88.467352 224.430327 
L 89.481898 224.494541 
L 90.496443 224.092151 
L 91.510989 224.442342 
L 92.525534 225.027667 
L 93.54008 224.217869 
L 94.554625 224.428179 
L 95.56917 224.878423 
L 96.583716 224.723965 
L 98.612807 223.564552 
L 99.627352 224.912988 
L 100.641898 224.604397 
L 101.656443 224.640392 
L 102.670989 224.174263 
L 103.685534 224.899072 
L 104.70008 224.946531 
L 105.714625 224.509974 
L 107.743716 224.807516 
L 108.758261 224.375397 
L 109.772807 225.080569 
L 110.787352 224.676578 
L 111.801898 224.406538 
L 112.816443 224.356616 
L 113.830989 224.969736 
L 114.845534 224.564082 
L 115.86008 224.995739 
L 116.874625 225.242249 
L 117.88917 224.427617 
L 118.903716 225.148785 
L 119.918261 224.718564 
L 120.932807 225.097634 
L 121.947352 224.706118 
L 122.961898 224.646892 
L 123.976443 224.778297 
L 124.990989 224.517791 
L 126.005534 225.3925 
L 127.02008 225.379665 
L 128.034625 225.097673 
L 129.04917 225.168984 
L 131.078261 225.093075 
L 132.092807 224.84441 
L 133.107352 224.94111 
L 134.121898 225.217824 
L 136.150989 224.821178 
L 137.165534 224.973932 
L 138.18008 224.814067 
L 139.194625 225.068408 
L 140.20917 224.944134 
L 141.223716 225.389297 
L 142.238261 225.297294 
L 143.252807 225.363933 
L 144.267352 225.200073 
L 145.281898 225.288502 
L 148.325534 225.143914 
L 149.34008 224.912094 
L 150.354625 225.290365 
L 155.427352 225.18612 
L 156.441898 225.455342 
L 157.456443 225.388047 
L 158.470989 225.164449 
L 159.485534 225.17569 
L 160.50008 224.952371 
L 161.514625 224.875498 
L 162.52917 225.299354 
L 163.543716 225.074159 
L 164.558261 225.162274 
L 166.587352 224.961035 
L 168.616443 225.581779 
L 169.630989 225.495928 
L 170.645534 225.205566 
L 172.674625 225.25232 
L 173.68917 225.22932 
L 174.703716 225.394884 
L 175.718261 225.136807 
L 176.732807 225.06763 
L 177.747352 225.23836 
L 178.761898 225.242833 
L 179.776443 224.882997 
L 180.790989 224.975515 
L 181.805534 225.264613 
L 182.82008 225.171568 
L 183.834625 225.282352 
L 184.84917 225.21208 
L 186.878261 225.278364 
L 187.892807 225.196599 
L 189.921898 225.408933 
L 190.936443 224.910468 
L 191.950989 224.936743 
L 193.98008 225.339522 
L 197.023716 224.892493 
L 199.052807 225.283213 
L 203.110989 224.98522 
L 209.198261 225.177114 
L 211.227352 225.107906 
L 212.241898 225.374279 
L 213.256443 225.508821 
L 214.270989 225.424473 
L 215.285534 225.203611 
L 216.30008 224.469671 
L 217.314625 224.352218 
L 218.32917 222.456286 
L 219.343716 224.335607 
L 220.358261 222.238127 
L 221.372807 222.879982 
L 222.387352 221.431916 
L 223.401898 218.067503 
L 224.416443 217.666246 
L 225.430989 222.101911 
L 226.445534 221.434537 
L 228.474625 222.444226 
L 229.48917 221.784479 
L 230.503716 221.868954 
L 231.518261 221.093531 
L 232.532807 219.654845 
L 233.547352 220.130162 
L 234.561898 219.752015 
L 235.576443 220.845477 
L 236.590989 220.639329 
L 237.605534 220.656555 
L 238.62008 219.781864 
L 239.634625 220.478181 
L 240.64917 219.818991 
L 241.663716 220.797114 
L 242.678261 220.896711 
L 243.692807 221.811307 
L 245.721898 220.549454 
L 246.736443 221.368691 
L 247.750989 221.246087 
L 248.765534 221.84104 
L 251.80917 221.270071 
L 252.823716 221.760597 
L 254.852807 221.979172 
L 255.867352 222.438691 
L 256.881898 221.710328 
L 257.896443 222.190326 
L 258.910989 222.241659 
L 260.94008 221.969448 
L 262.96917 221.909826 
L 264.998261 222.248672 
L 266.012807 222.840815 
L 267.027352 223.038565 
L 268.041898 222.352969 
L 269.056443 222.892804 
L 271.085534 223.156903 
L 272.10008 222.842639 
L 273.114625 222.679676 
L 274.12917 223.146753 
L 276.158261 223.187957 
L 277.172807 222.903202 
L 278.187352 223.0264 
L 279.201898 223.422164 
L 280.216443 222.962037 
L 281.230989 223.016206 
L 282.245534 224.009352 
L 284.274625 223.380085 
L 285.28917 223.519881 
L 287.318261 223.262458 
L 288.332807 223.62944 
L 289.347352 223.20628 
L 290.361898 223.628597 
L 291.376443 223.56809 
L 292.390989 223.698338 
L 293.405534 223.685808 
L 294.42008 223.845642 
L 295.434625 223.728211 
L 296.44917 223.944389 
L 297.463716 223.63917 
L 298.478261 223.487696 
L 299.492807 223.735568 
L 300.507352 223.371215 
L 304.565534 223.755688 
L 306.594625 223.415857 
L 307.60917 223.639657 
L 308.623716 224.005347 
L 309.638261 223.695481 
L 312.681898 223.651622 
L 313.696443 223.653869 
L 314.710989 223.921758 
L 315.725534 223.934898 
L 316.74008 223.808123 
L 317.754625 223.881605 
L 318.76917 224.196569 
L 319.783716 223.571969 
L 320.798261 224.196267 
L 321.812807 223.809073 
L 322.827352 224.211585 
L 323.841898 223.992766 
L 324.856443 223.636859 
L 325.870989 224.013168 
L 327.90008 224.055914 
L 328.914625 224.332849 
L 330.943716 224.127112 
L 331.958261 224.278069 
L 332.972807 224.101058 
L 333.987352 224.047953 
L 337.030989 224.171861 
L 338.045534 223.98577 
L 339.06008 224.211447 
L 342.103716 224.228348 
L 346.161898 224.06183 
L 347.176443 224.290281 
L 354.278261 224.121706 
L 355.292807 224.438105 
L 356.307352 224.423287 
L 357.321898 224.09388 
L 359.350989 224.486215 
L 362.394625 224.638411 
L 363.40917 224.314108 
L 364.423716 224.531167 
L 365.438261 224.869735 
L 366.452807 224.770566 
L 367.467352 224.544031 
L 368.481898 223.859986 
L 369.496443 223.928713 
L 369.496443 223.928713 
" clip-path="url(#p2cee218f07)" style="fill: none; stroke: #de8f05; stroke-opacity: 0.2; stroke-width: 1.5; stroke-linecap: round"/>
   </g>
   <g id="line2d_15">
    <path d="M 65.132807 227.980817 
L 66.147352 228.336879 
L 67.161898 228.438442 
L 68.176443 228.388699 
L 69.190989 228.221924 
L 70.205534 227.56549 
L 71.22008 227.155925 
L 72.234625 226.959462 
L 73.24917 227.108898 
L 74.263716 227.662782 
L 76.292807 227.349313 
L 77.307352 227.369436 
L 78.321898 227.258549 
L 79.336443 227.658827 
L 80.350989 226.372437 
L 81.365534 225.6034 
L 82.38008 225.984167 
L 83.394625 226.522609 
L 84.40917 225.901612 
L 85.423716 225.665683 
L 86.438261 226.037049 
L 87.452807 225.717905 
L 88.467352 225.727456 
L 89.481898 226.181497 
L 90.496443 225.915412 
L 92.525534 225.590676 
L 93.54008 224.913958 
L 94.554625 224.817535 
L 95.56917 225.005722 
L 96.583716 224.842461 
L 97.598261 225.61877 
L 98.612807 224.889848 
L 99.627352 224.698448 
L 100.641898 224.957745 
L 101.656443 224.903063 
L 102.670989 224.61687 
L 103.685534 224.595851 
L 104.70008 224.717667 
L 105.714625 225.13069 
L 106.72917 224.874916 
L 107.743716 225.287017 
L 108.758261 224.875898 
L 109.772807 225.5919 
L 110.787352 225.257787 
L 111.801898 224.734899 
L 112.816443 225.194896 
L 113.830989 225.321935 
L 114.845534 224.913752 
L 115.86008 225.345358 
L 117.88917 225.128232 
L 118.903716 225.399775 
L 119.918261 225.515408 
L 120.932807 225.354792 
L 121.947352 225.045433 
L 122.961898 225.380603 
L 123.976443 225.313128 
L 124.990989 225.619392 
L 127.02008 225.772306 
L 128.034625 225.65892 
L 129.04917 225.292761 
L 130.063716 225.732612 
L 131.078261 225.815185 
L 132.092807 225.603376 
L 133.107352 225.583018 
L 134.121898 225.707912 
L 136.150989 225.411368 
L 137.165534 225.7474 
L 138.18008 225.40678 
L 139.194625 225.848517 
L 140.20917 225.6108 
L 141.223716 224.980202 
L 142.238261 224.879361 
L 143.252807 225.551303 
L 144.267352 225.259408 
L 145.281898 225.543082 
L 146.296443 225.434801 
L 147.310989 225.086116 
L 148.325534 225.379091 
L 149.34008 225.470995 
L 150.354625 224.903779 
L 152.383716 225.245056 
L 153.398261 224.943481 
L 154.412807 225.381473 
L 155.427352 225.530912 
L 157.456443 225.113045 
L 158.470989 225.005497 
L 159.485534 223.802529 
L 160.50008 223.442108 
L 161.514625 224.908784 
L 162.52917 224.915155 
L 163.543716 224.246957 
L 164.558261 224.726912 
L 165.572807 224.540816 
L 166.587352 225.011276 
L 167.601898 224.579098 
L 168.616443 224.440575 
L 169.630989 224.551228 
L 170.645534 224.316802 
L 171.66008 224.752696 
L 172.674625 224.367278 
L 173.68917 224.255464 
L 174.703716 224.501951 
L 175.718261 223.808824 
L 176.732807 223.681233 
L 177.747352 223.668018 
L 178.761898 224.150721 
L 179.776443 224.128576 
L 180.790989 224.417175 
L 181.805534 223.930473 
L 182.82008 223.638401 
L 183.834625 223.200515 
L 184.84917 223.145686 
L 185.863716 222.922239 
L 186.878261 223.527378 
L 188.907352 223.334303 
L 190.936443 222.437457 
L 191.950989 222.510835 
L 192.965534 222.131726 
L 193.98008 222.502158 
L 194.994625 222.194642 
L 196.00917 220.228161 
L 197.023716 220.008444 
L 198.038261 222.419403 
L 199.052807 222.008989 
L 201.081898 222.07586 
L 202.096443 221.990219 
L 204.125534 221.305952 
L 206.154625 221.63745 
L 207.16917 221.670333 
L 209.198261 221.232702 
L 210.212807 221.180539 
L 211.227352 220.962487 
L 212.241898 220.989559 
L 213.256443 221.36559 
L 214.270989 221.22769 
L 215.285534 220.88385 
L 216.30008 220.037842 
L 217.314625 223.048512 
L 218.32917 224.509281 
L 219.343716 226.530575 
L 220.358261 226.342805 
L 221.372807 226.77178 
L 223.401898 224.3065 
L 224.416443 223.430705 
L 225.430989 223.368282 
L 226.445534 223.526993 
L 227.46008 223.479603 
L 228.474625 222.906998 
L 229.48917 224.358341 
L 230.503716 223.705584 
L 231.518261 223.901276 
L 232.532807 222.207656 
L 233.547352 221.506964 
L 234.561898 221.004971 
L 236.590989 221.231972 
L 237.605534 221.427866 
L 238.62008 220.289736 
L 239.634625 221.30821 
L 240.64917 221.482169 
L 241.663716 219.397081 
L 242.678261 221.053562 
L 243.692807 219.382974 
L 244.707352 220.011244 
L 245.721898 220.36598 
L 246.736443 221.359931 
L 247.750989 219.951201 
L 248.765534 219.878723 
L 249.78008 219.639575 
L 250.794625 219.06546 
L 251.80917 219.358915 
L 252.823716 219.266803 
L 253.838261 220.085578 
L 254.852807 219.467217 
L 255.867352 219.85576 
L 256.881898 219.73172 
L 257.896443 220.868645 
L 258.910989 220.365695 
L 259.925534 220.470356 
L 260.94008 220.220991 
L 261.954625 219.657381 
L 262.96917 220.650022 
L 263.983716 220.174531 
L 264.998261 220.328069 
L 266.012807 220.358897 
L 267.027352 219.843524 
L 268.041898 219.971178 
L 269.056443 220.86672 
L 270.070989 220.918157 
L 271.085534 220.517412 
L 272.10008 220.977378 
L 273.114625 220.18049 
L 274.12917 219.720194 
L 275.143716 220.722187 
L 276.158261 220.969122 
L 277.172807 220.926345 
L 278.187352 220.65047 
L 279.201898 220.50682 
L 280.216443 220.002601 
L 281.230989 221.109633 
L 282.245534 220.538692 
L 283.26008 221.554023 
L 284.274625 220.530626 
L 285.28917 219.962409 
L 286.303716 220.342451 
L 288.332807 220.587455 
L 289.347352 220.63623 
L 290.361898 220.209898 
L 291.376443 220.212154 
L 293.405534 219.800846 
L 294.42008 220.542881 
L 296.44917 220.872436 
L 298.478261 220.030499 
L 299.492807 220.508104 
L 302.536443 219.59951 
L 304.565534 219.723328 
L 306.594625 219.322199 
L 307.60917 218.715513 
L 309.638261 219.275977 
L 310.652807 218.890401 
L 311.667352 219.432256 
L 312.681898 218.726796 
L 313.696443 218.880721 
L 314.710989 218.167245 
L 315.725534 218.512618 
L 316.74008 217.967585 
L 317.754625 218.577531 
L 318.76917 218.26077 
L 319.783716 217.572821 
L 320.798261 217.319828 
L 321.812807 217.467133 
L 322.827352 218.537588 
L 323.841898 218.037057 
L 324.856443 216.707673 
L 325.870989 216.454284 
L 326.885534 216.083049 
L 327.90008 216.439447 
L 328.914625 216.121651 
L 329.92917 216.75779 
L 330.943716 216.68138 
L 331.958261 215.525088 
L 332.972807 215.859819 
L 333.987352 215.798639 
L 335.001898 215.162562 
L 336.016443 215.366726 
L 337.030989 216.071436 
L 338.045534 215.171057 
L 339.06008 215.405601 
L 340.074625 216.660994 
L 341.08917 215.985454 
L 342.103716 214.486372 
L 343.118261 214.511619 
L 344.132807 214.340583 
L 345.147352 214.024214 
L 346.161898 212.688 
L 347.176443 212.92025 
L 348.190989 213.948579 
L 349.205534 214.151507 
L 350.22008 212.704851 
L 351.234625 212.7307 
L 352.24917 213.001515 
L 353.263716 213.606743 
L 354.278261 212.732448 
L 355.292807 211.177016 
L 356.307352 211.634099 
L 357.321898 210.438747 
L 358.336443 210.013169 
L 359.350989 211.69247 
L 360.365534 211.794913 
L 361.38008 211.35449 
L 363.40917 210.154318 
L 364.423716 209.684692 
L 365.438261 209.805792 
L 366.452807 209.747681 
L 367.467352 209.913233 
L 368.481898 209.476991 
L 369.496443 209.328939 
L 369.496443 209.328939 
" clip-path="url(#p2cee218f07)" style="fill: none; stroke: #029e73; stroke-opacity: 0.2; stroke-width: 1.5; stroke-linecap: round"/>
   </g>
   <g id="line2d_16">
    <path d="M 65.132807 224.678573 
L 66.147352 227.223442 
L 67.161898 227.5949 
L 68.176443 227.298255 
L 69.190989 227.266489 
L 70.205534 226.961776 
L 71.22008 220.909309 
L 72.234625 224.685309 
L 73.24917 225.158797 
L 74.263716 225.239279 
L 75.278261 225.171148 
L 76.292807 225.744695 
L 77.307352 225.659537 
L 78.321898 225.329054 
L 79.336443 225.167397 
L 80.350989 223.670763 
L 81.365534 223.930938 
L 82.38008 224.058392 
L 87.452807 223.410159 
L 88.467352 223.980129 
L 89.481898 223.330971 
L 90.496443 224.057667 
L 91.510989 224.048508 
L 92.525534 223.681539 
L 94.554625 223.751221 
L 95.56917 223.765888 
L 96.583716 224.03953 
L 97.598261 223.699085 
L 98.612807 223.554887 
L 99.627352 224.077753 
L 100.641898 223.510743 
L 101.656443 224.300028 
L 102.670989 224.363834 
L 104.70008 223.810053 
L 105.714625 223.741718 
L 106.72917 223.365972 
L 107.743716 223.914566 
L 109.772807 223.919088 
L 110.787352 223.68296 
L 111.801898 224.310233 
L 112.816443 224.453388 
L 113.830989 224.139508 
L 115.86008 224.048799 
L 116.874625 224.551202 
L 118.903716 224.405977 
L 119.918261 224.754638 
L 120.932807 224.375345 
L 121.947352 224.123954 
L 122.961898 224.069405 
L 123.976443 224.414272 
L 124.990989 224.326414 
L 126.005534 223.972542 
L 127.02008 224.020351 
L 128.034625 224.484601 
L 129.04917 224.310533 
L 130.063716 224.391103 
L 131.078261 224.741515 
L 132.092807 224.241459 
L 133.107352 224.565317 
L 134.121898 224.028773 
L 136.150989 224.365966 
L 137.165534 223.294709 
L 138.18008 223.61164 
L 139.194625 224.533187 
L 140.20917 224.319939 
L 142.238261 224.649208 
L 143.252807 224.367681 
L 146.296443 224.486909 
L 147.310989 224.249994 
L 148.325534 220.607643 
L 149.34008 221.304482 
L 150.354625 224.614468 
L 151.36917 224.730236 
L 152.383716 224.286507 
L 153.398261 224.56998 
L 155.427352 224.273304 
L 156.441898 224.381973 
L 157.456443 224.198893 
L 158.470989 224.563279 
L 159.485534 224.37163 
L 160.50008 224.452413 
L 161.514625 224.174813 
L 162.52917 224.831366 
L 164.558261 224.774943 
L 166.587352 224.378349 
L 167.601898 224.464414 
L 168.616443 224.264101 
L 172.674625 224.304743 
L 174.703716 224.616276 
L 175.718261 224.291818 
L 176.732807 224.165255 
L 177.747352 224.365467 
L 178.761898 224.695679 
L 180.790989 224.447722 
L 181.805534 224.169703 
L 183.834625 224.488493 
L 184.84917 224.426564 
L 185.863716 224.576438 
L 186.878261 224.155833 
L 188.907352 224.254031 
L 190.936443 224.248456 
L 191.950989 224.351848 
L 192.965534 224.341472 
L 193.98008 224.524018 
L 196.00917 223.908966 
L 197.023716 223.97923 
L 198.038261 224.391434 
L 199.052807 224.372758 
L 200.067352 224.228359 
L 201.081898 224.368822 
L 202.096443 224.396896 
L 203.110989 224.13955 
L 204.125534 224.232938 
L 205.14008 224.192298 
L 206.154625 224.340518 
L 207.16917 224.190531 
L 208.183716 224.317522 
L 209.198261 224.315646 
L 210.212807 224.552896 
L 211.227352 224.308657 
L 213.256443 224.420763 
L 214.270989 224.578394 
L 216.30008 223.7335 
L 217.314625 219.669504 
L 218.32917 220.914683 
L 220.358261 222.458511 
L 221.372807 221.01653 
L 222.387352 221.312679 
L 223.401898 220.949312 
L 224.416443 220.457507 
L 225.430989 222.210103 
L 227.46008 222.838692 
L 228.474625 221.647076 
L 229.48917 222.322602 
L 230.503716 221.60326 
L 231.518261 222.108977 
L 232.532807 221.241638 
L 234.561898 221.289023 
L 235.576443 221.195129 
L 236.590989 221.328901 
L 237.605534 221.840278 
L 238.62008 221.171872 
L 239.634625 221.331907 
L 240.64917 220.614776 
L 241.663716 220.919209 
L 242.678261 221.710902 
L 243.692807 221.779388 
L 244.707352 220.920183 
L 245.721898 220.866125 
L 246.736443 221.71106 
L 248.765534 221.70548 
L 249.78008 221.83895 
L 251.80917 221.368039 
L 252.823716 220.990731 
L 253.838261 221.455067 
L 254.852807 221.086483 
L 255.867352 221.897021 
L 256.881898 221.505854 
L 257.896443 222.075953 
L 258.910989 221.716948 
L 259.925534 221.837793 
L 260.94008 221.834634 
L 262.96917 220.811839 
L 263.983716 221.217286 
L 266.012807 221.119122 
L 267.027352 222.022115 
L 269.056443 221.897442 
L 270.070989 221.386067 
L 271.085534 221.899718 
L 272.10008 221.810715 
L 273.114625 222.264986 
L 276.158261 221.563048 
L 277.172807 220.832138 
L 278.187352 221.547234 
L 279.201898 221.682744 
L 282.245534 221.258901 
L 283.26008 221.773483 
L 284.274625 221.337524 
L 285.28917 221.257347 
L 286.303716 221.306086 
L 287.318261 221.831302 
L 289.347352 221.281249 
L 290.361898 221.762159 
L 291.376443 221.272044 
L 292.390989 221.431333 
L 293.405534 220.8753 
L 294.42008 221.668615 
L 295.434625 220.679617 
L 297.463716 221.049234 
L 298.478261 221.488988 
L 299.492807 220.764562 
L 300.507352 221.197531 
L 302.536443 221.031126 
L 305.58008 220.226536 
L 306.594625 220.29676 
L 307.60917 220.598501 
L 308.623716 220.047798 
L 309.638261 220.588977 
L 310.652807 221.288794 
L 311.667352 221.084497 
L 312.681898 221.33261 
L 313.696443 220.777506 
L 314.710989 220.883692 
L 315.725534 220.262096 
L 316.74008 220.057394 
L 317.754625 220.771428 
L 318.76917 220.233645 
L 319.783716 220.131848 
L 320.798261 219.711564 
L 321.812807 219.659843 
L 322.827352 219.862187 
L 323.841898 219.202879 
L 324.856443 219.85914 
L 325.870989 220.063044 
L 326.885534 219.919017 
L 327.90008 219.5652 
L 328.914625 219.604287 
L 329.92917 220.111202 
L 330.943716 219.7685 
L 331.958261 219.744493 
L 333.987352 218.969903 
L 335.001898 219.566056 
L 336.016443 219.760997 
L 337.030989 219.509575 
L 338.045534 219.590734 
L 339.06008 219.080815 
L 340.074625 219.391074 
L 341.08917 219.543418 
L 342.103716 219.814624 
L 343.118261 219.158213 
L 344.132807 218.815619 
L 345.147352 218.708357 
L 346.161898 219.123785 
L 347.176443 219.254382 
L 350.22008 218.483289 
L 351.234625 218.623847 
L 352.24917 219.209872 
L 354.278261 219.108756 
L 355.292807 218.501593 
L 356.307352 218.437755 
L 357.321898 218.64824 
L 358.336443 218.635273 
L 359.350989 218.109605 
L 360.365534 218.241719 
L 361.38008 218.757193 
L 362.394625 218.732416 
L 364.423716 219.694102 
L 365.438261 219.759858 
L 366.452807 219.482718 
L 367.467352 219.340315 
L 368.481898 218.931308 
L 369.496443 218.924418 
L 369.496443 218.924418 
" clip-path="url(#p2cee218f07)" style="fill: none; stroke: #d55e00; stroke-opacity: 0.2; stroke-width: 1.5; stroke-linecap: round"/>
   </g>
   <g id="line2d_17">
    <path d="M 65.132807 227.687682 
L 66.147352 228.047027 
L 68.176443 227.922967 
L 69.190989 227.721285 
L 70.205534 228.108344 
L 71.22008 225.835099 
L 72.234625 227.635052 
L 73.24917 227.553895 
L 74.263716 227.84971 
L 75.278261 227.3476 
L 77.307352 227.917607 
L 78.321898 227.239169 
L 79.336443 227.38342 
L 80.350989 227.096168 
L 82.38008 227.027519 
L 83.394625 227.178847 
L 84.40917 226.790743 
L 85.423716 226.963365 
L 86.438261 227.270677 
L 87.452807 226.952324 
L 88.467352 227.225172 
L 89.481898 227.0225 
L 90.496443 226.58755 
L 91.510989 226.976642 
L 92.525534 227.134011 
L 93.54008 226.971706 
L 94.554625 227.004561 
L 95.56917 226.805062 
L 96.583716 226.952942 
L 97.598261 226.796053 
L 98.612807 226.862294 
L 99.627352 227.163576 
L 100.641898 226.895399 
L 101.656443 226.926011 
L 102.670989 227.404514 
L 103.685534 226.86224 
L 104.70008 227.08102 
L 105.714625 226.594739 
L 106.72917 226.797529 
L 107.743716 226.866644 
L 108.758261 226.759147 
L 109.772807 226.997838 
L 111.801898 227.04945 
L 113.830989 226.817326 
L 115.86008 227.070468 
L 116.874625 227.211372 
L 117.88917 227.128777 
L 118.903716 227.264275 
L 119.918261 227.103517 
L 122.961898 227.142927 
L 123.976443 227.315433 
L 124.990989 227.041743 
L 128.034625 227.070608 
L 129.04917 226.812372 
L 131.078261 227.255812 
L 132.092807 227.194579 
L 133.107352 227.334654 
L 134.121898 227.124316 
L 135.136443 227.300946 
L 137.165534 227.000055 
L 138.18008 227.259707 
L 141.223716 227.343718 
L 142.238261 227.555472 
L 143.252807 227.275208 
L 144.267352 227.407849 
L 145.281898 227.190894 
L 150.354625 227.179369 
L 151.36917 227.472524 
L 152.383716 227.384664 
L 153.398261 227.441925 
L 154.412807 227.257087 
L 156.441898 227.497241 
L 157.456443 227.506158 
L 159.485534 227.240101 
L 160.50008 227.365379 
L 161.514625 227.248562 
L 162.52917 227.45502 
L 163.543716 227.366444 
L 164.558261 227.591783 
L 165.572807 227.514327 
L 166.587352 227.304762 
L 167.601898 227.464234 
L 168.616443 227.348757 
L 172.674625 227.460072 
L 173.68917 227.56086 
L 177.747352 227.43691 
L 178.761898 227.23156 
L 180.790989 227.569155 
L 181.805534 227.369975 
L 184.84917 227.526046 
L 185.863716 227.535859 
L 186.878261 227.379888 
L 190.936443 227.469971 
L 194.994625 227.49361 
L 196.00917 227.386099 
L 197.023716 227.523666 
L 198.038261 227.347554 
L 201.081898 227.259641 
L 202.096443 227.565885 
L 204.125534 227.555935 
L 207.16917 227.635376 
L 208.183716 227.511259 
L 211.227352 227.548812 
L 212.241898 227.411215 
L 214.270989 227.528614 
L 215.285534 227.468296 
L 216.30008 226.872218 
L 217.314625 224.974093 
L 218.32917 221.497372 
L 220.358261 221.018183 
L 221.372807 222.653225 
L 222.387352 221.789827 
L 223.401898 221.504873 
L 224.416443 222.747642 
L 225.430989 222.838044 
L 226.445534 223.835214 
L 227.46008 224.239772 
L 228.474625 222.909809 
L 229.48917 223.545377 
L 230.503716 223.703687 
L 231.518261 222.763199 
L 232.532807 222.105331 
L 233.547352 222.448655 
L 235.576443 223.624817 
L 236.590989 223.367574 
L 237.605534 222.265666 
L 239.634625 222.723388 
L 240.64917 221.845572 
L 241.663716 222.116226 
L 242.678261 223.345798 
L 243.692807 223.143506 
L 244.707352 222.54541 
L 245.721898 222.847329 
L 246.736443 222.762632 
L 247.750989 223.094225 
L 248.765534 222.751118 
L 249.78008 223.647528 
L 250.794625 223.909795 
L 251.80917 223.202178 
L 252.823716 222.78234 
L 253.838261 223.16197 
L 254.852807 223.260284 
L 255.867352 223.521249 
L 256.881898 222.938609 
L 257.896443 223.76238 
L 258.910989 223.882224 
L 259.925534 224.123545 
L 260.94008 223.343804 
L 261.954625 223.795146 
L 262.96917 223.408426 
L 263.983716 223.197028 
L 266.012807 224.042624 
L 267.027352 223.496091 
L 268.041898 223.977005 
L 269.056443 224.270485 
L 271.085534 224.244865 
L 272.10008 223.776332 
L 273.114625 223.916084 
L 274.12917 223.742356 
L 275.143716 223.978471 
L 277.172807 223.481074 
L 278.187352 224.219335 
L 279.201898 224.506501 
L 280.216443 224.531738 
L 281.230989 224.41924 
L 282.245534 224.066497 
L 283.26008 224.769908 
L 284.274625 224.137074 
L 285.28917 224.639753 
L 286.303716 224.440994 
L 288.332807 224.439024 
L 289.347352 224.631433 
L 290.361898 224.425919 
L 291.376443 224.656372 
L 292.390989 224.555867 
L 293.405534 224.707665 
L 294.42008 224.542427 
L 295.434625 224.497841 
L 301.521898 224.926448 
L 303.550989 224.441165 
L 304.565534 224.599104 
L 305.58008 224.165659 
L 306.594625 224.52377 
L 307.60917 224.578751 
L 308.623716 224.456315 
L 310.652807 224.878215 
L 311.667352 224.512919 
L 314.710989 224.909777 
L 315.725534 224.833825 
L 316.74008 225.016069 
L 317.754625 224.831222 
L 318.76917 224.389432 
L 319.783716 224.691027 
L 320.798261 224.780924 
L 321.812807 224.995013 
L 322.827352 224.851011 
L 323.841898 225.05459 
L 324.856443 224.940089 
L 325.870989 225.063524 
L 327.90008 224.919227 
L 328.914625 224.673783 
L 329.92917 224.672055 
L 330.943716 224.952855 
L 331.958261 225.004075 
L 332.972807 225.33163 
L 333.987352 225.189279 
L 335.001898 225.216035 
L 336.016443 224.898622 
L 337.030989 225.01107 
L 338.045534 224.778688 
L 339.06008 224.932866 
L 340.074625 224.745543 
L 341.08917 224.789269 
L 342.103716 225.155357 
L 343.118261 224.735931 
L 345.147352 225.358757 
L 346.161898 224.909536 
L 347.176443 225.299177 
L 348.190989 225.306439 
L 349.205534 225.112154 
L 350.22008 225.242988 
L 351.234625 225.129059 
L 352.24917 225.389376 
L 353.263716 225.205361 
L 354.278261 225.622377 
L 355.292807 226.293716 
L 358.336443 225.772787 
L 359.350989 225.767951 
L 360.365534 225.959902 
L 361.38008 225.914965 
L 362.394625 226.146616 
L 363.40917 225.801399 
L 364.423716 225.834492 
L 365.438261 226.284924 
L 366.452807 226.121741 
L 367.467352 225.75304 
L 368.481898 224.939648 
L 369.496443 225.189776 
L 369.496443 225.189776 
" clip-path="url(#p2cee218f07)" style="fill: none; stroke: #cc78bc; stroke-opacity: 0.2; stroke-width: 1.5; stroke-linecap: round"/>
   </g>
   <g id="line2d_18">
    <path d="M 67.161898 225.155567 
L 68.176443 224.601694 
L 69.190989 224.547792 
L 70.205534 223.842032 
L 71.22008 222.68218 
L 72.234625 222.891101 
L 73.24917 222.66979 
L 74.263716 222.222305 
L 75.278261 222.692631 
L 76.292807 222.643448 
L 77.307352 222.437067 
L 78.321898 221.53099 
L 79.336443 221.06928 
L 80.350989 219.491404 
L 81.365534 218.376147 
L 82.38008 216.935435 
L 83.394625 216.133151 
L 84.40917 215.025633 
L 85.423716 214.848094 
L 87.452807 213.306378 
L 89.481898 212.35612 
L 92.525534 211.542406 
L 93.54008 211.404692 
L 94.554625 211.49594 
L 95.56917 212.251401 
L 96.583716 213.244942 
L 98.612807 213.124789 
L 99.627352 212.808829 
L 101.656443 211.377811 
L 103.685534 210.754099 
L 104.70008 211.570944 
L 105.714625 211.432632 
L 106.72917 211.064844 
L 107.743716 210.919314 
L 108.758261 211.114645 
L 110.787352 209.485523 
L 111.801898 209.134687 
L 112.816443 209.477825 
L 113.830989 209.427826 
L 114.845534 209.497117 
L 115.86008 209.033528 
L 116.874625 210.056137 
L 117.88917 210.248862 
L 118.903716 210.623588 
L 119.918261 210.83315 
L 120.932807 211.625533 
L 121.947352 210.575505 
L 122.961898 210.960425 
L 123.976443 211.154153 
L 124.990989 210.728874 
L 126.005534 211.118807 
L 127.02008 212.449289 
L 128.034625 212.666843 
L 129.04917 212.680416 
L 130.063716 213.620758 
L 131.078261 213.812611 
L 132.092807 213.12038 
L 133.107352 213.089874 
L 134.121898 212.829845 
L 135.136443 212.851325 
L 136.150989 213.053408 
L 137.165534 214.15723 
L 140.20917 213.885579 
L 141.223716 214.236775 
L 142.238261 213.325865 
L 144.267352 213.988363 
L 146.296443 213.927438 
L 147.310989 214.031223 
L 148.325534 213.934338 
L 149.34008 214.539187 
L 150.354625 214.751507 
L 151.36917 215.101257 
L 152.383716 216.01659 
L 154.412807 215.438488 
L 156.441898 215.803523 
L 157.456443 215.641078 
L 158.470989 216.493724 
L 159.485534 216.853801 
L 166.587352 218.209392 
L 167.601898 218.248607 
L 168.616443 218.1757 
L 169.630989 218.664519 
L 170.645534 218.743233 
L 172.674625 219.365679 
L 175.718261 219.213235 
L 176.732807 218.750042 
L 177.747352 218.928206 
L 178.761898 219.719402 
L 180.790989 220.124139 
L 181.805534 220.529325 
L 182.82008 220.180226 
L 183.834625 219.551352 
L 184.84917 220.016261 
L 186.878261 219.544352 
L 187.892807 220.127047 
L 188.907352 220.484624 
L 189.921898 220.423447 
L 191.950989 220.902584 
L 192.965534 220.85034 
L 193.98008 220.590062 
L 194.994625 220.445102 
L 197.023716 221.159151 
L 198.038261 221.132274 
L 199.052807 221.38584 
L 201.081898 221.509267 
L 202.096443 221.345161 
L 204.125534 221.897854 
L 205.14008 222.003367 
L 206.154625 221.593359 
L 207.16917 221.870726 
L 209.198261 221.493422 
L 210.212807 221.499816 
L 211.227352 222.005947 
L 214.270989 221.72791 
L 215.285534 221.421749 
L 219.343716 166.363669 
L 220.358261 156.589451 
L 222.387352 122.232338 
L 223.401898 112.371778 
L 224.416443 110.976683 
L 225.430989 114.109881 
L 226.445534 125.931206 
L 227.46008 133.197701 
L 228.474625 130.255409 
L 229.48917 125.443604 
L 230.503716 119.284099 
L 231.518261 116.418439 
L 232.532807 109.520225 
L 234.561898 100.205837 
L 235.576443 97.021136 
L 236.590989 92.787014 
L 237.605534 90.764803 
L 238.62008 86.830734 
L 239.634625 81.749769 
L 240.64917 79.044276 
L 241.663716 79.347244 
L 243.692807 81.455944 
L 244.707352 85.537973 
L 245.721898 84.521662 
L 247.750989 77.554597 
L 248.765534 77.706546 
L 249.78008 72.747714 
L 250.794625 70.55498 
L 252.823716 67.121562 
L 253.838261 63.173345 
L 255.867352 64.754583 
L 257.896443 68.354173 
L 259.925534 61.965363 
L 260.94008 55.581631 
L 261.954625 47.724544 
L 262.96917 43.309795 
L 264.998261 41.50195 
L 266.012807 43.461864 
L 267.027352 47.855547 
L 268.041898 47.388104 
L 269.056443 48.331281 
L 270.070989 48.553107 
L 271.085534 50.217988 
L 272.10008 46.946776 
L 273.114625 46.115421 
L 274.12917 42.121572 
L 275.143716 39.478458 
L 276.158261 35.080221 
L 277.172807 37.152188 
L 278.187352 36.19914 
L 279.201898 38.245558 
L 280.216443 37.815594 
L 281.230989 41.061614 
L 282.245534 37.389136 
L 283.26008 36.808417 
L 284.274625 37.910093 
L 285.28917 39.767743 
L 286.303716 40.043773 
L 287.318261 42.145463 
L 289.347352 40.723699 
L 290.361898 41.691386 
L 291.376443 40.814901 
L 292.390989 40.134867 
L 293.405534 41.601419 
L 294.42008 40.881831 
L 295.434625 37.959827 
L 296.44917 36.859457 
L 297.463716 39.276023 
L 298.478261 39.055474 
L 299.492807 37.609756 
L 300.507352 38.448991 
L 301.521898 40.99597 
L 302.536443 38.016194 
L 303.550989 37.290046 
L 304.565534 37.586317 
L 305.58008 36.904288 
L 306.594625 33.671112 
L 307.60917 33.030292 
L 308.623716 32.61397 
L 309.638261 30.216922 
L 310.652807 26.94845 
L 311.667352 27.401947 
L 312.681898 29.733621 
L 313.696443 31.615097 
L 314.710989 36.765949 
L 315.725534 43.801434 
L 316.74008 45.472569 
L 318.76917 43.244682 
L 319.783716 44.169283 
L 320.798261 41.454176 
L 321.812807 42.504168 
L 322.827352 44.439645 
L 323.841898 47.646042 
L 324.856443 45.656296 
L 325.870989 44.391493 
L 326.885534 41.836706 
L 327.90008 40.988178 
L 328.914625 39.216478 
L 329.92917 39.715182 
L 330.943716 41.484706 
L 331.958261 41.580339 
L 332.972807 42.26333 
L 333.987352 42.466966 
L 336.016443 45.861305 
L 337.030989 49.060017 
L 339.06008 52.712957 
L 340.074625 54.322778 
L 341.08917 56.875428 
L 343.118261 60.960489 
L 344.132807 65.457524 
L 345.147352 67.021512 
L 346.161898 70.863319 
L 347.176443 71.714801 
L 348.190989 73.486657 
L 349.205534 73.593569 
L 350.22008 74.773002 
L 351.234625 73.205921 
L 352.24917 77.453258 
L 353.263716 80.130314 
L 354.278261 83.155777 
L 356.307352 90.822399 
L 357.321898 92.697873 
L 358.336443 94.940302 
L 359.350989 98.090682 
L 360.365534 102.008763 
L 361.38008 104.414581 
L 362.394625 107.769483 
L 363.40917 112.478387 
L 364.423716 116.205714 
L 365.438261 118.966101 
L 366.452807 122.876769 
L 367.467352 122.137289 
L 367.467352 122.137289 
" clip-path="url(#p2cee218f07)" style="fill: none; stroke: #0173b2; stroke-width: 1.5; stroke-linecap: round"/>
   </g>
   <g id="line2d_19">
    <path d="M 67.161898 227.49867 
L 68.176443 226.95769 
L 70.205534 226.303548 
L 71.22008 226.055208 
L 79.336443 225.820012 
L 81.365534 225.352139 
L 82.38008 224.903033 
L 84.40917 224.748057 
L 85.423716 224.569669 
L 89.481898 224.320279 
L 90.496443 224.497406 
L 92.525534 224.441642 
L 94.554625 224.655221 
L 96.583716 224.346659 
L 97.598261 224.443621 
L 100.641898 224.379319 
L 101.656443 224.646223 
L 109.772807 224.66932 
L 110.787352 224.57914 
L 111.801898 224.698007 
L 112.816443 224.59471 
L 118.903716 224.92697 
L 119.918261 224.819744 
L 120.932807 224.863599 
L 122.961898 224.749347 
L 126.005534 225.033185 
L 129.04917 225.173016 
L 131.078261 225.034652 
L 135.136443 224.98383 
L 138.18008 224.924344 
L 141.223716 225.212613 
L 145.281898 225.245546 
L 149.34008 225.15188 
L 157.456443 225.27393 
L 163.543716 225.102335 
L 166.587352 225.219831 
L 169.630989 225.367599 
L 176.732807 225.216103 
L 178.761898 225.081467 
L 185.863716 225.248104 
L 189.921898 225.146993 
L 199.052807 225.136373 
L 201.081898 225.155308 
L 205.14008 225.06157 
L 208.183716 225.19584 
L 211.227352 225.268869 
L 213.256443 225.323818 
L 215.285534 225.010441 
L 220.358261 222.668384 
L 221.372807 221.790627 
L 222.387352 220.456755 
L 223.401898 220.429512 
L 224.416443 220.140423 
L 225.430989 220.23827 
L 227.46008 221.937261 
L 229.48917 221.822469 
L 232.532807 220.499901 
L 233.547352 220.295206 
L 234.561898 220.204366 
L 235.576443 220.404708 
L 236.590989 220.335048 
L 237.605534 220.480281 
L 238.62008 220.274984 
L 240.64917 220.354572 
L 241.663716 220.760461 
L 245.721898 221.233124 
L 247.750989 221.329854 
L 248.765534 221.506887 
L 249.78008 221.487163 
L 251.80917 221.604645 
L 252.823716 221.67168 
L 254.852807 221.960545 
L 257.896443 222.128171 
L 258.910989 222.034322 
L 260.94008 222.016241 
L 262.96917 222.030292 
L 268.041898 222.825393 
L 271.085534 222.914767 
L 277.172807 223.147217 
L 279.201898 223.066002 
L 281.230989 223.409647 
L 282.245534 223.401231 
L 284.274625 223.581555 
L 285.28917 223.432177 
L 289.347352 223.458973 
L 293.405534 223.705218 
L 295.434625 223.768644 
L 301.521898 223.603533 
L 313.696443 223.760236 
L 322.827352 223.96931 
L 325.870989 223.946214 
L 330.943716 224.217889 
L 333.987352 224.157881 
L 339.06008 224.152986 
L 359.350989 224.414736 
L 361.38008 224.522315 
L 366.452807 224.515097 
L 367.467352 224.394606 
L 367.467352 224.394606 
" clip-path="url(#p2cee218f07)" style="fill: none; stroke: #de8f05; stroke-width: 1.5; stroke-linecap: round"/>
   </g>
   <g id="line2d_20">
    <path d="M 67.161898 228.273352 
L 68.176443 228.190287 
L 72.234625 227.290512 
L 74.263716 227.320991 
L 76.292807 227.432916 
L 77.307352 227.432125 
L 78.321898 227.201712 
L 80.350989 226.575476 
L 81.365534 226.428288 
L 82.38008 226.076845 
L 83.394625 225.935494 
L 84.40917 226.022224 
L 88.467352 225.915864 
L 91.510989 225.681373 
L 93.54008 225.226642 
L 94.554625 225.03407 
L 99.627352 225.013575 
L 100.641898 224.813195 
L 102.670989 224.758239 
L 106.72917 224.977238 
L 107.743716 225.152084 
L 111.801898 225.220283 
L 112.816443 225.084654 
L 116.874625 225.207488 
L 117.88917 225.327819 
L 123.976443 225.413877 
L 126.005534 225.614915 
L 139.194625 225.51874 
L 140.20917 225.345132 
L 141.223716 225.374036 
L 143.252807 225.242671 
L 145.281898 225.374942 
L 152.383716 225.118606 
L 154.412807 225.282276 
L 156.441898 225.268277 
L 158.470989 224.534727 
L 161.514625 224.263106 
L 163.543716 224.667725 
L 166.587352 224.659735 
L 173.68917 224.337243 
L 175.718261 223.983098 
L 178.761898 224.009145 
L 180.790989 224.053069 
L 182.82008 223.66645 
L 183.834625 223.367463 
L 185.863716 223.250706 
L 187.892807 223.220381 
L 189.921898 222.920116 
L 191.950989 222.48849 
L 192.965534 222.355364 
L 194.994625 221.413026 
L 196.00917 221.470562 
L 198.038261 221.343287 
L 200.067352 222.109182 
L 204.125534 221.621794 
L 214.270989 220.900906 
L 215.285534 220.640689 
L 219.343716 226.112599 
L 220.358261 225.938069 
L 221.372807 225.897513 
L 224.416443 224.033677 
L 225.430989 223.622417 
L 226.445534 223.342516 
L 227.46008 223.528043 
L 229.48917 223.670361 
L 231.518261 223.135964 
L 232.532807 222.46529 
L 234.561898 221.403838 
L 236.590989 221.004434 
L 238.62008 221.147991 
L 239.634625 220.781012 
L 241.663716 220.524799 
L 243.692807 220.042168 
L 244.707352 220.434738 
L 245.721898 220.214266 
L 246.736443 220.313416 
L 247.750989 220.239082 
L 248.765534 219.978978 
L 249.78008 219.578775 
L 250.794625 219.441895 
L 254.852807 219.681415 
L 255.867352 220.001784 
L 256.881898 220.057807 
L 257.896443 220.258435 
L 259.925534 220.316614 
L 263.983716 220.23378 
L 264.998261 220.271009 
L 266.012807 220.13524 
L 268.041898 220.391695 
L 269.056443 220.423398 
L 270.070989 220.650169 
L 271.085534 220.692031 
L 272.10008 220.462726 
L 273.114625 220.423532 
L 277.172807 220.754989 
L 278.187352 220.611072 
L 283.26008 220.739077 
L 284.274625 220.58564 
L 285.28917 220.578944 
L 286.303716 220.38563 
L 289.347352 220.43019 
L 292.390989 220.161734 
L 296.44917 220.532199 
L 298.478261 220.419497 
L 301.521898 219.992202 
L 307.60917 219.162261 
L 308.623716 219.037892 
L 311.667352 219.04123 
L 312.681898 218.819484 
L 313.696443 218.743927 
L 314.710989 218.450993 
L 316.74008 218.29715 
L 317.754625 218.178265 
L 318.76917 217.939707 
L 320.798261 217.831628 
L 321.812807 217.786886 
L 324.856443 217.16393 
L 326.885534 216.361221 
L 329.92917 216.305071 
L 331.958261 216.124543 
L 333.987352 215.542567 
L 335.001898 215.651836 
L 337.030989 215.435476 
L 338.045534 215.735163 
L 339.06008 215.858908 
L 340.074625 215.541896 
L 342.103716 215.197004 
L 343.118261 214.669648 
L 344.132807 214.010158 
L 345.147352 213.696933 
L 349.205534 213.291177 
L 351.234625 213.239063 
L 354.278261 212.430364 
L 355.292807 211.917811 
L 356.307352 211.199096 
L 357.321898 210.9911 
L 358.336443 211.11468 
L 359.350989 211.058758 
L 361.38008 211.14412 
L 364.423716 210.023378 
L 366.452807 209.725678 
L 367.467352 209.654527 
L 367.467352 209.654527 
" clip-path="url(#p2cee218f07)" style="fill: none; stroke: #029e73; stroke-width: 1.5; stroke-linecap: round"/>
   </g>
   <g id="line2d_21">
    <path d="M 67.161898 226.812332 
L 68.176443 227.268972 
L 69.190989 226.006146 
L 70.205534 225.424228 
L 73.24917 224.232768 
L 74.263716 225.199846 
L 75.278261 225.394691 
L 77.307352 225.414366 
L 82.38008 223.858649 
L 84.40917 223.74388 
L 85.423716 223.614233 
L 89.481898 223.765487 
L 92.525534 223.85772 
L 94.554625 223.797569 
L 99.627352 223.828499 
L 101.656443 224.0615 
L 108.758261 223.767665 
L 110.787352 224.064281 
L 116.874625 224.310303 
L 118.903716 224.513743 
L 123.976443 224.181317 
L 127.02008 224.222888 
L 128.034625 224.235826 
L 130.063716 224.433842 
L 132.092807 224.393633 
L 134.121898 224.290088 
L 136.150989 223.910002 
L 138.18008 224.025088 
L 139.194625 224.0539 
L 140.20917 224.3248 
L 141.223716 224.476008 
L 145.281898 224.39676 
L 147.310989 223.017255 
L 150.354625 223.108667 
L 151.36917 223.901135 
L 152.383716 224.51788 
L 155.427352 224.362472 
L 159.485534 224.352206 
L 161.514625 224.526542 
L 164.558261 224.681794 
L 171.66008 224.268389 
L 173.68917 224.370144 
L 177.747352 224.427893 
L 180.790989 224.457905 
L 184.84917 224.400501 
L 191.950989 224.333366 
L 193.98008 224.27248 
L 196.00917 224.207949 
L 198.038261 224.17615 
L 200.067352 224.351654 
L 204.125534 224.26044 
L 206.154625 224.254761 
L 213.256443 224.370515 
L 215.285534 224.105397 
L 219.343716 220.372186 
L 220.358261 221.487574 
L 221.372807 221.494499 
L 222.387352 221.238908 
L 223.401898 221.189226 
L 225.430989 221.80152 
L 226.445534 221.941072 
L 227.46008 222.314091 
L 229.48917 222.104121 
L 230.503716 221.784711 
L 231.518261 221.711104 
L 232.532807 221.504388 
L 234.561898 221.266747 
L 235.576443 221.386474 
L 238.62008 221.257547 
L 240.64917 221.149733 
L 241.663716 221.271237 
L 242.678261 221.188892 
L 246.736443 221.378894 
L 248.765534 221.714712 
L 251.80917 221.455847 
L 252.823716 221.305353 
L 254.852807 221.387031 
L 255.867352 221.604076 
L 259.925534 221.760685 
L 260.94008 221.507862 
L 263.983716 221.124229 
L 269.056443 221.841379 
L 271.085534 221.851786 
L 274.12917 221.914639 
L 276.158261 221.575373 
L 279.201898 221.409703 
L 281.230989 221.540305 
L 284.274625 221.386668 
L 285.28917 221.501148 
L 287.318261 221.450615 
L 289.347352 221.544769 
L 295.434625 221.030828 
L 296.44917 221.153565 
L 297.463716 220.972755 
L 299.492807 221.1245 
L 300.507352 221.120878 
L 306.594625 220.316828 
L 307.60917 220.351714 
L 309.638261 220.721713 
L 312.681898 221.07342 
L 315.725534 220.550423 
L 320.798261 219.919817 
L 321.812807 219.713664 
L 322.827352 219.659122 
L 324.856443 219.781253 
L 325.870989 219.721856 
L 327.90008 219.85255 
L 336.016443 219.479453 
L 338.045534 219.466639 
L 344.132807 219.12412 
L 346.161898 218.986512 
L 355.292807 218.771056 
L 358.336443 218.414518 
L 361.38008 218.609124 
L 363.40917 219.229652 
L 365.438261 219.496337 
L 367.467352 219.287724 
L 367.467352 219.287724 
" clip-path="url(#p2cee218f07)" style="fill: none; stroke: #d55e00; stroke-width: 1.5; stroke-linecap: round"/>
   </g>
   <g id="line2d_22">
    <path d="M 67.161898 227.876764 
L 68.176443 227.960897 
L 69.190989 227.518511 
L 73.24917 227.244271 
L 74.263716 227.602991 
L 75.278261 227.659502 
L 79.336443 227.329897 
L 80.350989 227.151879 
L 82.38008 227.02128 
L 85.423716 227.031191 
L 88.467352 227.011644 
L 91.510989 226.938482 
L 99.627352 226.928667 
L 100.641898 227.050359 
L 104.70008 226.948008 
L 106.72917 226.819816 
L 108.758261 226.889115 
L 111.801898 226.960561 
L 114.845534 226.980979 
L 121.947352 227.182715 
L 126.005534 227.107787 
L 128.034625 227.01231 
L 134.121898 227.227396 
L 138.18008 227.180812 
L 144.267352 227.325282 
L 147.310989 227.222812 
L 150.354625 227.310523 
L 157.456443 227.40215 
L 170.645534 227.41614 
L 174.703716 227.515155 
L 203.110989 227.494784 
L 206.154625 227.558117 
L 213.256443 227.485497 
L 215.285534 227.227002 
L 219.343716 221.913057 
L 220.358261 221.640452 
L 221.372807 221.641953 
L 224.416443 222.54312 
L 225.430989 223.033109 
L 226.445534 223.314096 
L 228.474625 223.646772 
L 229.48917 223.432369 
L 230.503716 223.005481 
L 233.547352 222.798245 
L 235.576443 222.951188 
L 237.605534 222.896333 
L 239.634625 222.290214 
L 241.663716 222.634898 
L 242.678261 222.599303 
L 244.707352 222.928935 
L 246.736443 222.800143 
L 248.765534 223.23306 
L 249.78008 223.320969 
L 250.794625 223.258592 
L 251.80917 223.340762 
L 254.852807 223.132891 
L 257.896443 223.645602 
L 258.910989 223.610112 
L 259.925534 223.78142 
L 262.96917 223.471781 
L 263.983716 223.611545 
L 264.998261 223.551734 
L 267.027352 223.880141 
L 269.056443 224.046023 
L 271.085534 224.089886 
L 275.143716 223.778957 
L 277.172807 223.992437 
L 281.230989 224.458777 
L 283.26008 224.406494 
L 290.361898 224.541723 
L 293.405534 224.592034 
L 297.463716 224.637805 
L 300.507352 224.786752 
L 306.594625 224.46472 
L 307.60917 224.47665 
L 308.623716 224.619161 
L 311.667352 224.70639 
L 315.725534 224.878475 
L 318.76917 224.741735 
L 320.798261 224.741482 
L 322.827352 224.924326 
L 325.870989 225.001212 
L 328.914625 224.84931 
L 330.943716 224.92688 
L 333.987352 225.127928 
L 335.001898 225.129327 
L 338.045534 224.873358 
L 342.103716 224.886005 
L 344.132807 225.032701 
L 352.24917 225.317832 
L 355.292807 225.839209 
L 357.321898 225.981809 
L 359.350989 225.875636 
L 364.423716 226.037834 
L 366.452807 225.786769 
L 367.467352 225.657826 
L 367.467352 225.657826 
" clip-path="url(#p2cee218f07)" style="fill: none; stroke: #cc78bc; stroke-width: 1.5; stroke-linecap: round"/>
   </g>
   <g id="line2d_23"/>
   <g id="line2d_24"/>
   <g id="line2d_25"/>
   <g id="line2d_26"/>
   <g id="line2d_27"/>
   <g id="line2d_28"/>
   <g id="line2d_29">
    <path d="M 217.821898 228.96 
L 217.821898 7.2 
" clip-path="url(#p2cee218f07)" style="fill: none; stroke: #ffffff; stroke-opacity: 0.7; stroke-width: 3; stroke-linecap: round"/>
   </g>
   <g id="patch_3">
    <path d="M 49.914625 228.96 
L 49.914625 7.2 
" style="fill: none; stroke: #262626; stroke-width: 1.25; stroke-linejoin: miter; stroke-linecap: square"/>
   </g>
   <g id="patch_4">
    <path d="M 49.914625 228.96 
L 384.714625 228.96 
" style="fill: none; stroke: #262626; stroke-width: 1.25; stroke-linejoin: miter; stroke-linecap: square"/>
   </g>
   <g id="line2d_30">
    <path d="M 217.821898 228.96 
L 217.821898 7.2 
" clip-path="url(#p2cee218f07)" style="fill: none; stroke-dasharray: 1.5,2.475; stroke-dashoffset: 0; stroke: #1a1a1a; stroke-width: 1.5"/>
   </g>
   <g id="legend_1">
    <g id="line2d_31">
     <path d="M 60.804625 73.463141 
L 72.904625 73.463141 
L 85.004625 73.463141 
" style="fill: none; stroke: #0173b2; stroke-width: 1.5; stroke-linecap: round"/>
    </g>
    <g id="text_15">
     <text style="fill: #262626; font: 12.1px 'Arial', 'DejaVu Sans', 'Liberation Sans', 'Bitstream Vera Sans', sans-serif; text-anchor: start" x="94.684625" y="77.698141" transform="rotate(-0 94.684625 77.698141)">GIAB - HG002 Long Insert (CB)</text>
    </g>
    <g id="line2d_32">
     <path d="M 60.804625 90.868234 
L 72.904625 90.868234 
L 85.004625 90.868234 
" style="fill: none; stroke: #de8f05; stroke-width: 1.5; stroke-linecap: round"/>
    </g>
    <g id="text_16">
     <text style="fill: #262626; font: 12.1px 'Arial', 'DejaVu Sans', 'Liberation Sans', 'Bitstream Vera Sans', sans-serif; text-anchor: start" x="94.684625" y="95.103234" transform="rotate(-0 94.684625 95.103234)">GIAB - HG002 Std Insert (CB)</text>
    </g>
    <g id="line2d_33">
     <path d="M 60.804625 108.273328 
L 72.904625 108.273328 
L 85.004625 108.273328 
" style="fill: none; stroke: #029e73; stroke-width: 1.5; stroke-linecap: round"/>
    </g>
    <g id="text_17">
     <text style="fill: #262626; font: 12.1px 'Arial', 'DejaVu Sans', 'Liberation Sans', 'Bitstream Vera Sans', sans-serif; text-anchor: start" x="94.684625" y="112.508328" transform="rotate(-0 94.684625 112.508328)">Arslan et al. 2024 - HG002 (CB)</text>
    </g>
    <g id="line2d_34">
     <path d="M 60.804625 125.678422 
L 72.904625 125.678422 
L 85.004625 125.678422 
" style="fill: none; stroke: #d55e00; stroke-width: 1.5; stroke-linecap: round"/>
    </g>
    <g id="text_18">
     <text style="fill: #262626; font: 12.1px 'Arial', 'DejaVu Sans', 'Liberation Sans', 'Bitstream Vera Sans', sans-serif; text-anchor: start" x="94.684625" y="129.913422" transform="rotate(-0 94.684625 129.913422)">Platinum Pedigree - NA12878 (CB)</text>
    </g>
    <g id="line2d_35">
     <path d="M 60.804625 143.083516 
L 72.904625 143.083516 
L 85.004625 143.083516 
" style="fill: none; stroke: #cc78bc; stroke-width: 1.5; stroke-linecap: round"/>
    </g>
    <g id="text_19">
     <text style="fill: #262626; font: 12.1px 'Arial', 'DejaVu Sans', 'Liberation Sans', 'Bitstream Vera Sans', sans-serif; text-anchor: start" x="94.684625" y="147.318516" transform="rotate(-0 94.684625 147.318516)">GIAB - HG008-N-D (CB)</text>
    </g>
    <g id="line2d_36">
     <path d="M 60.804625 160.488609 
L 72.904625 160.488609 
L 85.004625 160.488609 
" style="fill: none; stroke: #ca9161; stroke-width: 1.5; stroke-linecap: round"/>
    </g>
    <g id="text_20">
     <text style="fill: #262626; font: 12.1px 'Arial', 'DejaVu Sans', 'Liberation Sans', 'Bitstream Vera Sans', sans-serif; text-anchor: start" x="94.684625" y="164.723609" transform="rotate(-0 94.684625 164.723609)">Element Bio - HG002 (CB FS)</text>
    </g>
   </g>
  </g>
 </g>
 <defs>
  <clipPath id="p2cee218f07">
   <rect x="49.914625" y="7.2" width="334.8" height="221.76"/>
  </clipPath>
 </defs>
</svg>
