<?xml version="1.0" encoding="utf-8" standalone="no"?>
<!DOCTYPE svg PUBLIC "-//W3C//DTD SVG 1.1//EN"
  "http://www.w3.org/Graphics/SVG/1.1/DTD/svg11.dtd">
<svg xmlns:xlink="http://www.w3.org/1999/xlink" width="414.0655pt" height="317.465203pt" viewBox="0 0 414.0655 317.465203" xmlns="http://www.w3.org/2000/svg" version="1.1">
 <metadata>
  <rdf:RDF xmlns:dc="http://purl.org/dc/elements/1.1/" xmlns:cc="http://creativecommons.org/ns#" xmlns:rdf="http://www.w3.org/1999/02/22-rdf-syntax-ns#">
   <cc:Work>
    <dc:type rdf:resource="http://purl.org/dc/dcmitype/StillImage"/>
    <dc:date>2025-08-07T12:58:49.750449</dc:date>
    <dc:format>image/svg+xml</dc:format>
    <dc:creator>
     <cc:Agent>
      <dc:title>Matplotlib v3.9.2, https://matplotlib.org/</dc:title>
     </cc:Agent>
    </dc:creator>
   </cc:Work>
  </rdf:RDF>
 </metadata>
 <defs>
  <style type="text/css">*{stroke-linejoin: round; stroke-linecap: butt}</style>
 </defs>
 <g id="figure_1">
  <g id="patch_1">
   <path d="M 0 317.465203 
L 414.0655 317.465203 
L 414.0655 0 
L 0 0 
L 0 317.465203 
z
" style="fill: none"/>
  </g>
  <g id="axes_1">
   <g id="patch_2">
    <path d="M 49.7455 273.312 
L 406.8655 273.312 
L 406.8655 7.2 
L 49.7455 7.2 
L 49.7455 273.312 
z
" style="fill: none"/>
   </g>
   <g id="matplotlib.axis_1">
    <g id="xtick_1">
     <g id="line2d_1">
      <defs>
       <path id="mc171187a2b" d="M 0 0 
L 0 6 
" style="stroke: #262626; stroke-width: 1.25"/>
      </defs>
      <g>
       <use xlink:href="#mc171187a2b" x="56.210684" y="273.312" style="fill: #262626; stroke: #262626; stroke-width: 1.25"/>
      </g>
     </g>
     <g id="text_1">
      <text style="fill: #262626; font: 12.1px 'Arial', 'DejaVu Sans', 'Liberation Sans', 'Bitstream Vera Sans', sans-serif; text-anchor: middle" x="56.210684" y="291.472953" transform="rotate(-0 56.210684 291.472953)">0</text>
     </g>
    </g>
    <g id="xtick_2">
     <g id="line2d_2">
      <g>
       <use xlink:href="#mc171187a2b" x="102.722796" y="273.312" style="fill: #262626; stroke: #262626; stroke-width: 1.25"/>
      </g>
     </g>
     <g id="text_2">
      <text style="fill: #262626; font: 12.1px 'Arial', 'DejaVu Sans', 'Liberation Sans', 'Bitstream Vera Sans', sans-serif; text-anchor: middle" x="102.722796" y="291.472953" transform="rotate(-0 102.722796 291.472953)">100</text>
     </g>
    </g>
    <g id="xtick_3">
     <g id="line2d_3">
      <g>
       <use xlink:href="#mc171187a2b" x="149.234909" y="273.312" style="fill: #262626; stroke: #262626; stroke-width: 1.25"/>
      </g>
     </g>
     <g id="text_3">
      <text style="fill: #262626; font: 12.1px 'Arial', 'DejaVu Sans', 'Liberation Sans', 'Bitstream Vera Sans', sans-serif; text-anchor: middle" x="149.234909" y="291.472953" transform="rotate(-0 149.234909 291.472953)">200</text>
     </g>
    </g>
    <g id="xtick_4">
     <g id="line2d_4">
      <g>
       <use xlink:href="#mc171187a2b" x="195.747021" y="273.312" style="fill: #262626; stroke: #262626; stroke-width: 1.25"/>
      </g>
     </g>
     <g id="text_4">
      <text style="fill: #262626; font: 12.1px 'Arial', 'DejaVu Sans', 'Liberation Sans', 'Bitstream Vera Sans', sans-serif; text-anchor: middle" x="195.747021" y="291.472953" transform="rotate(-0 195.747021 291.472953)">300</text>
     </g>
    </g>
    <g id="xtick_5">
     <g id="line2d_5">
      <g>
       <use xlink:href="#mc171187a2b" x="242.259134" y="273.312" style="fill: #262626; stroke: #262626; stroke-width: 1.25"/>
      </g>
     </g>
     <g id="text_5">
      <text style="fill: #262626; font: 12.1px 'Arial', 'DejaVu Sans', 'Liberation Sans', 'Bitstream Vera Sans', sans-serif; text-anchor: middle" x="242.259134" y="291.472953" transform="rotate(-0 242.259134 291.472953)">400</text>
     </g>
    </g>
    <g id="xtick_6">
     <g id="line2d_6">
      <g>
       <use xlink:href="#mc171187a2b" x="288.771246" y="273.312" style="fill: #262626; stroke: #262626; stroke-width: 1.25"/>
      </g>
     </g>
     <g id="text_6">
      <text style="fill: #262626; font: 12.1px 'Arial', 'DejaVu Sans', 'Liberation Sans', 'Bitstream Vera Sans', sans-serif; text-anchor: middle" x="288.771246" y="291.472953" transform="rotate(-0 288.771246 291.472953)">500</text>
     </g>
    </g>
    <g id="xtick_7">
     <g id="line2d_7">
      <g>
       <use xlink:href="#mc171187a2b" x="335.283359" y="273.312" style="fill: #262626; stroke: #262626; stroke-width: 1.25"/>
      </g>
     </g>
     <g id="text_7">
      <text style="fill: #262626; font: 12.1px 'Arial', 'DejaVu Sans', 'Liberation Sans', 'Bitstream Vera Sans', sans-serif; text-anchor: middle" x="335.283359" y="291.472953" transform="rotate(-0 335.283359 291.472953)">600</text>
     </g>
    </g>
    <g id="xtick_8">
     <g id="line2d_8">
      <g>
       <use xlink:href="#mc171187a2b" x="381.795471" y="273.312" style="fill: #262626; stroke: #262626; stroke-width: 1.25"/>
      </g>
     </g>
     <g id="text_8">
      <text style="fill: #262626; font: 12.1px 'Arial', 'DejaVu Sans', 'Liberation Sans', 'Bitstream Vera Sans', sans-serif; text-anchor: middle" x="381.795471" y="291.472953" transform="rotate(-0 381.795471 291.472953)">700</text>
     </g>
    </g>
    <g id="text_9">
     <text style="fill: #262626; font: 13.2px 'Arial', 'DejaVu Sans', 'Liberation Sans', 'Bitstream Vera Sans', sans-serif; text-anchor: middle" x="228.3055" y="307.487016" transform="rotate(-0 228.3055 307.487016)">Insert size (bp)</text>
    </g>
   </g>
   <g id="matplotlib.axis_2">
    <g id="ytick_1">
     <g id="line2d_9">
      <defs>
       <path id="m54b1539600" d="M 0 0 
L -6 0 
" style="stroke: #262626; stroke-width: 1.25"/>
      </defs>
      <g>
       <use xlink:href="#m54b1539600" x="49.7455" y="261.622005" style="fill: #262626; stroke: #262626; stroke-width: 1.25"/>
      </g>
     </g>
     <g id="text_10">
      <text style="fill: #262626; font: 12.1px 'Arial', 'DejaVu Sans', 'Liberation Sans', 'Bitstream Vera Sans', sans-serif; text-anchor: end" x="40.2455" y="265.952482" transform="rotate(-0 40.2455 265.952482)">0.0</text>
     </g>
    </g>
    <g id="ytick_2">
     <g id="line2d_10">
      <g>
       <use xlink:href="#m54b1539600" x="49.7455" y="213.278052" style="fill: #262626; stroke: #262626; stroke-width: 1.25"/>
      </g>
     </g>
     <g id="text_11">
      <text style="fill: #262626; font: 12.1px 'Arial', 'DejaVu Sans', 'Liberation Sans', 'Bitstream Vera Sans', sans-serif; text-anchor: end" x="40.2455" y="217.608529" transform="rotate(-0 40.2455 217.608529)">0.1</text>
     </g>
    </g>
    <g id="ytick_3">
     <g id="line2d_11">
      <g>
       <use xlink:href="#m54b1539600" x="49.7455" y="164.934099" style="fill: #262626; stroke: #262626; stroke-width: 1.25"/>
      </g>
     </g>
     <g id="text_12">
      <text style="fill: #262626; font: 12.1px 'Arial', 'DejaVu Sans', 'Liberation Sans', 'Bitstream Vera Sans', sans-serif; text-anchor: end" x="40.2455" y="169.264576" transform="rotate(-0 40.2455 169.264576)">0.2</text>
     </g>
    </g>
    <g id="ytick_4">
     <g id="line2d_12">
      <g>
       <use xlink:href="#m54b1539600" x="49.7455" y="116.590146" style="fill: #262626; stroke: #262626; stroke-width: 1.25"/>
      </g>
     </g>
     <g id="text_13">
      <text style="fill: #262626; font: 12.1px 'Arial', 'DejaVu Sans', 'Liberation Sans', 'Bitstream Vera Sans', sans-serif; text-anchor: end" x="40.2455" y="120.920623" transform="rotate(-0 40.2455 120.920623)">0.3</text>
     </g>
    </g>
    <g id="ytick_5">
     <g id="line2d_13">
      <g>
       <use xlink:href="#m54b1539600" x="49.7455" y="68.246193" style="fill: #262626; stroke: #262626; stroke-width: 1.25"/>
      </g>
     </g>
     <g id="text_14">
      <text style="fill: #262626; font: 12.1px 'Arial', 'DejaVu Sans', 'Liberation Sans', 'Bitstream Vera Sans', sans-serif; text-anchor: end" x="40.2455" y="72.57667" transform="rotate(-0 40.2455 72.57667)">0.4</text>
     </g>
    </g>
    <g id="ytick_6">
     <g id="line2d_14">
      <g>
       <use xlink:href="#m54b1539600" x="49.7455" y="19.90224" style="fill: #262626; stroke: #262626; stroke-width: 1.25"/>
      </g>
     </g>
     <g id="text_15">
      <text style="fill: #262626; font: 12.1px 'Arial', 'DejaVu Sans', 'Liberation Sans', 'Bitstream Vera Sans', sans-serif; text-anchor: end" x="40.2455" y="24.232717" transform="rotate(-0 40.2455 24.232717)">0.5</text>
     </g>
    </g>
    <g id="text_16">
     <text style="fill: #262626; font: 13.2px 'Arial', 'DejaVu Sans', 'Liberation Sans', 'Bitstream Vera Sans', sans-serif; text-anchor: middle" x="16.648313" y="140.256" transform="rotate(-90 16.648313 140.256)">Relative read pair density</text>
    </g>
   </g>
   <g id="PolyCollection_1"/>
   <g id="PolyCollection_2"/>
   <g id="PolyCollection_3"/>
   <g id="PolyCollection_4"/>
   <g id="PolyCollection_5"/>
   <g id="PolyCollection_6"/>
   <g id="PolyCollection_7"/>
   <g id="PolyCollection_8"/>
   <g id="PolyCollection_9"/>
   <g id="PolyCollection_10"/>
   <g id="PolyCollection_11"/>
   <g id="PolyCollection_12"/>
   <g id="line2d_15">
    <path d="M 65.978227 260.770469 
L 67.373591 260.965061 
L 80.396982 260.92251 
L 81.792346 260.837149 
L 82.722588 260.881516 
L 84.583072 260.787333 
L 90.164526 260.620503 
L 91.094768 260.571206 
L 92.490131 260.557195 
L 92.955253 260.477542 
L 93.885495 260.523466 
L 94.815737 260.430581 
L 95.280858 260.281653 
L 98.536706 260.281653 
L 99.466948 260.193697 
L 99.932069 260.070455 
L 103.187917 259.968488 
L 105.048402 259.648578 
L 105.978644 259.567369 
L 107.374007 259.4091 
L 107.839129 259.42337 
L 109.234492 259.039374 
L 109.699613 259.111244 
L 110.164734 258.970878 
L 110.629855 259.043785 
L 112.025219 258.78848 
L 112.49034 258.6834 
L 112.955461 258.747486 
L 114.350824 258.277869 
L 115.746188 258.154368 
L 117.141551 257.9001 
L 118.071793 257.675411 
L 119.002036 257.347977 
L 120.397399 257.06465 
L 120.86252 256.86876 
L 121.792762 256.761345 
L 122.723005 256.444808 
L 124.118368 255.929009 
L 126.443974 255.433187 
L 126.909095 255.524775 
L 128.304458 254.858231 
L 128.769579 254.539619 
L 129.2347 254.50537 
L 130.164943 254.139536 
L 130.630064 254.161071 
L 132.955669 253.374399 
L 135.281275 252.322821 
L 136.211517 252.225266 
L 138.072002 251.166423 
L 139.467365 250.323449 
L 142.258092 249.164716 
L 144.118576 247.593965 
L 144.583697 247.373946 
L 145.048819 246.969713 
L 146.444182 246.469999 
L 147.374424 245.757791 
L 147.839545 245.355633 
L 148.304666 244.696873 
L 149.70003 243.636214 
L 152.025635 242.110869 
L 152.955878 240.769219 
L 154.816362 238.821997 
L 156.211726 237.768344 
L 156.676847 237.118924 
L 157.141968 236.669026 
L 158.07221 235.169626 
L 158.537331 234.32743 
L 159.002452 233.872343 
L 159.467573 233.129519 
L 160.862937 231.891652 
L 161.328058 231.587828 
L 162.2583 230.03031 
L 162.723421 228.787513 
L 164.118785 226.278049 
L 164.583906 225.89535 
L 165.514148 224.72572 
L 165.979269 224.346913 
L 167.374633 221.500155 
L 168.304875 219.197478 
L 169.700238 216.638977 
L 170.165359 216.260948 
L 171.095602 214.724187 
L 171.560723 213.666123 
L 172.490965 211.066368 
L 173.886328 207.402062 
L 174.816571 205.718448 
L 175.281692 205.106131 
L 176.211934 203.03411 
L 176.677055 201.810772 
L 178.53754 195.818363 
L 179.002661 194.429751 
L 180.398024 191.725954 
L 180.863145 190.784126 
L 181.328266 189.512529 
L 183.653872 180.515872 
L 184.118993 179.397354 
L 184.584114 177.854885 
L 185.049235 177.118547 
L 185.979478 174.880993 
L 186.444599 173.288189 
L 187.839962 166.22137 
L 188.305083 164.77931 
L 188.770204 162.843504 
L 189.235325 161.918801 
L 190.630689 157.94652 
L 192.026052 151.078445 
L 192.491173 148.575726 
L 192.956294 146.969949 
L 193.421416 144.742255 
L 194.351658 141.350119 
L 194.816779 140.454216 
L 195.747021 137.461124 
L 197.142385 130.183107 
L 198.072627 124.258675 
L 198.537748 123.206579 
L 199.933111 119.008312 
L 200.863354 115.528999 
L 202.723838 104.318398 
L 204.119201 99.712005 
L 205.514565 95.490646 
L 205.979686 93.201201 
L 206.909928 87.256013 
L 207.84017 81.988525 
L 208.305292 80.693577 
L 208.770413 78.987909 
L 209.700655 77.338544 
L 210.165776 75.823576 
L 211.096018 70.940084 
L 212.491382 63.125251 
L 212.956503 61.418027 
L 213.886745 59.323174 
L 214.816987 58.014994 
L 215.74723 54.885169 
L 217.607714 45.057991 
L 218.072835 44.574883 
L 218.537956 43.588688 
L 219.003077 43.289794 
L 219.468199 42.736633 
L 220.398441 40.924847 
L 221.328683 37.155202 
L 221.793804 35.489491 
L 222.258925 33.355201 
L 223.189168 31.215203 
L 223.654289 31.360758 
L 224.11941 32.511967 
L 224.584531 32.219041 
L 225.514773 30.827834 
L 226.445015 27.551935 
L 226.910137 26.240642 
L 227.840379 25.191918 
L 228.3055 25.196069 
L 229.235742 26.648248 
L 229.700863 27.088286 
L 230.165985 26.785241 
L 230.631106 26.16047 
L 231.096227 24.756031 
L 232.026469 23.390511 
L 232.49159 23.325128 
L 232.956711 24.037855 
L 234.817196 27.742117 
L 235.282317 27.633924 
L 236.212559 27.080762 
L 236.67768 26.337678 
L 237.142801 26.060579 
L 237.607923 27.713058 
L 238.073044 28.483125 
L 239.468407 32.924244 
L 240.398649 34.132533 
L 241.328892 33.870482 
L 241.794013 34.067409 
L 242.724255 36.511231 
L 243.189376 37.862481 
L 243.654497 39.897918 
L 245.049861 43.696363 
L 245.514982 44.274432 
L 245.980103 44.199449 
L 246.445224 44.350453 
L 246.910345 45.294875 
L 247.375466 46.86329 
L 247.840587 48.903657 
L 248.305708 50.404873 
L 249.235951 54.676566 
L 249.701072 55.661723 
L 251.096435 57.729592 
L 251.561556 58.53728 
L 252.95692 62.983069 
L 253.422041 65.725526 
L 253.887162 66.99816 
L 254.352283 69.191087 
L 254.817404 70.411831 
L 255.282525 70.921663 
L 255.747646 71.649439 
L 256.677889 73.778799 
L 257.608131 77.82243 
L 259.468615 84.691025 
L 261.3291 89.025507 
L 261.794221 90.773466 
L 262.259342 91.965928 
L 262.724463 94.426355 
L 263.189584 95.938987 
L 263.654706 98.312496 
L 264.584948 101.589433 
L 265.050069 101.770274 
L 265.51519 103.324679 
L 265.980311 104.173361 
L 266.910553 107.332764 
L 267.375675 109.188917 
L 267.840796 110.372558 
L 268.771038 114.725202 
L 270.631522 119.485452 
L 271.096644 120.182093 
L 272.957128 126.765286 
L 273.422249 128.607946 
L 274.817613 132.52133 
L 276.212976 135.888299 
L 277.608339 140.52401 
L 279.003703 145.426442 
L 279.468824 146.165893 
L 280.399066 148.209374 
L 280.864187 149.20439 
L 282.724672 154.775961 
L 283.189793 156.578406 
L 283.654914 157.897483 
L 284.120035 158.710361 
L 285.050277 161.003698 
L 285.515398 161.676209 
L 285.98052 163.059632 
L 286.910762 165.296407 
L 288.306125 169.581592 
L 288.771246 170.607484 
L 289.236367 171.972225 
L 289.701489 172.723093 
L 290.16661 173.824486 
L 290.631731 174.434987 
L 291.561973 177.10298 
L 292.027094 177.84762 
L 292.492215 179.566001 
L 293.422458 182.067682 
L 293.887579 182.605535 
L 294.3527 183.733653 
L 295.282942 185.174415 
L 296.213184 187.252403 
L 297.143427 189.226868 
L 297.608548 190.547761 
L 298.53879 192.351504 
L 299.003911 193.602863 
L 299.469032 194.053798 
L 300.864396 196.500215 
L 301.794638 198.560041 
L 302.259759 199.445307 
L 302.72488 200.669163 
L 304.585365 203.837388 
L 305.980728 205.901625 
L 306.445849 206.985894 
L 306.91097 207.631422 
L 308.771455 211.247468 
L 309.236576 211.545325 
L 310.166818 213.062108 
L 310.631939 213.547811 
L 311.562181 215.043837 
L 312.027303 215.675614 
L 312.492424 216.660511 
L 314.818029 219.9032 
L 315.748272 221.094106 
L 316.213393 221.934486 
L 317.143635 223.022906 
L 317.608756 223.944237 
L 318.073877 224.296319 
L 319.469241 226.14365 
L 320.864604 227.566251 
L 322.259967 229.453538 
L 322.725088 229.822226 
L 323.655331 230.844225 
L 324.120452 231.202795 
L 327.841421 235.1154 
L 328.306542 235.499915 
L 328.771663 236.045552 
L 329.236784 236.321095 
L 329.701905 237.011509 
L 330.167026 237.215961 
L 331.56239 238.521546 
L 332.027511 238.984676 
L 332.492632 239.235311 
L 332.957753 239.683912 
L 333.422874 239.786657 
L 333.887995 240.47759 
L 335.283359 241.473384 
L 336.678722 242.523924 
L 338.074086 243.547999 
L 338.539207 243.782548 
L 339.93457 244.844244 
L 341.795055 245.895303 
L 342.725297 246.621003 
L 343.655539 247.03795 
L 344.12066 247.243439 
L 344.585781 247.672321 
L 346.446266 248.642429 
L 349.236993 250.006133 
L 349.702114 250.156878 
L 350.167235 250.458107 
L 350.632356 250.562668 
L 351.562598 251.171612 
L 352.49284 251.341297 
L 352.957962 251.64564 
L 353.423083 251.787822 
L 354.353325 252.314259 
L 362.260384 254.9781 
L 362.260384 254.9781 
" clip-path="url(#p8b1d6544e6)" style="fill: none; stroke: #0173b2; stroke-opacity: 0.9; stroke-width: 1.5; stroke-linecap: round"/>
   </g>
   <g id="line2d_16">
    <path d="M 65.978227 260.841509 
L 67.838712 261.00324 
L 78.536498 260.930384 
L 79.931861 260.916691 
L 80.862103 260.845126 
L 82.257467 260.809989 
L 82.722588 260.834791 
L 83.65283 260.723181 
L 85.513315 260.674352 
L 86.443557 260.627331 
L 87.83892 260.593744 
L 88.769162 260.568167 
L 90.164526 260.525021 
L 90.629647 260.444156 
L 91.559889 260.504611 
L 94.815737 260.329962 
L 95.280858 260.13051 
L 96.676222 260.241862 
L 98.071585 260.111908 
L 99.001827 260.051711 
L 100.862312 259.878354 
L 101.327433 259.969037 
L 102.257675 259.7515 
L 102.722796 259.819707 
L 105.048402 259.370682 
L 105.978644 259.313843 
L 106.443765 259.298342 
L 106.908886 259.124984 
L 107.374007 259.209726 
L 108.769371 258.981596 
L 109.234492 258.779819 
L 109.699613 258.810047 
L 110.164734 258.681385 
L 110.629855 258.796096 
L 111.094976 258.609304 
L 113.420582 258.305476 
L 113.885703 258.070371 
L 114.350824 258.084322 
L 114.815945 257.973487 
L 115.281067 258.003457 
L 116.211309 257.761893 
L 117.606672 257.601195 
L 119.002036 257.045985 
L 119.932278 256.985013 
L 120.86252 256.655091 
L 122.257883 256.512736 
L 124.118368 255.732756 
L 126.443974 255.391725 
L 126.909095 255.475691 
L 129.699821 254.37509 
L 131.095185 254.158329 
L 132.490548 253.872069 
L 134.351033 252.873777 
L 137.606881 251.840866 
L 139.932486 250.56329 
L 140.397607 250.406467 
L 140.862728 250.399233 
L 141.792971 249.959251 
L 143.188334 249.062752 
L 144.118576 248.211724 
L 145.048819 247.886711 
L 147.374424 246.605519 
L 147.839545 246.266812 
L 149.234909 244.913538 
L 152.025635 243.318183 
L 152.490757 242.863217 
L 152.955878 242.071869 
L 154.351241 240.476514 
L 154.816362 240.460238 
L 155.281483 239.819254 
L 155.746604 239.709711 
L 156.211726 239.413633 
L 157.141968 238.342227 
L 158.537331 236.19838 
L 159.002452 235.842105 
L 159.467573 235.16676 
L 161.328058 233.361361 
L 162.723421 231.227073 
L 164.118785 228.820478 
L 166.909511 225.086443 
L 168.304875 222.059015 
L 169.235117 220.367552 
L 170.63048 218.617183 
L 171.095602 217.923494 
L 171.560723 216.965764 
L 172.956086 212.933586 
L 173.421207 212.060081 
L 173.886328 210.858979 
L 175.281692 208.383918 
L 175.746813 207.61944 
L 177.142176 204.204993 
L 177.607297 202.215127 
L 179.467782 197.452573 
L 180.398024 195.594728 
L 180.863145 194.562591 
L 182.258509 189.802104 
L 183.653872 184.686118 
L 185.049235 181.679617 
L 186.444599 177.580782 
L 187.839962 170.783667 
L 188.305083 169.375362 
L 188.770204 167.468429 
L 189.700447 165.480888 
L 190.165568 164.328616 
L 190.630689 162.875616 
L 192.491173 154.376961 
L 192.956294 151.55596 
L 193.886537 148.536024 
L 194.351658 147.49252 
L 194.816779 145.676529 
L 195.2819 144.524773 
L 195.747021 142.821425 
L 196.677263 138.205618 
L 197.607506 132.686336 
L 198.537748 128.740966 
L 199.46799 126.246011 
L 200.398232 123.759583 
L 201.328475 119.24376 
L 202.258717 113.388615 
L 203.65408 106.65273 
L 204.119201 106.029831 
L 204.584323 104.453853 
L 205.049444 103.608767 
L 205.514565 101.864598 
L 206.444807 97.038489 
L 207.375049 91.46366 
L 208.305292 87.360434 
L 208.770413 85.981324 
L 209.235534 85.089992 
L 210.630897 81.081065 
L 212.956503 68.934925 
L 213.886745 67.054861 
L 214.351866 66.552873 
L 215.282108 64.071871 
L 216.212351 60.223642 
L 217.142593 55.137109 
L 218.072835 52.479132 
L 219.003077 51.102088 
L 219.468199 50.633945 
L 219.93332 50.384889 
L 220.398441 49.418634 
L 221.793804 43.574856 
L 222.258925 42.394422 
L 222.724046 40.903444 
L 223.654289 40.478447 
L 224.11941 40.701409 
L 224.584531 40.76574 
L 225.514773 39.30318 
L 226.910137 34.693316 
L 227.375258 33.896801 
L 227.840379 33.438734 
L 228.3055 33.560162 
L 229.235742 35.163009 
L 229.700863 35.492414 
L 230.165985 35.370211 
L 231.096227 32.989709 
L 231.561348 32.575046 
L 232.026469 31.292303 
L 232.49159 31.356376 
L 232.956711 31.992193 
L 233.421832 33.304646 
L 233.886954 33.762455 
L 234.352075 34.736461 
L 234.817196 34.681948 
L 235.282317 35.080076 
L 235.747438 34.922737 
L 236.212559 34.185127 
L 236.67768 33.797592 
L 237.142801 33.683398 
L 237.607923 34.399564 
L 238.538165 36.542377 
L 239.468407 39.383788 
L 240.398649 40.062492 
L 240.86377 39.384821 
L 241.328892 39.394897 
L 242.724255 41.639762 
L 243.189376 42.89951 
L 244.119618 46.411358 
L 245.049861 48.5056 
L 245.514982 48.28238 
L 246.445224 48.903728 
L 246.910345 49.536703 
L 247.375466 50.886877 
L 247.840587 51.731446 
L 249.235951 57.555848 
L 250.166193 59.779268 
L 250.631314 59.549072 
L 251.096435 60.245086 
L 251.561556 61.431462 
L 252.026677 61.908389 
L 252.491799 63.442255 
L 252.95692 65.650432 
L 253.422041 66.851018 
L 254.352283 70.558441 
L 254.817404 72.014283 
L 255.282525 72.300801 
L 255.747646 72.810281 
L 256.677889 74.675361 
L 257.14301 76.499878 
L 257.608131 77.335147 
L 258.073252 79.890298 
L 259.003494 83.495412 
L 259.933737 85.74286 
L 260.398858 86.196018 
L 261.3291 88.013819 
L 262.259342 91.222613 
L 263.189584 94.995659 
L 263.654706 96.880891 
L 264.584948 99.608366 
L 265.050069 100.517525 
L 265.51519 101.147916 
L 265.980311 102.118822 
L 267.375675 106.315057 
L 267.840796 107.849181 
L 268.305917 110.040824 
L 268.771038 111.673124 
L 270.166401 114.530553 
L 271.096644 117.051342 
L 271.561765 118.096913 
L 274.352491 128.017307 
L 274.817613 128.037459 
L 275.747855 130.390059 
L 276.212976 131.248837 
L 277.143218 134.294867 
L 277.608339 136.212393 
L 278.538582 138.767028 
L 279.468824 141.251389 
L 280.864187 144.214228 
L 281.329308 145.205544 
L 281.794429 146.506113 
L 282.259551 148.289293 
L 282.724672 149.489362 
L 283.189793 151.12502 
L 284.120035 153.423623 
L 285.98052 156.985592 
L 288.771246 164.822336 
L 290.631731 168.413241 
L 291.561973 170.610309 
L 292.957336 174.370696 
L 293.422458 175.215782 
L 293.887579 176.364179 
L 294.3527 177.000254 
L 294.817821 177.943516 
L 295.282942 178.628937 
L 298.53879 185.993663 
L 299.003911 186.954234 
L 300.399274 189.174555 
L 304.120243 196.555557 
L 304.585365 197.268365 
L 305.050486 197.770094 
L 305.980728 199.506253 
L 306.91097 201.209085 
L 307.841212 203.351898 
L 308.306334 203.790588 
L 309.236576 205.17409 
L 310.166818 206.746968 
L 310.631939 207.294168 
L 311.09706 208.264299 
L 312.027303 209.537999 
L 312.957545 211.367942 
L 314.818029 213.660344 
L 315.28315 214.483211 
L 315.748272 214.811067 
L 316.213393 215.466002 
L 317.143635 217.237039 
L 319.004119 219.686264 
L 319.469241 219.975366 
L 321.329725 222.506748 
L 322.259967 223.82256 
L 323.19021 224.855472 
L 324.120452 225.889934 
L 325.050694 226.801159 
L 325.515815 227.44731 
L 325.980936 227.902793 
L 326.446057 228.602166 
L 326.911179 229.033622 
L 327.3763 229.710259 
L 331.097269 233.406057 
L 331.56239 233.587424 
L 332.027511 234.376963 
L 333.887995 235.728428 
L 334.353117 236.346935 
L 335.74848 237.360987 
L 336.213601 237.944357 
L 337.608964 238.930764 
L 342.260176 242.635346 
L 343.655539 243.459763 
L 344.585781 243.921447 
L 345.516024 244.623145 
L 345.981145 244.916638 
L 346.446266 245.4101 
L 349.702114 247.067203 
L 352.027719 248.326435 
L 352.49284 248.772359 
L 352.957962 248.824031 
L 354.353325 249.466306 
L 355.748688 250.199265 
L 356.678931 250.617545 
L 361.795263 252.595268 
L 362.260384 252.937075 
L 363.655747 253.223334 
L 364.58599 253.586843 
L 365.051111 253.654016 
L 365.516232 253.904105 
L 366.446474 254.196824 
L 367.376716 254.493934 
L 367.841838 254.54173 
L 368.77208 254.838066 
L 369.237201 254.88457 
L 369.702322 255.11425 
L 370.167443 255.17238 
L 370.632564 255.381391 
L 370.632564 255.381391 
" clip-path="url(#p8b1d6544e6)" style="fill: none; stroke-dasharray: 6,2.25; stroke-dashoffset: 0; stroke: #0173b2; stroke-opacity: 0.9; stroke-width: 1.5"/>
   </g>
   <g id="line2d_17">
    <path d="M 65.978227 261.026466 
L 67.373591 261.166781 
L 71.09456 261.215686 
L 89.699405 260.742179 
L 96.2111 260.429098 
L 96.676222 260.491029 
L 98.071585 260.302723 
L 98.536706 260.348886 
L 100.397191 260.095222 
L 102.257675 260.03032 
L 103.187917 259.917428 
L 103.653038 259.874694 
L 104.11816 259.608918 
L 105.978644 259.443693 
L 107.374007 259.27527 
L 107.839129 259.289895 
L 110.164734 258.662591 
L 110.629855 258.767941 
L 112.025219 258.465144 
L 113.420582 258.213537 
L 113.885703 257.948675 
L 117.141551 257.387414 
L 117.606672 257.375988 
L 119.467157 256.583459 
L 122.723005 255.895367 
L 123.653247 255.315367 
L 124.583489 255.017826 
L 125.04861 254.828606 
L 127.374216 254.484446 
L 127.839337 254.3567 
L 128.769579 253.703572 
L 130.164943 253.222296 
L 132.025427 252.910586 
L 132.490548 252.563226 
L 132.955669 252.42154 
L 134.351033 251.54377 
L 135.746396 251.09883 
L 137.141759 250.670115 
L 139.467365 248.888524 
L 140.862728 248.493631 
L 141.32785 248.209116 
L 141.792971 248.093482 
L 143.188334 246.868124 
L 143.653455 246.322632 
L 145.51394 245.244445 
L 146.909303 244.54127 
L 147.839545 243.585116 
L 148.304666 242.836007 
L 149.70003 241.704346 
L 151.095393 240.764874 
L 151.560514 240.53292 
L 152.955878 238.766641 
L 154.351241 236.925177 
L 154.816362 236.465153 
L 155.746604 235.920347 
L 157.141968 234.37391 
L 158.537331 231.888002 
L 159.467573 230.624937 
L 159.932695 230.097727 
L 160.397816 229.841778 
L 160.862937 229.405064 
L 161.793179 228.242323 
L 162.723421 226.255287 
L 163.653664 224.337267 
L 164.118785 223.407622 
L 165.049027 222.222942 
L 165.514148 221.788285 
L 166.909511 219.403843 
L 167.374633 218.216878 
L 167.839754 216.721402 
L 169.235117 213.689088 
L 169.700238 213.429482 
L 170.165359 212.645637 
L 170.63048 212.310389 
L 171.560723 210.233771 
L 173.421207 204.531585 
L 174.351449 202.745424 
L 176.677055 197.805144 
L 178.072418 192.406898 
L 178.53754 190.9489 
L 180.863145 185.565508 
L 181.328266 184.397054 
L 181.793387 182.723785 
L 183.188751 176.651157 
L 184.118993 173.886904 
L 185.049235 172.022587 
L 185.514356 170.389082 
L 185.979478 169.169437 
L 188.770204 156.763206 
L 191.09581 149.858286 
L 191.560931 147.809777 
L 192.026052 144.852191 
L 192.491173 142.714099 
L 192.956294 139.834441 
L 194.351658 135.254089 
L 194.816779 134.08952 
L 195.2819 132.138591 
L 195.747021 131.011272 
L 197.607506 120.069208 
L 198.072627 117.754923 
L 198.537748 116.240936 
L 199.002869 114.245445 
L 199.46799 113.609 
L 200.863354 108.331644 
L 201.328475 105.828596 
L 202.723838 96.868312 
L 203.65408 92.94086 
L 204.119201 92.283847 
L 205.049444 89.337459 
L 205.514565 87.935222 
L 206.909928 79.732501 
L 207.84017 73.989638 
L 208.770413 71.554691 
L 210.165776 68.042014 
L 211.096018 63.847644 
L 212.491382 55.474443 
L 212.956503 54.11974 
L 213.421624 52.231656 
L 213.886745 52.130647 
L 214.816987 50.671279 
L 215.74723 47.271266 
L 216.212351 45.411748 
L 216.677472 41.819544 
L 217.607714 38.426158 
L 218.072835 36.802023 
L 218.537956 36.666964 
L 219.003077 36.023891 
L 219.468199 36.196885 
L 219.93332 35.558383 
L 220.398441 34.308802 
L 222.258925 26.928547 
L 222.724046 25.83802 
L 223.189168 25.595554 
L 223.654289 26.036609 
L 224.11941 26.208461 
L 224.584531 26.095341 
L 225.514773 25.451582 
L 226.445015 22.195541 
L 226.910137 20.965613 
L 227.375258 20.691153 
L 227.840379 20.059049 
L 228.3055 20.309514 
L 228.770621 21.477511 
L 229.235742 22.294721 
L 229.700863 22.632483 
L 230.631106 21.776424 
L 231.561348 19.571831 
L 232.026469 19.296 
L 232.49159 19.926275 
L 232.956711 19.983864 
L 233.421832 21.219277 
L 233.886954 23.033318 
L 234.352075 24.2813 
L 235.282317 25.106965 
L 235.747438 24.581126 
L 236.212559 24.761205 
L 236.67768 23.956792 
L 237.142801 24.84416 
L 237.607923 25.229912 
L 238.073044 25.859045 
L 238.538165 28.219492 
L 239.003286 29.216095 
L 239.468407 31.508898 
L 239.933528 32.384839 
L 240.398649 32.646273 
L 241.328892 32.832522 
L 241.794013 33.482908 
L 242.259134 34.325713 
L 243.189376 37.299524 
L 244.584739 42.502381 
L 245.049861 43.480701 
L 245.514982 43.717683 
L 245.980103 44.632245 
L 246.445224 44.976863 
L 247.375466 47.463913 
L 247.840587 49.295551 
L 248.77083 53.592073 
L 249.701072 57.397034 
L 250.166193 57.892708 
L 250.631314 58.80407 
L 251.096435 59.361446 
L 251.561556 60.270066 
L 252.491799 63.335517 
L 252.95692 65.921062 
L 254.817404 73.19688 
L 255.282525 73.659646 
L 255.747646 75.086563 
L 256.212768 75.911543 
L 256.677889 77.004812 
L 258.073252 82.722539 
L 259.003494 87.279123 
L 259.468615 88.725465 
L 260.398858 90.831106 
L 260.863979 91.987449 
L 262.724463 98.352818 
L 263.189584 100.798506 
L 263.654706 102.457834 
L 264.119827 104.69602 
L 264.584948 105.709991 
L 265.050069 107.167531 
L 265.980311 109.19433 
L 267.840796 115.795767 
L 268.305917 118.120793 
L 269.236159 121.34187 
L 269.70128 122.500041 
L 270.166401 124.08807 
L 271.096644 125.591315 
L 274.817613 138.602227 
L 276.212976 142.001555 
L 276.678097 143.062373 
L 277.143218 145.035697 
L 279.468824 152.12618 
L 279.933945 152.830041 
L 280.399066 154.5529 
L 280.864187 155.296753 
L 281.794429 158.325868 
L 283.189793 162.7154 
L 284.120035 165.289976 
L 284.585156 166.122497 
L 285.050277 167.523592 
L 285.98052 169.124189 
L 287.375883 173.381176 
L 288.306125 175.967635 
L 288.771246 177.246468 
L 289.236367 177.977524 
L 291.561973 182.94317 
L 292.957336 186.726193 
L 294.3527 189.578657 
L 294.817821 190.527269 
L 295.282942 191.19868 
L 297.608548 196.227856 
L 298.53879 198.450274 
L 299.934153 200.568026 
L 300.864396 201.984432 
L 301.329517 203.305313 
L 302.259759 205.000749 
L 302.72488 206.162348 
L 305.515607 210.400138 
L 306.91097 212.999852 
L 307.841212 214.51978 
L 308.306334 215.433657 
L 311.09706 219.010321 
L 312.027303 220.882636 
L 312.492424 221.661682 
L 312.957545 222.149357 
L 313.422666 222.86373 
L 315.28315 224.760954 
L 315.748272 225.542514 
L 316.213393 226.073838 
L 317.143635 227.563829 
L 318.538998 229.23984 
L 319.004119 229.474993 
L 319.469241 230.249926 
L 319.934362 230.808672 
L 320.864604 231.637308 
L 323.655331 234.685848 
L 324.120452 234.983389 
L 327.841421 238.605073 
L 329.701905 240.183961 
L 330.167026 240.464591 
L 330.632148 240.91433 
L 331.097269 241.143542 
L 332.027511 242.140145 
L 332.957753 242.662784 
L 333.422874 243.202792 
L 333.887995 243.399324 
L 334.353117 243.770223 
L 334.818238 243.977496 
L 336.213601 245.177258 
L 337.608964 246.133869 
L 338.074086 246.252931 
L 340.864812 248.033836 
L 341.329933 248.140558 
L 344.12066 249.5869 
L 344.585781 249.782062 
L 345.981145 250.663259 
L 346.446266 250.78712 
L 346.911387 251.12671 
L 348.771871 251.742131 
L 355.748688 254.491987 
L 356.678931 254.703603 
L 358.539415 255.273547 
L 358.539415 255.273547 
" clip-path="url(#p8b1d6544e6)" style="fill: none; stroke-dasharray: 1.5,1.5; stroke-dashoffset: 0; stroke: #0173b2; stroke-opacity: 0.9; stroke-width: 1.5"/>
   </g>
   <g id="line2d_18">
    <path d="M 65.978227 260.75302 
L 68.303833 260.909008 
L 72.489923 260.941417 
L 94.815737 260.399247 
L 95.745979 260.273852 
L 97.606464 260.265371 
L 98.071585 260.224481 
L 98.536706 260.300506 
L 100.397191 260.130283 
L 101.792554 260.085759 
L 108.769371 259.580239 
L 109.234492 259.367006 
L 109.699613 259.472714 
L 110.164734 259.330659 
L 110.629855 259.488767 
L 111.560098 259.189817 
L 112.025219 259.267053 
L 114.815945 258.892986 
L 115.281067 258.959925 
L 116.67643 258.805755 
L 120.397399 258.295086 
L 120.86252 258.163027 
L 121.792762 258.104267 
L 122.723005 258.013703 
L 124.118368 257.535443 
L 124.583489 257.590266 
L 125.04861 257.428524 
L 126.909095 257.443669 
L 127.839337 257.058092 
L 128.304458 257.030832 
L 129.2347 256.759142 
L 130.630064 256.591342 
L 131.095185 256.485029 
L 131.560306 256.535611 
L 132.955669 256.249988 
L 134.351033 255.690251 
L 135.281275 255.476412 
L 136.211517 255.433402 
L 137.606881 255.093865 
L 139.932486 254.149764 
L 140.397607 254.119475 
L 140.862728 253.958945 
L 141.32785 253.92805 
L 145.51394 251.962611 
L 147.374424 251.255671 
L 147.839545 250.878273 
L 148.304666 250.687151 
L 149.70003 249.754257 
L 151.095393 249.30568 
L 151.560514 248.9092 
L 152.025635 248.761088 
L 152.490757 248.278587 
L 152.955878 247.997205 
L 153.88612 247.042199 
L 156.211726 245.709796 
L 156.676847 245.435077 
L 158.07221 243.880657 
L 159.002452 242.939887 
L 159.932695 242.093316 
L 160.397816 241.883415 
L 161.328058 241.153152 
L 162.723421 239.529674 
L 164.118785 237.493057 
L 165.049027 236.432647 
L 165.514148 236.175495 
L 166.44439 235.430391 
L 167.374633 233.570963 
L 168.304875 231.921739 
L 168.769996 231.382296 
L 169.235117 230.530272 
L 170.63048 229.140018 
L 171.095602 228.519703 
L 172.490965 225.674981 
L 172.956086 224.398007 
L 173.886328 222.744239 
L 174.816571 221.051702 
L 175.281692 220.77244 
L 175.746813 220.184232 
L 176.211934 219.334026 
L 178.53754 213.097264 
L 179.002661 212.009594 
L 179.467782 211.396852 
L 179.932903 210.447601 
L 180.398024 209.840311 
L 180.863145 208.426431 
L 181.328266 207.906979 
L 182.258509 204.700609 
L 183.188751 201.193168 
L 185.049235 197.283493 
L 185.514356 196.614111 
L 186.444599 193.967478 
L 187.374841 189.784295 
L 188.770204 185.018356 
L 190.630689 180.401437 
L 191.09581 178.914864 
L 192.026052 174.933707 
L 192.491173 172.504547 
L 192.956294 170.90954 
L 193.421416 168.712089 
L 193.886537 167.860369 
L 194.351658 166.010633 
L 194.816779 165.012921 
L 196.212142 159.961662 
L 197.607506 152.685691 
L 198.537748 148.921099 
L 199.002869 147.693495 
L 199.46799 146.043363 
L 199.933111 145.200729 
L 200.863354 141.736601 
L 202.258717 133.441717 
L 203.65408 127.092583 
L 204.119201 126.178165 
L 204.584323 124.459277 
L 205.049444 123.392203 
L 205.514565 121.916534 
L 205.979686 119.524629 
L 206.444807 116.368236 
L 208.305292 106.899055 
L 209.235534 104.488977 
L 209.700655 102.875797 
L 210.630897 100.248851 
L 212.491382 89.141351 
L 213.421624 86.000708 
L 213.886745 85.178367 
L 214.351866 83.802348 
L 214.816987 82.794035 
L 215.282108 81.381972 
L 216.677472 74.776292 
L 217.142593 71.234323 
L 218.072835 68.040371 
L 218.537956 66.929379 
L 219.003077 66.560462 
L 219.468199 65.523677 
L 219.93332 65.266828 
L 220.398441 63.749663 
L 220.863562 61.815422 
L 221.328683 58.976455 
L 222.258925 55.089193 
L 222.724046 53.902479 
L 223.189168 53.565364 
L 223.654289 52.43741 
L 224.11941 52.3105 
L 224.584531 52.374713 
L 225.049652 51.042309 
L 225.514773 50.064285 
L 225.979894 48.395676 
L 226.445015 46.018613 
L 226.910137 44.342735 
L 227.840379 43.006394 
L 228.3055 42.339738 
L 228.770621 43.035168 
L 229.235742 42.961264 
L 229.700863 42.39032 
L 230.165985 42.096822 
L 230.631106 41.248433 
L 231.096227 39.966612 
L 231.561348 38.298003 
L 232.026469 37.442042 
L 232.49159 36.8502 
L 233.421832 37.485658 
L 233.886954 37.932115 
L 234.352075 38.557578 
L 234.817196 38.854711 
L 235.282317 38.440663 
L 235.747438 37.462336 
L 236.212559 36.830209 
L 236.67768 36.532168 
L 237.142801 35.619567 
L 237.607923 35.643798 
L 238.073044 36.79144 
L 238.538165 37.38934 
L 239.468407 39.402635 
L 239.933528 39.602844 
L 240.398649 39.479266 
L 240.86377 38.349494 
L 241.328892 38.632089 
L 241.794013 38.538799 
L 242.259134 38.269835 
L 242.724255 39.075819 
L 243.654497 41.7379 
L 244.584739 44.305177 
L 245.049861 44.55415 
L 245.514982 44.008952 
L 245.980103 44.008044 
L 246.445224 44.558391 
L 246.910345 44.342129 
L 247.375466 45.369827 
L 247.840587 47.029046 
L 248.305708 48.12338 
L 248.77083 49.870437 
L 249.235951 51.158618 
L 250.166193 52.965647 
L 250.631314 52.851761 
L 251.096435 53.094374 
L 251.561556 53.140716 
L 252.026677 54.453734 
L 252.491799 55.302123 
L 253.422041 58.692346 
L 253.887162 59.850892 
L 254.817404 62.961852 
L 255.282525 62.654118 
L 256.677889 64.649845 
L 257.14301 65.875026 
L 259.468615 73.693771 
L 259.933737 74.528833 
L 260.398858 74.856558 
L 260.863979 75.648306 
L 261.3291 76.882877 
L 261.794221 77.62162 
L 262.259342 78.917677 
L 263.654706 84.277276 
L 264.119827 85.651781 
L 265.51519 88.445315 
L 266.445432 89.604466 
L 266.910553 91.586564 
L 267.375675 92.785697 
L 267.840796 94.875622 
L 269.70128 100.084383 
L 270.166401 101.202645 
L 270.631522 101.544908 
L 272.026886 105.222571 
L 272.492007 106.684611 
L 272.957128 108.817244 
L 274.352491 112.833535 
L 274.817613 113.675261 
L 275.282734 114.830777 
L 275.747855 115.276628 
L 276.212976 116.580257 
L 276.678097 118.262799 
L 277.608339 120.754959 
L 278.538582 123.984652 
L 279.468824 126.212997 
L 279.933945 126.864206 
L 280.864187 129.201288 
L 281.794429 131.373599 
L 282.724672 134.400054 
L 283.654914 137.48436 
L 284.585156 139.761773 
L 285.050277 140.070719 
L 285.98052 141.897435 
L 288.771246 150.046024 
L 289.236367 150.938938 
L 289.701489 152.131407 
L 290.16661 152.638441 
L 292.027094 157.006083 
L 292.957336 159.861103 
L 293.887579 162.191824 
L 296.213184 166.411657 
L 296.678305 167.97274 
L 297.143427 168.819009 
L 298.53879 172.579663 
L 299.003911 173.466519 
L 299.469032 173.999904 
L 299.934153 175.187224 
L 300.864396 176.653201 
L 303.190001 182.352337 
L 303.655122 182.978709 
L 305.050486 185.454211 
L 305.515607 186.049688 
L 306.91097 189.081595 
L 307.376091 189.85305 
L 308.771455 192.744114 
L 309.236576 193.651263 
L 310.166818 194.993661 
L 311.562181 197.666949 
L 312.027303 198.433255 
L 312.957545 200.305707 
L 313.887787 201.869517 
L 314.352908 202.421681 
L 314.818029 203.4306 
L 315.28315 203.807393 
L 315.748272 204.822067 
L 316.678514 206.069964 
L 317.608756 208.138991 
L 319.004119 210.26496 
L 319.469241 210.35098 
L 320.399483 211.839371 
L 321.329725 213.07909 
L 322.259967 214.974259 
L 322.725088 215.21869 
L 323.19021 216.268802 
L 323.655331 216.576838 
L 325.050694 218.290275 
L 325.515815 218.844559 
L 326.911179 221.033832 
L 327.3763 221.55389 
L 328.306542 222.918097 
L 328.771663 223.47117 
L 329.236784 223.76588 
L 330.167026 224.750871 
L 330.632148 225.645601 
L 331.097269 226.1175 
L 332.027511 227.493217 
L 332.492632 227.575299 
L 332.957753 228.336153 
L 334.353117 229.727014 
L 335.74848 231.065475 
L 336.213601 231.680034 
L 336.678722 231.985042 
L 337.143843 232.82495 
L 338.074086 233.454654 
L 339.004328 234.412082 
L 340.399691 235.638172 
L 341.329933 236.471416 
L 342.260176 237.250141 
L 343.655539 238.592539 
L 344.12066 238.778815 
L 347.841629 241.61233 
L 348.30675 241.906434 
L 348.771871 242.388329 
L 349.236993 242.520691 
L 349.702114 243.003797 
L 350.632356 243.507196 
L 351.562598 244.262295 
L 352.027719 244.63303 
L 352.49284 244.812037 
L 352.957962 245.187315 
L 353.888204 245.709493 
L 354.353325 245.992996 
L 354.818446 246.133839 
L 355.283567 246.566666 
L 355.748688 246.692364 
L 356.678931 247.34751 
L 358.074294 248.053845 
L 358.539415 248.138653 
L 359.469657 248.744732 
L 361.795263 249.819983 
L 362.260384 250.22555 
L 362.725505 250.247055 
L 364.120869 250.851619 
L 367.376716 252.323956 
L 367.841838 252.356971 
L 368.306959 252.564752 
L 368.77208 252.592012 
L 370.167443 253.180523 
L 373.888412 254.442959 
L 374.353533 254.476277 
L 375.283776 254.837925 
L 375.748897 254.855492 
L 377.14426 255.388575 
L 377.609381 255.302858 
L 378.074502 255.540019 
L 379.004745 255.732958 
L 379.934987 255.977086 
L 379.934987 255.977086 
" clip-path="url(#p8b1d6544e6)" style="fill: none; stroke-dasharray: 4.5,1.875,2.25,1.875; stroke-dashoffset: 0; stroke: #0173b2; stroke-opacity: 0.9; stroke-width: 1.5"/>
   </g>
   <g id="line2d_19">
    <path d="M 65.978227 260.86442 
L 67.838712 260.997687 
L 76.210892 260.999792 
L 79.001619 260.952197 
L 82.722588 260.99668 
L 92.955253 260.686214 
L 94.350616 260.66205 
L 96.2111 260.500593 
L 97.141343 260.53336 
L 98.071585 260.451442 
L 99.001827 260.459771 
L 106.443765 260.039196 
L 106.908886 259.907302 
L 107.839129 259.952152 
L 109.234492 259.696054 
L 109.699613 259.772297 
L 110.164734 259.648642 
L 110.629855 259.769185 
L 112.49034 259.540821 
L 113.420582 259.520867 
L 113.885703 259.381011 
L 115.281067 259.39593 
L 116.211309 259.289116 
L 116.67643 259.371767 
L 118.071793 259.05828 
L 120.397399 258.615188 
L 121.327641 258.345361 
L 122.723005 258.020891 
L 124.118368 257.610109 
L 124.583489 257.602421 
L 125.513731 257.265594 
L 127.839337 257.031921 
L 130.630064 256.342983 
L 131.095185 256.28294 
L 131.560306 256.351495 
L 133.885912 255.71363 
L 134.816154 255.315937 
L 135.746396 255.150452 
L 137.606881 254.782231 
L 139.002244 254.055492 
L 140.397607 253.452224 
L 141.32785 253.276397 
L 142.258092 253.029727 
L 143.188334 252.595422 
L 144.583697 251.596842 
L 145.979061 251.033481 
L 146.909303 250.738026 
L 147.374424 250.559086 
L 147.839545 250.250726 
L 149.234909 249.016183 
L 150.630272 248.291457 
L 151.560514 247.975865 
L 152.490757 247.408935 
L 154.816362 245.038336 
L 157.141968 243.782101 
L 159.932695 240.347387 
L 160.397816 239.942371 
L 161.328058 239.504497 
L 162.2583 238.506831 
L 163.188542 236.88201 
L 163.653664 236.04571 
L 165.049027 234.385192 
L 166.909511 232.643397 
L 167.374633 231.890113 
L 168.769996 228.640745 
L 169.700238 227.282089 
L 170.63048 226.415951 
L 171.560723 225.244747 
L 172.025844 224.526153 
L 173.886328 219.688758 
L 174.816571 218.09048 
L 175.281692 217.669996 
L 176.677055 215.44566 
L 178.072418 211.112405 
L 179.002661 208.359581 
L 179.932903 206.685883 
L 180.863145 205.508821 
L 181.793387 203.282838 
L 184.118993 195.041115 
L 185.049235 193.289068 
L 185.979478 191.699302 
L 186.90972 188.452679 
L 188.305083 182.203725 
L 188.770204 180.307428 
L 191.09581 175.1376 
L 191.560931 173.409259 
L 193.886537 162.142047 
L 194.351658 160.973681 
L 194.816779 160.177379 
L 195.747021 158.043656 
L 196.212142 156.240079 
L 197.142385 150.916482 
L 198.072627 145.234457 
L 199.002869 141.896306 
L 199.933111 139.814755 
L 200.398232 138.742127 
L 200.863354 137.117855 
L 201.793596 131.805699 
L 203.188959 123.083815 
L 204.119201 120.202759 
L 204.584323 119.364995 
L 205.514565 117.108715 
L 205.979686 115.258549 
L 206.444807 112.478999 
L 207.84017 102.898299 
L 208.305292 100.601747 
L 208.770413 99.15559 
L 209.235534 98.205702 
L 209.700655 97.789063 
L 210.165776 96.979215 
L 211.096018 92.70161 
L 212.956503 80.714341 
L 213.421624 78.899413 
L 213.886745 78.081969 
L 214.816987 77.005039 
L 215.282108 76.227592 
L 215.74723 74.602588 
L 218.072835 61.110857 
L 218.537956 60.095527 
L 219.003077 59.874393 
L 219.468199 59.374645 
L 219.93332 59.638797 
L 220.863562 56.812018 
L 221.793804 50.887716 
L 222.258925 47.959706 
L 222.724046 46.066155 
L 223.189168 45.350582 
L 224.11941 45.47799 
L 224.584531 45.922089 
L 225.049652 45.780036 
L 225.514773 44.940166 
L 226.445015 40.528472 
L 227.375258 35.848048 
L 227.840379 35.215675 
L 228.3055 34.965069 
L 229.700863 37.055315 
L 230.165985 37.213569 
L 230.631106 36.093895 
L 232.026469 30.417271 
L 232.49159 29.609528 
L 232.956711 29.607514 
L 233.421832 30.224786 
L 233.886954 31.79231 
L 234.817196 33.868827 
L 235.282317 33.58106 
L 235.747438 32.57955 
L 236.212559 31.278284 
L 236.67768 29.612548 
L 237.142801 28.995369 
L 237.607923 28.81286 
L 238.073044 29.793501 
L 239.003286 32.876196 
L 239.468407 34.605269 
L 240.398649 35.36084 
L 240.86377 34.486556 
L 241.328892 33.080305 
L 241.794013 32.389262 
L 242.259134 32.361895 
L 243.189376 34.888002 
L 244.119618 39.015682 
L 244.584739 40.301663 
L 245.049861 41.175398 
L 245.514982 41.202491 
L 245.980103 40.217731 
L 246.910345 39.803929 
L 247.375466 40.529021 
L 248.305708 43.949732 
L 249.235951 48.428242 
L 249.701072 49.612718 
L 250.166193 50.282619 
L 250.631314 50.201249 
L 251.561556 49.802183 
L 252.026677 50.45213 
L 252.491799 51.929865 
L 254.352283 60.176896 
L 254.817404 61.279179 
L 255.282525 61.654814 
L 255.747646 61.781398 
L 256.212768 61.641176 
L 257.14301 63.702133 
L 257.608131 65.405029 
L 259.468615 73.822212 
L 259.933737 74.426028 
L 260.863979 75.013644 
L 261.3291 75.60547 
L 262.259342 77.821752 
L 264.119827 86.583084 
L 264.584948 87.936248 
L 265.050069 88.731909 
L 265.51519 88.980868 
L 265.980311 89.738178 
L 266.445432 90.274812 
L 267.375675 93.502031 
L 268.771038 99.71355 
L 269.236159 101.449854 
L 269.70128 102.433241 
L 271.561765 105.198787 
L 272.492007 108.958521 
L 273.88737 114.867538 
L 274.352491 116.186927 
L 275.282734 117.560959 
L 275.747855 118.077823 
L 276.678097 120.417211 
L 278.538582 127.880206 
L 279.468824 130.568319 
L 280.399066 131.745106 
L 281.329308 133.466674 
L 284.120035 143.156018 
L 284.585156 144.159267 
L 285.050277 144.673659 
L 285.98052 146.238621 
L 286.445641 147.348684 
L 288.306125 153.858862 
L 289.236367 156.157611 
L 290.16661 157.395723 
L 291.561973 160.559604 
L 292.957336 165.26474 
L 293.887579 167.541431 
L 295.282942 169.810616 
L 296.213184 171.653551 
L 296.678305 172.986029 
L 297.143427 174.673456 
L 298.53879 178.214345 
L 299.003911 179.243313 
L 299.469032 179.675146 
L 300.864396 182.053434 
L 301.794638 184.263858 
L 303.190001 187.868359 
L 303.655122 188.824012 
L 304.585365 189.971511 
L 305.050486 191.012378 
L 305.515607 191.620221 
L 305.980728 192.421465 
L 308.771455 198.5064 
L 310.166818 200.349976 
L 310.631939 201.08175 
L 312.492424 204.886699 
L 313.887787 207.05026 
L 315.748272 209.554034 
L 317.608756 213.123937 
L 319.004119 214.91406 
L 319.934362 215.972409 
L 320.864604 217.411793 
L 322.725088 220.323419 
L 325.050694 223.030845 
L 325.515815 223.470367 
L 325.980936 224.265296 
L 326.911179 225.51613 
L 328.306542 227.317145 
L 330.167026 229.031299 
L 333.422874 232.796982 
L 334.353117 233.471276 
L 336.213601 235.226343 
L 336.678722 235.895419 
L 337.608964 236.657215 
L 338.074086 237.159617 
L 339.004328 237.750711 
L 339.469449 238.219064 
L 340.399691 238.772265 
L 341.795055 240.178607 
L 342.260176 240.457588 
L 343.190418 241.311552 
L 344.585781 242.137143 
L 347.841629 244.526872 
L 351.097477 246.525498 
L 352.027719 247.115951 
L 360.3999 251.102402 
L 362.260384 251.958198 
L 363.655747 252.432409 
L 366.911595 253.670063 
L 368.77208 254.144 
L 369.702322 254.439181 
L 372.027928 255.153107 
L 372.493049 255.282345 
L 372.493049 255.282345 
" clip-path="url(#p8b1d6544e6)" style="fill: none; stroke: #de8f05; stroke-opacity: 0.9; stroke-width: 1.5; stroke-linecap: round"/>
   </g>
   <g id="line2d_20">
    <path d="M 65.978227 260.894129 
L 68.303833 261.046095 
L 72.955044 261.017243 
L 75.745771 260.993184 
L 77.606255 260.954558 
L 79.46674 260.95578 
L 85.513315 260.847703 
L 85.978436 260.754475 
L 87.373799 260.800243 
L 89.234284 260.724683 
L 93.885495 260.578356 
L 94.815737 260.524317 
L 95.280858 260.385697 
L 97.141343 260.402613 
L 98.071585 260.320193 
L 98.536706 260.419342 
L 99.932069 260.184673 
L 101.327433 260.219822 
L 102.257675 260.095768 
L 103.187917 260.137777 
L 103.653038 260.093888 
L 104.11816 259.936472 
L 108.769371 259.560175 
L 109.234492 259.375316 
L 109.699613 259.468545 
L 110.164734 259.319492 
L 110.629855 259.455481 
L 111.560098 259.240925 
L 112.955461 259.265923 
L 114.350824 259.019601 
L 117.141551 258.793203 
L 118.536914 258.534006 
L 119.467157 258.335802 
L 119.932278 258.330915 
L 121.327641 257.871164 
L 121.792762 257.916369 
L 122.723005 257.688091 
L 123.188126 257.555767 
L 123.653247 257.584713 
L 124.118368 257.346661 
L 124.583489 257.346097 
L 125.04861 257.122518 
L 126.443974 257.047522 
L 126.909095 257.149585 
L 127.839337 256.885219 
L 129.699821 256.48242 
L 130.630064 256.260627 
L 132.025427 256.238917 
L 133.42079 255.865252 
L 135.746396 255.16604 
L 136.676638 255.080706 
L 138.072002 254.720104 
L 139.467365 254.02888 
L 141.32785 253.432107 
L 141.792971 253.448741 
L 142.723213 253.188792 
L 143.653455 252.481028 
L 145.51394 251.531922 
L 147.374424 250.984018 
L 148.304666 250.31018 
L 149.234909 249.59283 
L 150.165151 249.037877 
L 152.025635 248.360469 
L 152.955878 247.634002 
L 154.351241 246.19573 
L 155.746604 245.423119 
L 157.141968 244.573539 
L 158.07221 243.587218 
L 159.467573 241.766634 
L 161.793179 240.282124 
L 162.723421 239.091772 
L 164.118785 236.826475 
L 165.049027 235.800963 
L 166.44439 234.704967 
L 166.909511 234.154337 
L 167.374633 233.421856 
L 169.235117 229.780784 
L 170.63048 228.262347 
L 171.095602 227.874867 
L 172.025844 226.409623 
L 173.421207 222.960552 
L 173.886328 221.796796 
L 174.351449 220.965165 
L 176.211934 218.61632 
L 176.677055 217.691649 
L 177.607297 215.166779 
L 178.53754 212.203679 
L 179.002661 211.036822 
L 179.467782 210.379619 
L 180.398024 208.864189 
L 181.328266 207.295661 
L 181.793387 206.037079 
L 183.653872 199.296166 
L 185.049235 196.213241 
L 185.979478 194.63804 
L 186.444599 193.483682 
L 188.770204 183.947142 
L 189.235325 182.728972 
L 190.630689 179.989075 
L 191.09581 178.771844 
L 192.026052 174.697241 
L 192.956294 169.951997 
L 193.886537 166.193261 
L 195.747021 161.71116 
L 196.212142 160.07553 
L 196.677263 157.857317 
L 198.072627 149.763184 
L 199.002869 146.570585 
L 199.933111 144.292506 
L 200.398232 143.293968 
L 200.863354 141.801845 
L 201.328475 139.550457 
L 203.188959 128.36964 
L 203.65408 126.20227 
L 205.049444 123.559643 
L 205.514565 122.256232 
L 205.979686 120.524461 
L 208.305292 106.715208 
L 209.235534 104.277457 
L 210.165776 102.868789 
L 210.630897 101.372719 
L 211.561139 96.545993 
L 212.491382 89.892575 
L 212.956503 87.661769 
L 213.421624 86.080835 
L 213.886745 85.207008 
L 214.351866 84.843211 
L 214.816987 84.09776 
L 215.282108 83.136907 
L 215.74723 81.871465 
L 216.212351 79.433526 
L 217.607714 70.72279 
L 218.072835 69.077385 
L 218.537956 68.330243 
L 219.003077 67.816736 
L 219.468199 67.684224 
L 219.93332 67.810345 
L 220.398441 66.836617 
L 221.328683 62.202457 
L 222.258925 57.131101 
L 222.724046 55.255821 
L 223.189168 54.01923 
L 223.654289 53.829203 
L 224.11941 54.468455 
L 225.049652 54.370904 
L 225.514773 53.619627 
L 227.375258 45.213574 
L 227.840379 44.238248 
L 228.3055 44.193325 
L 228.770621 44.808425 
L 229.235742 45.851229 
L 229.700863 45.889291 
L 230.165985 46.164841 
L 230.631106 45.074953 
L 232.026469 39.738667 
L 232.49159 38.67547 
L 232.956711 38.696897 
L 233.421832 39.360961 
L 233.886954 40.383559 
L 234.352075 41.801155 
L 234.817196 42.444637 
L 235.747438 41.612161 
L 236.212559 40.203869 
L 236.67768 38.388548 
L 237.142801 37.559174 
L 237.607923 37.781531 
L 238.073044 38.364771 
L 239.468407 42.497454 
L 239.933528 43.230499 
L 240.398649 43.145823 
L 241.794013 40.480922 
L 242.259134 40.133478 
L 242.724255 41.087564 
L 243.654497 43.863737 
L 244.119618 46.005262 
L 244.584739 47.320608 
L 245.049861 47.779701 
L 245.514982 47.590519 
L 245.980103 47.085282 
L 246.445224 46.166814 
L 246.910345 46.263426 
L 247.375466 46.796199 
L 248.305708 50.117927 
L 249.235951 54.010208 
L 249.701072 55.093047 
L 250.166193 55.531653 
L 250.631314 55.271892 
L 251.096435 54.805938 
L 251.561556 54.688839 
L 252.491799 56.313943 
L 254.352283 63.854721 
L 254.817404 65.255119 
L 255.282525 65.464789 
L 255.747646 65.334251 
L 256.212768 65.384718 
L 256.677889 65.7425 
L 257.14301 66.765568 
L 257.608131 68.335882 
L 259.003494 74.533872 
L 259.468615 76.234912 
L 260.398858 76.904709 
L 260.863979 76.799263 
L 261.794221 78.113575 
L 262.259342 79.400257 
L 264.119827 87.28848 
L 264.584948 88.55599 
L 265.050069 89.160846 
L 265.51519 89.323996 
L 266.445432 90.31417 
L 266.910553 91.393344 
L 267.840796 95.239575 
L 268.771038 99.360416 
L 269.70128 101.816493 
L 270.166401 102.027666 
L 271.561765 103.86573 
L 272.492007 107.234542 
L 273.422249 111.055868 
L 274.352491 114.220179 
L 275.747855 115.725647 
L 276.678097 117.537114 
L 278.538582 124.912957 
L 279.003703 126.116466 
L 279.933945 127.84166 
L 280.399066 128.160158 
L 280.864187 128.85533 
L 281.794429 131.122224 
L 282.724672 134.555131 
L 283.654914 137.883437 
L 284.585156 139.887658 
L 285.050277 140.06293 
L 285.515398 140.624086 
L 285.98052 141.943473 
L 286.445641 142.793523 
L 287.375883 145.834063 
L 288.771246 150.200098 
L 289.701489 151.792309 
L 290.16661 152.196894 
L 291.096852 153.954322 
L 292.492215 157.840213 
L 292.957336 159.645477 
L 293.887579 161.872054 
L 294.3527 162.706128 
L 295.282942 163.835299 
L 296.678305 167.230614 
L 298.53879 172.249999 
L 299.469032 173.661486 
L 299.934153 174.227529 
L 301.329517 176.784164 
L 302.259759 179.204341 
L 302.72488 180.862996 
L 303.655122 182.709236 
L 304.585365 183.924963 
L 305.515607 185.316903 
L 305.980728 186.0866 
L 308.306334 191.455685 
L 310.166818 194.018053 
L 310.631939 194.580806 
L 311.09706 195.676709 
L 311.562181 196.469901 
L 312.492424 198.615938 
L 313.422666 200.243861 
L 315.28315 202.626916 
L 316.213393 204.294875 
L 316.678514 205.305256 
L 317.143635 206.0305 
L 317.608756 207.043982 
L 319.004119 208.896988 
L 320.399483 210.550475 
L 321.329725 212.01243 
L 321.794846 213.050158 
L 322.259967 213.579643 
L 322.725088 214.450556 
L 323.19021 215.075618 
L 323.655331 215.461689 
L 324.120452 216.108554 
L 324.585573 216.434195 
L 325.050694 217.010481 
L 326.446057 219.342316 
L 328.306542 221.7171 
L 329.236784 222.609066 
L 329.701905 222.985362 
L 332.027511 226.114431 
L 335.74848 229.84704 
L 336.678722 231.023201 
L 343.190418 236.986429 
L 343.655539 237.204463 
L 344.12066 237.658857 
L 345.050902 238.254879 
L 345.981145 239.203796 
L 352.49284 243.903837 
L 355.283567 245.412876 
L 355.748688 245.830523 
L 359.004536 247.569156 
L 359.469657 247.76501 
L 359.934778 248.102775 
L 361.330142 248.799638 
L 362.260384 249.313239 
L 362.725505 249.416993 
L 363.190626 249.686152 
L 364.58599 250.182649 
L 366.446474 251.101023 
L 368.77208 251.904084 
L 370.632564 252.694644 
L 372.493049 253.310778 
L 373.423291 253.57693 
L 374.353533 253.837631 
L 377.14426 254.689937 
L 381.33035 255.775219 
L 381.33035 255.775219 
" clip-path="url(#p8b1d6544e6)" style="fill: none; stroke-dasharray: 6,2.25; stroke-dashoffset: 0; stroke: #de8f05; stroke-opacity: 0.9; stroke-width: 1.5"/>
   </g>
   <g id="line2d_21">
    <path d="M 65.978227 261.078574 
L 68.768954 261.208136 
L 71.559681 261.187728 
L 77.141134 261.150751 
L 79.931861 261.103382 
L 84.583072 261.092242 
L 93.885495 260.772455 
L 94.815737 260.713197 
L 95.280858 260.610315 
L 96.2111 260.652629 
L 97.141343 260.628476 
L 98.071585 260.575959 
L 99.466948 260.536266 
L 100.397191 260.455384 
L 103.653038 260.335744 
L 104.11816 260.106296 
L 105.513523 260.112849 
L 116.211309 258.951095 
L 116.67643 259.041433 
L 118.071793 258.687383 
L 126.443974 256.57975 
L 127.374216 256.501676 
L 129.699821 255.834955 
L 130.630064 255.597549 
L 132.025427 255.421273 
L 132.490548 255.422864 
L 135.746396 254.161786 
L 137.141759 253.968472 
L 138.537123 253.33798 
L 139.467365 252.716568 
L 142.258092 251.971023 
L 143.653455 250.94033 
L 144.583697 250.224742 
L 145.048819 249.909917 
L 146.909303 249.37257 
L 147.839545 248.793472 
L 149.234909 247.476038 
L 150.165151 246.789002 
L 151.095393 246.426434 
L 151.560514 246.303331 
L 152.490757 245.608525 
L 152.955878 245.113493 
L 153.420999 244.424211 
L 155.281483 242.690848 
L 156.676847 242.021412 
L 157.141968 241.615781 
L 158.07221 240.341034 
L 159.467573 238.346394 
L 160.397816 237.557132 
L 160.862937 237.333674 
L 161.793179 236.506498 
L 162.723421 235.18897 
L 164.118785 232.555318 
L 165.049027 231.38336 
L 165.514148 231.092968 
L 165.979269 230.550567 
L 166.44439 230.320463 
L 167.374633 228.678561 
L 169.235117 224.609427 
L 170.165359 223.409947 
L 171.095602 222.461634 
L 171.560723 221.727136 
L 172.490965 219.626337 
L 173.886328 215.576955 
L 175.281692 213.528393 
L 176.677055 211.293725 
L 177.142176 209.883051 
L 178.072418 206.532313 
L 179.002661 203.956328 
L 179.467782 202.758252 
L 180.863145 200.57891 
L 181.793387 198.164877 
L 184.118993 189.500122 
L 185.049235 187.378728 
L 185.514356 186.755256 
L 185.979478 185.787659 
L 186.444599 184.450378 
L 187.374841 180.257954 
L 188.305083 175.88579 
L 188.770204 174.042243 
L 189.700447 171.623062 
L 190.165568 170.898861 
L 191.09581 168.598383 
L 192.026052 164.324327 
L 192.956294 158.733773 
L 193.886537 154.973192 
L 196.212142 148.469617 
L 197.142385 143.325416 
L 197.607506 139.913923 
L 198.537748 135.266908 
L 199.002869 133.665634 
L 199.933111 131.627931 
L 200.398232 130.608471 
L 200.863354 128.939421 
L 201.328475 126.819151 
L 203.188959 114.217445 
L 204.119201 111.410045 
L 205.514565 108.100123 
L 205.979686 106.32791 
L 206.444807 103.598678 
L 207.84017 93.786867 
L 208.305292 91.286709 
L 209.235534 89.035378 
L 210.165776 87.601581 
L 210.630897 86.10113 
L 211.096018 83.738304 
L 212.956503 71.33347 
L 213.421624 69.82553 
L 213.886745 68.813934 
L 214.351866 68.485628 
L 215.282108 67.173998 
L 215.74723 65.476676 
L 216.212351 62.953583 
L 217.607714 53.649442 
L 218.072835 51.949125 
L 219.003077 50.562791 
L 219.468199 50.980591 
L 219.93332 50.315461 
L 220.398441 49.873976 
L 220.863562 48.11721 
L 222.724046 37.835361 
L 223.654289 37.042541 
L 224.584531 37.857641 
L 225.049652 37.911188 
L 225.514773 37.187269 
L 227.375258 28.41907 
L 227.840379 27.490322 
L 228.3055 27.672121 
L 228.770621 28.089173 
L 229.235742 29.553863 
L 229.700863 30.064623 
L 230.165985 30.369337 
L 230.631106 29.38077 
L 231.096227 27.793445 
L 232.026469 24.055706 
L 232.49159 23.449366 
L 232.956711 23.706899 
L 233.421832 24.486332 
L 234.352075 27.34728 
L 234.817196 28.500234 
L 235.282317 28.462601 
L 235.747438 28.053693 
L 236.67768 25.008606 
L 237.142801 24.036234 
L 237.607923 24.32363 
L 238.538165 27.012515 
L 239.468407 30.631645 
L 239.933528 31.734141 
L 240.398649 31.934475 
L 241.794013 29.61855 
L 242.259134 29.905946 
L 242.724255 30.852574 
L 243.189376 32.316796 
L 244.119618 36.834436 
L 244.584739 38.434305 
L 245.049861 39.223193 
L 245.514982 39.423715 
L 246.445224 38.651397 
L 246.910345 38.604403 
L 247.375466 39.55075 
L 247.840587 41.061498 
L 249.701072 49.598095 
L 250.166193 50.321359 
L 250.631314 50.078149 
L 251.096435 50.097246 
L 251.561556 50.244221 
L 252.026677 50.985459 
L 252.491799 52.540206 
L 252.95692 54.489724 
L 254.352283 61.718061 
L 254.817404 62.795281 
L 255.282525 63.449177 
L 255.747646 63.786002 
L 256.212768 63.692668 
L 257.14301 65.69564 
L 258.073252 69.948539 
L 259.468615 76.730804 
L 259.933737 77.725737 
L 260.398858 77.924667 
L 260.863979 78.583244 
L 261.3291 78.940289 
L 261.794221 80.074708 
L 262.259342 81.639471 
L 262.724463 83.718833 
L 263.654706 88.603535 
L 264.119827 90.770519 
L 264.584948 91.972714 
L 265.050069 92.753739 
L 265.980311 93.987763 
L 266.445432 95.011155 
L 266.910553 96.441956 
L 267.840796 100.370762 
L 268.771038 105.136387 
L 270.166401 108.543387 
L 271.096644 109.693345 
L 271.561765 110.906961 
L 272.957128 116.599836 
L 273.422249 118.954236 
L 274.352491 122.089099 
L 275.747855 124.47458 
L 276.678097 126.690431 
L 277.143218 128.335235 
L 277.608339 130.567843 
L 279.468824 136.968629 
L 280.864187 138.996315 
L 281.794429 141.702799 
L 283.654914 148.630166 
L 284.585156 150.777117 
L 285.98052 153.251718 
L 286.910762 155.927964 
L 288.771246 162.190295 
L 289.236367 163.369274 
L 290.631731 165.581848 
L 291.096852 166.429526 
L 293.422458 173.569397 
L 294.817821 176.339539 
L 295.282942 176.825585 
L 296.213184 178.768363 
L 297.143427 181.27395 
L 298.073669 184.094082 
L 298.53879 185.202756 
L 299.469032 186.831084 
L 299.934153 187.222766 
L 301.329517 190.013597 
L 303.190001 194.667727 
L 303.655122 195.611921 
L 304.120243 195.908117 
L 304.585365 196.791461 
L 305.050486 197.296885 
L 307.376091 202.103794 
L 308.306334 204.084018 
L 310.631939 207.206149 
L 312.492424 211.04003 
L 312.957545 211.702913 
L 313.422666 212.569969 
L 315.28315 214.733396 
L 318.073877 219.421508 
L 318.538998 219.880125 
L 319.004119 220.53477 
L 319.934362 221.490198 
L 321.794846 224.175899 
L 323.19021 226.177842 
L 324.120452 227.192153 
L 325.050694 227.946029 
L 327.841421 231.593431 
L 328.306542 231.853304 
L 331.097269 234.597515 
L 333.422874 236.99816 
L 334.818238 237.962669 
L 338.074086 240.898601 
L 339.469449 241.836991 
L 343.190418 244.66068 
L 343.655539 244.831527 
L 344.12066 245.205048 
L 345.516024 246.008727 
L 346.446266 246.739199 
L 347.376508 247.291711 
L 350.632356 248.994837 
L 352.49284 250.033675 
L 352.957962 250.130566 
L 353.888204 250.567464 
L 354.353325 250.710132 
L 355.283567 251.170434 
L 357.609173 252.249432 
L 359.004536 252.634281 
L 361.330142 253.623691 
L 367.841838 255.575081 
L 367.841838 255.575081 
" clip-path="url(#p8b1d6544e6)" style="fill: none; stroke-dasharray: 1.5,1.5; stroke-dashoffset: 0; stroke: #de8f05; stroke-opacity: 0.9; stroke-width: 1.5"/>
   </g>
   <g id="line2d_22">
    <path d="M 65.978227 260.848902 
L 69.234075 260.942302 
L 72.024802 260.934189 
L 77.141134 260.933357 
L 80.396982 260.891546 
L 82.722588 260.930653 
L 88.769162 260.744268 
L 90.164526 260.744164 
L 92.955253 260.652427 
L 94.350616 260.638386 
L 96.2111 260.517007 
L 97.141343 260.493293 
L 98.071585 260.419134 
L 98.536706 260.499429 
L 100.397191 260.374514 
L 103.653038 260.32022 
L 104.583281 260.169302 
L 105.513523 260.216523 
L 110.164734 259.886084 
L 110.629855 259.984997 
L 111.560098 259.829815 
L 113.420582 259.806413 
L 113.885703 259.667248 
L 115.281067 259.71218 
L 116.211309 259.596729 
L 116.67643 259.737558 
L 118.071793 259.510713 
L 122.723005 258.930651 
L 123.653247 258.796791 
L 125.513731 258.585651 
L 127.839337 258.462712 
L 131.095185 258.026287 
L 132.025427 258.05177 
L 133.42079 257.809219 
L 135.746396 257.428336 
L 137.141759 257.324326 
L 140.397607 256.489649 
L 142.723213 256.088171 
L 143.188334 255.985098 
L 144.583697 255.350223 
L 146.444182 254.91359 
L 147.374424 254.67052 
L 147.839545 254.509513 
L 149.70003 253.481065 
L 152.490757 252.577637 
L 154.816362 251.096228 
L 157.141968 250.133515 
L 157.607089 249.78685 
L 158.537331 248.896112 
L 159.467573 248.166796 
L 160.397816 247.561356 
L 161.793179 246.995335 
L 164.583906 243.941924 
L 166.44439 242.80957 
L 167.374633 241.822415 
L 169.700238 238.54351 
L 170.63048 237.88981 
L 171.560723 237.034434 
L 172.490965 235.568106 
L 173.421207 233.700301 
L 173.886328 232.779711 
L 174.816571 231.593377 
L 175.746813 230.714807 
L 176.211934 230.217953 
L 177.142176 228.50793 
L 178.072418 226.202036 
L 179.002661 224.139213 
L 179.467782 223.331786 
L 180.398024 222.204529 
L 181.328266 220.827337 
L 181.793387 219.790569 
L 184.118993 213.389086 
L 185.979478 210.296047 
L 186.90972 207.81032 
L 188.305083 202.632928 
L 189.235325 200.037471 
L 189.700447 199.170654 
L 190.165568 198.549092 
L 191.09581 196.542746 
L 192.026052 193.016715 
L 193.421416 186.960856 
L 195.2819 182.558127 
L 195.747021 181.528848 
L 196.212142 180.092163 
L 197.607506 173.274641 
L 198.072627 170.848616 
L 199.002869 167.565447 
L 200.398232 164.516404 
L 200.863354 163.066405 
L 201.328475 161.178942 
L 203.65408 148.974241 
L 205.514565 144.451693 
L 206.444807 140.194994 
L 207.84017 131.535358 
L 208.770413 127.952537 
L 209.235534 126.574721 
L 210.165776 124.70962 
L 210.630897 123.370911 
L 211.096018 121.179948 
L 212.956503 109.711739 
L 213.421624 107.982266 
L 213.886745 106.682042 
L 214.816987 105.082581 
L 215.282108 103.944923 
L 215.74723 102.439176 
L 216.677472 97.019128 
L 217.607714 91.290588 
L 218.072835 89.250647 
L 218.537956 87.891449 
L 219.003077 87.227347 
L 219.93332 86.436354 
L 220.398441 85.005701 
L 220.863562 83.160049 
L 222.724046 72.850716 
L 223.189168 71.601664 
L 223.654289 70.960653 
L 224.11941 70.711653 
L 224.584531 70.620333 
L 225.049652 70.207207 
L 225.514773 69.086399 
L 225.979894 67.021079 
L 226.910137 62.051809 
L 227.375258 59.716376 
L 227.840379 58.483654 
L 228.3055 58.09393 
L 228.770621 58.061687 
L 229.700863 58.423328 
L 230.165985 58.006978 
L 231.096227 54.953878 
L 232.026469 50.826463 
L 232.956711 48.541787 
L 233.421832 49.308026 
L 234.817196 50.81471 
L 235.282317 50.387334 
L 236.212559 47.565448 
L 236.67768 45.789483 
L 237.142801 44.455143 
L 237.607923 43.823701 
L 238.073044 44.075612 
L 238.538165 45.049767 
L 239.468407 47.488065 
L 239.933528 47.812679 
L 240.398649 47.3878 
L 241.328892 44.40241 
L 242.259134 42.698524 
L 243.189376 43.966922 
L 244.119618 46.950127 
L 244.584739 48.047325 
L 245.049861 48.503511 
L 245.514982 47.747985 
L 246.445224 45.905246 
L 246.910345 45.25633 
L 247.375466 45.216702 
L 248.305708 47.846898 
L 248.77083 49.269438 
L 249.235951 51.173959 
L 249.701072 52.015709 
L 250.166193 52.301424 
L 250.631314 51.620889 
L 251.561556 50.622292 
L 252.026677 50.543349 
L 252.491799 51.39758 
L 252.95692 52.67201 
L 254.352283 58.023827 
L 254.817404 59.005262 
L 256.212768 58.108595 
L 256.677889 58.212813 
L 257.14301 58.613042 
L 257.608131 59.85731 
L 259.003494 65.727719 
L 259.468615 66.944424 
L 259.933737 67.735729 
L 260.863979 67.166588 
L 261.3291 67.175221 
L 262.259342 69.114377 
L 263.189584 72.561777 
L 264.119827 76.070023 
L 264.584948 77.0681 
L 265.050069 77.588044 
L 265.51519 77.66886 
L 265.980311 77.862942 
L 266.910553 78.871315 
L 267.840796 82.257766 
L 268.771038 86.254129 
L 269.236159 87.43443 
L 269.70128 88.303639 
L 270.166401 88.707405 
L 271.096644 89.044084 
L 271.561765 89.749477 
L 272.026886 91.210189 
L 272.957128 95.009974 
L 274.352491 99.670439 
L 274.817613 100.136714 
L 275.747855 100.620359 
L 276.678097 102.184144 
L 278.07346 107.528888 
L 278.538582 109.428729 
L 279.003703 110.8417 
L 279.468824 111.713717 
L 279.933945 111.956475 
L 280.864187 113.047953 
L 281.329308 113.987784 
L 282.259551 116.61902 
L 283.654914 121.735255 
L 284.585156 123.606805 
L 285.050277 124.270283 
L 285.515398 124.612579 
L 285.98052 125.368417 
L 286.910762 127.794026 
L 287.375883 129.415121 
L 287.841004 131.444037 
L 288.771246 134.156921 
L 290.16661 136.151722 
L 290.631731 136.738753 
L 291.096852 137.672343 
L 291.561973 138.964247 
L 292.957336 143.507805 
L 293.422458 144.909231 
L 294.3527 146.902577 
L 295.282942 147.928944 
L 296.213184 149.613276 
L 298.073669 155.327463 
L 298.53879 156.516501 
L 299.003911 157.370005 
L 300.399274 159.258196 
L 300.864396 160.049917 
L 301.794638 162.643502 
L 303.190001 166.599926 
L 303.655122 167.731967 
L 304.120243 168.282178 
L 305.050486 169.636072 
L 305.980728 171.133291 
L 306.445849 172.282909 
L 307.376091 175.236888 
L 308.306334 177.496705 
L 309.701697 179.46384 
L 310.166818 179.971303 
L 310.631939 180.801404 
L 312.957545 186.267632 
L 314.352908 188.560525 
L 315.28315 189.781806 
L 315.748272 190.535564 
L 316.678514 192.623974 
L 317.143635 193.830382 
L 317.608756 194.565731 
L 318.073877 195.579305 
L 320.399483 198.594961 
L 322.725088 203.359851 
L 323.655331 204.715409 
L 325.515815 206.830653 
L 325.980936 207.978608 
L 326.446057 208.674121 
L 326.911179 209.70184 
L 328.306542 211.76612 
L 329.236784 212.82577 
L 330.632148 214.568348 
L 331.097269 215.559352 
L 333.887995 219.309316 
L 334.353117 219.683439 
L 338.539207 225.152683 
L 339.93457 226.498984 
L 342.725297 229.791202 
L 343.190418 230.114152 
L 343.655539 230.762132 
L 344.12066 230.89932 
L 346.446266 233.533157 
L 347.376508 234.368355 
L 348.30675 235.160388 
L 349.702114 236.197988 
L 351.562598 237.983418 
L 358.074294 242.80385 
L 359.004536 243.268253 
L 359.934778 243.913529 
L 360.865021 244.551212 
L 361.795263 245.251093 
L 362.725505 245.795688 
L 367.841838 248.581794 
L 368.306959 248.692461 
L 369.237201 249.149375 
L 370.632564 249.820237 
L 371.097685 250.143291 
L 372.027928 250.484755 
L 372.95817 250.868239 
L 374.818654 251.505298 
L 376.214018 252.200186 
L 377.14426 252.417359 
L 377.609381 252.655125 
L 378.074502 252.733132 
L 378.539623 252.96705 
L 379.004745 253.007925 
L 380.400108 253.567393 
L 380.865229 253.649041 
L 381.33035 253.872662 
L 381.795471 253.967519 
L 382.260592 254.177826 
L 383.190835 254.367956 
L 384.121077 254.609778 
L 385.051319 254.884052 
L 387.376925 255.51539 
L 388.772288 255.829083 
L 390.632773 256.295047 
L 390.632773 256.295047 
" clip-path="url(#p8b1d6544e6)" style="fill: none; stroke-dasharray: 4.5,1.875,2.25,1.875; stroke-dashoffset: 0; stroke: #de8f05; stroke-opacity: 0.9; stroke-width: 1.5"/>
   </g>
   <g id="line2d_23">
    <path d="M 65.978227 260.741518 
L 66.90847 260.836719 
L 71.559681 260.898375 
L 73.420165 260.866689 
L 79.46674 260.660264 
L 79.931861 260.58087 
L 80.396982 260.67271 
L 82.257467 260.623285 
L 84.117951 260.529157 
L 84.583072 260.454984 
L 85.048193 260.564062 
L 89.699405 260.304708 
L 90.164526 260.117953 
L 91.094768 260.313005 
L 92.490131 260.22188 
L 101.327433 259.897867 
L 101.792554 259.73865 
L 104.11816 259.587229 
L 104.583281 259.489953 
L 105.513523 259.540308 
L 107.374007 259.248481 
L 107.839129 259.308348 
L 109.234492 259.03097 
L 109.699613 259.071167 
L 110.164734 258.982332 
L 110.629855 259.049066 
L 111.560098 258.806377 
L 113.420582 258.554534 
L 114.350824 258.447102 
L 119.002036 257.626124 
L 119.467157 257.45067 
L 119.932278 257.524557 
L 120.86252 257.224791 
L 122.257883 257.067862 
L 123.188126 256.775678 
L 128.304458 255.675319 
L 129.2347 255.453302 
L 130.630064 255.121635 
L 133.42079 254.302088 
L 133.885912 253.830802 
L 134.351033 252.963047 
L 134.816154 253.110176 
L 135.281275 251.991221 
L 135.746396 253.667222 
L 137.606881 252.921347 
L 139.002244 252.36659 
L 139.932486 252.09665 
L 141.32785 251.513426 
L 142.258092 251.107801 
L 143.653455 250.386888 
L 145.51394 249.488734 
L 145.979061 249.09863 
L 146.909303 248.703663 
L 149.70003 246.959998 
L 150.630272 246.371767 
L 151.560514 245.658007 
L 154.351241 243.547341 
L 154.816362 243.263525 
L 157.141968 241.062307 
L 158.07221 240.115444 
L 158.537331 239.7272 
L 159.467573 238.749294 
L 161.328058 236.687337 
L 162.723421 234.661644 
L 164.118785 232.57072 
L 165.514148 231.646959 
L 169.235117 226.034515 
L 170.165359 224.782592 
L 172.490965 220.467633 
L 175.746813 214.374532 
L 176.677055 212.297484 
L 177.607297 210.173943 
L 180.398024 204.07791 
L 182.72363 197.994323 
L 183.653872 195.622873 
L 184.584114 193.152144 
L 185.049235 191.958659 
L 186.444599 187.577108 
L 190.165568 176.226262 
L 191.09581 173.05286 
L 192.956294 166.389339 
L 193.421416 165.074688 
L 197.142385 150.915438 
L 198.072627 147.35136 
L 199.46799 142.578061 
L 201.793596 132.214633 
L 203.188959 126.833719 
L 203.65408 125.32044 
L 207.84017 107.549547 
L 208.770413 104.515764 
L 212.026261 90.750624 
L 214.816987 80.679381 
L 215.74723 76.79272 
L 217.142593 71.743544 
L 217.607714 70.516727 
L 218.072835 68.91776 
L 218.537956 68.113948 
L 220.398441 61.37697 
L 221.793804 57.273584 
L 223.189168 54.45109 
L 223.654289 53.587841 
L 224.11941 52.177273 
L 224.584531 51.389984 
L 225.049652 49.489892 
L 225.979894 47.294038 
L 227.375258 45.077013 
L 228.3055 44.287936 
L 231.096227 39.654971 
L 231.561348 39.605046 
L 232.026469 39.141556 
L 232.956711 39.03584 
L 233.421832 38.806885 
L 233.886954 38.921256 
L 234.352075 38.492885 
L 234.817196 38.256277 
L 235.282317 37.724193 
L 236.212559 37.539441 
L 236.67768 37.879763 
L 237.142801 37.809381 
L 238.538165 39.165017 
L 239.003286 38.705962 
L 239.468407 38.996501 
L 239.933528 38.875836 
L 240.86377 39.448046 
L 241.794013 40.462001 
L 242.724255 41.950961 
L 244.119618 43.424186 
L 244.584739 43.806994 
L 245.980103 45.409252 
L 247.840587 49.583019 
L 249.235951 51.34199 
L 249.701072 52.307164 
L 250.166193 52.874796 
L 252.026677 56.919458 
L 256.677889 67.177099 
L 257.608131 69.910686 
L 258.073252 71.244005 
L 258.538373 72.06019 
L 259.003494 73.459886 
L 259.933737 75.245036 
L 260.863979 77.377303 
L 261.3291 79.063676 
L 263.654706 85.104562 
L 264.119827 86.611332 
L 265.51519 90.087504 
L 265.980311 91.584976 
L 266.445432 92.676466 
L 266.910553 94.266922 
L 267.375675 95.277015 
L 268.305917 98.139921 
L 270.631522 104.240103 
L 273.422249 112.128581 
L 273.88737 113.155697 
L 277.608339 123.804228 
L 278.07346 124.579715 
L 279.003703 127.153441 
L 279.468824 128.498276 
L 279.933945 129.462306 
L 282.724672 137.345849 
L 283.189793 138.111108 
L 283.654914 139.512091 
L 284.120035 140.434421 
L 284.585156 141.87081 
L 285.050277 142.823395 
L 287.375883 149.154964 
L 287.841004 150.015924 
L 288.771246 152.294391 
L 291.096852 158.060616 
L 292.027094 160.353245 
L 292.492215 161.489438 
L 292.957336 162.266069 
L 294.3527 165.641103 
L 296.678305 171.085747 
L 297.143427 171.970884 
L 297.608548 173.194267 
L 298.53879 174.967616 
L 299.003911 176.25008 
L 299.934153 177.990455 
L 300.864396 180.428496 
L 301.329517 181.092545 
L 303.190001 184.811334 
L 303.655122 185.557209 
L 304.120243 186.938451 
L 305.515607 189.466186 
L 306.445849 191.400826 
L 306.91097 192.402049 
L 307.841212 193.855604 
L 308.306334 194.81241 
L 308.771455 195.509575 
L 309.701697 197.307887 
L 310.166818 198.082086 
L 311.09706 200.023664 
L 311.562181 200.735206 
L 312.027303 201.79222 
L 312.492424 202.243407 
L 313.422666 203.69968 
L 315.748272 207.58491 
L 317.608756 210.498458 
L 319.004119 212.668776 
L 321.329725 216.124563 
L 322.259967 217.264691 
L 323.19021 218.67161 
L 323.655331 219.247325 
L 324.120452 220.04198 
L 324.585573 220.434516 
L 325.980936 222.37123 
L 327.841421 224.719649 
L 328.306542 225.042232 
L 328.771663 225.84683 
L 330.632148 227.856501 
L 332.027511 229.438732 
L 333.422874 230.945645 
L 336.213601 233.835231 
L 336.678722 234.178485 
L 337.143843 234.700626 
L 338.074086 235.514522 
L 338.539207 236.001401 
L 339.004328 236.300881 
L 340.399691 237.727971 
L 340.864812 238.048266 
L 341.329933 238.538649 
L 341.795055 238.788776 
L 343.655539 240.286892 
L 349.236993 244.414739 
L 351.562598 245.78468 
L 352.027719 246.233006 
L 353.888204 247.211555 
L 355.748688 248.290528 
L 356.213809 248.483291 
L 356.678931 248.806446 
L 357.609173 249.230668 
L 359.004536 249.970749 
L 361.330142 250.93671 
L 362.725505 251.64296 
L 365.051111 252.578236 
L 366.446474 253.078275 
L 372.027928 254.887673 
L 372.027928 254.887673 
" clip-path="url(#p8b1d6544e6)" style="fill: none; stroke: #029e73; stroke-opacity: 0.9; stroke-width: 1.5; stroke-linecap: round"/>
   </g>
   <g id="line2d_24">
    <path d="M 65.978227 260.768066 
L 67.373591 260.85398 
L 71.09456 260.918055 
L 77.606255 260.695892 
L 79.46674 260.632974 
L 79.931861 260.564127 
L 80.396982 260.663493 
L 84.583072 260.316797 
L 85.048193 260.490796 
L 89.699405 260.201521 
L 90.164526 259.785977 
L 90.629647 260.129564 
L 91.094768 260.261835 
L 92.02501 260.173389 
L 99.466948 259.822209 
L 99.932069 259.701726 
L 100.862312 259.697748 
L 101.327433 259.68625 
L 101.792554 259.436099 
L 102.257675 259.429735 
L 103.187917 259.554123 
L 104.11816 259.400591 
L 105.048402 259.356187 
L 106.443765 259.195495 
L 106.908886 259.060476 
L 107.839129 259.04471 
L 108.30425 258.940427 
L 108.769371 258.952576 
L 109.234492 258.789353 
L 109.699613 258.846629 
L 110.164734 258.742924 
L 110.629855 258.790871 
L 111.560098 258.556559 
L 113.420582 258.321957 
L 113.885703 258.183683 
L 115.281067 258.131325 
L 116.211309 257.883705 
L 117.141551 257.755195 
L 118.536914 257.480311 
L 119.467157 257.222061 
L 119.932278 257.31246 
L 120.86252 256.991147 
L 121.792762 256.918033 
L 122.723005 256.715468 
L 123.653247 256.479637 
L 126.909095 256.007034 
L 128.304458 255.563142 
L 130.164943 255.200463 
L 132.955669 254.55849 
L 133.42079 254.314125 
L 133.885912 253.429305 
L 134.351033 251.47048 
L 134.816154 252.196994 
L 135.281275 250.41723 
L 135.746396 253.804133 
L 137.141759 253.36335 
L 138.072002 252.891543 
L 138.537123 252.825227 
L 139.467365 252.526189 
L 140.397607 252.161919 
L 141.792971 251.680276 
L 143.188334 251.111706 
L 144.583697 250.446374 
L 145.51394 250.040449 
L 145.979061 249.399994 
L 146.444182 249.537906 
L 147.374424 249.166405 
L 148.769788 248.292433 
L 149.234909 248.104766 
L 149.70003 247.755611 
L 150.630272 247.32611 
L 155.746604 243.639879 
L 156.676847 242.787458 
L 160.862937 238.885501 
L 163.653664 234.845921 
L 164.118785 234.154337 
L 164.583906 234.144357 
L 165.049027 233.778641 
L 165.514148 233.733369 
L 171.095602 225.77867 
L 171.560723 224.829921 
L 172.025844 224.15808 
L 172.490965 223.178811 
L 173.886328 220.911402 
L 177.607297 213.598242 
L 179.002661 210.563531 
L 179.467782 209.800062 
L 182.258509 202.939979 
L 183.653872 199.463184 
L 184.584114 197.27641 
L 190.630689 179.234331 
L 194.816779 165.257289 
L 197.142385 156.337352 
L 200.398232 144.536959 
L 202.258717 136.834363 
L 203.65408 131.299303 
L 204.119201 129.88323 
L 208.305292 113.210941 
L 209.235534 109.867501 
L 212.491382 96.923677 
L 213.886745 92.43789 
L 217.142593 80.66534 
L 219.003077 75.530421 
L 220.863562 69.067223 
L 223.189168 63.838651 
L 223.654289 63.163555 
L 224.11941 61.628373 
L 225.979894 57.044956 
L 226.445015 56.429668 
L 226.910137 55.555045 
L 227.840379 54.457464 
L 228.3055 53.84261 
L 228.770621 53.037847 
L 229.235742 52.5199 
L 229.700863 51.414075 
L 230.165985 50.628404 
L 232.026469 48.64217 
L 232.49159 48.779503 
L 232.956711 48.174629 
L 233.421832 48.334887 
L 233.886954 48.00685 
L 234.352075 47.848327 
L 235.282317 46.667724 
L 235.747438 46.644003 
L 236.212559 46.40593 
L 236.67768 46.397396 
L 237.142801 46.633806 
L 237.607923 47.036043 
L 238.073044 47.126875 
L 238.538165 47.510092 
L 239.468407 47.21091 
L 239.933528 47.325607 
L 240.398649 47.059257 
L 240.86377 47.304852 
L 241.328892 47.790183 
L 241.794013 47.932578 
L 242.259134 48.608614 
L 242.724255 49.043105 
L 243.189376 49.865441 
L 243.654497 50.088978 
L 244.119618 50.515514 
L 244.584739 50.62016 
L 245.514982 51.544899 
L 245.980103 51.999495 
L 246.445224 52.656004 
L 246.910345 53.673095 
L 247.375466 54.027818 
L 247.840587 54.861653 
L 248.305708 55.317695 
L 249.235951 57.001999 
L 249.701072 57.053056 
L 250.166193 57.524285 
L 251.561556 60.343414 
L 252.491799 62.524257 
L 252.95692 63.216203 
L 253.422041 63.698135 
L 253.887162 64.768597 
L 254.817404 66.078289 
L 256.212768 69.136938 
L 257.14301 71.238087 
L 260.863979 78.830614 
L 261.3291 80.201199 
L 261.794221 81.180177 
L 262.724463 83.700558 
L 264.119827 86.663962 
L 264.584948 87.427938 
L 265.050069 88.97903 
L 265.980311 91.000917 
L 270.166401 101.226425 
L 271.561765 104.71913 
L 272.026886 106.271597 
L 272.957128 108.313806 
L 279.003703 123.371579 
L 279.468824 124.200279 
L 279.933945 125.564138 
L 280.864187 127.757493 
L 281.329308 128.794978 
L 282.259551 131.460719 
L 285.515398 138.897254 
L 288.306125 145.72342 
L 288.771246 146.579312 
L 289.701489 148.854532 
L 290.16661 149.723803 
L 290.631731 151.146819 
L 291.096852 152.059048 
L 292.027094 154.34309 
L 294.817821 160.305987 
L 296.213184 163.628744 
L 298.53879 168.227637 
L 300.399274 172.381119 
L 300.864396 173.565627 
L 301.794638 175.113104 
L 302.259759 175.773301 
L 305.515607 182.556943 
L 305.980728 183.323233 
L 306.445849 184.489228 
L 307.376091 185.966989 
L 310.166818 191.259202 
L 311.09706 192.770157 
L 318.073877 204.342673 
L 318.538998 204.976041 
L 319.934362 207.429888 
L 321.329725 209.154473 
L 321.794846 210.052238 
L 325.050694 214.648238 
L 326.446057 216.512109 
L 330.167026 221.413294 
L 331.56239 222.871963 
L 332.027511 223.663926 
L 333.887995 225.717561 
L 334.353117 226.348469 
L 334.818238 226.735375 
L 335.74848 227.870056 
L 337.143843 229.255538 
L 338.074086 230.269013 
L 338.539207 230.875261 
L 339.004328 231.109501 
L 339.93457 232.205058 
L 340.864812 232.948567 
L 342.260176 234.399353 
L 343.190418 235.156096 
L 343.655539 235.738262 
L 345.981145 237.595262 
L 346.446266 238.132157 
L 347.376508 238.734138 
L 347.841629 239.250204 
L 348.30675 239.397662 
L 348.771871 239.931013 
L 357.144052 245.58547 
L 358.074294 246.101247 
L 358.539415 246.426754 
L 359.004536 246.596342 
L 359.469657 246.945135 
L 359.934778 247.142565 
L 360.865021 247.667093 
L 361.795263 248.184823 
L 362.260384 248.299592 
L 363.190626 248.920304 
L 363.655747 249.0418 
L 364.58599 249.651591 
L 365.981353 250.268181 
L 367.376716 250.882239 
L 368.306959 251.231972 
L 369.237201 251.609332 
L 369.702322 251.739867 
L 370.632564 252.218255 
L 371.097685 252.41894 
L 371.562807 252.487064 
L 372.493049 252.841426 
L 375.283776 253.725306 
L 375.748897 254.017184 
L 377.14426 254.376825 
L 377.609381 254.564492 
L 378.074502 254.59342 
L 378.539623 254.804301 
L 379.004745 254.843353 
L 379.934987 255.206972 
L 380.865229 255.426315 
L 380.865229 255.426315 
" clip-path="url(#p8b1d6544e6)" style="fill: none; stroke-dasharray: 6,2.25; stroke-dashoffset: 0; stroke: #029e73; stroke-opacity: 0.9; stroke-width: 1.5"/>
   </g>
   <g id="line2d_25">
    <path d="M 65.978227 260.994962 
L 67.373591 261.085845 
L 70.629439 261.134907 
L 73.885286 261.091513 
L 77.606255 260.925116 
L 84.117951 260.739951 
L 84.583072 260.665192 
L 85.048193 260.747949 
L 86.908678 260.658642 
L 89.234284 260.565303 
L 89.699405 260.482105 
L 90.164526 260.177464 
L 90.629647 260.419627 
L 91.094768 260.520272 
L 92.02501 260.439529 
L 94.350616 260.435058 
L 96.2111 260.24139 
L 96.676222 260.313252 
L 98.071585 260.176078 
L 99.466948 260.141375 
L 100.397191 260.024734 
L 101.327433 259.990976 
L 101.792554 259.795797 
L 106.443765 259.401848 
L 107.374007 259.208243 
L 108.30425 259.131217 
L 116.211309 257.793807 
L 119.002036 257.196869 
L 119.467157 256.905202 
L 119.932278 257.019954 
L 120.86252 256.769099 
L 122.723005 256.346179 
L 124.118368 255.941586 
L 125.04861 255.778024 
L 131.560306 254.158898 
L 132.490548 253.778616 
L 132.955669 253.641254 
L 133.42079 253.344674 
L 133.885912 252.528372 
L 134.351033 250.778434 
L 134.816154 251.581825 
L 135.281275 250.817986 
L 135.746396 252.666616 
L 138.537123 251.589131 
L 139.467365 251.172886 
L 143.188334 249.355873 
L 144.118576 248.823869 
L 145.979061 247.817678 
L 151.560514 244.003965 
L 153.420999 242.435224 
L 153.88612 241.969792 
L 154.351241 241.711946 
L 158.07221 238.029045 
L 159.932695 236.130723 
L 161.328058 234.311757 
L 161.793179 233.817668 
L 164.118785 230.130295 
L 164.583906 229.964969 
L 165.049027 229.535562 
L 165.979269 228.281854 
L 168.304875 224.457182 
L 170.63048 220.872281 
L 172.490965 217.136161 
L 173.421207 215.31266 
L 174.816571 212.792396 
L 177.607297 206.16776 
L 178.53754 204.151788 
L 181.793387 195.890014 
L 183.188751 192.009162 
L 184.584114 188.217934 
L 185.514356 185.440391 
L 188.305083 176.350977 
L 189.700447 172.256934 
L 192.026052 163.290272 
L 194.816779 153.640828 
L 197.607506 142.091927 
L 201.793596 124.934155 
L 203.188959 119.254114 
L 205.049444 111.696912 
L 207.375049 101.261209 
L 208.770413 96.077839 
L 209.235534 94.402723 
L 211.096018 85.976377 
L 212.026261 82.082048 
L 212.491382 80.936794 
L 213.421624 77.353971 
L 214.351866 74.344846 
L 215.74723 68.293718 
L 216.212351 66.80446 
L 216.677472 64.807319 
L 218.072835 61.060304 
L 218.537956 59.490051 
L 219.003077 58.320928 
L 221.328683 50.626741 
L 222.258925 48.304869 
L 224.11941 44.616804 
L 225.979894 39.848796 
L 227.375258 38.106857 
L 227.840379 38.077255 
L 228.3055 37.050973 
L 228.770621 36.854409 
L 229.235742 35.900303 
L 230.165985 34.438379 
L 230.631106 34.288357 
L 231.561348 33.151795 
L 232.026469 33.118289 
L 232.49159 33.359759 
L 232.956711 33.089947 
L 233.886954 33.278261 
L 234.352075 32.70639 
L 234.817196 32.662177 
L 235.282317 32.463471 
L 235.747438 32.015799 
L 236.212559 32.862017 
L 236.67768 32.870268 
L 237.142801 33.0167 
L 237.607923 33.747473 
L 238.073044 34.181478 
L 238.538165 34.386734 
L 239.003286 35.037962 
L 239.468407 34.861173 
L 239.933528 34.843664 
L 240.398649 35.390658 
L 240.86377 35.745117 
L 241.328892 36.576975 
L 241.794013 37.109042 
L 243.654497 40.338918 
L 245.049861 41.921137 
L 245.514982 42.647627 
L 247.840587 47.662584 
L 249.235951 50.530443 
L 250.166193 52.092319 
L 251.561556 55.364958 
L 253.422041 60.461917 
L 254.352283 62.762061 
L 254.817404 63.558902 
L 256.677889 68.741138 
L 258.538373 73.890624 
L 259.468615 76.319439 
L 259.933737 77.871678 
L 260.398858 78.894118 
L 262.259342 84.533473 
L 262.724463 86.018638 
L 263.189584 86.895528 
L 264.119827 89.84986 
L 264.584948 90.728261 
L 265.980311 95.362433 
L 266.910553 98.16013 
L 267.840796 101.03183 
L 268.771038 103.737637 
L 270.631522 108.82137 
L 272.026886 113.17622 
L 272.492007 114.363104 
L 273.422249 117.451523 
L 274.352491 119.495207 
L 274.817613 121.16793 
L 275.282734 122.227466 
L 277.143218 127.92489 
L 278.538582 131.592675 
L 281.329308 139.351292 
L 282.724672 143.454908 
L 286.445641 152.917675 
L 286.910762 154.361839 
L 287.375883 155.354363 
L 288.771246 158.975982 
L 289.701489 161.104754 
L 291.561973 165.876603 
L 292.957336 169.243085 
L 293.422458 170.050444 
L 295.282942 174.353144 
L 296.213184 176.61424 
L 298.073669 180.887906 
L 299.003911 182.594765 
L 299.469032 183.846961 
L 300.864396 186.648626 
L 301.794638 188.722478 
L 306.445849 197.653808 
L 307.376091 199.399149 
L 308.306334 200.961591 
L 310.631939 204.950896 
L 311.09706 205.94046 
L 314.352908 211.083837 
L 315.748272 213.56839 
L 316.213393 214.022234 
L 316.678514 214.849432 
L 318.073877 216.759028 
L 320.864604 220.907046 
L 322.259967 222.634941 
L 330.167026 232.021627 
L 330.632148 232.473203 
L 331.097269 233.108182 
L 331.56239 233.419814 
L 332.492632 234.425123 
L 332.957753 234.775048 
L 333.422874 235.330922 
L 334.353117 236.114033 
L 334.818238 236.672111 
L 335.74848 237.407482 
L 341.795055 242.427729 
L 342.260176 242.661201 
L 343.655539 243.713621 
L 345.516024 245.037238 
L 352.957962 249.401786 
L 354.353325 249.987073 
L 355.283567 250.539231 
L 356.213809 250.940359 
L 358.074294 251.773036 
L 361.330142 253.068123 
L 368.306959 255.289351 
L 368.306959 255.289351 
" clip-path="url(#p8b1d6544e6)" style="fill: none; stroke-dasharray: 1.5,1.5; stroke-dashoffset: 0; stroke: #029e73; stroke-opacity: 0.9; stroke-width: 1.5"/>
   </g>
   <g id="line2d_26">
    <path d="M 65.978227 260.708205 
L 67.838712 260.768271 
L 70.164317 260.803626 
L 74.815529 260.695773 
L 79.931861 260.459241 
L 80.396982 260.541763 
L 82.257467 260.463593 
L 83.187709 260.446265 
L 89.699405 260.098694 
L 90.164526 259.58507 
L 90.629647 260.033889 
L 91.094768 260.178652 
L 92.02501 260.137624 
L 93.885495 260.087194 
L 94.815737 260.073907 
L 95.280858 259.969628 
L 95.745979 260.032335 
L 96.2111 259.9523 
L 96.676222 260.063572 
L 98.071585 259.930465 
L 99.001827 259.932952 
L 100.862312 259.786324 
L 101.327433 259.82471 
L 101.792554 259.609081 
L 102.257675 259.616152 
L 103.187917 259.743587 
L 105.978644 259.565411 
L 107.374007 259.37659 
L 108.30425 259.330434 
L 109.699613 259.293525 
L 110.164734 259.179066 
L 110.629855 259.235013 
L 111.560098 259.087842 
L 113.420582 258.930724 
L 114.350824 258.834371 
L 115.746188 258.782931 
L 116.211309 258.653865 
L 117.141551 258.61206 
L 119.002036 258.433884 
L 119.467157 258.158112 
L 119.932278 258.376383 
L 120.86252 258.22284 
L 123.653247 257.905108 
L 124.583489 257.679844 
L 129.2347 257.269022 
L 130.630064 257.093333 
L 132.490548 256.81624 
L 132.955669 256.7655 
L 133.42079 256.591287 
L 133.885912 255.903451 
L 134.351033 253.938081 
L 134.816154 254.613485 
L 135.281275 253.343489 
L 135.746396 256.272079 
L 142.258092 254.758869 
L 145.048819 253.869157 
L 145.51394 253.778166 
L 146.444182 253.39998 
L 151.560514 251.263584 
L 153.420999 250.288631 
L 157.607089 247.754234 
L 161.328058 244.894879 
L 162.723421 243.225484 
L 163.188542 242.444869 
L 163.653664 241.43425 
L 164.118785 240.872915 
L 164.583906 241.208053 
L 165.049027 241.399594 
L 165.514148 241.44202 
L 166.44439 240.488979 
L 167.374633 239.412311 
L 171.560723 234.470953 
L 173.886328 231.106754 
L 175.746813 228.280113 
L 179.932903 221.046095 
L 180.398024 219.955751 
L 180.863145 219.158119 
L 181.328266 217.99551 
L 181.793387 217.184901 
L 183.188751 214.012631 
L 184.118993 212.268719 
L 185.979478 207.626754 
L 189.700447 198.066975 
L 193.421416 187.12282 
L 195.2819 181.131757 
L 196.677263 176.218916 
L 199.46799 166.747798 
L 201.328475 159.648286 
L 202.258717 156.168696 
L 205.514565 143.882359 
L 205.979686 141.607105 
L 206.909928 137.949729 
L 211.096018 121.478249 
L 211.561139 119.096541 
L 213.421624 112.58657 
L 214.351866 108.978692 
L 217.607714 96.760656 
L 219.468199 90.168241 
L 219.93332 88.81044 
L 220.863562 84.941009 
L 221.328683 83.878949 
L 221.793804 82.140398 
L 222.258925 81.012601 
L 223.189168 78.338725 
L 224.584531 74.543969 
L 225.979894 70.174901 
L 227.375258 66.899052 
L 227.840379 66.498642 
L 228.3055 65.649259 
L 228.770621 64.257656 
L 229.700863 62.266722 
L 230.631106 60.036848 
L 231.096227 59.047364 
L 232.026469 57.67138 
L 232.49159 57.370432 
L 233.421832 56.402239 
L 234.352075 55.128047 
L 234.817196 54.327151 
L 235.282317 53.910114 
L 235.747438 53.088704 
L 236.212559 52.602276 
L 236.67768 52.518433 
L 237.142801 52.262631 
L 237.607923 52.282835 
L 238.073044 51.874111 
L 239.003286 51.653121 
L 239.468407 51.195133 
L 240.398649 50.640714 
L 240.86377 50.288481 
L 241.328892 50.343496 
L 241.794013 50.748023 
L 242.259134 50.801795 
L 242.724255 51.245174 
L 243.654497 51.076712 
L 244.119618 51.22093 
L 244.584739 50.854012 
L 245.049861 50.94749 
L 245.514982 51.379835 
L 245.980103 51.585052 
L 247.375466 52.945806 
L 247.840587 53.152887 
L 248.305708 53.769003 
L 249.235951 54.151152 
L 250.631314 55.102871 
L 252.026677 57.221396 
L 252.491799 57.788636 
L 252.95692 58.712693 
L 253.887162 59.555704 
L 254.817404 60.495846 
L 256.212768 62.523379 
L 256.677889 63.748228 
L 257.608131 64.993281 
L 258.073252 66.188836 
L 258.538373 66.609448 
L 259.468615 67.932982 
L 259.933737 68.867918 
L 260.398858 69.474787 
L 262.259342 73.39488 
L 262.724463 74.581422 
L 263.189584 75.109344 
L 263.654706 76.19992 
L 264.119827 76.903997 
L 264.584948 77.399749 
L 265.050069 78.70308 
L 265.51519 79.449428 
L 265.980311 80.79433 
L 266.445432 81.592662 
L 266.910553 82.791947 
L 267.375675 83.48398 
L 268.771038 86.749649 
L 269.236159 87.204218 
L 269.70128 88.338232 
L 270.631522 90.196292 
L 271.561765 92.724861 
L 272.957128 95.651197 
L 273.422249 96.8668 
L 273.88737 97.357579 
L 275.282734 100.482526 
L 275.747855 101.56984 
L 276.678097 104.315125 
L 277.608339 106.053443 
L 278.07346 107.331365 
L 278.538582 108.172201 
L 279.468824 110.361514 
L 280.864187 113.601386 
L 281.329308 115.118713 
L 281.794429 115.834601 
L 282.259551 117.217579 
L 282.724672 118.18041 
L 283.189793 118.830405 
L 283.654914 120.354648 
L 284.585156 122.282875 
L 287.841004 129.926937 
L 289.236367 133.326025 
L 290.631731 136.105345 
L 292.027094 139.642668 
L 292.957336 141.611146 
L 294.817821 145.748811 
L 295.282942 146.584519 
L 296.213184 149.003058 
L 296.678305 149.715916 
L 297.143427 151.114123 
L 298.073669 152.917946 
L 301.329517 160.069986 
L 302.259759 162.280434 
L 303.655122 165.004584 
L 304.120243 166.191592 
L 304.585365 166.822238 
L 306.91097 171.995621 
L 307.376091 172.648491 
L 308.771455 175.601324 
L 309.236576 176.193118 
L 309.701697 177.396444 
L 310.166818 178.133856 
L 310.631939 179.400588 
L 312.027303 181.82682 
L 312.492424 183.057264 
L 313.422666 184.619661 
L 315.748272 189.021908 
L 316.213393 190.061744 
L 316.678514 190.657502 
L 325.050694 204.860877 
L 327.3763 208.493776 
L 327.841421 208.960078 
L 328.306542 209.862378 
L 328.771663 210.368154 
L 329.701905 212.009109 
L 330.632148 213.049178 
L 331.097269 213.773147 
L 331.56239 214.282575 
L 332.027511 215.254809 
L 334.353117 218.219686 
L 334.818238 219.100229 
L 335.283359 219.455026 
L 336.213601 220.728674 
L 338.074086 223.015039 
L 338.539207 223.670084 
L 339.004328 224.002347 
L 340.399691 225.85287 
L 340.864812 226.214738 
L 341.329933 226.893794 
L 342.260176 227.883278 
L 343.190418 228.938499 
L 343.655539 229.301766 
L 344.585781 230.353957 
L 345.050902 230.791742 
L 345.516024 231.448031 
L 345.981145 231.757759 
L 346.446266 232.341161 
L 346.911387 232.59199 
L 349.236993 234.932981 
L 349.702114 235.253822 
L 350.167235 235.89286 
L 350.632356 236.154645 
L 353.423083 238.734266 
L 353.888204 238.93785 
L 355.283567 240.098516 
L 356.678931 241.203935 
L 357.144052 241.632084 
L 357.609173 241.786171 
L 359.004536 242.813808 
L 359.934778 243.511979 
L 360.865021 244.067563 
L 361.330142 244.45453 
L 361.795263 244.644983 
L 364.120869 246.160212 
L 365.516232 246.854421 
L 366.911595 247.753457 
L 368.306959 248.473774 
L 369.237201 248.988797 
L 371.097685 249.843153 
L 371.562807 250.171686 
L 372.027928 250.263066 
L 374.818654 251.495531 
L 376.679139 252.219888 
L 377.609381 252.624493 
L 378.074502 252.729938 
L 379.004745 253.132445 
L 379.934987 253.379389 
L 381.795471 254.085175 
L 382.725714 254.334294 
L 384.121077 254.809921 
L 384.586198 254.881797 
L 385.51644 255.162231 
L 385.981561 255.245996 
L 386.446683 255.449581 
L 387.376925 255.672203 
L 387.842046 255.790546 
L 387.842046 255.790546 
" clip-path="url(#p8b1d6544e6)" style="fill: none; stroke-dasharray: 4.5,1.875,2.25,1.875; stroke-dashoffset: 0; stroke: #029e73; stroke-opacity: 0.9; stroke-width: 1.5"/>
   </g>
   <g id="line2d_27"/>
   <g id="line2d_28"/>
   <g id="line2d_29"/>
   <g id="line2d_30"/>
   <g id="line2d_31"/>
   <g id="line2d_32"/>
   <g id="line2d_33"/>
   <g id="line2d_34"/>
   <g id="line2d_35"/>
   <g id="patch_3">
    <path d="M 49.7455 273.312 
L 49.7455 7.2 
" style="fill: none; stroke: #262626; stroke-width: 1.25; stroke-linejoin: miter; stroke-linecap: square"/>
   </g>
   <g id="patch_4">
    <path d="M 49.7455 273.312 
L 406.8655 273.312 
" style="fill: none; stroke: #262626; stroke-width: 1.25; stroke-linejoin: miter; stroke-linecap: square"/>
   </g>
   <g id="legend_1">
    <g id="line2d_36">
     <path d="M 60.6355 22.515953 
L 72.7355 22.515953 
L 84.8355 22.515953 
" style="fill: none"/>
    </g>
    <g id="text_17">
     <text style="fill: #262626; font: 12.1px 'Arial', 'DejaVu Sans', 'Liberation Sans', 'Bitstream Vera Sans', sans-serif; text-anchor: start" x="94.5155" y="26.750953" transform="rotate(-0 94.5155 26.750953)">Data source</text>
    </g>
    <g id="line2d_37">
     <path d="M 60.6355 39.631781 
L 72.7355 39.631781 
L 84.8355 39.631781 
" style="fill: none; stroke: #0173b2; stroke-opacity: 0.9; stroke-width: 1.5; stroke-linecap: round"/>
    </g>
    <g id="text_18">
     <text style="fill: #262626; font: 12.1px 'Arial', 'DejaVu Sans', 'Liberation Sans', 'Bitstream Vera Sans', sans-serif; text-anchor: start" x="94.5155" y="43.866781" transform="rotate(-0 94.5155 43.866781)">AVITI CB FS</text>
    </g>
    <g id="line2d_38">
     <path d="M 60.6355 56.747609 
L 72.7355 56.747609 
L 84.8355 56.747609 
" style="fill: none; stroke: #de8f05; stroke-opacity: 0.9; stroke-width: 1.5; stroke-linecap: round"/>
    </g>
    <g id="text_19">
     <text style="fill: #262626; font: 12.1px 'Arial', 'DejaVu Sans', 'Liberation Sans', 'Bitstream Vera Sans', sans-serif; text-anchor: start" x="94.5155" y="60.982609" transform="rotate(-0 94.5155 60.982609)">AVITI CB</text>
    </g>
    <g id="line2d_39">
     <path d="M 60.6355 74.010906 
L 72.7355 74.010906 
L 84.8355 74.010906 
" style="fill: none; stroke: #029e73; stroke-opacity: 0.9; stroke-width: 1.5; stroke-linecap: round"/>
    </g>
    <g id="text_20">
     <text style="fill: #262626; font: 12.1px 'Arial', 'DejaVu Sans', 'Liberation Sans', 'Bitstream Vera Sans', sans-serif; text-anchor: start" x="94.5155" y="78.245906" transform="rotate(-0 94.5155 78.245906)">NovaSeqX+</text>
    </g>
    <g id="line2d_40">
     <path d="M 60.6355 91.126734 
L 72.7355 91.126734 
L 84.8355 91.126734 
" style="fill: none"/>
    </g>
    <g id="text_21">
     <text style="fill: #262626; font: 12.1px 'Arial', 'DejaVu Sans', 'Liberation Sans', 'Bitstream Vera Sans', sans-serif; text-anchor: start" x="94.5155" y="95.361734" transform="rotate(-0 94.5155 95.361734)">Cell line</text>
    </g>
    <g id="line2d_41">
     <path d="M 60.6355 108.242562 
L 72.7355 108.242562 
L 84.8355 108.242562 
" style="fill: none; stroke: #333333; stroke-opacity: 0.9; stroke-width: 1.5; stroke-linecap: round"/>
    </g>
    <g id="text_22">
     <text style="fill: #262626; font: 12.1px 'Arial', 'DejaVu Sans', 'Liberation Sans', 'Bitstream Vera Sans', sans-serif; text-anchor: start" x="94.5155" y="112.477562" transform="rotate(-0 94.5155 112.477562)">KMS12BM</text>
    </g>
    <g id="line2d_42">
     <path d="M 60.6355 125.358391 
L 72.7355 125.358391 
L 84.8355 125.358391 
" style="fill: none; stroke-dasharray: 6,2.25; stroke-dashoffset: 0; stroke: #333333; stroke-opacity: 0.9; stroke-width: 1.5"/>
    </g>
    <g id="text_23">
     <text style="fill: #262626; font: 12.1px 'Arial', 'DejaVu Sans', 'Liberation Sans', 'Bitstream Vera Sans', sans-serif; text-anchor: start" x="94.5155" y="129.593391" transform="rotate(-0 94.5155 129.593391)">MM1S</text>
    </g>
    <g id="line2d_43">
     <path d="M 60.6355 142.474219 
L 72.7355 142.474219 
L 84.8355 142.474219 
" style="fill: none; stroke-dasharray: 1.5,1.5; stroke-dashoffset: 0; stroke: #333333; stroke-opacity: 0.9; stroke-width: 1.5"/>
    </g>
    <g id="text_24">
     <text style="fill: #262626; font: 12.1px 'Arial', 'DejaVu Sans', 'Liberation Sans', 'Bitstream Vera Sans', sans-serif; text-anchor: start" x="94.5155" y="146.709219" transform="rotate(-0 94.5155 146.709219)">OPM2</text>
    </g>
    <g id="line2d_44">
     <path d="M 60.6355 159.590047 
L 72.7355 159.590047 
L 84.8355 159.590047 
" style="fill: none; stroke-dasharray: 4.5,1.875,2.25,1.875; stroke-dashoffset: 0; stroke: #333333; stroke-opacity: 0.9; stroke-width: 1.5"/>
    </g>
    <g id="text_25">
     <text style="fill: #262626; font: 12.1px 'Arial', 'DejaVu Sans', 'Liberation Sans', 'Bitstream Vera Sans', sans-serif; text-anchor: start" x="94.5155" y="163.825047" transform="rotate(-0 94.5155 163.825047)">REH</text>
    </g>
   </g>
  </g>
 </g>
 <defs>
  <clipPath id="p8b1d6544e6">
   <rect x="49.7455" y="7.2" width="357.12" height="266.112"/>
  </clipPath>
 </defs>
</svg>
