<?xml version="1.0" encoding="utf-8" standalone="no"?>
<!DOCTYPE svg PUBLIC "-//W3C//DTD SVG 1.1//EN"
  "http://www.w3.org/Graphics/SVG/1.1/DTD/svg11.dtd">
<svg xmlns:xlink="http://www.w3.org/1999/xlink" width="335.050562pt" height="317.149641pt" viewBox="0 0 335.050562 317.149641" xmlns="http://www.w3.org/2000/svg" version="1.1">
 <metadata>
  <rdf:RDF xmlns:dc="http://purl.org/dc/elements/1.1/" xmlns:cc="http://creativecommons.org/ns#" xmlns:rdf="http://www.w3.org/1999/02/22-rdf-syntax-ns#">
   <cc:Work>
    <dc:type rdf:resource="http://purl.org/dc/dcmitype/StillImage"/>
    <dc:date>2025-08-07T12:58:51.379704</dc:date>
    <dc:format>image/svg+xml</dc:format>
    <dc:creator>
     <cc:Agent>
      <dc:title>Matplotlib v3.9.2, https://matplotlib.org/</dc:title>
     </cc:Agent>
    </dc:creator>
   </cc:Work>
  </rdf:RDF>
 </metadata>
 <defs>
  <style type="text/css">*{stroke-linejoin: round; stroke-linecap: butt}</style>
 </defs>
 <g id="figure_1">
  <g id="patch_1">
   <path d="M 0 317.149641 
L 335.050562 317.149641 
L 335.050562 0 
L 0 0 
L 0 317.149641 
z
" style="fill: none"/>
  </g>
  <g id="axes_1">
   <g id="patch_2">
    <path d="M 53.281828 273.312 
L 321.121828 273.312 
L 321.121828 7.2 
L 53.281828 7.2 
L 53.281828 273.312 
z
" style="fill: none"/>
   </g>
   <g id="matplotlib.axis_1">
    <g id="xtick_1">
     <g id="line2d_1">
      <defs>
       <path id="m4cf19bd8c7" d="M 0 0 
L 0 6 
" style="stroke: #262626; stroke-width: 1.25"/>
      </defs>
      <g>
       <use xlink:href="#m4cf19bd8c7" x="53.281828" y="273.312" style="fill: #262626; stroke: #262626; stroke-width: 1.25"/>
      </g>
     </g>
     <g id="text_1">
      <text style="fill: #262626; font: 12.1px 'Arial', 'DejaVu Sans', 'Liberation Sans', 'Bitstream Vera Sans', sans-serif; text-anchor: middle" x="53.281828" y="291.472953" transform="rotate(-0 53.281828 291.472953)">0</text>
     </g>
    </g>
    <g id="xtick_2">
     <g id="line2d_2">
      <g>
       <use xlink:href="#m4cf19bd8c7" x="97.921828" y="273.312" style="fill: #262626; stroke: #262626; stroke-width: 1.25"/>
      </g>
     </g>
     <g id="text_2">
      <text style="fill: #262626; font: 12.1px 'Arial', 'DejaVu Sans', 'Liberation Sans', 'Bitstream Vera Sans', sans-serif; text-anchor: middle" x="97.921828" y="291.472953" transform="rotate(-0 97.921828 291.472953)">10</text>
     </g>
    </g>
    <g id="xtick_3">
     <g id="line2d_3">
      <g>
       <use xlink:href="#m4cf19bd8c7" x="142.561828" y="273.312" style="fill: #262626; stroke: #262626; stroke-width: 1.25"/>
      </g>
     </g>
     <g id="text_3">
      <text style="fill: #262626; font: 12.1px 'Arial', 'DejaVu Sans', 'Liberation Sans', 'Bitstream Vera Sans', sans-serif; text-anchor: middle" x="142.561828" y="291.472953" transform="rotate(-0 142.561828 291.472953)">20</text>
     </g>
    </g>
    <g id="xtick_4">
     <g id="line2d_4">
      <g>
       <use xlink:href="#m4cf19bd8c7" x="187.201828" y="273.312" style="fill: #262626; stroke: #262626; stroke-width: 1.25"/>
      </g>
     </g>
     <g id="text_4">
      <text style="fill: #262626; font: 12.1px 'Arial', 'DejaVu Sans', 'Liberation Sans', 'Bitstream Vera Sans', sans-serif; text-anchor: middle" x="187.201828" y="291.472953" transform="rotate(-0 187.201828 291.472953)">30</text>
     </g>
    </g>
    <g id="xtick_5">
     <g id="line2d_5">
      <g>
       <use xlink:href="#m4cf19bd8c7" x="231.841828" y="273.312" style="fill: #262626; stroke: #262626; stroke-width: 1.25"/>
      </g>
     </g>
     <g id="text_5">
      <text style="fill: #262626; font: 12.1px 'Arial', 'DejaVu Sans', 'Liberation Sans', 'Bitstream Vera Sans', sans-serif; text-anchor: middle" x="231.841828" y="291.472953" transform="rotate(-0 231.841828 291.472953)">40</text>
     </g>
    </g>
    <g id="xtick_6">
     <g id="line2d_6">
      <g>
       <use xlink:href="#m4cf19bd8c7" x="276.481828" y="273.312" style="fill: #262626; stroke: #262626; stroke-width: 1.25"/>
      </g>
     </g>
     <g id="text_6">
      <text style="fill: #262626; font: 12.1px 'Arial', 'DejaVu Sans', 'Liberation Sans', 'Bitstream Vera Sans', sans-serif; text-anchor: middle" x="276.481828" y="291.472953" transform="rotate(-0 276.481828 291.472953)">50</text>
     </g>
    </g>
    <g id="xtick_7">
     <g id="line2d_7">
      <g>
       <use xlink:href="#m4cf19bd8c7" x="321.121828" y="273.312" style="fill: #262626; stroke: #262626; stroke-width: 1.25"/>
      </g>
     </g>
     <g id="text_7">
      <text style="fill: #262626; font: 12.1px 'Arial', 'DejaVu Sans', 'Liberation Sans', 'Bitstream Vera Sans', sans-serif; text-anchor: middle" x="321.121828" y="291.472953" transform="rotate(-0 321.121828 291.472953)">60</text>
     </g>
    </g>
    <g id="text_8">
     <text style="fill: #262626; font: 13.2px 'Arial', 'DejaVu Sans', 'Liberation Sans', 'Bitstream Vera Sans', sans-serif; text-anchor: middle" x="187.201828" y="307.326141" transform="rotate(-0 187.201828 307.326141)">MAPQ</text>
    </g>
   </g>
   <g id="matplotlib.axis_2">
    <g id="ytick_1">
     <g id="line2d_8">
      <defs>
       <path id="m3956084417" d="M 0 0 
L -6 0 
" style="stroke: #262626; stroke-width: 1.25"/>
      </defs>
      <g>
       <use xlink:href="#m3956084417" x="53.281828" y="238.425534" style="fill: #262626; stroke: #262626; stroke-width: 1.25"/>
      </g>
     </g>
     <g id="text_9">
      <text style="fill: #262626; font: 12.1px 'Arial', 'DejaVu Sans', 'Liberation Sans', 'Bitstream Vera Sans', sans-serif; text-anchor: end" x="43.781828" y="242.75601" transform="rotate(-0 43.781828 242.75601)">95</text>
     </g>
    </g>
    <g id="ytick_2">
     <g id="line2d_9">
      <g>
       <use xlink:href="#m3956084417" x="53.281828" y="194.599627" style="fill: #262626; stroke: #262626; stroke-width: 1.25"/>
      </g>
     </g>
     <g id="text_10">
      <text style="fill: #262626; font: 12.1px 'Arial', 'DejaVu Sans', 'Liberation Sans', 'Bitstream Vera Sans', sans-serif; text-anchor: end" x="43.781828" y="198.930104" transform="rotate(-0 43.781828 198.930104)">96</text>
     </g>
    </g>
    <g id="ytick_3">
     <g id="line2d_10">
      <g>
       <use xlink:href="#m3956084417" x="53.281828" y="150.77372" style="fill: #262626; stroke: #262626; stroke-width: 1.25"/>
      </g>
     </g>
     <g id="text_11">
      <text style="fill: #262626; font: 12.1px 'Arial', 'DejaVu Sans', 'Liberation Sans', 'Bitstream Vera Sans', sans-serif; text-anchor: end" x="43.781828" y="155.104197" transform="rotate(-0 43.781828 155.104197)">97</text>
     </g>
    </g>
    <g id="ytick_4">
     <g id="line2d_11">
      <g>
       <use xlink:href="#m3956084417" x="53.281828" y="106.947814" style="fill: #262626; stroke: #262626; stroke-width: 1.25"/>
      </g>
     </g>
     <g id="text_12">
      <text style="fill: #262626; font: 12.1px 'Arial', 'DejaVu Sans', 'Liberation Sans', 'Bitstream Vera Sans', sans-serif; text-anchor: end" x="43.781828" y="111.27829" transform="rotate(-0 43.781828 111.27829)">98</text>
     </g>
    </g>
    <g id="ytick_5">
     <g id="line2d_12">
      <g>
       <use xlink:href="#m3956084417" x="53.281828" y="63.121907" style="fill: #262626; stroke: #262626; stroke-width: 1.25"/>
      </g>
     </g>
     <g id="text_13">
      <text style="fill: #262626; font: 12.1px 'Arial', 'DejaVu Sans', 'Liberation Sans', 'Bitstream Vera Sans', sans-serif; text-anchor: end" x="43.781828" y="67.452383" transform="rotate(-0 43.781828 67.452383)">99</text>
     </g>
    </g>
    <g id="ytick_6">
     <g id="line2d_13">
      <g>
       <use xlink:href="#m3956084417" x="53.281828" y="19.296" style="fill: #262626; stroke: #262626; stroke-width: 1.25"/>
      </g>
     </g>
     <g id="text_14">
      <text style="fill: #262626; font: 12.1px 'Arial', 'DejaVu Sans', 'Liberation Sans', 'Bitstream Vera Sans', sans-serif; text-anchor: end" x="43.781828" y="23.626477" transform="rotate(-0 43.781828 23.626477)">100</text>
     </g>
    </g>
    <g id="text_15">
     <text style="fill: #262626; font: 13.2px 'Arial', 'DejaVu Sans', 'Liberation Sans', 'Bitstream Vera Sans', sans-serif; text-anchor: middle" x="16.817438" y="140.256" transform="rotate(-90 16.817438 140.256)">Uniquely mapped reads with ≥MAPQ (%)</text>
    </g>
   </g>
   <g id="PolyCollection_1"/>
   <g id="PolyCollection_2"/>
   <g id="PolyCollection_3"/>
   <g id="PolyCollection_4"/>
   <g id="PolyCollection_5"/>
   <g id="PolyCollection_6"/>
   <g id="PolyCollection_7"/>
   <g id="PolyCollection_8"/>
   <g id="PolyCollection_9"/>
   <g id="PolyCollection_10"/>
   <g id="PolyCollection_11"/>
   <g id="PolyCollection_12"/>
   <g id="line2d_14">
    <path d="M 57.745828 19.296 
L 62.209828 22.322463 
L 66.673828 24.485433 
L 71.137828 27.847191 
L 75.601828 30.518322 
L 80.065828 33.247336 
L 84.529828 36.425197 
L 88.993828 39.561654 
L 93.457828 42.18821 
L 97.921828 45.054419 
L 102.385828 46.686643 
L 106.849828 48.138939 
L 111.313828 49.959388 
L 115.777828 52.1761 
L 120.241828 53.931752 
L 124.705828 56.77035 
L 129.169828 58.953917 
L 133.633828 61.217542 
L 138.097828 63.447499 
L 142.561828 66.168553 
L 147.025828 69.097545 
L 151.489828 72.051698 
L 155.953828 76.354394 
L 160.417828 79.711003 
L 164.881828 84.611606 
L 169.345828 92.283971 
L 173.809828 92.85622 
L 178.273828 109.441997 
L 182.737828 110.16858 
L 187.201828 110.841533 
L 191.665828 112.359223 
L 196.129828 113.474258 
L 200.593828 114.287665 
L 205.057828 115.871708 
L 209.521828 116.637617 
L 213.985828 117.357322 
L 218.449828 118.343246 
L 222.913828 119.676579 
L 227.377828 120.127143 
L 231.841828 122.339153 
L 236.305828 161.093642 
L 240.769828 163.019012 
L 245.233828 164.331152 
L 249.697828 167.360512 
L 254.161828 169.560235 
L 258.625828 173.738186 
L 263.089828 179.364639 
L 267.553828 181.440163 
L 272.017828 198.323078 
L 276.481828 199.162193 
L 280.945828 200.752877 
L 285.409828 201.777891 
L 289.873828 203.692204 
L 294.337828 204.354151 
L 298.801828 205.38603 
L 303.265828 206.726179 
L 307.729828 207.513368 
L 312.193828 212.312335 
L 316.657828 212.954917 
L 321.121828 215.102304 
" clip-path="url(#pacd565fe64)" style="fill: none; stroke: #0173b2; stroke-width: 1.5; stroke-linecap: round"/>
   </g>
   <g id="line2d_15">
    <path d="M 57.745828 19.296 
L 62.209828 22.746697 
L 66.673828 25.185225 
L 71.137828 29.055689 
L 75.601828 32.118124 
L 80.065828 35.250967 
L 84.529828 38.759859 
L 88.993828 42.372034 
L 93.457828 45.195388 
L 97.921828 48.424244 
L 102.385828 50.21672 
L 106.849828 51.761724 
L 111.313828 53.708409 
L 115.777828 56.195037 
L 120.241828 58.060322 
L 124.705828 61.237705 
L 129.169828 63.598555 
L 133.633828 65.998979 
L 138.097828 68.407557 
L 142.561828 71.571707 
L 147.025828 75.142878 
L 151.489828 78.790394 
L 155.953828 84.006914 
L 160.417828 87.807619 
L 164.881828 93.318092 
L 169.345828 101.765311 
L 173.809828 102.368778 
L 178.273828 120.189217 
L 182.737828 120.980068 
L 187.201828 121.714404 
L 191.665828 123.303474 
L 196.129828 124.565081 
L 200.593828 125.416891 
L 205.057828 127.275778 
L 209.521828 128.114717 
L 213.985828 128.902119 
L 218.449828 129.985678 
L 222.913828 131.482856 
L 227.377828 131.960397 
L 231.841828 134.418195 
L 236.305828 175.812014 
L 240.769828 177.820678 
L 245.233828 179.221531 
L 249.697828 182.452317 
L 254.161828 184.738242 
L 258.625828 189.186144 
L 263.089828 194.858333 
L 267.553828 197.324646 
L 272.017828 214.605116 
L 276.481828 215.531093 
L 280.945828 217.15228 
L 285.409828 218.28557 
L 289.873828 220.241728 
L 294.337828 220.929918 
L 298.801828 221.994058 
L 303.265828 223.416098 
L 307.729828 224.261746 
L 312.193828 229.369419 
L 316.657828 230.060547 
L 321.121828 232.299815 
" clip-path="url(#pacd565fe64)" style="fill: none; stroke-dasharray: 6,2.25; stroke-dashoffset: 0; stroke: #0173b2; stroke-width: 1.5"/>
   </g>
   <g id="line2d_16">
    <path d="M 57.745828 19.296 
L 62.209828 22.566109 
L 66.673828 24.851218 
L 71.137828 28.51125 
L 75.601828 31.413515 
L 80.065828 34.378472 
L 84.529828 37.800529 
L 88.993828 41.305946 
L 93.457828 44.196136 
L 97.921828 47.377705 
L 102.385828 49.160785 
L 106.849828 50.679126 
L 111.313828 52.58965 
L 115.777828 55.051773 
L 120.241828 56.932636 
L 124.705828 60.101446 
L 129.169828 62.511983 
L 133.633828 64.935588 
L 138.097828 67.308488 
L 142.561828 70.474257 
L 147.025828 74.099142 
L 151.489828 77.623554 
L 155.953828 82.77868 
L 160.417828 86.390651 
L 164.881828 91.881228 
L 169.345828 100.279259 
L 173.809828 100.854976 
L 178.273828 119.093048 
L 182.737828 119.834806 
L 187.201828 120.497487 
L 191.665828 122.035485 
L 196.129828 123.248378 
L 200.593828 124.111068 
L 205.057828 125.911677 
L 209.521828 126.721161 
L 213.985828 127.472658 
L 218.449828 128.506807 
L 222.913828 129.975062 
L 227.377828 130.432932 
L 231.841828 132.859798 
L 236.305828 174.037935 
L 240.769828 176.017122 
L 245.233828 177.358341 
L 249.697828 180.58484 
L 254.161828 182.834384 
L 258.625828 187.269304 
L 263.089828 193.065747 
L 267.553828 195.45751 
L 272.017828 213.272826 
L 276.481828 214.139063 
L 280.945828 215.760411 
L 285.409828 216.821544 
L 289.873828 218.778023 
L 294.337828 219.422724 
L 298.801828 220.422861 
L 303.265828 221.808548 
L 307.729828 222.601218 
L 312.193828 227.755132 
L 316.657828 228.402279 
L 321.121828 230.606781 
" clip-path="url(#pacd565fe64)" style="fill: none; stroke-dasharray: 1.5,1.5; stroke-dashoffset: 0; stroke: #0173b2; stroke-width: 1.5"/>
   </g>
   <g id="line2d_17">
    <path d="M 57.745828 19.296 
L 62.209828 22.86444 
L 66.673828 25.311641 
L 71.137828 29.332924 
L 75.601828 32.373494 
L 80.065828 35.550129 
L 84.529828 39.186356 
L 88.993828 42.912439 
L 93.457828 45.919905 
L 97.921828 49.325807 
L 102.385828 51.129678 
L 106.849828 52.686109 
L 111.313828 54.635285 
L 115.777828 57.092738 
L 120.241828 58.903879 
L 124.705828 62.166243 
L 129.169828 64.582208 
L 133.633828 67.135643 
L 138.097828 69.684096 
L 142.561828 73.023515 
L 147.025828 76.591289 
L 151.489828 80.26036 
L 155.953828 85.175136 
L 160.417828 88.965863 
L 164.881828 94.299524 
L 169.345828 102.973212 
L 173.809828 103.603943 
L 178.273828 122.028435 
L 182.737828 122.852056 
L 187.201828 123.61794 
L 191.665828 125.283762 
L 196.129828 126.657438 
L 200.593828 127.623931 
L 205.057828 129.627368 
L 209.521828 130.480299 
L 213.985828 131.29778 
L 218.449828 132.432328 
L 222.913828 134.030131 
L 227.377828 134.525723 
L 231.841828 137.100721 
L 236.305828 179.185689 
L 240.769828 181.237812 
L 245.233828 182.638627 
L 249.697828 185.923061 
L 254.161828 188.217933 
L 258.625828 192.719617 
L 263.089828 198.546871 
L 267.553828 201.163792 
L 272.017828 218.432434 
L 276.481828 219.417043 
L 280.945828 221.058044 
L 285.409828 222.248199 
L 289.873828 224.185066 
L 294.337828 224.906508 
L 298.801828 226.031599 
L 303.265828 227.535202 
L 307.729828 228.458121 
L 312.193828 233.592143 
L 316.657828 234.345371 
L 321.121828 236.601274 
" clip-path="url(#pacd565fe64)" style="fill: none; stroke-dasharray: 4.5,1.875,2.25,1.875; stroke-dashoffset: 0; stroke: #0173b2; stroke-width: 1.5"/>
   </g>
   <g id="line2d_18">
    <path d="M 57.745828 19.296 
L 62.209828 22.265464 
L 66.673828 24.42025 
L 71.137828 27.716763 
L 75.601828 30.323317 
L 80.065828 33.006063 
L 84.529828 36.086326 
L 88.993828 39.114014 
L 93.457828 41.657542 
L 97.921828 44.416264 
L 102.385828 45.994389 
L 106.849828 47.407008 
L 111.313828 49.18156 
L 115.777828 51.30961 
L 120.241828 52.980501 
L 124.705828 55.688706 
L 129.169828 57.741781 
L 133.633828 59.869835 
L 138.097828 61.956892 
L 142.561828 64.493845 
L 147.025828 67.200123 
L 151.489828 69.964583 
L 155.953828 73.928441 
L 160.417828 77.079049 
L 164.881828 81.797708 
L 169.345828 89.301616 
L 173.809828 89.842068 
L 178.273828 106.284946 
L 182.737828 106.967727 
L 187.201828 107.593319 
L 191.665828 109.009835 
L 196.129828 110.058227 
L 200.593828 110.838397 
L 205.057828 112.360264 
L 209.521828 113.077225 
L 213.985828 113.751543 
L 218.449828 114.692759 
L 222.913828 115.945819 
L 227.377828 116.365163 
L 231.841828 118.469873 
L 236.305828 155.911198 
L 240.769828 157.748797 
L 245.233828 159.045904 
L 249.697828 161.976187 
L 254.161828 164.103818 
L 258.625828 168.173554 
L 263.089828 173.567484 
L 267.553828 175.929445 
L 272.017828 192.151972 
L 276.481828 192.991181 
L 280.945828 194.532829 
L 285.409828 195.546932 
L 289.873828 197.436444 
L 294.337828 198.13206 
L 298.801828 199.231122 
L 303.265828 200.804775 
L 307.729828 201.758505 
L 312.193828 206.458041 
L 316.657828 207.176073 
L 321.121828 209.357152 
" clip-path="url(#pacd565fe64)" style="fill: none; stroke: #de8f05; stroke-width: 1.5; stroke-linecap: round"/>
   </g>
   <g id="line2d_19">
    <path d="M 57.745828 19.296 
L 62.209828 22.643659 
L 66.673828 25.049041 
L 71.137828 28.771779 
L 75.601828 31.707283 
L 80.065828 34.726514 
L 84.529828 38.093484 
L 88.993828 41.536492 
L 93.457828 44.236965 
L 97.921828 47.308103 
L 102.385828 49.003537 
L 106.849828 50.487457 
L 111.313828 52.354503 
L 115.777828 54.687193 
L 120.241828 56.438136 
L 124.705828 59.431098 
L 129.169828 61.618609 
L 133.633828 63.844222 
L 138.097828 66.076969 
L 142.561828 68.951474 
L 147.025828 72.065856 
L 151.489828 75.309136 
L 155.953828 79.813905 
L 160.417828 83.210654 
L 164.881828 88.334158 
L 169.345828 96.448203 
L 173.809828 97.008655 
L 178.273828 114.541528 
L 182.737828 115.270973 
L 187.201828 115.944565 
L 191.665828 117.409751 
L 196.129828 118.58672 
L 200.593828 119.388089 
L 205.057828 121.135042 
L 209.521828 121.907483 
L 213.985828 122.625518 
L 218.449828 123.636725 
L 222.913828 125.039828 
L 227.377828 125.479481 
L 231.841828 127.815545 
L 236.305828 167.417981 
L 240.769828 169.327212 
L 245.233828 170.691877 
L 249.697828 173.8001 
L 254.161828 175.992967 
L 258.625828 180.279508 
L 263.089828 185.694329 
L 267.553828 188.404929 
L 272.017828 204.976081 
L 276.481828 205.884012 
L 280.945828 207.458744 
L 285.409828 208.569035 
L 289.873828 210.485039 
L 294.337828 211.197862 
L 298.801828 212.311389 
L 303.265828 213.93843 
L 307.729828 214.94141 
L 312.193828 219.905537 
L 316.657828 220.660175 
L 321.121828 222.900819 
" clip-path="url(#pacd565fe64)" style="fill: none; stroke-dasharray: 6,2.25; stroke-dashoffset: 0; stroke: #de8f05; stroke-width: 1.5"/>
   </g>
   <g id="line2d_20">
    <path d="M 57.745828 19.296 
L 62.209828 22.501292 
L 66.673828 24.795615 
L 71.137828 28.376442 
L 75.601828 31.205084 
L 80.065828 34.089927 
L 84.529828 37.413577 
L 88.993828 40.792104 
L 93.457828 43.550991 
L 97.921828 46.611154 
L 102.385828 48.322979 
L 106.849828 49.801941 
L 111.313828 51.662152 
L 115.777828 53.993582 
L 120.241828 55.774792 
L 124.705828 58.76937 
L 129.169828 60.998578 
L 133.633828 63.263694 
L 138.097828 65.50207 
L 142.561828 68.376582 
L 147.025828 71.591082 
L 151.489828 74.802044 
L 155.953828 79.370436 
L 160.417828 82.657515 
L 164.881828 87.864611 
L 169.345828 96.015336 
L 173.809828 96.558814 
L 178.273828 114.493979 
L 182.737828 115.198645 
L 187.201828 115.833705 
L 191.665828 117.266919 
L 196.129828 118.418959 
L 200.593828 119.240609 
L 205.057828 120.946484 
L 209.521828 121.701123 
L 213.985828 122.406912 
L 218.449828 123.402701 
L 222.913828 124.788425 
L 227.377828 125.224283 
L 231.841828 127.548682 
L 236.305828 167.267261 
L 240.769828 169.162723 
L 245.233828 170.508742 
L 249.697828 173.620002 
L 254.161828 175.822101 
L 258.625828 180.136296 
L 263.089828 185.685235 
L 267.553828 188.384393 
L 272.017828 205.438384 
L 276.481828 206.316943 
L 280.945828 207.898951 
L 285.409828 208.969703 
L 289.873828 210.89664 
L 294.337828 211.594174 
L 298.801828 212.688888 
L 303.265828 214.316126 
L 307.729828 215.299307 
L 312.193828 220.349156 
L 316.657828 221.096984 
L 321.121828 223.359432 
" clip-path="url(#pacd565fe64)" style="fill: none; stroke-dasharray: 1.5,1.5; stroke-dashoffset: 0; stroke: #de8f05; stroke-width: 1.5"/>
   </g>
   <g id="line2d_21">
    <path d="M 57.745828 19.296 
L 62.209828 22.785241 
L 66.673828 25.232562 
L 71.137828 29.149949 
L 75.601828 32.124027 
L 80.065828 35.221115 
L 84.529828 38.756561 
L 88.993828 42.371698 
L 93.457828 45.252009 
L 97.921828 48.487592 
L 102.385828 50.22713 
L 106.849828 51.755747 
L 111.313828 53.677206 
L 115.777828 56.018343 
L 120.241828 57.768264 
L 124.705828 60.854216 
L 129.169828 63.113018 
L 133.633828 65.511525 
L 138.097828 67.915702 
L 142.561828 70.998919 
L 147.025828 74.278486 
L 151.489828 77.669613 
L 155.953828 82.177184 
L 160.417828 85.732828 
L 164.881828 90.840186 
L 169.345828 99.181528 
L 173.809828 99.77903 
L 178.273828 117.759804 
L 182.737828 118.527493 
L 187.201828 119.244212 
L 191.665828 120.785261 
L 196.129828 122.057236 
L 200.593828 122.967642 
L 205.057828 124.841784 
L 209.521828 125.641647 
L 213.985828 126.405839 
L 218.449828 127.466877 
L 222.913828 128.94543 
L 227.377828 129.410705 
L 231.841828 131.837441 
L 236.305828 172.425839 
L 240.769828 174.384739 
L 245.233828 175.78019 
L 249.697828 178.937734 
L 254.161828 181.18765 
L 258.625828 185.585923 
L 263.089828 191.161004 
L 267.553828 194.040742 
L 272.017828 210.505838 
L 276.481828 211.472313 
L 280.945828 213.058941 
L 285.409828 214.216466 
L 289.873828 216.120479 
L 294.337828 216.876474 
L 298.801828 218.060177 
L 303.265828 219.762882 
L 307.729828 220.845255 
L 312.193828 225.824748 
L 316.657828 226.650591 
L 321.121828 228.94903 
" clip-path="url(#pacd565fe64)" style="fill: none; stroke-dasharray: 4.5,1.875,2.25,1.875; stroke-dashoffset: 0; stroke: #de8f05; stroke-width: 1.5"/>
   </g>
   <g id="line2d_22">
    <path d="M 57.745828 19.296 
L 62.209828 23.02169 
L 66.673828 25.717751 
L 71.137828 29.788151 
L 75.601828 32.951705 
L 80.065828 36.29481 
L 84.529828 40.117168 
L 88.993828 43.864449 
L 93.457828 46.987384 
L 97.921828 57.369876 
L 102.385828 59.300967 
L 106.849828 61.195091 
L 111.313828 63.383014 
L 115.777828 65.755509 
L 120.241828 67.622504 
L 124.705828 70.619323 
L 129.169828 73.034738 
L 133.633828 75.467583 
L 138.097828 77.980939 
L 142.561828 80.821495 
L 147.025828 83.847041 
L 151.489828 86.8191 
L 155.953828 90.992221 
L 160.417828 94.236337 
L 164.881828 99.205338 
L 169.345828 106.771945 
L 173.809828 107.404999 
L 178.273828 123.746244 
L 182.737828 124.525782 
L 187.201828 125.240624 
L 191.665828 126.940122 
L 196.129828 128.104157 
L 200.593828 128.990577 
L 205.057828 130.63617 
L 209.521828 131.419801 
L 213.985828 132.166535 
L 218.449828 133.340738 
L 222.913828 134.698004 
L 227.377828 135.181468 
L 231.841828 137.401729 
L 236.305828 180.370026 
L 240.769828 182.413509 
L 245.233828 183.900929 
L 249.697828 187.092253 
L 254.161828 189.423708 
L 258.625828 193.741678 
L 263.089828 199.478899 
L 267.553828 201.840671 
L 272.017828 218.602433 
L 276.481828 219.58955 
L 280.945828 221.327588 
L 285.409828 222.450385 
L 289.873828 224.483802 
L 294.337828 225.351198 
L 298.801828 226.600234 
L 303.265828 228.137492 
L 307.729828 229.10637 
L 312.193828 234.03345 
L 316.657828 234.902688 
L 321.121828 237.291315 
" clip-path="url(#pacd565fe64)" style="fill: none; stroke: #029e73; stroke-width: 1.5; stroke-linecap: round"/>
   </g>
   <g id="line2d_23">
    <path d="M 57.745828 19.296 
L 62.209828 23.451206 
L 66.673828 26.426306 
L 71.137828 30.966034 
L 75.601828 34.49364 
L 80.065828 38.244397 
L 84.529828 42.411085 
L 88.993828 46.643379 
L 93.457828 49.979707 
L 97.921828 61.544306 
L 102.385828 63.598184 
L 106.849828 65.595975 
L 111.313828 67.902194 
L 115.777828 70.489992 
L 120.241828 72.443972 
L 124.705828 75.715728 
L 129.169828 78.30294 
L 133.633828 80.857432 
L 138.097828 83.557387 
L 142.561828 86.763372 
L 147.025828 90.230014 
L 151.489828 93.695383 
L 155.953828 98.436025 
L 160.417828 101.93537 
L 164.881828 107.299791 
L 169.345828 115.436626 
L 173.809828 116.092948 
L 178.273828 133.463858 
L 182.737828 134.291729 
L 187.201828 135.047424 
L 191.665828 136.78064 
L 196.129828 138.070938 
L 200.593828 138.98106 
L 205.057828 140.846005 
L 209.521828 141.677859 
L 213.985828 142.466344 
L 218.449828 143.713346 
L 222.913828 145.205473 
L 227.377828 145.706795 
L 231.841828 148.147665 
L 236.305828 193.112381 
L 240.769828 195.221612 
L 245.233828 196.775263 
L 249.697828 200.124237 
L 254.161828 202.514648 
L 258.625828 207.044033 
L 263.089828 212.784794 
L 267.553828 215.502263 
L 272.017828 232.564541 
L 276.481828 233.625142 
L 280.945828 235.390832 
L 285.409828 236.601084 
L 289.873828 238.6669 
L 294.337828 239.547945 
L 298.801828 240.821871 
L 303.265828 242.412224 
L 307.729828 243.428186 
L 312.193828 248.591754 
L 316.657828 249.504078 
L 321.121828 251.949026 
" clip-path="url(#pacd565fe64)" style="fill: none; stroke-dasharray: 6,2.25; stroke-dashoffset: 0; stroke: #029e73; stroke-width: 1.5"/>
   </g>
   <g id="line2d_24">
    <path d="M 57.745828 19.296 
L 62.209828 23.212235 
L 66.673828 26.000449 
L 71.137828 30.286588 
L 75.601828 33.621236 
L 80.065828 37.124937 
L 84.529828 41.129582 
L 88.993828 45.16686 
L 93.457828 48.465773 
L 97.921828 58.2766 
L 102.385828 60.300586 
L 106.849828 62.214918 
L 111.313828 64.453833 
L 115.777828 67.029299 
L 120.241828 68.99874 
L 124.705828 72.257219 
L 129.169828 74.826485 
L 133.633828 77.368307 
L 138.097828 79.990585 
L 142.561828 83.13744 
L 147.025828 86.602587 
L 151.489828 89.972925 
L 155.953828 94.680999 
L 160.417828 98.01926 
L 164.881828 103.399198 
L 169.345828 111.541998 
L 173.809828 112.172514 
L 178.273828 129.913605 
L 182.737828 130.701217 
L 187.201828 131.411122 
L 191.665828 133.103939 
L 196.129828 134.349096 
L 200.593828 135.272236 
L 205.057828 137.083555 
L 209.521828 137.893492 
L 213.985828 138.658317 
L 218.449828 139.866773 
L 222.913828 141.332066 
L 227.377828 141.816476 
L 231.841828 144.233119 
L 236.305828 188.985737 
L 240.769828 191.079066 
L 245.233828 192.590235 
L 249.697828 195.927705 
L 254.161828 198.300024 
L 258.625828 202.81897 
L 263.089828 208.70231 
L 267.553828 211.309308 
L 272.017828 228.982034 
L 276.481828 229.991611 
L 280.945828 231.761394 
L 285.409828 232.914441 
L 289.873828 234.976381 
L 294.337828 235.818955 
L 298.801828 237.031729 
L 303.265828 238.583443 
L 307.729828 239.54495 
L 312.193828 244.762622 
L 316.657828 245.628165 
L 321.121828 248.05359 
" clip-path="url(#pacd565fe64)" style="fill: none; stroke-dasharray: 1.5,1.5; stroke-dashoffset: 0; stroke: #029e73; stroke-width: 1.5"/>
   </g>
   <g id="line2d_25">
    <path d="M 57.745828 19.296 
L 62.209828 23.766718 
L 66.673828 26.887793 
L 71.137828 31.783446 
L 75.601828 35.457058 
L 80.065828 39.426077 
L 84.529828 43.847366 
L 88.993828 48.416173 
L 93.457828 52.040651 
L 97.921828 65.818172 
L 102.385828 67.985895 
L 106.849828 70.152099 
L 111.313828 72.52256 
L 115.777828 75.153132 
L 120.241828 77.12952 
L 124.705828 80.548345 
L 129.169828 83.277556 
L 133.633828 86.050528 
L 138.097828 88.96837 
L 142.561828 92.423388 
L 147.025828 96.121712 
L 151.489828 99.769142 
L 155.953828 104.550765 
L 160.417828 108.217309 
L 164.881828 113.591163 
L 169.345828 122.026431 
L 173.809828 122.731577 
L 178.273828 140.597545 
L 182.737828 141.466325 
L 187.201828 142.28022 
L 191.665828 144.084889 
L 196.129828 145.480802 
L 200.593828 146.50923 
L 205.057828 148.495352 
L 209.521828 149.361276 
L 213.985828 150.201193 
L 218.449828 151.465783 
L 222.913828 153.044557 
L 227.377828 153.568203 
L 231.841828 156.105586 
L 236.305828 201.581279 
L 240.769828 203.740167 
L 245.233828 205.322561 
L 249.697828 208.728548 
L 254.161828 211.17577 
L 258.625828 215.791359 
L 263.089828 221.680604 
L 267.553828 224.523432 
L 272.017828 241.504937 
L 276.481828 242.607715 
L 280.945828 244.386625 
L 285.409828 245.633529 
L 289.873828 247.674213 
L 294.337828 248.582772 
L 298.801828 249.891663 
L 303.265828 251.544033 
L 307.729828 252.606405 
L 312.193828 257.77326 
L 316.657828 258.734939 
L 321.121828 261.216 
" clip-path="url(#pacd565fe64)" style="fill: none; stroke-dasharray: 4.5,1.875,2.25,1.875; stroke-dashoffset: 0; stroke: #029e73; stroke-width: 1.5"/>
   </g>
   <g id="line2d_26"/>
   <g id="line2d_27"/>
   <g id="line2d_28"/>
   <g id="line2d_29"/>
   <g id="line2d_30"/>
   <g id="line2d_31"/>
   <g id="line2d_32"/>
   <g id="line2d_33"/>
   <g id="line2d_34"/>
   <g id="patch_3">
    <path d="M 53.281828 273.312 
L 53.281828 7.2 
" style="fill: none; stroke: #262626; stroke-width: 1.25; stroke-linejoin: miter; stroke-linecap: square"/>
   </g>
   <g id="patch_4">
    <path d="M 53.281828 273.312 
L 321.121828 273.312 
" style="fill: none; stroke: #262626; stroke-width: 1.25; stroke-linejoin: miter; stroke-linecap: square"/>
   </g>
   <g id="legend_1">
    <g id="line2d_35">
     <path d="M 64.171828 118.708031 
L 76.271828 118.708031 
L 88.371828 118.708031 
" style="fill: none"/>
    </g>
    <g id="text_16">
     <text style="fill: #262626; font: 12.1px 'Arial', 'DejaVu Sans', 'Liberation Sans', 'Bitstream Vera Sans', sans-serif; text-anchor: start" x="98.051828" y="122.943031" transform="rotate(-0 98.051828 122.943031)">Data source</text>
    </g>
    <g id="line2d_36">
     <path d="M 64.171828 135.823859 
L 76.271828 135.823859 
L 88.371828 135.823859 
" style="fill: none; stroke: #0173b2; stroke-width: 1.5; stroke-linecap: round"/>
    </g>
    <g id="text_17">
     <text style="fill: #262626; font: 12.1px 'Arial', 'DejaVu Sans', 'Liberation Sans', 'Bitstream Vera Sans', sans-serif; text-anchor: start" x="98.051828" y="140.058859" transform="rotate(-0 98.051828 140.058859)">AVITI CB FS</text>
    </g>
    <g id="line2d_37">
     <path d="M 64.171828 152.939688 
L 76.271828 152.939688 
L 88.371828 152.939688 
" style="fill: none; stroke: #de8f05; stroke-width: 1.5; stroke-linecap: round"/>
    </g>
    <g id="text_18">
     <text style="fill: #262626; font: 12.1px 'Arial', 'DejaVu Sans', 'Liberation Sans', 'Bitstream Vera Sans', sans-serif; text-anchor: start" x="98.051828" y="157.174688" transform="rotate(-0 98.051828 157.174688)">AVITI CB</text>
    </g>
    <g id="line2d_38">
     <path d="M 64.171828 170.202984 
L 76.271828 170.202984 
L 88.371828 170.202984 
" style="fill: none; stroke: #029e73; stroke-width: 1.5; stroke-linecap: round"/>
    </g>
    <g id="text_19">
     <text style="fill: #262626; font: 12.1px 'Arial', 'DejaVu Sans', 'Liberation Sans', 'Bitstream Vera Sans', sans-serif; text-anchor: start" x="98.051828" y="174.437984" transform="rotate(-0 98.051828 174.437984)">NovaSeqX+</text>
    </g>
    <g id="line2d_39">
     <path d="M 64.171828 187.318813 
L 76.271828 187.318813 
L 88.371828 187.318813 
" style="fill: none"/>
    </g>
    <g id="text_20">
     <text style="fill: #262626; font: 12.1px 'Arial', 'DejaVu Sans', 'Liberation Sans', 'Bitstream Vera Sans', sans-serif; text-anchor: start" x="98.051828" y="191.553813" transform="rotate(-0 98.051828 191.553813)">Cell line</text>
    </g>
    <g id="line2d_40">
     <path d="M 64.171828 204.434641 
L 76.271828 204.434641 
L 88.371828 204.434641 
" style="fill: none; stroke: #333333; stroke-width: 1.5; stroke-linecap: round"/>
    </g>
    <g id="text_21">
     <text style="fill: #262626; font: 12.1px 'Arial', 'DejaVu Sans', 'Liberation Sans', 'Bitstream Vera Sans', sans-serif; text-anchor: start" x="98.051828" y="208.669641" transform="rotate(-0 98.051828 208.669641)">KMS12BM</text>
    </g>
    <g id="line2d_41">
     <path d="M 64.171828 221.550469 
L 76.271828 221.550469 
L 88.371828 221.550469 
" style="fill: none; stroke-dasharray: 6,2.25; stroke-dashoffset: 0; stroke: #333333; stroke-width: 1.5"/>
    </g>
    <g id="text_22">
     <text style="fill: #262626; font: 12.1px 'Arial', 'DejaVu Sans', 'Liberation Sans', 'Bitstream Vera Sans', sans-serif; text-anchor: start" x="98.051828" y="225.785469" transform="rotate(-0 98.051828 225.785469)">MM1S</text>
    </g>
    <g id="line2d_42">
     <path d="M 64.171828 238.666297 
L 76.271828 238.666297 
L 88.371828 238.666297 
" style="fill: none; stroke-dasharray: 1.5,1.5; stroke-dashoffset: 0; stroke: #333333; stroke-width: 1.5"/>
    </g>
    <g id="text_23">
     <text style="fill: #262626; font: 12.1px 'Arial', 'DejaVu Sans', 'Liberation Sans', 'Bitstream Vera Sans', sans-serif; text-anchor: start" x="98.051828" y="242.901297" transform="rotate(-0 98.051828 242.901297)">OPM2</text>
    </g>
    <g id="line2d_43">
     <path d="M 64.171828 255.782125 
L 76.271828 255.782125 
L 88.371828 255.782125 
" style="fill: none; stroke-dasharray: 4.5,1.875,2.25,1.875; stroke-dashoffset: 0; stroke: #333333; stroke-width: 1.5"/>
    </g>
    <g id="text_24">
     <text style="fill: #262626; font: 12.1px 'Arial', 'DejaVu Sans', 'Liberation Sans', 'Bitstream Vera Sans', sans-serif; text-anchor: start" x="98.051828" y="260.017125" transform="rotate(-0 98.051828 260.017125)">REH</text>
    </g>
   </g>
  </g>
 </g>
 <defs>
  <clipPath id="pacd565fe64">
   <rect x="53.281828" y="7.2" width="267.84" height="266.112"/>
  </clipPath>
 </defs>
</svg>
