<?xml version="1.0" encoding="utf-8" standalone="no"?>
<!DOCTYPE svg PUBLIC "-//W3C//DTD SVG 1.1//EN"
  "http://www.w3.org/Graphics/SVG/1.1/DTD/svg11.dtd">
<svg xmlns:xlink="http://www.w3.org/1999/xlink" width="321.593094pt" height="301.225297pt" viewBox="0 0 321.593094 301.225297" xmlns="http://www.w3.org/2000/svg" version="1.1">
 <metadata>
  <rdf:RDF xmlns:dc="http://purl.org/dc/elements/1.1/" xmlns:cc="http://creativecommons.org/ns#" xmlns:rdf="http://www.w3.org/1999/02/22-rdf-syntax-ns#">
   <cc:Work>
    <dc:type rdf:resource="http://purl.org/dc/dcmitype/StillImage"/>
    <dc:date>2025-08-07T12:58:50.380244</dc:date>
    <dc:format>image/svg+xml</dc:format>
    <dc:creator>
     <cc:Agent>
      <dc:title>Matplotlib v3.9.2, https://matplotlib.org/</dc:title>
     </cc:Agent>
    </dc:creator>
   </cc:Work>
  </rdf:RDF>
 </metadata>
 <defs>
  <style type="text/css">*{stroke-linejoin: round; stroke-linecap: butt}</style>
 </defs>
 <g id="figure_1">
  <g id="patch_1">
   <path d="M 0 301.225297 
L 321.593094 301.225297 
L 321.593094 0 
L 0 0 
L 0 301.225297 
z
" style="fill: none"/>
  </g>
  <g id="axes_1">
   <g id="patch_2">
    <path d="M 46.553094 273.312 
L 314.393094 273.312 
L 314.393094 7.2 
L 46.553094 7.2 
L 46.553094 273.312 
z
" style="fill: none"/>
   </g>
   <g id="PolyCollection_1">
    <path d="M 94.174324 86.439548 
L 88.211864 86.439548 
L 87.741101 86.100364 
L 87.214341 85.76118 
L 86.6282 85.421996 
L 85.979646 85.082812 
L 85.2661 84.743628 
L 84.485552 84.404444 
L 83.63667 84.06526 
L 82.718906 83.726076 
L 81.732604 83.386892 
L 80.679094 83.047708 
L 79.560768 82.708524 
L 78.381158 82.36934 
L 77.144968 82.030156 
L 75.858109 81.690972 
L 74.52769 81.351788 
L 73.16199 81.012604 
L 71.770397 80.67342 
L 70.363317 80.334236 
L 68.952058 79.995052 
L 67.548678 79.655868 
L 66.165809 79.316684 
L 64.816461 78.9775 
L 63.513801 78.638316 
L 62.27092 78.299132 
L 61.100591 77.959948 
L 60.015023 77.620764 
L 59.025614 77.28158 
L 58.142722 76.942396 
L 57.375444 76.603212 
L 56.731419 76.264028 
L 56.216658 75.924844 
L 55.835413 75.58566 
L 55.59007 75.246476 
L 55.481094 74.907292 
L 55.507006 74.568108 
L 55.664411 74.228924 
L 55.948065 73.88974 
L 56.350981 73.550556 
L 56.864576 73.211372 
L 57.478854 72.872188 
L 58.182618 72.533004 
L 58.963706 72.19382 
L 59.809249 71.854636 
L 60.705941 71.515452 
L 61.640312 71.176268 
L 62.599007 70.837084 
L 63.569047 70.4979 
L 64.538089 70.158715 
L 65.494656 69.819531 
L 66.428341 69.480347 
L 67.329993 69.141163 
L 68.19185 68.801979 
L 69.007653 68.462795 
L 69.772709 68.123611 
L 70.483917 67.784427 
L 71.139758 67.445243 
L 71.740242 67.106059 
L 72.286823 66.766875 
L 72.782273 66.427691 
L 73.23054 66.088507 
L 73.63657 65.749323 
L 74.006117 65.410139 
L 74.345538 65.070955 
L 74.661581 64.731771 
L 74.961177 64.392587 
L 75.251228 64.053403 
L 75.538415 63.714219 
L 75.829018 63.375035 
L 76.128754 63.035851 
L 76.442647 62.696667 
L 76.774918 62.357483 
L 77.128904 62.018299 
L 77.507013 61.679115 
L 77.910699 61.339931 
L 78.34048 61.000747 
L 78.795963 60.661563 
L 79.275913 60.322379 
L 79.778328 59.983195 
L 80.300541 59.644011 
L 80.839324 59.304827 
L 81.391013 58.965643 
L 81.951631 58.626459 
L 82.517004 58.287275 
L 83.08289 57.948091 
L 83.645086 57.608907 
L 84.199532 57.269723 
L 84.742399 56.930539 
L 85.270172 56.591355 
L 85.779702 56.252171 
L 86.26826 55.912987 
L 86.733561 55.573803 
L 87.173785 55.234619 
L 87.587574 54.895435 
L 87.974022 54.556251 
L 88.332657 54.217067 
L 88.663407 53.877883 
L 88.966564 53.538699 
L 89.242742 53.199515 
L 89.492831 52.860331 
L 92.893356 52.860331 
L 92.893356 52.860331 
L 93.143445 53.199515 
L 93.419623 53.538699 
L 93.72278 53.877883 
L 94.05353 54.217067 
L 94.412166 54.556251 
L 94.798614 54.895435 
L 95.212402 55.234619 
L 95.652626 55.573803 
L 96.117928 55.912987 
L 96.606485 56.252171 
L 97.116016 56.591355 
L 97.643788 56.930539 
L 98.186656 57.269723 
L 98.741101 57.608907 
L 99.303297 57.948091 
L 99.869183 58.287275 
L 100.434557 58.626459 
L 100.995174 58.965643 
L 101.546864 59.304827 
L 102.085647 59.644011 
L 102.607859 59.983195 
L 103.110275 60.322379 
L 103.590225 60.661563 
L 104.045708 61.000747 
L 104.475488 61.339931 
L 104.879175 61.679115 
L 105.257283 62.018299 
L 105.611269 62.357483 
L 105.94354 62.696667 
L 106.257434 63.035851 
L 106.55717 63.375035 
L 106.847772 63.714219 
L 107.134959 64.053403 
L 107.42501 64.392587 
L 107.724606 64.731771 
L 108.04065 65.070955 
L 108.38007 65.410139 
L 108.749617 65.749323 
L 109.155647 66.088507 
L 109.603914 66.427691 
L 110.099365 66.766875 
L 110.645945 67.106059 
L 111.24643 67.445243 
L 111.902271 67.784427 
L 112.613479 68.123611 
L 113.378534 68.462795 
L 114.194337 68.801979 
L 115.056195 69.141163 
L 115.957846 69.480347 
L 116.891532 69.819531 
L 117.848098 70.158715 
L 118.817141 70.4979 
L 119.787181 70.837084 
L 120.745875 71.176268 
L 121.680246 71.515452 
L 122.576938 71.854636 
L 123.422481 72.19382 
L 124.203569 72.533004 
L 124.907333 72.872188 
L 125.521611 73.211372 
L 126.035206 73.550556 
L 126.438122 73.88974 
L 126.721777 74.228924 
L 126.879182 74.568108 
L 126.905094 74.907292 
L 126.796117 75.246476 
L 126.550774 75.58566 
L 126.169529 75.924844 
L 125.654769 76.264028 
L 125.010743 76.603212 
L 124.243465 76.942396 
L 123.360573 77.28158 
L 122.371165 77.620764 
L 121.285596 77.959948 
L 120.115268 78.299132 
L 118.872387 78.638316 
L 117.569727 78.9775 
L 116.220378 79.316684 
L 114.83751 79.655868 
L 113.434129 79.995052 
L 112.02287 80.334236 
L 110.615791 80.67342 
L 109.224197 81.012604 
L 107.858497 81.351788 
L 106.528078 81.690972 
L 105.24122 82.030156 
L 104.00503 82.36934 
L 102.825419 82.708524 
L 101.707094 83.047708 
L 100.653583 83.386892 
L 99.667281 83.726076 
L 98.749518 84.06526 
L 97.900635 84.404444 
L 97.120088 84.743628 
L 96.406542 85.082812 
L 95.757987 85.421996 
L 95.171847 85.76118 
L 94.645087 86.100364 
L 94.174324 86.439548 
L 94.174324 86.439548 
z
" clip-path="url(#pf2b730f5d2)" style="fill: none; stroke: #0173b2"/>
   </g>
   <g id="PolyCollection_2">
    <path d="M 182.094976 162.389216 
L 178.851212 162.389216 
L 178.613822 161.734976 
L 178.351884 161.080736 
L 178.064611 160.426497 
L 177.751488 159.772257 
L 177.412317 159.118017 
L 177.04726 158.463778 
L 176.656874 157.809538 
L 176.242142 157.155298 
L 175.804499 156.501058 
L 175.345838 155.846819 
L 174.868516 155.192579 
L 174.375339 154.538339 
L 173.869533 153.8841 
L 173.354703 153.22986 
L 172.834776 152.57562 
L 172.313926 151.92138 
L 171.796485 151.267141 
L 171.286844 150.612901 
L 170.789341 149.958661 
L 170.308139 149.304422 
L 169.847098 148.650182 
L 169.40965 147.995942 
L 168.998671 147.341702 
L 168.616359 146.687463 
L 168.264126 146.033223 
L 167.942499 145.378983 
L 167.651046 144.724744 
L 167.388318 144.070504 
L 167.151819 143.416264 
L 166.938008 142.762025 
L 166.742324 142.107785 
L 166.559247 141.453545 
L 166.38239 140.799305 
L 166.20462 140.145066 
L 166.018211 139.490826 
L 165.815022 138.836586 
L 165.586697 138.182347 
L 165.324885 137.528107 
L 165.021473 136.873867 
L 164.668827 136.219627 
L 164.260035 135.565388 
L 163.789139 134.911148 
L 163.251367 134.256908 
L 162.64333 133.602669 
L 161.963209 132.948429 
L 161.210895 132.294189 
L 160.388109 131.639949 
L 159.498461 130.98571 
L 158.547483 130.33147 
L 157.542593 129.67723 
L 156.493033 129.022991 
L 155.409736 128.368751 
L 154.30516 127.714511 
L 153.19307 127.060271 
L 152.088286 126.406032 
L 151.006393 125.751792 
L 149.96342 125.097552 
L 148.975511 124.443313 
L 148.058576 123.789073 
L 147.227942 123.134833 
L 146.498018 122.480594 
L 145.881971 121.826354 
L 145.391435 121.172114 
L 145.036252 120.517874 
L 144.824254 119.863635 
L 144.761094 119.209395 
L 144.850135 118.555155 
L 145.092389 117.900916 
L 145.486511 117.246676 
L 146.028857 116.592436 
L 146.713588 115.938196 
L 147.532828 115.283957 
L 148.476865 114.629717 
L 149.534385 113.975477 
L 150.692747 113.321238 
L 151.938264 112.666998 
L 153.256509 112.012758 
L 154.632618 111.358518 
L 156.051591 110.704279 
L 157.498579 110.050039 
L 158.959153 109.395799 
L 160.419543 108.74156 
L 161.866854 108.08732 
L 163.289237 107.43308 
L 164.676035 106.77884 
L 166.017883 106.124601 
L 167.306771 105.470361 
L 168.536078 104.816121 
L 169.700565 104.161882 
L 170.796339 103.507642 
L 171.820795 102.853402 
L 172.772527 102.199163 
L 173.651232 101.544923 
L 174.457592 100.890683 
L 175.193151 100.236443 
L 175.860186 99.582204 
L 176.461582 98.927964 
L 177.000701 98.273724 
L 177.481264 97.619485 
L 183.464924 97.619485 
L 183.464924 97.619485 
L 183.945487 98.273724 
L 184.484605 98.927964 
L 185.086001 99.582204 
L 185.753037 100.236443 
L 186.488596 100.890683 
L 187.294956 101.544923 
L 188.173661 102.199163 
L 189.125393 102.853402 
L 190.149848 103.507642 
L 191.245622 104.161882 
L 192.410109 104.816121 
L 193.639416 105.470361 
L 194.928305 106.124601 
L 196.270152 106.77884 
L 197.656951 107.43308 
L 199.079334 108.08732 
L 200.526644 108.74156 
L 201.987035 109.395799 
L 203.447608 110.050039 
L 204.894597 110.704279 
L 206.31357 111.358518 
L 207.689679 112.012758 
L 209.007924 112.666998 
L 210.25344 113.321238 
L 211.411802 113.975477 
L 212.469323 114.629717 
L 213.413359 115.283957 
L 214.232599 115.938196 
L 214.917331 116.592436 
L 215.459677 117.246676 
L 215.853799 117.900916 
L 216.096052 118.555155 
L 216.185094 119.209395 
L 216.121934 119.863635 
L 215.909935 120.517874 
L 215.554752 121.172114 
L 215.064217 121.826354 
L 214.44817 122.480594 
L 213.718245 123.134833 
L 212.887611 123.789073 
L 211.970676 124.443313 
L 210.982768 125.097552 
L 209.939795 125.751792 
L 208.857901 126.406032 
L 207.753118 127.060271 
L 206.641028 127.714511 
L 205.536451 128.368751 
L 204.453154 129.022991 
L 203.403594 129.67723 
L 202.398705 130.33147 
L 201.447726 130.98571 
L 200.558079 131.639949 
L 199.735292 132.294189 
L 198.982979 132.948429 
L 198.302857 133.602669 
L 197.694821 134.256908 
L 197.157048 134.911148 
L 196.686153 135.565388 
L 196.27736 136.219627 
L 195.924714 136.873867 
L 195.621302 137.528107 
L 195.35949 138.182347 
L 195.131165 138.836586 
L 194.927976 139.490826 
L 194.741568 140.145066 
L 194.563798 140.799305 
L 194.386941 141.453545 
L 194.203863 142.107785 
L 194.008179 142.762025 
L 193.794369 143.416264 
L 193.55787 144.070504 
L 193.295141 144.724744 
L 193.003688 145.378983 
L 192.682062 146.033223 
L 192.329828 146.687463 
L 191.947517 147.341702 
L 191.536538 147.995942 
L 191.09909 148.650182 
L 190.638049 149.304422 
L 190.156846 149.958661 
L 189.659343 150.612901 
L 189.149703 151.267141 
L 188.632262 151.92138 
L 188.111411 152.57562 
L 187.591484 153.22986 
L 187.076655 153.8841 
L 186.570848 154.538339 
L 186.077671 155.192579 
L 185.600349 155.846819 
L 185.141689 156.501058 
L 184.704045 157.155298 
L 184.289314 157.809538 
L 183.898927 158.463778 
L 183.53387 159.118017 
L 183.1947 159.772257 
L 182.881577 160.426497 
L 182.594304 161.080736 
L 182.332365 161.734976 
L 182.094976 162.389216 
L 182.094976 162.389216 
z
" clip-path="url(#pf2b730f5d2)" style="fill: none; stroke: #de8f05"/>
   </g>
   <g id="PolyCollection_3">
    <path d="M 271.744638 260.391697 
L 267.761549 260.391697 
L 267.448972 259.655671 
L 267.100466 258.919644 
L 266.714179 258.183618 
L 266.288521 257.447591 
L 265.822221 256.711565 
L 265.314377 255.975538 
L 264.764498 255.239512 
L 264.172545 254.503485 
L 263.538952 253.767459 
L 262.864648 253.031432 
L 262.151053 252.295406 
L 261.40007 251.559379 
L 260.614055 250.823353 
L 259.795776 250.087326 
L 258.948361 249.3513 
L 258.07523 248.615273 
L 257.180019 247.879247 
L 256.2665 247.14322 
L 255.338494 246.407194 
L 254.399791 245.671167 
L 253.454067 244.935141 
L 252.504819 244.199115 
L 251.555304 243.463088 
L 250.608499 242.727062 
L 249.667075 241.991035 
L 248.733397 241.255009 
L 247.809535 240.518982 
L 246.897301 239.782956 
L 245.998301 239.046929 
L 245.114 238.310903 
L 244.245801 237.574876 
L 243.395127 236.83885 
L 242.563506 236.102823 
L 241.752649 235.366797 
L 240.96452 234.63077 
L 240.201393 233.894744 
L 239.465883 233.158717 
L 238.760966 232.422691 
L 238.089964 231.686664 
L 237.45651 230.950638 
L 236.864491 230.214611 
L 236.317967 229.478585 
L 235.821068 228.742558 
L 235.377887 228.006532 
L 234.992357 227.270505 
L 234.668126 226.534479 
L 234.408447 225.798453 
L 234.216061 225.062426 
L 234.093117 224.3264 
L 234.041094 223.590373 
L 234.060758 222.854347 
L 234.152145 222.11832 
L 234.314569 221.382294 
L 234.546656 220.646267 
L 234.846401 219.910241 
L 235.21125 219.174214 
L 235.638195 218.438188 
L 236.123876 217.702161 
L 236.66469 216.966135 
L 237.256904 216.230108 
L 237.896749 215.494082 
L 238.580509 214.758055 
L 239.304595 214.022029 
L 240.065596 213.286002 
L 240.860309 212.549976 
L 241.685749 211.813949 
L 242.539141 211.077923 
L 243.417891 210.341896 
L 244.31954 209.60587 
L 245.241715 208.869843 
L 246.182065 208.133817 
L 247.138202 207.397791 
L 248.107643 206.661764 
L 249.087758 205.925738 
L 250.075733 205.189711 
L 251.068541 204.453685 
L 252.062935 203.717658 
L 253.055456 202.981632 
L 254.042452 202.245605 
L 255.020124 201.509579 
L 255.984574 200.773552 
L 256.931867 200.037526 
L 257.858108 199.301499 
L 258.759511 198.565473 
L 259.63248 197.829446 
L 260.473678 197.09342 
L 261.280094 196.357393 
L 262.049102 195.621367 
L 262.778509 194.88534 
L 263.466588 194.149314 
L 264.112097 193.413287 
L 264.71429 192.677261 
L 265.272907 191.941234 
L 265.788161 191.205208 
L 266.260703 190.469181 
L 266.691585 189.733155 
L 267.082218 188.997129 
L 267.434315 188.261102 
L 267.749841 187.525076 
L 271.756347 187.525076 
L 271.756347 187.525076 
L 272.071873 188.261102 
L 272.42397 188.997129 
L 272.814603 189.733155 
L 273.245485 190.469181 
L 273.718026 191.205208 
L 274.23328 191.941234 
L 274.791898 192.677261 
L 275.39409 193.413287 
L 276.039599 194.149314 
L 276.727678 194.88534 
L 277.457085 195.621367 
L 278.226094 196.357393 
L 279.03251 197.09342 
L 279.873707 197.829446 
L 280.746676 198.565473 
L 281.64808 199.301499 
L 282.574321 200.037526 
L 283.521614 200.773552 
L 284.486063 201.509579 
L 285.463735 202.245605 
L 286.450732 202.981632 
L 287.443252 203.717658 
L 288.437647 204.453685 
L 289.430455 205.189711 
L 290.418429 205.925738 
L 291.398545 206.661764 
L 292.367986 207.397791 
L 293.324123 208.133817 
L 294.264473 208.869843 
L 295.186647 209.60587 
L 296.088296 210.341896 
L 296.967046 211.077923 
L 297.820439 211.813949 
L 298.645879 212.549976 
L 299.440591 213.286002 
L 300.201592 214.022029 
L 300.925679 214.758055 
L 301.609439 215.494082 
L 302.249283 216.230108 
L 302.841497 216.966135 
L 303.382312 217.702161 
L 303.867992 218.438188 
L 304.294937 219.174214 
L 304.659787 219.910241 
L 304.959532 220.646267 
L 305.191618 221.382294 
L 305.354042 222.11832 
L 305.44543 222.854347 
L 305.465094 223.590373 
L 305.41307 224.3264 
L 305.290126 225.062426 
L 305.097741 225.798453 
L 304.838061 226.534479 
L 304.513831 227.270505 
L 304.1283 228.006532 
L 303.68512 228.742558 
L 303.188221 229.478585 
L 302.641696 230.214611 
L 302.049678 230.950638 
L 301.416224 231.686664 
L 300.745221 232.422691 
L 300.040304 233.158717 
L 299.304795 233.894744 
L 298.541667 234.63077 
L 297.753539 235.366797 
L 296.942681 236.102823 
L 296.11106 236.83885 
L 295.260386 237.574876 
L 294.392187 238.310903 
L 293.507886 239.046929 
L 292.608886 239.782956 
L 291.696652 240.518982 
L 290.77279 241.255009 
L 289.839112 241.991035 
L 288.897689 242.727062 
L 287.950883 243.463088 
L 287.001368 244.199115 
L 286.05212 244.935141 
L 285.106397 245.671167 
L 284.167694 246.407194 
L 283.239688 247.14322 
L 282.326168 247.879247 
L 281.430957 248.615273 
L 280.557826 249.3513 
L 279.710412 250.087326 
L 278.892133 250.823353 
L 278.106117 251.559379 
L 277.355134 252.295406 
L 276.64154 253.031432 
L 275.967236 253.767459 
L 275.333643 254.503485 
L 274.741689 255.239512 
L 274.19181 255.975538 
L 273.683966 256.711565 
L 273.217667 257.447591 
L 272.792009 258.183618 
L 272.405721 258.919644 
L 272.057215 259.655671 
L 271.744638 260.391697 
L 271.744638 260.391697 
z
" clip-path="url(#pf2b730f5d2)" style="fill: none; stroke: #029e73"/>
   </g>
   <g id="matplotlib.axis_1">
    <g id="xtick_1">
     <g id="line2d_1">
      <defs>
       <path id="mae2ad45c20" d="M 0 0 
L 0 6 
" style="stroke: #262626; stroke-width: 1.25"/>
      </defs>
      <g>
       <use xlink:href="#mae2ad45c20" x="91.193094" y="273.312" style="fill: #262626; stroke: #262626; stroke-width: 1.25"/>
      </g>
     </g>
     <g id="text_1">
      <text style="fill: #262626; font: 12.1px 'Arial', 'DejaVu Sans', 'Liberation Sans', 'Bitstream Vera Sans', sans-serif; text-anchor: middle" x="91.193094" y="291.472953" transform="rotate(-0 91.193094 291.472953)">AVITI CB FS</text>
     </g>
    </g>
    <g id="xtick_2">
     <g id="line2d_2">
      <g>
       <use xlink:href="#mae2ad45c20" x="180.473094" y="273.312" style="fill: #262626; stroke: #262626; stroke-width: 1.25"/>
      </g>
     </g>
     <g id="text_2">
      <text style="fill: #262626; font: 12.1px 'Arial', 'DejaVu Sans', 'Liberation Sans', 'Bitstream Vera Sans', sans-serif; text-anchor: middle" x="180.473094" y="291.472953" transform="rotate(-0 180.473094 291.472953)">AVITI CB</text>
     </g>
    </g>
    <g id="xtick_3">
     <g id="line2d_3">
      <g>
       <use xlink:href="#mae2ad45c20" x="269.753094" y="273.312" style="fill: #262626; stroke: #262626; stroke-width: 1.25"/>
      </g>
     </g>
     <g id="text_3">
      <text style="fill: #262626; font: 12.1px 'Arial', 'DejaVu Sans', 'Liberation Sans', 'Bitstream Vera Sans', sans-serif; text-anchor: middle" x="269.753094" y="291.620422" transform="rotate(-0 269.753094 291.620422)">NovaSeqX+</text>
     </g>
    </g>
   </g>
   <g id="matplotlib.axis_2">
    <g id="ytick_1">
     <g id="line2d_4">
      <path d="M 46.553094 233.514417 
L 314.393094 233.514417 
" clip-path="url(#pf2b730f5d2)" style="fill: none; stroke: #cccccc; stroke-linecap: round"/>
     </g>
     <g id="line2d_5">
      <defs>
       <path id="m6c965d8a67" d="M 0 0 
L -6 0 
" style="stroke: #262626; stroke-width: 1.25"/>
      </defs>
      <g>
       <use xlink:href="#m6c965d8a67" x="46.553094" y="233.514417" style="fill: #262626; stroke: #262626; stroke-width: 1.25"/>
      </g>
     </g>
     <g id="text_4">
      <text style="fill: #262626; font: 12.1px 'Arial', 'DejaVu Sans', 'Liberation Sans', 'Bitstream Vera Sans', sans-serif; text-anchor: end" x="37.053094" y="237.844894" transform="rotate(-0 37.053094 237.844894)">94</text>
     </g>
    </g>
    <g id="ytick_2">
     <g id="line2d_6">
      <path d="M 46.553094 181.152475 
L 314.393094 181.152475 
" clip-path="url(#pf2b730f5d2)" style="fill: none; stroke: #cccccc; stroke-linecap: round"/>
     </g>
     <g id="line2d_7">
      <g>
       <use xlink:href="#m6c965d8a67" x="46.553094" y="181.152475" style="fill: #262626; stroke: #262626; stroke-width: 1.25"/>
      </g>
     </g>
     <g id="text_5">
      <text style="fill: #262626; font: 12.1px 'Arial', 'DejaVu Sans', 'Liberation Sans', 'Bitstream Vera Sans', sans-serif; text-anchor: end" x="37.053094" y="185.482952" transform="rotate(-0 37.053094 185.482952)">95</text>
     </g>
    </g>
    <g id="ytick_3">
     <g id="line2d_8">
      <path d="M 46.553094 128.790533 
L 314.393094 128.790533 
" clip-path="url(#pf2b730f5d2)" style="fill: none; stroke: #cccccc; stroke-linecap: round"/>
     </g>
     <g id="line2d_9">
      <g>
       <use xlink:href="#m6c965d8a67" x="46.553094" y="128.790533" style="fill: #262626; stroke: #262626; stroke-width: 1.25"/>
      </g>
     </g>
     <g id="text_6">
      <text style="fill: #262626; font: 12.1px 'Arial', 'DejaVu Sans', 'Liberation Sans', 'Bitstream Vera Sans', sans-serif; text-anchor: end" x="37.053094" y="133.12101" transform="rotate(-0 37.053094 133.12101)">96</text>
     </g>
    </g>
    <g id="ytick_4">
     <g id="line2d_10">
      <path d="M 46.553094 76.428591 
L 314.393094 76.428591 
" clip-path="url(#pf2b730f5d2)" style="fill: none; stroke: #cccccc; stroke-linecap: round"/>
     </g>
     <g id="line2d_11">
      <g>
       <use xlink:href="#m6c965d8a67" x="46.553094" y="76.428591" style="fill: #262626; stroke: #262626; stroke-width: 1.25"/>
      </g>
     </g>
     <g id="text_7">
      <text style="fill: #262626; font: 12.1px 'Arial', 'DejaVu Sans', 'Liberation Sans', 'Bitstream Vera Sans', sans-serif; text-anchor: end" x="37.053094" y="80.759068" transform="rotate(-0 37.053094 80.759068)">97</text>
     </g>
    </g>
    <g id="ytick_5">
     <g id="line2d_12">
      <path d="M 46.553094 24.066649 
L 314.393094 24.066649 
" clip-path="url(#pf2b730f5d2)" style="fill: none; stroke: #cccccc; stroke-linecap: round"/>
     </g>
     <g id="line2d_13">
      <g>
       <use xlink:href="#m6c965d8a67" x="46.553094" y="24.066649" style="fill: #262626; stroke: #262626; stroke-width: 1.25"/>
      </g>
     </g>
     <g id="text_8">
      <text style="fill: #262626; font: 12.1px 'Arial', 'DejaVu Sans', 'Liberation Sans', 'Bitstream Vera Sans', sans-serif; text-anchor: end" x="37.053094" y="28.397126" transform="rotate(-0 37.053094 28.397126)">98</text>
     </g>
    </g>
    <g id="text_9">
     <text style="fill: #262626; font: 13.2px 'Arial', 'DejaVu Sans', 'Liberation Sans', 'Bitstream Vera Sans', sans-serif; text-anchor: middle" x="16.817438" y="140.256" transform="rotate(-90 16.817438 140.256)">Bases ≥Q30 (%)</text>
    </g>
   </g>
   <g id="line2d_14">
    <path d="M 56.20044 75.910414 
L 126.185748 75.910414 
" clip-path="url(#pf2b730f5d2)" style="fill: none; stroke-dasharray: 1.25,0.75; stroke-dashoffset: 0; stroke: #0173b2"/>
   </g>
   <g id="line2d_15">
    <path d="M 55.79389 74.074098 
L 126.592298 74.074098 
" clip-path="url(#pf2b730f5d2)" style="fill: none; stroke-dasharray: 2.5,1; stroke-dashoffset: 0; stroke: #0173b2"/>
   </g>
   <g id="line2d_16">
    <path d="M 64.913215 70.025702 
L 117.472973 70.025702 
" clip-path="url(#pf2b730f5d2)" style="fill: none; stroke-dasharray: 1.25,0.75; stroke-dashoffset: 0; stroke: #0173b2"/>
   </g>
   <g id="line2d_17">
    <path d="M 151.911683 126.299237 
L 209.034505 126.299237 
" clip-path="url(#pf2b730f5d2)" style="fill: none; stroke-dasharray: 1.25,0.75; stroke-dashoffset: 0; stroke: #de8f05"/>
   </g>
   <g id="line2d_18">
    <path d="M 144.923753 120.170695 
L 216.022435 120.170695 
" clip-path="url(#pf2b730f5d2)" style="fill: none; stroke-dasharray: 2.5,1; stroke-dashoffset: 0; stroke: #de8f05"/>
   </g>
   <g id="line2d_19">
    <path d="M 144.795175 118.95898 
L 216.151013 118.95898 
" clip-path="url(#pf2b730f5d2)" style="fill: none; stroke-dasharray: 1.25,0.75; stroke-dashoffset: 0; stroke: #de8f05"/>
   </g>
   <g id="line2d_20">
    <path d="M 236.4859 229.704747 
L 303.020288 229.704747 
" clip-path="url(#pf2b730f5d2)" style="fill: none; stroke-dasharray: 1.25,0.75; stroke-dashoffset: 0; stroke: #029e73"/>
   </g>
   <g id="line2d_21">
    <path d="M 234.047325 223.678532 
L 305.458863 223.678532 
" clip-path="url(#pf2b730f5d2)" style="fill: none; stroke-dasharray: 2.5,1; stroke-dashoffset: 0; stroke: #029e73"/>
   </g>
   <g id="line2d_22">
    <path d="M 236.064433 217.792244 
L 303.441754 217.792244 
" clip-path="url(#pf2b730f5d2)" style="fill: none; stroke-dasharray: 1.25,0.75; stroke-dashoffset: 0; stroke: #029e73"/>
   </g>
   <g id="patch_3">
    <path d="M 46.553094 273.312 
L 46.553094 7.2 
" style="fill: none; stroke: #262626; stroke-width: 1.25; stroke-linejoin: miter; stroke-linecap: square"/>
   </g>
   <g id="patch_4">
    <path d="M 46.553094 273.312 
L 314.393094 273.312 
" style="fill: none; stroke: #262626; stroke-width: 1.25; stroke-linejoin: miter; stroke-linecap: square"/>
   </g>
   <g id="PathCollection_1">
    <defs>
     <path id="C0_0_03796b3b4d" d="M 0 5 
C 1.326016 5 2.597899 4.473168 3.535534 3.535534 
C 4.473168 2.597899 5 1.326016 5 -0 
C 5 -1.326016 4.473168 -2.597899 3.535534 -3.535534 
C 2.597899 -4.473168 1.326016 -5 0 -5 
C -1.326016 -5 -2.597899 -4.473168 -3.535534 -3.535534 
C -4.473168 -2.597899 -5 -1.326016 -5 0 
C -5 1.326016 -4.473168 2.597899 -3.535534 3.535534 
C -2.597899 4.473168 -1.326016 5 0 5 
z
"/>
    </defs>
    <g clip-path="url(#pf2b730f5d2)">
     <use xlink:href="#C0_0_03796b3b4d" x="80.751271" y="75.647609" style="fill: #0173b2"/>
    </g>
    <g clip-path="url(#pf2b730f5d2)">
     <use xlink:href="#C0_0_03796b3b4d" x="100.722949" y="72.500586" style="fill: #0173b2"/>
    </g>
    <g clip-path="url(#pf2b730f5d2)">
     <use xlink:href="#C0_0_03796b3b4d" x="91.193094" y="62.601048" style="fill: #0173b2"/>
    </g>
    <g clip-path="url(#pf2b730f5d2)">
     <use xlink:href="#C0_0_03796b3b4d" x="91.193094" y="76.698831" style="fill: #0173b2"/>
    </g>
   </g>
   <g id="PathCollection_2">
    <defs>
     <path id="C1_0_0e9f2972ba" d="M 0 5 
C 1.326016 5 2.597899 4.473168 3.535534 3.535534 
C 4.473168 2.597899 5 1.326016 5 -0 
C 5 -1.326016 4.473168 -2.597899 3.535534 -3.535534 
C 2.597899 -4.473168 1.326016 -5 0 -5 
C -1.326016 -5 -2.597899 -4.473168 -3.535534 -3.535534 
C -4.473168 -2.597899 -5 -1.326016 -5 0 
C -5 1.326016 -4.473168 2.597899 -3.535534 3.535534 
C -2.597899 4.473168 -1.326016 5 0 5 
z
"/>
    </defs>
    <g clip-path="url(#pf2b730f5d2)">
     <use xlink:href="#C1_0_0e9f2972ba" x="170.003446" y="119.790794" style="fill: #de8f05"/>
    </g>
    <g clip-path="url(#pf2b730f5d2)">
     <use xlink:href="#C1_0_0e9f2972ba" x="190.056089" y="116.463538" style="fill: #de8f05"/>
    </g>
    <g clip-path="url(#pf2b730f5d2)">
     <use xlink:href="#C1_0_0e9f2972ba" x="180.473094" y="120.550595" style="fill: #de8f05"/>
    </g>
    <g clip-path="url(#pf2b730f5d2)">
     <use xlink:href="#C1_0_0e9f2972ba" x="180.473094" y="143.545162" style="fill: #de8f05"/>
    </g>
   </g>
   <g id="PathCollection_3">
    <defs>
     <path id="C2_0_1035294e6e" d="M 0 5 
C 1.326016 5 2.597899 4.473168 3.535534 3.535534 
C 4.473168 2.597899 5 1.326016 5 -0 
C 5 -1.326016 4.473168 -2.597899 3.535534 -3.535534 
C 2.597899 -4.473168 1.326016 -5 0 -5 
C -1.326016 -5 -2.597899 -4.473168 -3.535534 -3.535534 
C -4.473168 -2.597899 -5 -1.326016 -5 0 
C -5 1.326016 -4.473168 2.597899 -3.535534 3.535534 
C -2.597899 4.473168 -1.326016 5 0 5 
z
"/>
    </defs>
    <g clip-path="url(#pf2b730f5d2)">
     <use xlink:href="#C2_0_1035294e6e" x="260.722846" y="221.12726" style="fill: #029e73"/>
    </g>
    <g clip-path="url(#pf2b730f5d2)">
     <use xlink:href="#C2_0_1035294e6e" x="269.753094" y="226.229803" style="fill: #029e73"/>
    </g>
    <g clip-path="url(#pf2b730f5d2)">
     <use xlink:href="#C2_0_1035294e6e" x="269.753094" y="207.787193" style="fill: #029e73"/>
    </g>
    <g clip-path="url(#pf2b730f5d2)">
     <use xlink:href="#C2_0_1035294e6e" x="269.753094" y="240.129579" style="fill: #029e73"/>
    </g>
   </g>
  </g>
 </g>
 <defs>
  <clipPath id="pf2b730f5d2">
   <rect x="46.553094" y="7.2" width="267.84" height="266.112"/>
  </clipPath>
 </defs>
</svg>
